M48
;DRILL file {kicad (2015-01-16 BZR 5376)-product} date 09.04.2015 11:54:51
;FORMAT={-:-/ absolute / metric / decimal}
FMAT,2
METRIC,TZ
T1C0.300
T2C0.700
T3C0.701
T4C0.813
%
G90
G05
M71
T1
X138.684Y-121.92
X144.018Y-120.904
X144.526Y-117.475
X145.034Y-113.284
X149.352Y-118.11
X152.654Y-119.38
X152.908Y-117.094
X156.972Y-118.11
X160.274Y-119.126
X160.401Y-117.094
X163.195Y-113.03
T2
X142.69Y-123.925
X143.916Y-123.596
X145.143Y-123.268
X151.79Y-122.225
X153.06Y-122.225
X154.33Y-122.225
X160.978Y-123.268
X162.204Y-123.596
X163.431Y-123.925
T3
X150.18Y-113.03
X151.68Y-113.03
X153.18Y-113.03
X154.68Y-113.03
X156.18Y-113.03
X157.684Y-113.03
T4
X142.24Y-112.776
X142.24Y-115.316
T0
M30
