G04 #@! TF.FileFunction,Copper,L2,Bot,Signal*
%FSLAX46Y46*%
G04 Gerber Fmt 4.6, Leading zero omitted, Abs format (unit mm)*
G04 Created by KiCad (PCBNEW (after 2015-mar-04 BZR unknown)-product) date 16.04.2015 13:23:57*
%MOMM*%
G01*
G04 APERTURE LIST*
%ADD10C,0.100000*%
%ADD11C,0.150000*%
%ADD12R,1.198880X1.699260*%
%ADD13O,1.198880X1.699260*%
%ADD14C,1.397000*%
%ADD15C,1.100000*%
%ADD16R,1.100000X1.100000*%
%ADD17C,0.600000*%
%ADD18C,0.300000*%
%ADD19C,0.200000*%
G04 APERTURE END LIST*
D10*
D11*
X138501333Y-124388571D02*
X138358476Y-124436190D01*
X138310857Y-124483810D01*
X138263238Y-124579048D01*
X138263238Y-124721905D01*
X138310857Y-124817143D01*
X138358476Y-124864762D01*
X138453714Y-124912381D01*
X138834667Y-124912381D01*
X138834667Y-123912381D01*
X138501333Y-123912381D01*
X138406095Y-123960000D01*
X138358476Y-124007619D01*
X138310857Y-124102857D01*
X138310857Y-124198095D01*
X138358476Y-124293333D01*
X138406095Y-124340952D01*
X138501333Y-124388571D01*
X138834667Y-124388571D01*
X137644191Y-123912381D02*
X137453714Y-123912381D01*
X137358476Y-123960000D01*
X137263238Y-124055238D01*
X137215619Y-124245714D01*
X137215619Y-124579048D01*
X137263238Y-124769524D01*
X137358476Y-124864762D01*
X137453714Y-124912381D01*
X137644191Y-124912381D01*
X137739429Y-124864762D01*
X137834667Y-124769524D01*
X137882286Y-124579048D01*
X137882286Y-124245714D01*
X137834667Y-124055238D01*
X137739429Y-123960000D01*
X137644191Y-123912381D01*
X136929905Y-123912381D02*
X136358476Y-123912381D01*
X136644191Y-124912381D02*
X136644191Y-123912381D01*
D12*
X157683800Y-113030000D03*
D13*
X154680000Y-113030000D03*
X156180000Y-113030000D03*
X153180000Y-113030000D03*
X151680000Y-113030000D03*
X150180000Y-113030000D03*
D14*
X142240000Y-112776000D03*
X142240000Y-115316000D03*
D10*
G36*
X161583656Y-123886460D02*
X160531721Y-123564851D01*
X160853330Y-122512916D01*
X161905265Y-122834525D01*
X161583656Y-123886460D01*
X161583656Y-123886460D01*
G37*
D15*
X162433000Y-123571000D03*
X163647507Y-123942312D03*
D16*
X151790400Y-122224800D03*
D15*
X153060400Y-122224800D03*
X154330400Y-122224800D03*
D10*
G36*
X143109265Y-124307475D02*
X142057330Y-124629084D01*
X141735721Y-123577149D01*
X142787656Y-123255540D01*
X143109265Y-124307475D01*
X143109265Y-124307475D01*
G37*
D15*
X143637000Y-123571000D03*
X144851507Y-123199688D03*
D17*
X163322000Y-113030000D03*
X160274000Y-119380000D03*
X149352000Y-118110000D03*
X138938000Y-121920000D03*
X144018000Y-120904000D03*
X145034000Y-113538000D03*
X144526000Y-117475000D03*
X152908000Y-117094000D03*
X160401000Y-117094000D03*
D18*
X153180000Y-114409000D02*
X153180000Y-113030000D01*
X152654000Y-114935000D02*
X153180000Y-114409000D01*
X147066000Y-114935000D02*
X152654000Y-114935000D01*
X144526000Y-117475000D02*
X147066000Y-114935000D01*
X154330400Y-118516400D02*
X154330400Y-122224800D01*
X152908000Y-117094000D02*
X154330400Y-118516400D01*
X160401000Y-117094000D02*
X163647507Y-120340507D01*
X163647507Y-123942312D02*
X163647507Y-120340507D01*
D19*
G36*
X170241750Y-123011878D02*
X170188917Y-123550701D01*
X170036694Y-124054890D01*
X169789440Y-124519909D01*
X169456570Y-124928047D01*
X169363079Y-125005389D01*
X169363079Y-117166598D01*
X169292610Y-116810704D01*
X169154356Y-116475275D01*
X168953584Y-116173088D01*
X168697940Y-115915654D01*
X168397162Y-115712776D01*
X168062707Y-115572184D01*
X167707313Y-115499233D01*
X167344518Y-115496700D01*
X166988141Y-115564682D01*
X166651755Y-115700591D01*
X166348174Y-115899249D01*
X166088961Y-116153089D01*
X165883989Y-116452444D01*
X165741065Y-116785909D01*
X165665634Y-117140785D01*
X165660569Y-117503553D01*
X165726062Y-117860396D01*
X165859619Y-118197723D01*
X166056152Y-118502683D01*
X166308177Y-118763662D01*
X166606093Y-118970719D01*
X166938553Y-119115967D01*
X167292893Y-119193874D01*
X167655617Y-119201472D01*
X168012909Y-119138472D01*
X168351159Y-119007273D01*
X168657485Y-118812873D01*
X168920217Y-118562677D01*
X169129348Y-118266214D01*
X169276914Y-117934776D01*
X169357293Y-117580988D01*
X169363079Y-117166598D01*
X169363079Y-125005389D01*
X169050768Y-125263756D01*
X168587485Y-125514252D01*
X168084374Y-125669992D01*
X167560586Y-125725044D01*
X167036091Y-125677312D01*
X166519361Y-125525230D01*
X166433878Y-125488849D01*
X166433834Y-125488835D01*
X166430719Y-125487526D01*
X164639998Y-124749444D01*
X164623680Y-124744517D01*
X164607828Y-124738275D01*
X164603791Y-124737156D01*
X164101544Y-124601710D01*
X164142419Y-124575771D01*
X164256033Y-124467578D01*
X164346469Y-124339378D01*
X164410281Y-124196053D01*
X164445039Y-124043064D01*
X164447541Y-123863868D01*
X164417068Y-123709968D01*
X164357283Y-123564917D01*
X164270462Y-123434242D01*
X164159914Y-123322919D01*
X164047507Y-123247099D01*
X164047507Y-120340507D01*
X164043900Y-120303722D01*
X164040681Y-120266927D01*
X164040094Y-120264907D01*
X164039889Y-120262813D01*
X164029206Y-120227430D01*
X164018901Y-120191960D01*
X164017932Y-120190092D01*
X164017325Y-120188079D01*
X163999986Y-120155469D01*
X163982975Y-120122651D01*
X163981661Y-120121006D01*
X163980675Y-120119150D01*
X163957323Y-120090517D01*
X163934271Y-120061641D01*
X163931382Y-120058711D01*
X163931335Y-120058653D01*
X163931281Y-120058608D01*
X163930350Y-120057664D01*
X160950496Y-117077810D01*
X160951023Y-117040070D01*
X160930073Y-116934263D01*
X160888971Y-116834541D01*
X160829282Y-116744702D01*
X160753279Y-116668167D01*
X160663859Y-116607853D01*
X160564426Y-116566055D01*
X160458769Y-116544367D01*
X160350911Y-116543614D01*
X160244961Y-116563825D01*
X160144954Y-116604230D01*
X160054701Y-116663290D01*
X159977637Y-116738756D01*
X159916699Y-116827754D01*
X159874209Y-116926892D01*
X159851783Y-117032395D01*
X159850277Y-117140245D01*
X159869748Y-117246334D01*
X159909454Y-117346620D01*
X159967883Y-117437284D01*
X160042809Y-117514873D01*
X160131379Y-117576430D01*
X160230218Y-117619612D01*
X160335563Y-117642773D01*
X160385125Y-117643811D01*
X163247507Y-120506193D01*
X163247507Y-123247960D01*
X163182667Y-123290389D01*
X163142776Y-123193605D01*
X163055955Y-123062930D01*
X162945407Y-122951607D01*
X162815341Y-122863876D01*
X162670711Y-122803079D01*
X162517027Y-122771533D01*
X162360143Y-122770437D01*
X162206034Y-122799835D01*
X162155063Y-122820428D01*
X162151754Y-122786053D01*
X162137562Y-122738897D01*
X162114443Y-122695416D01*
X162083284Y-122657281D01*
X162045285Y-122625956D01*
X162001905Y-122602648D01*
X161954811Y-122588250D01*
X161559975Y-122467536D01*
X161481932Y-122509032D01*
X161386302Y-122821824D01*
X161386302Y-122479795D01*
X161344806Y-122401752D01*
X160949970Y-122281039D01*
X160902876Y-122266641D01*
X160853878Y-122261707D01*
X160804859Y-122266427D01*
X160757702Y-122280619D01*
X160714221Y-122303738D01*
X160676086Y-122334896D01*
X160644761Y-122372896D01*
X160621453Y-122416276D01*
X160486341Y-122858206D01*
X160527837Y-122936249D01*
X161185296Y-123137254D01*
X161386302Y-122479795D01*
X161386302Y-122821824D01*
X161280927Y-123166491D01*
X161300053Y-123172338D01*
X161270815Y-123267969D01*
X161251690Y-123262122D01*
X161245842Y-123281248D01*
X161150211Y-123252010D01*
X161156059Y-123232885D01*
X160498600Y-123031879D01*
X160420557Y-123073375D01*
X160285446Y-123515305D01*
X160280512Y-123564303D01*
X160281199Y-123571442D01*
X158534450Y-123100380D01*
X158534450Y-113879630D01*
X158534450Y-112180370D01*
X158531152Y-112139802D01*
X158510101Y-112072480D01*
X158471164Y-112013664D01*
X158417410Y-111967991D01*
X158353078Y-111939063D01*
X158283240Y-111929160D01*
X157084360Y-111929160D01*
X157043792Y-111932458D01*
X156976470Y-111953509D01*
X156917654Y-111992446D01*
X156871981Y-112046200D01*
X156843053Y-112110532D01*
X156833150Y-112180370D01*
X156833150Y-112237755D01*
X156782738Y-112175945D01*
X156655001Y-112070271D01*
X156509171Y-111991422D01*
X156350804Y-111942399D01*
X156185930Y-111925070D01*
X156020831Y-111940095D01*
X155861794Y-111986902D01*
X155714878Y-112063708D01*
X155585678Y-112167587D01*
X155479116Y-112294583D01*
X155429894Y-112384117D01*
X155387517Y-112304416D01*
X155282738Y-112175945D01*
X155155001Y-112070271D01*
X155009171Y-111991422D01*
X154850804Y-111942399D01*
X154685930Y-111925070D01*
X154520831Y-111940095D01*
X154361794Y-111986902D01*
X154214878Y-112063708D01*
X154085678Y-112167587D01*
X153979116Y-112294583D01*
X153929894Y-112384117D01*
X153887517Y-112304416D01*
X153782738Y-112175945D01*
X153655001Y-112070271D01*
X153509171Y-111991422D01*
X153350804Y-111942399D01*
X153185930Y-111925070D01*
X153020831Y-111940095D01*
X152861794Y-111986902D01*
X152714878Y-112063708D01*
X152585678Y-112167587D01*
X152479116Y-112294583D01*
X152429894Y-112384117D01*
X152387517Y-112304416D01*
X152282738Y-112175945D01*
X152155001Y-112070271D01*
X152009171Y-111991422D01*
X151850804Y-111942399D01*
X151685930Y-111925070D01*
X151520831Y-111940095D01*
X151361794Y-111986902D01*
X151214878Y-112063708D01*
X151085678Y-112167587D01*
X150979116Y-112294583D01*
X150930264Y-112383443D01*
X150858505Y-112266313D01*
X150745289Y-112143810D01*
X150610350Y-112045748D01*
X150458873Y-111975896D01*
X150362036Y-111950105D01*
X150230000Y-111994460D01*
X150230000Y-112980000D01*
X150250000Y-112980000D01*
X150250000Y-113080000D01*
X150230000Y-113080000D01*
X150230000Y-114065540D01*
X150362036Y-114109895D01*
X150458873Y-114084104D01*
X150610350Y-114014252D01*
X150745289Y-113916190D01*
X150858505Y-113793687D01*
X150930371Y-113676382D01*
X150972483Y-113755584D01*
X151077262Y-113884055D01*
X151204999Y-113989729D01*
X151350829Y-114068578D01*
X151509196Y-114117601D01*
X151674070Y-114134930D01*
X151839169Y-114119905D01*
X151998206Y-114073098D01*
X152145122Y-113996292D01*
X152274322Y-113892413D01*
X152380884Y-113765417D01*
X152430105Y-113675882D01*
X152472483Y-113755584D01*
X152577262Y-113884055D01*
X152704999Y-113989729D01*
X152780000Y-114030281D01*
X152780000Y-114243314D01*
X152488314Y-114535000D01*
X150130000Y-114535000D01*
X150130000Y-114065540D01*
X150130000Y-113080000D01*
X150130000Y-112980000D01*
X150130000Y-111994460D01*
X149997964Y-111950105D01*
X149901127Y-111975896D01*
X149749650Y-112045748D01*
X149614711Y-112143810D01*
X149501495Y-112266313D01*
X149414354Y-112408549D01*
X149356636Y-112565053D01*
X149330560Y-112729810D01*
X149330560Y-112980000D01*
X150130000Y-112980000D01*
X150130000Y-113080000D01*
X149330560Y-113080000D01*
X149330560Y-113330190D01*
X149356636Y-113494947D01*
X149414354Y-113651451D01*
X149501495Y-113793687D01*
X149614711Y-113916190D01*
X149749650Y-114014252D01*
X149901127Y-114084104D01*
X149997964Y-114109895D01*
X150130000Y-114065540D01*
X150130000Y-114535000D01*
X147066000Y-114535000D01*
X147029171Y-114538611D01*
X146992420Y-114541826D01*
X146990400Y-114542412D01*
X146988306Y-114542618D01*
X146952923Y-114553300D01*
X146917453Y-114563606D01*
X146915585Y-114564574D01*
X146913572Y-114565182D01*
X146880962Y-114582520D01*
X146848144Y-114599532D01*
X146846499Y-114600845D01*
X146844643Y-114601832D01*
X146816010Y-114625183D01*
X146787134Y-114648236D01*
X146784208Y-114651120D01*
X146784146Y-114651172D01*
X146784098Y-114651229D01*
X146783157Y-114652158D01*
X144510458Y-116924855D01*
X144475911Y-116924614D01*
X144369961Y-116944825D01*
X144269954Y-116985230D01*
X144179701Y-117044290D01*
X144102637Y-117119756D01*
X144041699Y-117208754D01*
X143999209Y-117307892D01*
X143976783Y-117413395D01*
X143975277Y-117521245D01*
X143994748Y-117627334D01*
X144034454Y-117727620D01*
X144092883Y-117818284D01*
X144167809Y-117895873D01*
X144256379Y-117957430D01*
X144355218Y-118000612D01*
X144460563Y-118023773D01*
X144568400Y-118026032D01*
X144674621Y-118007302D01*
X144775182Y-117968297D01*
X144866252Y-117910503D01*
X144944362Y-117836120D01*
X145006536Y-117747982D01*
X145050407Y-117649447D01*
X145074303Y-117544267D01*
X145075037Y-117491648D01*
X147231685Y-115335000D01*
X152654000Y-115335000D01*
X152690784Y-115331393D01*
X152727580Y-115328174D01*
X152729599Y-115327587D01*
X152731694Y-115327382D01*
X152767076Y-115316699D01*
X152802547Y-115306394D01*
X152804414Y-115305425D01*
X152806428Y-115304818D01*
X152839057Y-115287468D01*
X152871855Y-115270468D01*
X152873497Y-115269156D01*
X152875357Y-115268168D01*
X152904011Y-115244798D01*
X152932866Y-115221764D01*
X152935795Y-115218875D01*
X152935854Y-115218828D01*
X152935898Y-115218774D01*
X152936843Y-115217843D01*
X153462842Y-114691843D01*
X153486297Y-114663287D01*
X153510045Y-114634987D01*
X153511057Y-114633144D01*
X153512394Y-114631518D01*
X153529839Y-114598982D01*
X153547654Y-114566577D01*
X153548291Y-114564566D01*
X153549283Y-114562718D01*
X153560064Y-114527454D01*
X153571259Y-114492165D01*
X153571493Y-114490072D01*
X153572108Y-114488063D01*
X153575836Y-114451352D01*
X153579961Y-114414585D01*
X153579989Y-114410467D01*
X153579997Y-114410396D01*
X153579990Y-114410329D01*
X153580000Y-114409000D01*
X153580000Y-114030337D01*
X153645122Y-113996292D01*
X153774322Y-113892413D01*
X153880884Y-113765417D01*
X153930105Y-113675882D01*
X153972483Y-113755584D01*
X154077262Y-113884055D01*
X154204999Y-113989729D01*
X154350829Y-114068578D01*
X154509196Y-114117601D01*
X154674070Y-114134930D01*
X154839169Y-114119905D01*
X154998206Y-114073098D01*
X155145122Y-113996292D01*
X155274322Y-113892413D01*
X155380884Y-113765417D01*
X155430105Y-113675882D01*
X155472483Y-113755584D01*
X155577262Y-113884055D01*
X155704999Y-113989729D01*
X155850829Y-114068578D01*
X156009196Y-114117601D01*
X156174070Y-114134930D01*
X156339169Y-114119905D01*
X156498206Y-114073098D01*
X156645122Y-113996292D01*
X156774322Y-113892413D01*
X156833150Y-113822304D01*
X156833150Y-113879630D01*
X156836448Y-113920198D01*
X156857499Y-113987520D01*
X156896436Y-114046336D01*
X156950190Y-114092009D01*
X157014522Y-114120937D01*
X157084360Y-114130840D01*
X158283240Y-114130840D01*
X158323808Y-114127542D01*
X158391130Y-114106491D01*
X158449946Y-114067554D01*
X158495619Y-114013800D01*
X158524547Y-113949468D01*
X158534450Y-113879630D01*
X158534450Y-123100380D01*
X158479687Y-123085612D01*
X158452894Y-123081131D01*
X158426117Y-123076269D01*
X158421940Y-123075956D01*
X154851794Y-122833040D01*
X154938926Y-122750066D01*
X155029362Y-122621866D01*
X155093174Y-122478541D01*
X155127932Y-122325552D01*
X155130434Y-122146356D01*
X155099961Y-121992456D01*
X155040176Y-121847405D01*
X154953355Y-121716730D01*
X154842807Y-121605407D01*
X154730400Y-121529587D01*
X154730400Y-118516400D01*
X154726793Y-118479615D01*
X154723574Y-118442820D01*
X154722987Y-118440800D01*
X154722782Y-118438706D01*
X154712099Y-118403323D01*
X154701794Y-118367853D01*
X154700825Y-118365985D01*
X154700218Y-118363972D01*
X154682879Y-118331362D01*
X154665868Y-118298544D01*
X154664554Y-118296899D01*
X154663568Y-118295043D01*
X154640216Y-118266410D01*
X154617164Y-118237534D01*
X154614279Y-118234608D01*
X154614228Y-118234546D01*
X154614170Y-118234498D01*
X154613242Y-118233557D01*
X153457496Y-117077810D01*
X153458023Y-117040070D01*
X153437073Y-116934263D01*
X153395971Y-116834541D01*
X153336282Y-116744702D01*
X153260279Y-116668167D01*
X153170859Y-116607853D01*
X153071426Y-116566055D01*
X152965769Y-116544367D01*
X152857911Y-116543614D01*
X152751961Y-116563825D01*
X152651954Y-116604230D01*
X152561701Y-116663290D01*
X152484637Y-116738756D01*
X152423699Y-116827754D01*
X152381209Y-116926892D01*
X152358783Y-117032395D01*
X152357277Y-117140245D01*
X152376748Y-117246334D01*
X152416454Y-117346620D01*
X152474883Y-117437284D01*
X152549809Y-117514873D01*
X152638379Y-117576430D01*
X152737218Y-117619612D01*
X152842563Y-117642773D01*
X152892125Y-117643811D01*
X153930400Y-118682085D01*
X153930400Y-121530448D01*
X153826691Y-121598313D01*
X153714599Y-121708082D01*
X153695825Y-121735499D01*
X153683355Y-121716730D01*
X153572807Y-121605407D01*
X153442741Y-121517676D01*
X153298111Y-121456879D01*
X153144427Y-121425333D01*
X152987543Y-121424237D01*
X152833434Y-121453635D01*
X152687970Y-121512407D01*
X152574491Y-121586664D01*
X152561947Y-121556380D01*
X152534588Y-121515434D01*
X152499766Y-121480612D01*
X152458819Y-121453253D01*
X152413322Y-121434407D01*
X152365023Y-121424800D01*
X152315777Y-121424800D01*
X151902900Y-121424800D01*
X151840400Y-121487300D01*
X151840400Y-122174800D01*
X151860400Y-122174800D01*
X151860400Y-122274800D01*
X151840400Y-122274800D01*
X151840400Y-122294800D01*
X151740400Y-122294800D01*
X151740400Y-122274800D01*
X151740400Y-122174800D01*
X151740400Y-121487300D01*
X151677900Y-121424800D01*
X151265023Y-121424800D01*
X151215777Y-121424800D01*
X151167478Y-121434407D01*
X151121981Y-121453253D01*
X151081034Y-121480612D01*
X151046212Y-121515434D01*
X151018853Y-121556380D01*
X151000007Y-121601878D01*
X150990400Y-121650177D01*
X150990400Y-122112300D01*
X151052900Y-122174800D01*
X151740400Y-122174800D01*
X151740400Y-122274800D01*
X151052900Y-122274800D01*
X150990400Y-122337300D01*
X150990400Y-122781097D01*
X145743789Y-123453907D01*
X145717299Y-123459977D01*
X145690700Y-123465683D01*
X145686729Y-123466982D01*
X145686719Y-123466985D01*
X145686710Y-123466988D01*
X145594501Y-123497855D01*
X145614281Y-123453429D01*
X145649039Y-123300440D01*
X145651541Y-123121244D01*
X145621068Y-122967344D01*
X145561283Y-122822293D01*
X145474462Y-122691618D01*
X145363914Y-122580295D01*
X145233848Y-122492564D01*
X145089218Y-122431767D01*
X144935534Y-122400221D01*
X144778650Y-122399125D01*
X144624541Y-122428523D01*
X144479077Y-122487295D01*
X144347798Y-122573201D01*
X144235706Y-122682970D01*
X144147069Y-122812420D01*
X144101316Y-122919169D01*
X144019341Y-122863876D01*
X143874711Y-122803079D01*
X143721027Y-122771533D01*
X143564143Y-122770437D01*
X143410034Y-122799835D01*
X143264570Y-122858607D01*
X143188540Y-122908359D01*
X143188540Y-115222995D01*
X143188540Y-112682995D01*
X143152411Y-112500527D01*
X143081528Y-112328552D01*
X142978591Y-112173620D01*
X142847522Y-112041632D01*
X142693312Y-111937617D01*
X142521836Y-111865535D01*
X142339625Y-111828132D01*
X142153619Y-111826834D01*
X141970903Y-111861688D01*
X141798438Y-111931369D01*
X141642791Y-112033222D01*
X141509891Y-112163366D01*
X141404802Y-112316846D01*
X141331524Y-112487815D01*
X141292851Y-112669760D01*
X141290254Y-112855752D01*
X141323832Y-113038707D01*
X141392307Y-113211655D01*
X141493070Y-113368009D01*
X141622284Y-113501814D01*
X141775026Y-113607972D01*
X141945479Y-113682442D01*
X142127150Y-113722385D01*
X142313120Y-113726280D01*
X142496305Y-113693980D01*
X142669726Y-113626714D01*
X142826780Y-113527044D01*
X142961484Y-113398768D01*
X143068706Y-113246771D01*
X143144363Y-113076842D01*
X143185574Y-112895454D01*
X143188540Y-112682995D01*
X143188540Y-115222995D01*
X143152411Y-115040527D01*
X143081528Y-114868552D01*
X142978591Y-114713620D01*
X142847522Y-114581632D01*
X142693312Y-114477617D01*
X142521836Y-114405535D01*
X142339625Y-114368132D01*
X142153619Y-114366834D01*
X141970903Y-114401688D01*
X141798438Y-114471369D01*
X141642791Y-114573222D01*
X141509891Y-114703366D01*
X141404802Y-114856846D01*
X141331524Y-115027815D01*
X141292851Y-115209760D01*
X141290254Y-115395752D01*
X141323832Y-115578707D01*
X141392307Y-115751655D01*
X141493070Y-115908009D01*
X141622284Y-116041814D01*
X141775026Y-116147972D01*
X141945479Y-116222442D01*
X142127150Y-116262385D01*
X142313120Y-116266280D01*
X142496305Y-116233980D01*
X142669726Y-116166714D01*
X142826780Y-116067044D01*
X142961484Y-115938768D01*
X143068706Y-115786771D01*
X143144363Y-115616842D01*
X143185574Y-115435454D01*
X143188540Y-115222995D01*
X143188540Y-122908359D01*
X143133291Y-122944513D01*
X143021199Y-123054282D01*
X142986962Y-123104283D01*
X142964900Y-123077520D01*
X142926765Y-123046362D01*
X142883284Y-123023243D01*
X142836127Y-123009051D01*
X142787108Y-123004331D01*
X142738110Y-123009265D01*
X142691016Y-123023663D01*
X142296180Y-123144376D01*
X142254684Y-123222419D01*
X142455690Y-123879878D01*
X142474815Y-123874030D01*
X142504053Y-123969661D01*
X142484927Y-123975509D01*
X142490774Y-123994634D01*
X142395143Y-124023872D01*
X142389296Y-124004746D01*
X142360059Y-124013684D01*
X142360059Y-123909115D01*
X142159054Y-123251656D01*
X142081011Y-123210160D01*
X141686175Y-123330874D01*
X141639081Y-123345272D01*
X141595701Y-123368580D01*
X141557702Y-123399905D01*
X141526543Y-123438040D01*
X141503424Y-123481521D01*
X141489232Y-123528677D01*
X141484512Y-123577697D01*
X141489446Y-123626695D01*
X141624557Y-124068625D01*
X141702600Y-124110121D01*
X142360059Y-123909115D01*
X142360059Y-124013684D01*
X141731837Y-124205751D01*
X141690341Y-124283794D01*
X141825453Y-124725724D01*
X141840839Y-124754361D01*
X140407079Y-125234300D01*
X140407079Y-117166598D01*
X140336610Y-116810704D01*
X140198356Y-116475275D01*
X139997584Y-116173088D01*
X139741940Y-115915654D01*
X139441162Y-115712776D01*
X139106707Y-115572184D01*
X138751313Y-115499233D01*
X138388518Y-115496700D01*
X138032141Y-115564682D01*
X137695755Y-115700591D01*
X137392174Y-115899249D01*
X137132961Y-116153089D01*
X136927989Y-116452444D01*
X136785065Y-116785909D01*
X136709634Y-117140785D01*
X136704569Y-117503553D01*
X136770062Y-117860396D01*
X136903619Y-118197723D01*
X137100152Y-118502683D01*
X137352177Y-118763662D01*
X137650093Y-118970719D01*
X137982553Y-119115967D01*
X138336893Y-119193874D01*
X138699617Y-119201472D01*
X139056909Y-119138472D01*
X139395159Y-119007273D01*
X139701485Y-118812873D01*
X139964217Y-118562677D01*
X140173348Y-118266214D01*
X140320914Y-117934776D01*
X140401293Y-117580988D01*
X140407079Y-117166598D01*
X140407079Y-125234300D01*
X139671873Y-125480405D01*
X139671870Y-125480406D01*
X139144546Y-125656922D01*
X138622163Y-125723912D01*
X138096710Y-125688159D01*
X137588207Y-125551027D01*
X137454566Y-125485000D01*
X139397762Y-125485000D01*
X139397762Y-123285000D01*
X135938238Y-123285000D01*
X135938238Y-123713647D01*
X135915648Y-123647698D01*
X135843407Y-123113916D01*
X135841750Y-123023806D01*
X135841750Y-110768000D01*
X170241750Y-110768000D01*
X170241750Y-123011878D01*
X170241750Y-123011878D01*
G37*
X170241750Y-123011878D02*
X170188917Y-123550701D01*
X170036694Y-124054890D01*
X169789440Y-124519909D01*
X169456570Y-124928047D01*
X169363079Y-125005389D01*
X169363079Y-117166598D01*
X169292610Y-116810704D01*
X169154356Y-116475275D01*
X168953584Y-116173088D01*
X168697940Y-115915654D01*
X168397162Y-115712776D01*
X168062707Y-115572184D01*
X167707313Y-115499233D01*
X167344518Y-115496700D01*
X166988141Y-115564682D01*
X166651755Y-115700591D01*
X166348174Y-115899249D01*
X166088961Y-116153089D01*
X165883989Y-116452444D01*
X165741065Y-116785909D01*
X165665634Y-117140785D01*
X165660569Y-117503553D01*
X165726062Y-117860396D01*
X165859619Y-118197723D01*
X166056152Y-118502683D01*
X166308177Y-118763662D01*
X166606093Y-118970719D01*
X166938553Y-119115967D01*
X167292893Y-119193874D01*
X167655617Y-119201472D01*
X168012909Y-119138472D01*
X168351159Y-119007273D01*
X168657485Y-118812873D01*
X168920217Y-118562677D01*
X169129348Y-118266214D01*
X169276914Y-117934776D01*
X169357293Y-117580988D01*
X169363079Y-117166598D01*
X169363079Y-125005389D01*
X169050768Y-125263756D01*
X168587485Y-125514252D01*
X168084374Y-125669992D01*
X167560586Y-125725044D01*
X167036091Y-125677312D01*
X166519361Y-125525230D01*
X166433878Y-125488849D01*
X166433834Y-125488835D01*
X166430719Y-125487526D01*
X164639998Y-124749444D01*
X164623680Y-124744517D01*
X164607828Y-124738275D01*
X164603791Y-124737156D01*
X164101544Y-124601710D01*
X164142419Y-124575771D01*
X164256033Y-124467578D01*
X164346469Y-124339378D01*
X164410281Y-124196053D01*
X164445039Y-124043064D01*
X164447541Y-123863868D01*
X164417068Y-123709968D01*
X164357283Y-123564917D01*
X164270462Y-123434242D01*
X164159914Y-123322919D01*
X164047507Y-123247099D01*
X164047507Y-120340507D01*
X164043900Y-120303722D01*
X164040681Y-120266927D01*
X164040094Y-120264907D01*
X164039889Y-120262813D01*
X164029206Y-120227430D01*
X164018901Y-120191960D01*
X164017932Y-120190092D01*
X164017325Y-120188079D01*
X163999986Y-120155469D01*
X163982975Y-120122651D01*
X163981661Y-120121006D01*
X163980675Y-120119150D01*
X163957323Y-120090517D01*
X163934271Y-120061641D01*
X163931382Y-120058711D01*
X163931335Y-120058653D01*
X163931281Y-120058608D01*
X163930350Y-120057664D01*
X160950496Y-117077810D01*
X160951023Y-117040070D01*
X160930073Y-116934263D01*
X160888971Y-116834541D01*
X160829282Y-116744702D01*
X160753279Y-116668167D01*
X160663859Y-116607853D01*
X160564426Y-116566055D01*
X160458769Y-116544367D01*
X160350911Y-116543614D01*
X160244961Y-116563825D01*
X160144954Y-116604230D01*
X160054701Y-116663290D01*
X159977637Y-116738756D01*
X159916699Y-116827754D01*
X159874209Y-116926892D01*
X159851783Y-117032395D01*
X159850277Y-117140245D01*
X159869748Y-117246334D01*
X159909454Y-117346620D01*
X159967883Y-117437284D01*
X160042809Y-117514873D01*
X160131379Y-117576430D01*
X160230218Y-117619612D01*
X160335563Y-117642773D01*
X160385125Y-117643811D01*
X163247507Y-120506193D01*
X163247507Y-123247960D01*
X163182667Y-123290389D01*
X163142776Y-123193605D01*
X163055955Y-123062930D01*
X162945407Y-122951607D01*
X162815341Y-122863876D01*
X162670711Y-122803079D01*
X162517027Y-122771533D01*
X162360143Y-122770437D01*
X162206034Y-122799835D01*
X162155063Y-122820428D01*
X162151754Y-122786053D01*
X162137562Y-122738897D01*
X162114443Y-122695416D01*
X162083284Y-122657281D01*
X162045285Y-122625956D01*
X162001905Y-122602648D01*
X161954811Y-122588250D01*
X161559975Y-122467536D01*
X161481932Y-122509032D01*
X161386302Y-122821824D01*
X161386302Y-122479795D01*
X161344806Y-122401752D01*
X160949970Y-122281039D01*
X160902876Y-122266641D01*
X160853878Y-122261707D01*
X160804859Y-122266427D01*
X160757702Y-122280619D01*
X160714221Y-122303738D01*
X160676086Y-122334896D01*
X160644761Y-122372896D01*
X160621453Y-122416276D01*
X160486341Y-122858206D01*
X160527837Y-122936249D01*
X161185296Y-123137254D01*
X161386302Y-122479795D01*
X161386302Y-122821824D01*
X161280927Y-123166491D01*
X161300053Y-123172338D01*
X161270815Y-123267969D01*
X161251690Y-123262122D01*
X161245842Y-123281248D01*
X161150211Y-123252010D01*
X161156059Y-123232885D01*
X160498600Y-123031879D01*
X160420557Y-123073375D01*
X160285446Y-123515305D01*
X160280512Y-123564303D01*
X160281199Y-123571442D01*
X158534450Y-123100380D01*
X158534450Y-113879630D01*
X158534450Y-112180370D01*
X158531152Y-112139802D01*
X158510101Y-112072480D01*
X158471164Y-112013664D01*
X158417410Y-111967991D01*
X158353078Y-111939063D01*
X158283240Y-111929160D01*
X157084360Y-111929160D01*
X157043792Y-111932458D01*
X156976470Y-111953509D01*
X156917654Y-111992446D01*
X156871981Y-112046200D01*
X156843053Y-112110532D01*
X156833150Y-112180370D01*
X156833150Y-112237755D01*
X156782738Y-112175945D01*
X156655001Y-112070271D01*
X156509171Y-111991422D01*
X156350804Y-111942399D01*
X156185930Y-111925070D01*
X156020831Y-111940095D01*
X155861794Y-111986902D01*
X155714878Y-112063708D01*
X155585678Y-112167587D01*
X155479116Y-112294583D01*
X155429894Y-112384117D01*
X155387517Y-112304416D01*
X155282738Y-112175945D01*
X155155001Y-112070271D01*
X155009171Y-111991422D01*
X154850804Y-111942399D01*
X154685930Y-111925070D01*
X154520831Y-111940095D01*
X154361794Y-111986902D01*
X154214878Y-112063708D01*
X154085678Y-112167587D01*
X153979116Y-112294583D01*
X153929894Y-112384117D01*
X153887517Y-112304416D01*
X153782738Y-112175945D01*
X153655001Y-112070271D01*
X153509171Y-111991422D01*
X153350804Y-111942399D01*
X153185930Y-111925070D01*
X153020831Y-111940095D01*
X152861794Y-111986902D01*
X152714878Y-112063708D01*
X152585678Y-112167587D01*
X152479116Y-112294583D01*
X152429894Y-112384117D01*
X152387517Y-112304416D01*
X152282738Y-112175945D01*
X152155001Y-112070271D01*
X152009171Y-111991422D01*
X151850804Y-111942399D01*
X151685930Y-111925070D01*
X151520831Y-111940095D01*
X151361794Y-111986902D01*
X151214878Y-112063708D01*
X151085678Y-112167587D01*
X150979116Y-112294583D01*
X150930264Y-112383443D01*
X150858505Y-112266313D01*
X150745289Y-112143810D01*
X150610350Y-112045748D01*
X150458873Y-111975896D01*
X150362036Y-111950105D01*
X150230000Y-111994460D01*
X150230000Y-112980000D01*
X150250000Y-112980000D01*
X150250000Y-113080000D01*
X150230000Y-113080000D01*
X150230000Y-114065540D01*
X150362036Y-114109895D01*
X150458873Y-114084104D01*
X150610350Y-114014252D01*
X150745289Y-113916190D01*
X150858505Y-113793687D01*
X150930371Y-113676382D01*
X150972483Y-113755584D01*
X151077262Y-113884055D01*
X151204999Y-113989729D01*
X151350829Y-114068578D01*
X151509196Y-114117601D01*
X151674070Y-114134930D01*
X151839169Y-114119905D01*
X151998206Y-114073098D01*
X152145122Y-113996292D01*
X152274322Y-113892413D01*
X152380884Y-113765417D01*
X152430105Y-113675882D01*
X152472483Y-113755584D01*
X152577262Y-113884055D01*
X152704999Y-113989729D01*
X152780000Y-114030281D01*
X152780000Y-114243314D01*
X152488314Y-114535000D01*
X150130000Y-114535000D01*
X150130000Y-114065540D01*
X150130000Y-113080000D01*
X150130000Y-112980000D01*
X150130000Y-111994460D01*
X149997964Y-111950105D01*
X149901127Y-111975896D01*
X149749650Y-112045748D01*
X149614711Y-112143810D01*
X149501495Y-112266313D01*
X149414354Y-112408549D01*
X149356636Y-112565053D01*
X149330560Y-112729810D01*
X149330560Y-112980000D01*
X150130000Y-112980000D01*
X150130000Y-113080000D01*
X149330560Y-113080000D01*
X149330560Y-113330190D01*
X149356636Y-113494947D01*
X149414354Y-113651451D01*
X149501495Y-113793687D01*
X149614711Y-113916190D01*
X149749650Y-114014252D01*
X149901127Y-114084104D01*
X149997964Y-114109895D01*
X150130000Y-114065540D01*
X150130000Y-114535000D01*
X147066000Y-114535000D01*
X147029171Y-114538611D01*
X146992420Y-114541826D01*
X146990400Y-114542412D01*
X146988306Y-114542618D01*
X146952923Y-114553300D01*
X146917453Y-114563606D01*
X146915585Y-114564574D01*
X146913572Y-114565182D01*
X146880962Y-114582520D01*
X146848144Y-114599532D01*
X146846499Y-114600845D01*
X146844643Y-114601832D01*
X146816010Y-114625183D01*
X146787134Y-114648236D01*
X146784208Y-114651120D01*
X146784146Y-114651172D01*
X146784098Y-114651229D01*
X146783157Y-114652158D01*
X144510458Y-116924855D01*
X144475911Y-116924614D01*
X144369961Y-116944825D01*
X144269954Y-116985230D01*
X144179701Y-117044290D01*
X144102637Y-117119756D01*
X144041699Y-117208754D01*
X143999209Y-117307892D01*
X143976783Y-117413395D01*
X143975277Y-117521245D01*
X143994748Y-117627334D01*
X144034454Y-117727620D01*
X144092883Y-117818284D01*
X144167809Y-117895873D01*
X144256379Y-117957430D01*
X144355218Y-118000612D01*
X144460563Y-118023773D01*
X144568400Y-118026032D01*
X144674621Y-118007302D01*
X144775182Y-117968297D01*
X144866252Y-117910503D01*
X144944362Y-117836120D01*
X145006536Y-117747982D01*
X145050407Y-117649447D01*
X145074303Y-117544267D01*
X145075037Y-117491648D01*
X147231685Y-115335000D01*
X152654000Y-115335000D01*
X152690784Y-115331393D01*
X152727580Y-115328174D01*
X152729599Y-115327587D01*
X152731694Y-115327382D01*
X152767076Y-115316699D01*
X152802547Y-115306394D01*
X152804414Y-115305425D01*
X152806428Y-115304818D01*
X152839057Y-115287468D01*
X152871855Y-115270468D01*
X152873497Y-115269156D01*
X152875357Y-115268168D01*
X152904011Y-115244798D01*
X152932866Y-115221764D01*
X152935795Y-115218875D01*
X152935854Y-115218828D01*
X152935898Y-115218774D01*
X152936843Y-115217843D01*
X153462842Y-114691843D01*
X153486297Y-114663287D01*
X153510045Y-114634987D01*
X153511057Y-114633144D01*
X153512394Y-114631518D01*
X153529839Y-114598982D01*
X153547654Y-114566577D01*
X153548291Y-114564566D01*
X153549283Y-114562718D01*
X153560064Y-114527454D01*
X153571259Y-114492165D01*
X153571493Y-114490072D01*
X153572108Y-114488063D01*
X153575836Y-114451352D01*
X153579961Y-114414585D01*
X153579989Y-114410467D01*
X153579997Y-114410396D01*
X153579990Y-114410329D01*
X153580000Y-114409000D01*
X153580000Y-114030337D01*
X153645122Y-113996292D01*
X153774322Y-113892413D01*
X153880884Y-113765417D01*
X153930105Y-113675882D01*
X153972483Y-113755584D01*
X154077262Y-113884055D01*
X154204999Y-113989729D01*
X154350829Y-114068578D01*
X154509196Y-114117601D01*
X154674070Y-114134930D01*
X154839169Y-114119905D01*
X154998206Y-114073098D01*
X155145122Y-113996292D01*
X155274322Y-113892413D01*
X155380884Y-113765417D01*
X155430105Y-113675882D01*
X155472483Y-113755584D01*
X155577262Y-113884055D01*
X155704999Y-113989729D01*
X155850829Y-114068578D01*
X156009196Y-114117601D01*
X156174070Y-114134930D01*
X156339169Y-114119905D01*
X156498206Y-114073098D01*
X156645122Y-113996292D01*
X156774322Y-113892413D01*
X156833150Y-113822304D01*
X156833150Y-113879630D01*
X156836448Y-113920198D01*
X156857499Y-113987520D01*
X156896436Y-114046336D01*
X156950190Y-114092009D01*
X157014522Y-114120937D01*
X157084360Y-114130840D01*
X158283240Y-114130840D01*
X158323808Y-114127542D01*
X158391130Y-114106491D01*
X158449946Y-114067554D01*
X158495619Y-114013800D01*
X158524547Y-113949468D01*
X158534450Y-113879630D01*
X158534450Y-123100380D01*
X158479687Y-123085612D01*
X158452894Y-123081131D01*
X158426117Y-123076269D01*
X158421940Y-123075956D01*
X154851794Y-122833040D01*
X154938926Y-122750066D01*
X155029362Y-122621866D01*
X155093174Y-122478541D01*
X155127932Y-122325552D01*
X155130434Y-122146356D01*
X155099961Y-121992456D01*
X155040176Y-121847405D01*
X154953355Y-121716730D01*
X154842807Y-121605407D01*
X154730400Y-121529587D01*
X154730400Y-118516400D01*
X154726793Y-118479615D01*
X154723574Y-118442820D01*
X154722987Y-118440800D01*
X154722782Y-118438706D01*
X154712099Y-118403323D01*
X154701794Y-118367853D01*
X154700825Y-118365985D01*
X154700218Y-118363972D01*
X154682879Y-118331362D01*
X154665868Y-118298544D01*
X154664554Y-118296899D01*
X154663568Y-118295043D01*
X154640216Y-118266410D01*
X154617164Y-118237534D01*
X154614279Y-118234608D01*
X154614228Y-118234546D01*
X154614170Y-118234498D01*
X154613242Y-118233557D01*
X153457496Y-117077810D01*
X153458023Y-117040070D01*
X153437073Y-116934263D01*
X153395971Y-116834541D01*
X153336282Y-116744702D01*
X153260279Y-116668167D01*
X153170859Y-116607853D01*
X153071426Y-116566055D01*
X152965769Y-116544367D01*
X152857911Y-116543614D01*
X152751961Y-116563825D01*
X152651954Y-116604230D01*
X152561701Y-116663290D01*
X152484637Y-116738756D01*
X152423699Y-116827754D01*
X152381209Y-116926892D01*
X152358783Y-117032395D01*
X152357277Y-117140245D01*
X152376748Y-117246334D01*
X152416454Y-117346620D01*
X152474883Y-117437284D01*
X152549809Y-117514873D01*
X152638379Y-117576430D01*
X152737218Y-117619612D01*
X152842563Y-117642773D01*
X152892125Y-117643811D01*
X153930400Y-118682085D01*
X153930400Y-121530448D01*
X153826691Y-121598313D01*
X153714599Y-121708082D01*
X153695825Y-121735499D01*
X153683355Y-121716730D01*
X153572807Y-121605407D01*
X153442741Y-121517676D01*
X153298111Y-121456879D01*
X153144427Y-121425333D01*
X152987543Y-121424237D01*
X152833434Y-121453635D01*
X152687970Y-121512407D01*
X152574491Y-121586664D01*
X152561947Y-121556380D01*
X152534588Y-121515434D01*
X152499766Y-121480612D01*
X152458819Y-121453253D01*
X152413322Y-121434407D01*
X152365023Y-121424800D01*
X152315777Y-121424800D01*
X151902900Y-121424800D01*
X151840400Y-121487300D01*
X151840400Y-122174800D01*
X151860400Y-122174800D01*
X151860400Y-122274800D01*
X151840400Y-122274800D01*
X151840400Y-122294800D01*
X151740400Y-122294800D01*
X151740400Y-122274800D01*
X151740400Y-122174800D01*
X151740400Y-121487300D01*
X151677900Y-121424800D01*
X151265023Y-121424800D01*
X151215777Y-121424800D01*
X151167478Y-121434407D01*
X151121981Y-121453253D01*
X151081034Y-121480612D01*
X151046212Y-121515434D01*
X151018853Y-121556380D01*
X151000007Y-121601878D01*
X150990400Y-121650177D01*
X150990400Y-122112300D01*
X151052900Y-122174800D01*
X151740400Y-122174800D01*
X151740400Y-122274800D01*
X151052900Y-122274800D01*
X150990400Y-122337300D01*
X150990400Y-122781097D01*
X145743789Y-123453907D01*
X145717299Y-123459977D01*
X145690700Y-123465683D01*
X145686729Y-123466982D01*
X145686719Y-123466985D01*
X145686710Y-123466988D01*
X145594501Y-123497855D01*
X145614281Y-123453429D01*
X145649039Y-123300440D01*
X145651541Y-123121244D01*
X145621068Y-122967344D01*
X145561283Y-122822293D01*
X145474462Y-122691618D01*
X145363914Y-122580295D01*
X145233848Y-122492564D01*
X145089218Y-122431767D01*
X144935534Y-122400221D01*
X144778650Y-122399125D01*
X144624541Y-122428523D01*
X144479077Y-122487295D01*
X144347798Y-122573201D01*
X144235706Y-122682970D01*
X144147069Y-122812420D01*
X144101316Y-122919169D01*
X144019341Y-122863876D01*
X143874711Y-122803079D01*
X143721027Y-122771533D01*
X143564143Y-122770437D01*
X143410034Y-122799835D01*
X143264570Y-122858607D01*
X143188540Y-122908359D01*
X143188540Y-115222995D01*
X143188540Y-112682995D01*
X143152411Y-112500527D01*
X143081528Y-112328552D01*
X142978591Y-112173620D01*
X142847522Y-112041632D01*
X142693312Y-111937617D01*
X142521836Y-111865535D01*
X142339625Y-111828132D01*
X142153619Y-111826834D01*
X141970903Y-111861688D01*
X141798438Y-111931369D01*
X141642791Y-112033222D01*
X141509891Y-112163366D01*
X141404802Y-112316846D01*
X141331524Y-112487815D01*
X141292851Y-112669760D01*
X141290254Y-112855752D01*
X141323832Y-113038707D01*
X141392307Y-113211655D01*
X141493070Y-113368009D01*
X141622284Y-113501814D01*
X141775026Y-113607972D01*
X141945479Y-113682442D01*
X142127150Y-113722385D01*
X142313120Y-113726280D01*
X142496305Y-113693980D01*
X142669726Y-113626714D01*
X142826780Y-113527044D01*
X142961484Y-113398768D01*
X143068706Y-113246771D01*
X143144363Y-113076842D01*
X143185574Y-112895454D01*
X143188540Y-112682995D01*
X143188540Y-115222995D01*
X143152411Y-115040527D01*
X143081528Y-114868552D01*
X142978591Y-114713620D01*
X142847522Y-114581632D01*
X142693312Y-114477617D01*
X142521836Y-114405535D01*
X142339625Y-114368132D01*
X142153619Y-114366834D01*
X141970903Y-114401688D01*
X141798438Y-114471369D01*
X141642791Y-114573222D01*
X141509891Y-114703366D01*
X141404802Y-114856846D01*
X141331524Y-115027815D01*
X141292851Y-115209760D01*
X141290254Y-115395752D01*
X141323832Y-115578707D01*
X141392307Y-115751655D01*
X141493070Y-115908009D01*
X141622284Y-116041814D01*
X141775026Y-116147972D01*
X141945479Y-116222442D01*
X142127150Y-116262385D01*
X142313120Y-116266280D01*
X142496305Y-116233980D01*
X142669726Y-116166714D01*
X142826780Y-116067044D01*
X142961484Y-115938768D01*
X143068706Y-115786771D01*
X143144363Y-115616842D01*
X143185574Y-115435454D01*
X143188540Y-115222995D01*
X143188540Y-122908359D01*
X143133291Y-122944513D01*
X143021199Y-123054282D01*
X142986962Y-123104283D01*
X142964900Y-123077520D01*
X142926765Y-123046362D01*
X142883284Y-123023243D01*
X142836127Y-123009051D01*
X142787108Y-123004331D01*
X142738110Y-123009265D01*
X142691016Y-123023663D01*
X142296180Y-123144376D01*
X142254684Y-123222419D01*
X142455690Y-123879878D01*
X142474815Y-123874030D01*
X142504053Y-123969661D01*
X142484927Y-123975509D01*
X142490774Y-123994634D01*
X142395143Y-124023872D01*
X142389296Y-124004746D01*
X142360059Y-124013684D01*
X142360059Y-123909115D01*
X142159054Y-123251656D01*
X142081011Y-123210160D01*
X141686175Y-123330874D01*
X141639081Y-123345272D01*
X141595701Y-123368580D01*
X141557702Y-123399905D01*
X141526543Y-123438040D01*
X141503424Y-123481521D01*
X141489232Y-123528677D01*
X141484512Y-123577697D01*
X141489446Y-123626695D01*
X141624557Y-124068625D01*
X141702600Y-124110121D01*
X142360059Y-123909115D01*
X142360059Y-124013684D01*
X141731837Y-124205751D01*
X141690341Y-124283794D01*
X141825453Y-124725724D01*
X141840839Y-124754361D01*
X140407079Y-125234300D01*
X140407079Y-117166598D01*
X140336610Y-116810704D01*
X140198356Y-116475275D01*
X139997584Y-116173088D01*
X139741940Y-115915654D01*
X139441162Y-115712776D01*
X139106707Y-115572184D01*
X138751313Y-115499233D01*
X138388518Y-115496700D01*
X138032141Y-115564682D01*
X137695755Y-115700591D01*
X137392174Y-115899249D01*
X137132961Y-116153089D01*
X136927989Y-116452444D01*
X136785065Y-116785909D01*
X136709634Y-117140785D01*
X136704569Y-117503553D01*
X136770062Y-117860396D01*
X136903619Y-118197723D01*
X137100152Y-118502683D01*
X137352177Y-118763662D01*
X137650093Y-118970719D01*
X137982553Y-119115967D01*
X138336893Y-119193874D01*
X138699617Y-119201472D01*
X139056909Y-119138472D01*
X139395159Y-119007273D01*
X139701485Y-118812873D01*
X139964217Y-118562677D01*
X140173348Y-118266214D01*
X140320914Y-117934776D01*
X140401293Y-117580988D01*
X140407079Y-117166598D01*
X140407079Y-125234300D01*
X139671873Y-125480405D01*
X139671870Y-125480406D01*
X139144546Y-125656922D01*
X138622163Y-125723912D01*
X138096710Y-125688159D01*
X137588207Y-125551027D01*
X137454566Y-125485000D01*
X139397762Y-125485000D01*
X139397762Y-123285000D01*
X135938238Y-123285000D01*
X135938238Y-123713647D01*
X135915648Y-123647698D01*
X135843407Y-123113916D01*
X135841750Y-123023806D01*
X135841750Y-110768000D01*
X170241750Y-110768000D01*
X170241750Y-123011878D01*
M02*
