G04 #@! TF.FileFunction,Copper,L2,Bot,Signal*
%FSLAX46Y46*%
G04 Gerber Fmt 4.6, Leading zero omitted, Abs format (unit mm)*
G04 Created by KiCad (PCBNEW (2015-01-16 BZR 5376)-product) date 26.03.2015 18:54:21*
%MOMM*%
G01*
G04 APERTURE LIST*
%ADD10C,0.100000*%
%ADD11C,0.150000*%
%ADD12R,1.198880X1.699260*%
%ADD13O,1.198880X1.699260*%
%ADD14C,0.899160*%
%ADD15R,0.899160X0.899160*%
%ADD16C,1.397000*%
%ADD17C,0.600000*%
%ADD18C,0.300000*%
G04 APERTURE END LIST*
D10*
D11*
X138501333Y-124388571D02*
X138358476Y-124436190D01*
X138310857Y-124483810D01*
X138263238Y-124579048D01*
X138263238Y-124721905D01*
X138310857Y-124817143D01*
X138358476Y-124864762D01*
X138453714Y-124912381D01*
X138834667Y-124912381D01*
X138834667Y-123912381D01*
X138501333Y-123912381D01*
X138406095Y-123960000D01*
X138358476Y-124007619D01*
X138310857Y-124102857D01*
X138310857Y-124198095D01*
X138358476Y-124293333D01*
X138406095Y-124340952D01*
X138501333Y-124388571D01*
X138834667Y-124388571D01*
X137644191Y-123912381D02*
X137453714Y-123912381D01*
X137358476Y-123960000D01*
X137263238Y-124055238D01*
X137215619Y-124245714D01*
X137215619Y-124579048D01*
X137263238Y-124769524D01*
X137358476Y-124864762D01*
X137453714Y-124912381D01*
X137644191Y-124912381D01*
X137739429Y-124864762D01*
X137834667Y-124769524D01*
X137882286Y-124579048D01*
X137882286Y-124245714D01*
X137834667Y-124055238D01*
X137739429Y-123960000D01*
X137644191Y-123912381D01*
X136929905Y-123912381D02*
X136358476Y-123912381D01*
X136644191Y-124912381D02*
X136644191Y-123912381D01*
D12*
X157683800Y-113030000D03*
D13*
X154680000Y-113030000D03*
X156180000Y-113030000D03*
X153180000Y-113030000D03*
X151680000Y-113030000D03*
X150180000Y-113030000D03*
D10*
G36*
X143240295Y-124243001D02*
X142371773Y-124475721D01*
X142139053Y-123607199D01*
X143007575Y-123374479D01*
X143240295Y-124243001D01*
X143240295Y-124243001D01*
G37*
D14*
X143916400Y-123596400D03*
X145143126Y-123267700D03*
D15*
X151790400Y-122224800D03*
D14*
X153060400Y-122224800D03*
X154330400Y-122224800D03*
D10*
G36*
X161295575Y-123818321D02*
X160427053Y-123585601D01*
X160659773Y-122717079D01*
X161528295Y-122949799D01*
X161295575Y-123818321D01*
X161295575Y-123818321D01*
G37*
D14*
X162204400Y-123596400D03*
X163431126Y-123925100D03*
D16*
X142240000Y-112776000D03*
X142240000Y-115316000D03*
D17*
X145034000Y-113284000D03*
X138684000Y-121920000D03*
X152654000Y-119380000D03*
X156972000Y-118110000D03*
X160274000Y-119126000D03*
X144018000Y-120904000D03*
X149352000Y-118110000D03*
X163195000Y-113030000D03*
X144526000Y-117475000D03*
X152908000Y-117094000D03*
X160401000Y-117094000D03*
D18*
X153180000Y-114409000D02*
X153180000Y-113030000D01*
X152654000Y-114935000D02*
X153180000Y-114409000D01*
X147066000Y-114935000D02*
X152654000Y-114935000D01*
X144526000Y-117475000D02*
X147066000Y-114935000D01*
X154330400Y-118516400D02*
X154330400Y-122224800D01*
X152908000Y-117094000D02*
X154330400Y-118516400D01*
X163431126Y-120124126D02*
X163431126Y-123925100D01*
X160401000Y-117094000D02*
X163431126Y-120124126D01*
D11*
G36*
X170266750Y-123013094D02*
X170213557Y-123555584D01*
X170059918Y-124064461D01*
X169810360Y-124533814D01*
X169474394Y-124945748D01*
X169237944Y-125141356D01*
X169237944Y-117178868D01*
X169172241Y-116847045D01*
X169043339Y-116534304D01*
X168856146Y-116252557D01*
X168617793Y-116012534D01*
X168337359Y-115823379D01*
X168025526Y-115692296D01*
X167694170Y-115624279D01*
X167355914Y-115621917D01*
X167023641Y-115685302D01*
X166710008Y-115812018D01*
X166426960Y-115997239D01*
X166185280Y-116233910D01*
X165994171Y-116513017D01*
X165860915Y-116823928D01*
X165790586Y-117154800D01*
X165785863Y-117493032D01*
X165846926Y-117825739D01*
X165971449Y-118140249D01*
X166154690Y-118424583D01*
X166389668Y-118667910D01*
X166667434Y-118860963D01*
X166977407Y-118996386D01*
X167307780Y-119069024D01*
X167645971Y-119076108D01*
X167979096Y-119017369D01*
X168294468Y-118895044D01*
X168580074Y-118713793D01*
X168825036Y-118480519D01*
X169020023Y-118204108D01*
X169157607Y-117895088D01*
X169232549Y-117565230D01*
X169237944Y-117178868D01*
X169237944Y-125141356D01*
X169064810Y-125284585D01*
X168597220Y-125537409D01*
X168089422Y-125694600D01*
X167560761Y-125750163D01*
X167031382Y-125701986D01*
X166510910Y-125548803D01*
X166424088Y-125511853D01*
X166424047Y-125511840D01*
X166421192Y-125510640D01*
X164630471Y-124772558D01*
X164615514Y-124768042D01*
X164600982Y-124762320D01*
X164597281Y-124761294D01*
X163737754Y-124529497D01*
X163848448Y-124459248D01*
X163944251Y-124368017D01*
X164020508Y-124259916D01*
X164074316Y-124139061D01*
X164103625Y-124010056D01*
X164105735Y-123858954D01*
X164080039Y-123729182D01*
X164029627Y-123606872D01*
X163956417Y-123496683D01*
X163863200Y-123402812D01*
X163806126Y-123364314D01*
X163806126Y-120124126D01*
X163802746Y-120089656D01*
X163799727Y-120055144D01*
X163799176Y-120053248D01*
X163798984Y-120051288D01*
X163788974Y-120018134D01*
X163779308Y-119984863D01*
X163778401Y-119983113D01*
X163777831Y-119981225D01*
X163761566Y-119950635D01*
X163745627Y-119919886D01*
X163744396Y-119918344D01*
X163743471Y-119916604D01*
X163721569Y-119889750D01*
X163699967Y-119862689D01*
X163697262Y-119859946D01*
X163697215Y-119859888D01*
X163697161Y-119859843D01*
X163696291Y-119858961D01*
X160925386Y-117088056D01*
X160926022Y-117042521D01*
X160906024Y-116941524D01*
X160866790Y-116846335D01*
X160809814Y-116760579D01*
X160737267Y-116687523D01*
X160651911Y-116629950D01*
X160556998Y-116590052D01*
X160456143Y-116569350D01*
X160353188Y-116568631D01*
X160252054Y-116587924D01*
X160156593Y-116626492D01*
X160070441Y-116682868D01*
X159996881Y-116754904D01*
X159938713Y-116839856D01*
X159898154Y-116934488D01*
X159876748Y-117035196D01*
X159875310Y-117138143D01*
X159893896Y-117239410D01*
X159931797Y-117335137D01*
X159987570Y-117421680D01*
X160059091Y-117495742D01*
X160143635Y-117554501D01*
X160237981Y-117595720D01*
X160338537Y-117617829D01*
X160395696Y-117619026D01*
X163056126Y-120279456D01*
X163056126Y-123364281D01*
X163006386Y-123396830D01*
X162911867Y-123489390D01*
X162878907Y-123537526D01*
X162879009Y-123530254D01*
X162853313Y-123400482D01*
X162802901Y-123278172D01*
X162729691Y-123167983D01*
X162636474Y-123074112D01*
X162526799Y-123000135D01*
X162404844Y-122948870D01*
X162275254Y-122922269D01*
X162142965Y-122921346D01*
X162013017Y-122946135D01*
X161890358Y-122995692D01*
X161779660Y-123068130D01*
X161711690Y-123134691D01*
X161751364Y-122986627D01*
X161754262Y-122942401D01*
X161748477Y-122898459D01*
X161734231Y-122856490D01*
X161712070Y-122818107D01*
X161682847Y-122784784D01*
X161647685Y-122757803D01*
X161607934Y-122738201D01*
X161565123Y-122726730D01*
X161279046Y-122650076D01*
X161210154Y-122689851D01*
X161069530Y-123214667D01*
X161088848Y-123219843D01*
X161065265Y-123307857D01*
X161065265Y-122651028D01*
X161025490Y-122582136D01*
X160739413Y-122505482D01*
X160696602Y-122494010D01*
X160652376Y-122491111D01*
X160608434Y-122496896D01*
X160566465Y-122511143D01*
X160528081Y-122533303D01*
X160494759Y-122562526D01*
X160467779Y-122597688D01*
X160448175Y-122637439D01*
X160360050Y-122966328D01*
X160399825Y-123035220D01*
X160924641Y-123175844D01*
X161065265Y-122651028D01*
X161065265Y-123307857D01*
X161050025Y-123364731D01*
X161030707Y-123359556D01*
X161025530Y-123378874D01*
X160880641Y-123340051D01*
X160885818Y-123320733D01*
X160361002Y-123180109D01*
X160292110Y-123219884D01*
X160203984Y-123548773D01*
X160202197Y-123576030D01*
X158509329Y-123119499D01*
X158509329Y-113879630D01*
X158509329Y-112180370D01*
X158506361Y-112143859D01*
X158487415Y-112083269D01*
X158452371Y-112030334D01*
X158403993Y-111989229D01*
X158346094Y-111963194D01*
X158283240Y-111954281D01*
X157084360Y-111954281D01*
X157047849Y-111957249D01*
X156987259Y-111976195D01*
X156934324Y-112011239D01*
X156893219Y-112059617D01*
X156867184Y-112117516D01*
X156858271Y-112180370D01*
X156858271Y-112308044D01*
X156764998Y-112193681D01*
X156641021Y-112091118D01*
X156499483Y-112014589D01*
X156345777Y-111967009D01*
X156185756Y-111950190D01*
X156025515Y-111964773D01*
X155871159Y-112010203D01*
X155728567Y-112084748D01*
X155603170Y-112185570D01*
X155499743Y-112308829D01*
X155429529Y-112436547D01*
X155366694Y-112318372D01*
X155264998Y-112193681D01*
X155141021Y-112091118D01*
X154999483Y-112014589D01*
X154845777Y-111967009D01*
X154685756Y-111950190D01*
X154525515Y-111964773D01*
X154371159Y-112010203D01*
X154228567Y-112084748D01*
X154103170Y-112185570D01*
X153999743Y-112308829D01*
X153929529Y-112436547D01*
X153866694Y-112318372D01*
X153764998Y-112193681D01*
X153641021Y-112091118D01*
X153499483Y-112014589D01*
X153345777Y-111967009D01*
X153185756Y-111950190D01*
X153025515Y-111964773D01*
X152871159Y-112010203D01*
X152728567Y-112084748D01*
X152603170Y-112185570D01*
X152499743Y-112308829D01*
X152429529Y-112436547D01*
X152366694Y-112318372D01*
X152264998Y-112193681D01*
X152141021Y-112091118D01*
X151999483Y-112014589D01*
X151845777Y-111967009D01*
X151685756Y-111950190D01*
X151525515Y-111964773D01*
X151371159Y-112010203D01*
X151228567Y-112084748D01*
X151103170Y-112185570D01*
X150999743Y-112308829D01*
X150929697Y-112436241D01*
X150912982Y-112395020D01*
X150823829Y-112259416D01*
X150709934Y-112143810D01*
X150575674Y-112052646D01*
X150426209Y-111989426D01*
X150382513Y-111980629D01*
X150255000Y-112015290D01*
X150255000Y-112955000D01*
X150275000Y-112955000D01*
X150275000Y-113105000D01*
X150255000Y-113105000D01*
X150255000Y-114044710D01*
X150382513Y-114079371D01*
X150426209Y-114070574D01*
X150575674Y-114007354D01*
X150709934Y-113916190D01*
X150823829Y-113800584D01*
X150912982Y-113664980D01*
X150930102Y-113622759D01*
X150993306Y-113741628D01*
X151095002Y-113866319D01*
X151218979Y-113968882D01*
X151360517Y-114045411D01*
X151514223Y-114092991D01*
X151674244Y-114109810D01*
X151834485Y-114095227D01*
X151988841Y-114049797D01*
X152131433Y-113975252D01*
X152256830Y-113874430D01*
X152360257Y-113751171D01*
X152430470Y-113623452D01*
X152493306Y-113741628D01*
X152595002Y-113866319D01*
X152718979Y-113968882D01*
X152805000Y-114015393D01*
X152805000Y-114253670D01*
X152498670Y-114560000D01*
X150105000Y-114560000D01*
X150105000Y-114044710D01*
X150105000Y-113105000D01*
X150105000Y-112955000D01*
X150105000Y-112015290D01*
X149977487Y-111980629D01*
X149933791Y-111989426D01*
X149784326Y-112052646D01*
X149650066Y-112143810D01*
X149536171Y-112259416D01*
X149447018Y-112395020D01*
X149386033Y-112545411D01*
X149355560Y-112704810D01*
X149355560Y-112955000D01*
X150105000Y-112955000D01*
X150105000Y-113105000D01*
X149355560Y-113105000D01*
X149355560Y-113355190D01*
X149386033Y-113514589D01*
X149447018Y-113664980D01*
X149536171Y-113800584D01*
X149650066Y-113916190D01*
X149784326Y-114007354D01*
X149933791Y-114070574D01*
X149977487Y-114079371D01*
X150105000Y-114044710D01*
X150105000Y-114560000D01*
X147066000Y-114560000D01*
X147031530Y-114563379D01*
X146997018Y-114566399D01*
X146995122Y-114566949D01*
X146993162Y-114567142D01*
X146960021Y-114577147D01*
X146926736Y-114586818D01*
X146924985Y-114587725D01*
X146923099Y-114588295D01*
X146892528Y-114604550D01*
X146861760Y-114620499D01*
X146860218Y-114621729D01*
X146858478Y-114622655D01*
X146831624Y-114644556D01*
X146804563Y-114666159D01*
X146801820Y-114668863D01*
X146801762Y-114668911D01*
X146801717Y-114668964D01*
X146800835Y-114669835D01*
X144520741Y-116949928D01*
X144478188Y-116949631D01*
X144377054Y-116968924D01*
X144281593Y-117007492D01*
X144195441Y-117063868D01*
X144121881Y-117135904D01*
X144063713Y-117220856D01*
X144023154Y-117315488D01*
X144001748Y-117416196D01*
X144000310Y-117519143D01*
X144018896Y-117620410D01*
X144056797Y-117716137D01*
X144112570Y-117802680D01*
X144184091Y-117876742D01*
X144268635Y-117935501D01*
X144362981Y-117976720D01*
X144463537Y-117998829D01*
X144566472Y-118000985D01*
X144667866Y-117983107D01*
X144763856Y-117945875D01*
X144850786Y-117890707D01*
X144925345Y-117819706D01*
X144984693Y-117735574D01*
X145026570Y-117641517D01*
X145049380Y-117541118D01*
X145050217Y-117481112D01*
X147221330Y-115310000D01*
X152654000Y-115310000D01*
X152688473Y-115306619D01*
X152722982Y-115303601D01*
X152724877Y-115303050D01*
X152726838Y-115302858D01*
X152759991Y-115292848D01*
X152793263Y-115283182D01*
X152795012Y-115282275D01*
X152796901Y-115281705D01*
X152827510Y-115265429D01*
X152858239Y-115249501D01*
X152859778Y-115248272D01*
X152861522Y-115247345D01*
X152888422Y-115225406D01*
X152915436Y-115203841D01*
X152918178Y-115201137D01*
X152918238Y-115201089D01*
X152918283Y-115201033D01*
X152919165Y-115200165D01*
X153445165Y-114674165D01*
X153467129Y-114647425D01*
X153489418Y-114620863D01*
X153490369Y-114619132D01*
X153491619Y-114617611D01*
X153507957Y-114587138D01*
X153524676Y-114556728D01*
X153525273Y-114554844D01*
X153526203Y-114553111D01*
X153536311Y-114520047D01*
X153546805Y-114486967D01*
X153547025Y-114485004D01*
X153547601Y-114483121D01*
X153551103Y-114448647D01*
X153554963Y-114414236D01*
X153554990Y-114410385D01*
X153554998Y-114410309D01*
X153554991Y-114410237D01*
X153555000Y-114409000D01*
X153555000Y-114015210D01*
X153631433Y-113975252D01*
X153756830Y-113874430D01*
X153860257Y-113751171D01*
X153930470Y-113623452D01*
X153993306Y-113741628D01*
X154095002Y-113866319D01*
X154218979Y-113968882D01*
X154360517Y-114045411D01*
X154514223Y-114092991D01*
X154674244Y-114109810D01*
X154834485Y-114095227D01*
X154988841Y-114049797D01*
X155131433Y-113975252D01*
X155256830Y-113874430D01*
X155360257Y-113751171D01*
X155430470Y-113623452D01*
X155493306Y-113741628D01*
X155595002Y-113866319D01*
X155718979Y-113968882D01*
X155860517Y-114045411D01*
X156014223Y-114092991D01*
X156174244Y-114109810D01*
X156334485Y-114095227D01*
X156488841Y-114049797D01*
X156631433Y-113975252D01*
X156756830Y-113874430D01*
X156858271Y-113753537D01*
X156858271Y-113879630D01*
X156861239Y-113916141D01*
X156880185Y-113976731D01*
X156915229Y-114029666D01*
X156963607Y-114070771D01*
X157021506Y-114096806D01*
X157084360Y-114105719D01*
X158283240Y-114105719D01*
X158319751Y-114102751D01*
X158380341Y-114083805D01*
X158433276Y-114048761D01*
X158474381Y-114000383D01*
X158500416Y-113942484D01*
X158509329Y-113879630D01*
X158509329Y-123119499D01*
X158473178Y-123109750D01*
X158448602Y-123105640D01*
X158424072Y-123101186D01*
X158420243Y-123100898D01*
X158420242Y-123100898D01*
X154606233Y-122841389D01*
X154636025Y-122829834D01*
X154747722Y-122758948D01*
X154843525Y-122667717D01*
X154919782Y-122559616D01*
X154973590Y-122438761D01*
X155002899Y-122309756D01*
X155005009Y-122158654D01*
X154979313Y-122028882D01*
X154928901Y-121906572D01*
X154855691Y-121796383D01*
X154762474Y-121702512D01*
X154705400Y-121664014D01*
X154705400Y-118516400D01*
X154702020Y-118481930D01*
X154699001Y-118447418D01*
X154698450Y-118445522D01*
X154698258Y-118443562D01*
X154688252Y-118410421D01*
X154678582Y-118377136D01*
X154677674Y-118375385D01*
X154677105Y-118373499D01*
X154660849Y-118342928D01*
X154644901Y-118312160D01*
X154643670Y-118310618D01*
X154642745Y-118308878D01*
X154620843Y-118282024D01*
X154599241Y-118254963D01*
X154596536Y-118252220D01*
X154596489Y-118252162D01*
X154596435Y-118252117D01*
X154595565Y-118251235D01*
X153432386Y-117088056D01*
X153433022Y-117042521D01*
X153413024Y-116941524D01*
X153373790Y-116846335D01*
X153316814Y-116760579D01*
X153244267Y-116687523D01*
X153158911Y-116629950D01*
X153063998Y-116590052D01*
X152963143Y-116569350D01*
X152860188Y-116568631D01*
X152759054Y-116587924D01*
X152663593Y-116626492D01*
X152577441Y-116682868D01*
X152503881Y-116754904D01*
X152445713Y-116839856D01*
X152405154Y-116934488D01*
X152383748Y-117035196D01*
X152382310Y-117138143D01*
X152400896Y-117239410D01*
X152438797Y-117335137D01*
X152494570Y-117421680D01*
X152566091Y-117495742D01*
X152650635Y-117554501D01*
X152744981Y-117595720D01*
X152845537Y-117617829D01*
X152902696Y-117619026D01*
X153955400Y-118671730D01*
X153955400Y-121663981D01*
X153905660Y-121696530D01*
X153811141Y-121789090D01*
X153736401Y-121898246D01*
X153695143Y-121994504D01*
X153658901Y-121906572D01*
X153585691Y-121796383D01*
X153492474Y-121702512D01*
X153382799Y-121628535D01*
X153260844Y-121577270D01*
X153131254Y-121550669D01*
X152998965Y-121549746D01*
X152869017Y-121574535D01*
X152746358Y-121624092D01*
X152635660Y-121696530D01*
X152541141Y-121789090D01*
X152466401Y-121898246D01*
X152464980Y-121901561D01*
X152464980Y-121753059D01*
X152456333Y-121709589D01*
X152439372Y-121668642D01*
X152414749Y-121631790D01*
X152383409Y-121600451D01*
X152346557Y-121575827D01*
X152305610Y-121558866D01*
X152262140Y-121550220D01*
X152217819Y-121550220D01*
X151921650Y-121550220D01*
X151865400Y-121606470D01*
X151865400Y-122149800D01*
X151885400Y-122149800D01*
X151885400Y-122299800D01*
X151865400Y-122299800D01*
X151865400Y-122319800D01*
X151715400Y-122319800D01*
X151715400Y-122299800D01*
X151715400Y-122149800D01*
X151715400Y-121606470D01*
X151659150Y-121550220D01*
X151362981Y-121550220D01*
X151318660Y-121550220D01*
X151275190Y-121558866D01*
X151234243Y-121575827D01*
X151197391Y-121600451D01*
X151166051Y-121631790D01*
X151141428Y-121668642D01*
X151124467Y-121709589D01*
X151115820Y-121753059D01*
X151115820Y-122093550D01*
X151172070Y-122149800D01*
X151715400Y-122149800D01*
X151715400Y-122299800D01*
X151172070Y-122299800D01*
X151115820Y-122356050D01*
X151115820Y-122696541D01*
X151124467Y-122740011D01*
X151141428Y-122780958D01*
X151145106Y-122786463D01*
X145788188Y-123473418D01*
X145815625Y-123352656D01*
X145817735Y-123201554D01*
X145792039Y-123071782D01*
X145741627Y-122949472D01*
X145668417Y-122839283D01*
X145575200Y-122745412D01*
X145465525Y-122671435D01*
X145343570Y-122620170D01*
X145213980Y-122593569D01*
X145081691Y-122592646D01*
X144951743Y-122617435D01*
X144829084Y-122666992D01*
X144718386Y-122739430D01*
X144623867Y-122831990D01*
X144549127Y-122941146D01*
X144497011Y-123062740D01*
X144469506Y-123192141D01*
X144469263Y-123209483D01*
X144441691Y-123167983D01*
X144348474Y-123074112D01*
X144238799Y-123000135D01*
X144116844Y-122948870D01*
X143987254Y-122922269D01*
X143854965Y-122921346D01*
X143725017Y-122946135D01*
X143602358Y-122995692D01*
X143491660Y-123068130D01*
X143397141Y-123160690D01*
X143322401Y-123269846D01*
X143270285Y-123391440D01*
X143259125Y-123443943D01*
X143219173Y-123294839D01*
X143199569Y-123255088D01*
X143172589Y-123219926D01*
X143163539Y-123211989D01*
X143163539Y-115225446D01*
X143163539Y-112685446D01*
X143128362Y-112507788D01*
X143059347Y-112340345D01*
X142959124Y-112189497D01*
X142831509Y-112060988D01*
X142681364Y-111959714D01*
X142514408Y-111889532D01*
X142336999Y-111853116D01*
X142155896Y-111851851D01*
X141977996Y-111885787D01*
X141810076Y-111953631D01*
X141658532Y-112052799D01*
X141529135Y-112179514D01*
X141426815Y-112328948D01*
X141355470Y-112495410D01*
X141317815Y-112672560D01*
X141315287Y-112853650D01*
X141347980Y-113031783D01*
X141414650Y-113200172D01*
X141512758Y-113352405D01*
X141638565Y-113482683D01*
X141787282Y-113586044D01*
X141953242Y-113658550D01*
X142130125Y-113697440D01*
X142311193Y-113701233D01*
X142489549Y-113669784D01*
X142658400Y-113604291D01*
X142811314Y-113507249D01*
X142942467Y-113382353D01*
X143046863Y-113234362D01*
X143120527Y-113068912D01*
X143160651Y-112892305D01*
X143163539Y-112685446D01*
X143163539Y-115225446D01*
X143128362Y-115047788D01*
X143059347Y-114880345D01*
X142959124Y-114729497D01*
X142831509Y-114600988D01*
X142681364Y-114499714D01*
X142514408Y-114429532D01*
X142336999Y-114393116D01*
X142155896Y-114391851D01*
X141977996Y-114425787D01*
X141810076Y-114493631D01*
X141658532Y-114592799D01*
X141529135Y-114719514D01*
X141426815Y-114868948D01*
X141355470Y-115035410D01*
X141317815Y-115212560D01*
X141315287Y-115393650D01*
X141347980Y-115571783D01*
X141414650Y-115740172D01*
X141512758Y-115892405D01*
X141638565Y-116022683D01*
X141787282Y-116126044D01*
X141953242Y-116198550D01*
X142130125Y-116237440D01*
X142311193Y-116241233D01*
X142489549Y-116209784D01*
X142658400Y-116144291D01*
X142811314Y-116047249D01*
X142942467Y-115922353D01*
X143046863Y-115774362D01*
X143120527Y-115608912D01*
X143160651Y-115432305D01*
X143163539Y-115225446D01*
X143163539Y-123211989D01*
X143139267Y-123190703D01*
X143100883Y-123168543D01*
X143058914Y-123154296D01*
X143014972Y-123148511D01*
X142970746Y-123151410D01*
X142927935Y-123162882D01*
X142641858Y-123239536D01*
X142602083Y-123308428D01*
X142742707Y-123833244D01*
X142762025Y-123828067D01*
X142800848Y-123972956D01*
X142781530Y-123978133D01*
X142786706Y-123997451D01*
X142641817Y-124036274D01*
X142636641Y-124016956D01*
X142597818Y-124027358D01*
X142597818Y-123872067D01*
X142457194Y-123347251D01*
X142388302Y-123307476D01*
X142102225Y-123384130D01*
X142059414Y-123395601D01*
X142019663Y-123415203D01*
X141984501Y-123442184D01*
X141955278Y-123475507D01*
X141933117Y-123513890D01*
X141918871Y-123555859D01*
X141913086Y-123599801D01*
X141915984Y-123644027D01*
X142004110Y-123972916D01*
X142073002Y-124012691D01*
X142597818Y-123872067D01*
X142597818Y-124027358D01*
X142111825Y-124157580D01*
X142072050Y-124226472D01*
X142160175Y-124555361D01*
X142179779Y-124595112D01*
X142206759Y-124630274D01*
X142229835Y-124650512D01*
X140281944Y-125302552D01*
X140281944Y-117178868D01*
X140216241Y-116847045D01*
X140087339Y-116534304D01*
X139900146Y-116252557D01*
X139661793Y-116012534D01*
X139381359Y-115823379D01*
X139069526Y-115692296D01*
X138738170Y-115624279D01*
X138399914Y-115621917D01*
X138067641Y-115685302D01*
X137754008Y-115812018D01*
X137470960Y-115997239D01*
X137229280Y-116233910D01*
X137038171Y-116513017D01*
X136904915Y-116823928D01*
X136834586Y-117154800D01*
X136829863Y-117493032D01*
X136890926Y-117825739D01*
X137015449Y-118140249D01*
X137198690Y-118424583D01*
X137433668Y-118667910D01*
X137711434Y-118860963D01*
X138021407Y-118996386D01*
X138351780Y-119069024D01*
X138689971Y-119076108D01*
X139023096Y-119017369D01*
X139338468Y-118895044D01*
X139624074Y-118713793D01*
X139869036Y-118480519D01*
X140064023Y-118204108D01*
X140201607Y-117895088D01*
X140276549Y-117565230D01*
X140281944Y-117178868D01*
X140281944Y-125302552D01*
X139679809Y-125504112D01*
X139150157Y-125681408D01*
X138622913Y-125749020D01*
X138092563Y-125712935D01*
X137579334Y-125574528D01*
X137347527Y-125460000D01*
X139372762Y-125460000D01*
X139372762Y-123310000D01*
X135963238Y-123310000D01*
X135963238Y-123863784D01*
X135891203Y-123653480D01*
X135818439Y-123115834D01*
X135816750Y-123023993D01*
X135816750Y-110743000D01*
X170266750Y-110743000D01*
X170266750Y-123013094D01*
X170266750Y-123013094D01*
G37*
X170266750Y-123013094D02*
X170213557Y-123555584D01*
X170059918Y-124064461D01*
X169810360Y-124533814D01*
X169474394Y-124945748D01*
X169237944Y-125141356D01*
X169237944Y-117178868D01*
X169172241Y-116847045D01*
X169043339Y-116534304D01*
X168856146Y-116252557D01*
X168617793Y-116012534D01*
X168337359Y-115823379D01*
X168025526Y-115692296D01*
X167694170Y-115624279D01*
X167355914Y-115621917D01*
X167023641Y-115685302D01*
X166710008Y-115812018D01*
X166426960Y-115997239D01*
X166185280Y-116233910D01*
X165994171Y-116513017D01*
X165860915Y-116823928D01*
X165790586Y-117154800D01*
X165785863Y-117493032D01*
X165846926Y-117825739D01*
X165971449Y-118140249D01*
X166154690Y-118424583D01*
X166389668Y-118667910D01*
X166667434Y-118860963D01*
X166977407Y-118996386D01*
X167307780Y-119069024D01*
X167645971Y-119076108D01*
X167979096Y-119017369D01*
X168294468Y-118895044D01*
X168580074Y-118713793D01*
X168825036Y-118480519D01*
X169020023Y-118204108D01*
X169157607Y-117895088D01*
X169232549Y-117565230D01*
X169237944Y-117178868D01*
X169237944Y-125141356D01*
X169064810Y-125284585D01*
X168597220Y-125537409D01*
X168089422Y-125694600D01*
X167560761Y-125750163D01*
X167031382Y-125701986D01*
X166510910Y-125548803D01*
X166424088Y-125511853D01*
X166424047Y-125511840D01*
X166421192Y-125510640D01*
X164630471Y-124772558D01*
X164615514Y-124768042D01*
X164600982Y-124762320D01*
X164597281Y-124761294D01*
X163737754Y-124529497D01*
X163848448Y-124459248D01*
X163944251Y-124368017D01*
X164020508Y-124259916D01*
X164074316Y-124139061D01*
X164103625Y-124010056D01*
X164105735Y-123858954D01*
X164080039Y-123729182D01*
X164029627Y-123606872D01*
X163956417Y-123496683D01*
X163863200Y-123402812D01*
X163806126Y-123364314D01*
X163806126Y-120124126D01*
X163802746Y-120089656D01*
X163799727Y-120055144D01*
X163799176Y-120053248D01*
X163798984Y-120051288D01*
X163788974Y-120018134D01*
X163779308Y-119984863D01*
X163778401Y-119983113D01*
X163777831Y-119981225D01*
X163761566Y-119950635D01*
X163745627Y-119919886D01*
X163744396Y-119918344D01*
X163743471Y-119916604D01*
X163721569Y-119889750D01*
X163699967Y-119862689D01*
X163697262Y-119859946D01*
X163697215Y-119859888D01*
X163697161Y-119859843D01*
X163696291Y-119858961D01*
X160925386Y-117088056D01*
X160926022Y-117042521D01*
X160906024Y-116941524D01*
X160866790Y-116846335D01*
X160809814Y-116760579D01*
X160737267Y-116687523D01*
X160651911Y-116629950D01*
X160556998Y-116590052D01*
X160456143Y-116569350D01*
X160353188Y-116568631D01*
X160252054Y-116587924D01*
X160156593Y-116626492D01*
X160070441Y-116682868D01*
X159996881Y-116754904D01*
X159938713Y-116839856D01*
X159898154Y-116934488D01*
X159876748Y-117035196D01*
X159875310Y-117138143D01*
X159893896Y-117239410D01*
X159931797Y-117335137D01*
X159987570Y-117421680D01*
X160059091Y-117495742D01*
X160143635Y-117554501D01*
X160237981Y-117595720D01*
X160338537Y-117617829D01*
X160395696Y-117619026D01*
X163056126Y-120279456D01*
X163056126Y-123364281D01*
X163006386Y-123396830D01*
X162911867Y-123489390D01*
X162878907Y-123537526D01*
X162879009Y-123530254D01*
X162853313Y-123400482D01*
X162802901Y-123278172D01*
X162729691Y-123167983D01*
X162636474Y-123074112D01*
X162526799Y-123000135D01*
X162404844Y-122948870D01*
X162275254Y-122922269D01*
X162142965Y-122921346D01*
X162013017Y-122946135D01*
X161890358Y-122995692D01*
X161779660Y-123068130D01*
X161711690Y-123134691D01*
X161751364Y-122986627D01*
X161754262Y-122942401D01*
X161748477Y-122898459D01*
X161734231Y-122856490D01*
X161712070Y-122818107D01*
X161682847Y-122784784D01*
X161647685Y-122757803D01*
X161607934Y-122738201D01*
X161565123Y-122726730D01*
X161279046Y-122650076D01*
X161210154Y-122689851D01*
X161069530Y-123214667D01*
X161088848Y-123219843D01*
X161065265Y-123307857D01*
X161065265Y-122651028D01*
X161025490Y-122582136D01*
X160739413Y-122505482D01*
X160696602Y-122494010D01*
X160652376Y-122491111D01*
X160608434Y-122496896D01*
X160566465Y-122511143D01*
X160528081Y-122533303D01*
X160494759Y-122562526D01*
X160467779Y-122597688D01*
X160448175Y-122637439D01*
X160360050Y-122966328D01*
X160399825Y-123035220D01*
X160924641Y-123175844D01*
X161065265Y-122651028D01*
X161065265Y-123307857D01*
X161050025Y-123364731D01*
X161030707Y-123359556D01*
X161025530Y-123378874D01*
X160880641Y-123340051D01*
X160885818Y-123320733D01*
X160361002Y-123180109D01*
X160292110Y-123219884D01*
X160203984Y-123548773D01*
X160202197Y-123576030D01*
X158509329Y-123119499D01*
X158509329Y-113879630D01*
X158509329Y-112180370D01*
X158506361Y-112143859D01*
X158487415Y-112083269D01*
X158452371Y-112030334D01*
X158403993Y-111989229D01*
X158346094Y-111963194D01*
X158283240Y-111954281D01*
X157084360Y-111954281D01*
X157047849Y-111957249D01*
X156987259Y-111976195D01*
X156934324Y-112011239D01*
X156893219Y-112059617D01*
X156867184Y-112117516D01*
X156858271Y-112180370D01*
X156858271Y-112308044D01*
X156764998Y-112193681D01*
X156641021Y-112091118D01*
X156499483Y-112014589D01*
X156345777Y-111967009D01*
X156185756Y-111950190D01*
X156025515Y-111964773D01*
X155871159Y-112010203D01*
X155728567Y-112084748D01*
X155603170Y-112185570D01*
X155499743Y-112308829D01*
X155429529Y-112436547D01*
X155366694Y-112318372D01*
X155264998Y-112193681D01*
X155141021Y-112091118D01*
X154999483Y-112014589D01*
X154845777Y-111967009D01*
X154685756Y-111950190D01*
X154525515Y-111964773D01*
X154371159Y-112010203D01*
X154228567Y-112084748D01*
X154103170Y-112185570D01*
X153999743Y-112308829D01*
X153929529Y-112436547D01*
X153866694Y-112318372D01*
X153764998Y-112193681D01*
X153641021Y-112091118D01*
X153499483Y-112014589D01*
X153345777Y-111967009D01*
X153185756Y-111950190D01*
X153025515Y-111964773D01*
X152871159Y-112010203D01*
X152728567Y-112084748D01*
X152603170Y-112185570D01*
X152499743Y-112308829D01*
X152429529Y-112436547D01*
X152366694Y-112318372D01*
X152264998Y-112193681D01*
X152141021Y-112091118D01*
X151999483Y-112014589D01*
X151845777Y-111967009D01*
X151685756Y-111950190D01*
X151525515Y-111964773D01*
X151371159Y-112010203D01*
X151228567Y-112084748D01*
X151103170Y-112185570D01*
X150999743Y-112308829D01*
X150929697Y-112436241D01*
X150912982Y-112395020D01*
X150823829Y-112259416D01*
X150709934Y-112143810D01*
X150575674Y-112052646D01*
X150426209Y-111989426D01*
X150382513Y-111980629D01*
X150255000Y-112015290D01*
X150255000Y-112955000D01*
X150275000Y-112955000D01*
X150275000Y-113105000D01*
X150255000Y-113105000D01*
X150255000Y-114044710D01*
X150382513Y-114079371D01*
X150426209Y-114070574D01*
X150575674Y-114007354D01*
X150709934Y-113916190D01*
X150823829Y-113800584D01*
X150912982Y-113664980D01*
X150930102Y-113622759D01*
X150993306Y-113741628D01*
X151095002Y-113866319D01*
X151218979Y-113968882D01*
X151360517Y-114045411D01*
X151514223Y-114092991D01*
X151674244Y-114109810D01*
X151834485Y-114095227D01*
X151988841Y-114049797D01*
X152131433Y-113975252D01*
X152256830Y-113874430D01*
X152360257Y-113751171D01*
X152430470Y-113623452D01*
X152493306Y-113741628D01*
X152595002Y-113866319D01*
X152718979Y-113968882D01*
X152805000Y-114015393D01*
X152805000Y-114253670D01*
X152498670Y-114560000D01*
X150105000Y-114560000D01*
X150105000Y-114044710D01*
X150105000Y-113105000D01*
X150105000Y-112955000D01*
X150105000Y-112015290D01*
X149977487Y-111980629D01*
X149933791Y-111989426D01*
X149784326Y-112052646D01*
X149650066Y-112143810D01*
X149536171Y-112259416D01*
X149447018Y-112395020D01*
X149386033Y-112545411D01*
X149355560Y-112704810D01*
X149355560Y-112955000D01*
X150105000Y-112955000D01*
X150105000Y-113105000D01*
X149355560Y-113105000D01*
X149355560Y-113355190D01*
X149386033Y-113514589D01*
X149447018Y-113664980D01*
X149536171Y-113800584D01*
X149650066Y-113916190D01*
X149784326Y-114007354D01*
X149933791Y-114070574D01*
X149977487Y-114079371D01*
X150105000Y-114044710D01*
X150105000Y-114560000D01*
X147066000Y-114560000D01*
X147031530Y-114563379D01*
X146997018Y-114566399D01*
X146995122Y-114566949D01*
X146993162Y-114567142D01*
X146960021Y-114577147D01*
X146926736Y-114586818D01*
X146924985Y-114587725D01*
X146923099Y-114588295D01*
X146892528Y-114604550D01*
X146861760Y-114620499D01*
X146860218Y-114621729D01*
X146858478Y-114622655D01*
X146831624Y-114644556D01*
X146804563Y-114666159D01*
X146801820Y-114668863D01*
X146801762Y-114668911D01*
X146801717Y-114668964D01*
X146800835Y-114669835D01*
X144520741Y-116949928D01*
X144478188Y-116949631D01*
X144377054Y-116968924D01*
X144281593Y-117007492D01*
X144195441Y-117063868D01*
X144121881Y-117135904D01*
X144063713Y-117220856D01*
X144023154Y-117315488D01*
X144001748Y-117416196D01*
X144000310Y-117519143D01*
X144018896Y-117620410D01*
X144056797Y-117716137D01*
X144112570Y-117802680D01*
X144184091Y-117876742D01*
X144268635Y-117935501D01*
X144362981Y-117976720D01*
X144463537Y-117998829D01*
X144566472Y-118000985D01*
X144667866Y-117983107D01*
X144763856Y-117945875D01*
X144850786Y-117890707D01*
X144925345Y-117819706D01*
X144984693Y-117735574D01*
X145026570Y-117641517D01*
X145049380Y-117541118D01*
X145050217Y-117481112D01*
X147221330Y-115310000D01*
X152654000Y-115310000D01*
X152688473Y-115306619D01*
X152722982Y-115303601D01*
X152724877Y-115303050D01*
X152726838Y-115302858D01*
X152759991Y-115292848D01*
X152793263Y-115283182D01*
X152795012Y-115282275D01*
X152796901Y-115281705D01*
X152827510Y-115265429D01*
X152858239Y-115249501D01*
X152859778Y-115248272D01*
X152861522Y-115247345D01*
X152888422Y-115225406D01*
X152915436Y-115203841D01*
X152918178Y-115201137D01*
X152918238Y-115201089D01*
X152918283Y-115201033D01*
X152919165Y-115200165D01*
X153445165Y-114674165D01*
X153467129Y-114647425D01*
X153489418Y-114620863D01*
X153490369Y-114619132D01*
X153491619Y-114617611D01*
X153507957Y-114587138D01*
X153524676Y-114556728D01*
X153525273Y-114554844D01*
X153526203Y-114553111D01*
X153536311Y-114520047D01*
X153546805Y-114486967D01*
X153547025Y-114485004D01*
X153547601Y-114483121D01*
X153551103Y-114448647D01*
X153554963Y-114414236D01*
X153554990Y-114410385D01*
X153554998Y-114410309D01*
X153554991Y-114410237D01*
X153555000Y-114409000D01*
X153555000Y-114015210D01*
X153631433Y-113975252D01*
X153756830Y-113874430D01*
X153860257Y-113751171D01*
X153930470Y-113623452D01*
X153993306Y-113741628D01*
X154095002Y-113866319D01*
X154218979Y-113968882D01*
X154360517Y-114045411D01*
X154514223Y-114092991D01*
X154674244Y-114109810D01*
X154834485Y-114095227D01*
X154988841Y-114049797D01*
X155131433Y-113975252D01*
X155256830Y-113874430D01*
X155360257Y-113751171D01*
X155430470Y-113623452D01*
X155493306Y-113741628D01*
X155595002Y-113866319D01*
X155718979Y-113968882D01*
X155860517Y-114045411D01*
X156014223Y-114092991D01*
X156174244Y-114109810D01*
X156334485Y-114095227D01*
X156488841Y-114049797D01*
X156631433Y-113975252D01*
X156756830Y-113874430D01*
X156858271Y-113753537D01*
X156858271Y-113879630D01*
X156861239Y-113916141D01*
X156880185Y-113976731D01*
X156915229Y-114029666D01*
X156963607Y-114070771D01*
X157021506Y-114096806D01*
X157084360Y-114105719D01*
X158283240Y-114105719D01*
X158319751Y-114102751D01*
X158380341Y-114083805D01*
X158433276Y-114048761D01*
X158474381Y-114000383D01*
X158500416Y-113942484D01*
X158509329Y-113879630D01*
X158509329Y-123119499D01*
X158473178Y-123109750D01*
X158448602Y-123105640D01*
X158424072Y-123101186D01*
X158420243Y-123100898D01*
X158420242Y-123100898D01*
X154606233Y-122841389D01*
X154636025Y-122829834D01*
X154747722Y-122758948D01*
X154843525Y-122667717D01*
X154919782Y-122559616D01*
X154973590Y-122438761D01*
X155002899Y-122309756D01*
X155005009Y-122158654D01*
X154979313Y-122028882D01*
X154928901Y-121906572D01*
X154855691Y-121796383D01*
X154762474Y-121702512D01*
X154705400Y-121664014D01*
X154705400Y-118516400D01*
X154702020Y-118481930D01*
X154699001Y-118447418D01*
X154698450Y-118445522D01*
X154698258Y-118443562D01*
X154688252Y-118410421D01*
X154678582Y-118377136D01*
X154677674Y-118375385D01*
X154677105Y-118373499D01*
X154660849Y-118342928D01*
X154644901Y-118312160D01*
X154643670Y-118310618D01*
X154642745Y-118308878D01*
X154620843Y-118282024D01*
X154599241Y-118254963D01*
X154596536Y-118252220D01*
X154596489Y-118252162D01*
X154596435Y-118252117D01*
X154595565Y-118251235D01*
X153432386Y-117088056D01*
X153433022Y-117042521D01*
X153413024Y-116941524D01*
X153373790Y-116846335D01*
X153316814Y-116760579D01*
X153244267Y-116687523D01*
X153158911Y-116629950D01*
X153063998Y-116590052D01*
X152963143Y-116569350D01*
X152860188Y-116568631D01*
X152759054Y-116587924D01*
X152663593Y-116626492D01*
X152577441Y-116682868D01*
X152503881Y-116754904D01*
X152445713Y-116839856D01*
X152405154Y-116934488D01*
X152383748Y-117035196D01*
X152382310Y-117138143D01*
X152400896Y-117239410D01*
X152438797Y-117335137D01*
X152494570Y-117421680D01*
X152566091Y-117495742D01*
X152650635Y-117554501D01*
X152744981Y-117595720D01*
X152845537Y-117617829D01*
X152902696Y-117619026D01*
X153955400Y-118671730D01*
X153955400Y-121663981D01*
X153905660Y-121696530D01*
X153811141Y-121789090D01*
X153736401Y-121898246D01*
X153695143Y-121994504D01*
X153658901Y-121906572D01*
X153585691Y-121796383D01*
X153492474Y-121702512D01*
X153382799Y-121628535D01*
X153260844Y-121577270D01*
X153131254Y-121550669D01*
X152998965Y-121549746D01*
X152869017Y-121574535D01*
X152746358Y-121624092D01*
X152635660Y-121696530D01*
X152541141Y-121789090D01*
X152466401Y-121898246D01*
X152464980Y-121901561D01*
X152464980Y-121753059D01*
X152456333Y-121709589D01*
X152439372Y-121668642D01*
X152414749Y-121631790D01*
X152383409Y-121600451D01*
X152346557Y-121575827D01*
X152305610Y-121558866D01*
X152262140Y-121550220D01*
X152217819Y-121550220D01*
X151921650Y-121550220D01*
X151865400Y-121606470D01*
X151865400Y-122149800D01*
X151885400Y-122149800D01*
X151885400Y-122299800D01*
X151865400Y-122299800D01*
X151865400Y-122319800D01*
X151715400Y-122319800D01*
X151715400Y-122299800D01*
X151715400Y-122149800D01*
X151715400Y-121606470D01*
X151659150Y-121550220D01*
X151362981Y-121550220D01*
X151318660Y-121550220D01*
X151275190Y-121558866D01*
X151234243Y-121575827D01*
X151197391Y-121600451D01*
X151166051Y-121631790D01*
X151141428Y-121668642D01*
X151124467Y-121709589D01*
X151115820Y-121753059D01*
X151115820Y-122093550D01*
X151172070Y-122149800D01*
X151715400Y-122149800D01*
X151715400Y-122299800D01*
X151172070Y-122299800D01*
X151115820Y-122356050D01*
X151115820Y-122696541D01*
X151124467Y-122740011D01*
X151141428Y-122780958D01*
X151145106Y-122786463D01*
X145788188Y-123473418D01*
X145815625Y-123352656D01*
X145817735Y-123201554D01*
X145792039Y-123071782D01*
X145741627Y-122949472D01*
X145668417Y-122839283D01*
X145575200Y-122745412D01*
X145465525Y-122671435D01*
X145343570Y-122620170D01*
X145213980Y-122593569D01*
X145081691Y-122592646D01*
X144951743Y-122617435D01*
X144829084Y-122666992D01*
X144718386Y-122739430D01*
X144623867Y-122831990D01*
X144549127Y-122941146D01*
X144497011Y-123062740D01*
X144469506Y-123192141D01*
X144469263Y-123209483D01*
X144441691Y-123167983D01*
X144348474Y-123074112D01*
X144238799Y-123000135D01*
X144116844Y-122948870D01*
X143987254Y-122922269D01*
X143854965Y-122921346D01*
X143725017Y-122946135D01*
X143602358Y-122995692D01*
X143491660Y-123068130D01*
X143397141Y-123160690D01*
X143322401Y-123269846D01*
X143270285Y-123391440D01*
X143259125Y-123443943D01*
X143219173Y-123294839D01*
X143199569Y-123255088D01*
X143172589Y-123219926D01*
X143163539Y-123211989D01*
X143163539Y-115225446D01*
X143163539Y-112685446D01*
X143128362Y-112507788D01*
X143059347Y-112340345D01*
X142959124Y-112189497D01*
X142831509Y-112060988D01*
X142681364Y-111959714D01*
X142514408Y-111889532D01*
X142336999Y-111853116D01*
X142155896Y-111851851D01*
X141977996Y-111885787D01*
X141810076Y-111953631D01*
X141658532Y-112052799D01*
X141529135Y-112179514D01*
X141426815Y-112328948D01*
X141355470Y-112495410D01*
X141317815Y-112672560D01*
X141315287Y-112853650D01*
X141347980Y-113031783D01*
X141414650Y-113200172D01*
X141512758Y-113352405D01*
X141638565Y-113482683D01*
X141787282Y-113586044D01*
X141953242Y-113658550D01*
X142130125Y-113697440D01*
X142311193Y-113701233D01*
X142489549Y-113669784D01*
X142658400Y-113604291D01*
X142811314Y-113507249D01*
X142942467Y-113382353D01*
X143046863Y-113234362D01*
X143120527Y-113068912D01*
X143160651Y-112892305D01*
X143163539Y-112685446D01*
X143163539Y-115225446D01*
X143128362Y-115047788D01*
X143059347Y-114880345D01*
X142959124Y-114729497D01*
X142831509Y-114600988D01*
X142681364Y-114499714D01*
X142514408Y-114429532D01*
X142336999Y-114393116D01*
X142155896Y-114391851D01*
X141977996Y-114425787D01*
X141810076Y-114493631D01*
X141658532Y-114592799D01*
X141529135Y-114719514D01*
X141426815Y-114868948D01*
X141355470Y-115035410D01*
X141317815Y-115212560D01*
X141315287Y-115393650D01*
X141347980Y-115571783D01*
X141414650Y-115740172D01*
X141512758Y-115892405D01*
X141638565Y-116022683D01*
X141787282Y-116126044D01*
X141953242Y-116198550D01*
X142130125Y-116237440D01*
X142311193Y-116241233D01*
X142489549Y-116209784D01*
X142658400Y-116144291D01*
X142811314Y-116047249D01*
X142942467Y-115922353D01*
X143046863Y-115774362D01*
X143120527Y-115608912D01*
X143160651Y-115432305D01*
X143163539Y-115225446D01*
X143163539Y-123211989D01*
X143139267Y-123190703D01*
X143100883Y-123168543D01*
X143058914Y-123154296D01*
X143014972Y-123148511D01*
X142970746Y-123151410D01*
X142927935Y-123162882D01*
X142641858Y-123239536D01*
X142602083Y-123308428D01*
X142742707Y-123833244D01*
X142762025Y-123828067D01*
X142800848Y-123972956D01*
X142781530Y-123978133D01*
X142786706Y-123997451D01*
X142641817Y-124036274D01*
X142636641Y-124016956D01*
X142597818Y-124027358D01*
X142597818Y-123872067D01*
X142457194Y-123347251D01*
X142388302Y-123307476D01*
X142102225Y-123384130D01*
X142059414Y-123395601D01*
X142019663Y-123415203D01*
X141984501Y-123442184D01*
X141955278Y-123475507D01*
X141933117Y-123513890D01*
X141918871Y-123555859D01*
X141913086Y-123599801D01*
X141915984Y-123644027D01*
X142004110Y-123972916D01*
X142073002Y-124012691D01*
X142597818Y-123872067D01*
X142597818Y-124027358D01*
X142111825Y-124157580D01*
X142072050Y-124226472D01*
X142160175Y-124555361D01*
X142179779Y-124595112D01*
X142206759Y-124630274D01*
X142229835Y-124650512D01*
X140281944Y-125302552D01*
X140281944Y-117178868D01*
X140216241Y-116847045D01*
X140087339Y-116534304D01*
X139900146Y-116252557D01*
X139661793Y-116012534D01*
X139381359Y-115823379D01*
X139069526Y-115692296D01*
X138738170Y-115624279D01*
X138399914Y-115621917D01*
X138067641Y-115685302D01*
X137754008Y-115812018D01*
X137470960Y-115997239D01*
X137229280Y-116233910D01*
X137038171Y-116513017D01*
X136904915Y-116823928D01*
X136834586Y-117154800D01*
X136829863Y-117493032D01*
X136890926Y-117825739D01*
X137015449Y-118140249D01*
X137198690Y-118424583D01*
X137433668Y-118667910D01*
X137711434Y-118860963D01*
X138021407Y-118996386D01*
X138351780Y-119069024D01*
X138689971Y-119076108D01*
X139023096Y-119017369D01*
X139338468Y-118895044D01*
X139624074Y-118713793D01*
X139869036Y-118480519D01*
X140064023Y-118204108D01*
X140201607Y-117895088D01*
X140276549Y-117565230D01*
X140281944Y-117178868D01*
X140281944Y-125302552D01*
X139679809Y-125504112D01*
X139150157Y-125681408D01*
X138622913Y-125749020D01*
X138092563Y-125712935D01*
X137579334Y-125574528D01*
X137347527Y-125460000D01*
X139372762Y-125460000D01*
X139372762Y-123310000D01*
X135963238Y-123310000D01*
X135963238Y-123863784D01*
X135891203Y-123653480D01*
X135818439Y-123115834D01*
X135816750Y-123023993D01*
X135816750Y-110743000D01*
X170266750Y-110743000D01*
X170266750Y-123013094D01*
M02*
