G04 #@! TF.FileFunction,Soldermask,Top*
%FSLAX46Y46*%
G04 Gerber Fmt 4.6, Leading zero omitted, Abs format (unit mm)*
G04 Created by KiCad (PCBNEW (2015-01-16 BZR 5376)-product) date 26.03.2015 18:54:21*
%MOMM*%
G01*
G04 APERTURE LIST*
%ADD10C,0.100000*%
%ADD11R,1.198880X1.699260*%
%ADD12O,1.198880X1.699260*%
%ADD13R,1.700000X0.900000*%
%ADD14R,0.900000X1.700000*%
%ADD15R,1.198880X1.198880*%
%ADD16C,0.899160*%
%ADD17R,0.899160X0.899160*%
%ADD18C,1.397000*%
G04 APERTURE END LIST*
D10*
D11*
X157683800Y-113030000D03*
D12*
X154680000Y-113030000D03*
X156180000Y-113030000D03*
X153180000Y-113030000D03*
X151680000Y-113030000D03*
X150180000Y-113030000D03*
D13*
X157124400Y-119204400D03*
X157124400Y-116304400D03*
D14*
X142974400Y-120802400D03*
X145874400Y-120802400D03*
X151610400Y-119278400D03*
X154510400Y-119278400D03*
X159230400Y-119278400D03*
X162130400Y-119278400D03*
D13*
X145034000Y-112342000D03*
X145034000Y-115242000D03*
D14*
X142974400Y-118262400D03*
X145874400Y-118262400D03*
X151610400Y-116738400D03*
X154510400Y-116738400D03*
X159230400Y-116738400D03*
X162130400Y-116738400D03*
D15*
X166463980Y-113030000D03*
X168562020Y-113030000D03*
D14*
X162126000Y-113030000D03*
X165026000Y-113030000D03*
X137742000Y-121920000D03*
X140642000Y-121920000D03*
D13*
X149504400Y-119204400D03*
X149504400Y-116304400D03*
D10*
G36*
X143240295Y-124243001D02*
X142371773Y-124475721D01*
X142139053Y-123607199D01*
X143007575Y-123374479D01*
X143240295Y-124243001D01*
X143240295Y-124243001D01*
G37*
D16*
X143916400Y-123596400D03*
X145143126Y-123267700D03*
D17*
X151790400Y-122224800D03*
D16*
X153060400Y-122224800D03*
X154330400Y-122224800D03*
D10*
G36*
X161295575Y-123818321D02*
X160427053Y-123585601D01*
X160659773Y-122717079D01*
X161528295Y-122949799D01*
X161295575Y-123818321D01*
X161295575Y-123818321D01*
G37*
D16*
X162204400Y-123596400D03*
X163431126Y-123925100D03*
D18*
X142240000Y-112776000D03*
X142240000Y-115316000D03*
M02*
