G04 #@! TF.FileFunction,Copper,L2,Bot,Signal*
%FSLAX46Y46*%
G04 Gerber Fmt 4.6, Leading zero omitted, Abs format (unit mm)*
G04 Created by KiCad (PCBNEW (after 2015-mar-04 BZR unknown)-product) date 02.05.2015 13:27:57*
%MOMM*%
G01*
G04 APERTURE LIST*
%ADD10C,0.100000*%
%ADD11C,0.150000*%
%ADD12C,1.397000*%
%ADD13C,1.100000*%
%ADD14R,1.198880X1.699260*%
%ADD15O,1.198880X1.699260*%
%ADD16R,1.100000X1.500000*%
%ADD17O,1.100000X1.500000*%
%ADD18C,0.600000*%
%ADD19C,0.300000*%
%ADD20C,0.200000*%
G04 APERTURE END LIST*
D10*
D11*
X138755333Y-124337771D02*
X138612476Y-124385390D01*
X138564857Y-124433010D01*
X138517238Y-124528248D01*
X138517238Y-124671105D01*
X138564857Y-124766343D01*
X138612476Y-124813962D01*
X138707714Y-124861581D01*
X139088667Y-124861581D01*
X139088667Y-123861581D01*
X138755333Y-123861581D01*
X138660095Y-123909200D01*
X138612476Y-123956819D01*
X138564857Y-124052057D01*
X138564857Y-124147295D01*
X138612476Y-124242533D01*
X138660095Y-124290152D01*
X138755333Y-124337771D01*
X139088667Y-124337771D01*
X137898191Y-123861581D02*
X137707714Y-123861581D01*
X137612476Y-123909200D01*
X137517238Y-124004438D01*
X137469619Y-124194914D01*
X137469619Y-124528248D01*
X137517238Y-124718724D01*
X137612476Y-124813962D01*
X137707714Y-124861581D01*
X137898191Y-124861581D01*
X137993429Y-124813962D01*
X138088667Y-124718724D01*
X138136286Y-124528248D01*
X138136286Y-124194914D01*
X138088667Y-124004438D01*
X137993429Y-123909200D01*
X137898191Y-123861581D01*
X137183905Y-123861581D02*
X136612476Y-123861581D01*
X136898191Y-124861581D02*
X136898191Y-123861581D01*
D12*
X142240000Y-112776000D03*
X139700000Y-112776000D03*
D10*
G36*
X142710539Y-124447936D02*
X141658604Y-124769545D01*
X141220047Y-123335088D01*
X142271982Y-123013479D01*
X142710539Y-124447936D01*
X142710539Y-124447936D01*
G37*
D13*
X143238274Y-123711461D02*
X143121326Y-123328939D01*
X144452781Y-123340149D02*
X144335833Y-122957627D01*
D10*
G36*
X162007782Y-124026921D02*
X160955847Y-123705312D01*
X161394404Y-122270855D01*
X162446339Y-122592464D01*
X162007782Y-124026921D01*
X162007782Y-124026921D01*
G37*
D13*
X162857126Y-123711461D02*
X162974074Y-123328939D01*
X164071633Y-124082773D02*
X164188581Y-123700251D01*
D14*
X156794800Y-113030000D03*
D15*
X153791000Y-113030000D03*
X155291000Y-113030000D03*
X152291000Y-113030000D03*
X150791000Y-113030000D03*
X149291000Y-113030000D03*
D16*
X151765000Y-122047000D03*
D17*
X153035000Y-122047000D03*
X154305000Y-122047000D03*
D18*
X160274000Y-119380000D03*
X163322000Y-113030000D03*
X138938000Y-121920000D03*
X149352000Y-118110000D03*
X145034000Y-113538000D03*
X144272000Y-120675400D03*
X144526000Y-117475000D03*
X152908000Y-117094000D03*
X160401000Y-117094000D03*
D19*
X144872001Y-117821001D02*
X144526000Y-117475000D01*
X144872001Y-121472399D02*
X144872001Y-117821001D01*
X144394307Y-121950093D02*
X144394307Y-123148888D01*
X144872001Y-121472399D02*
X144394307Y-121950093D01*
X152291000Y-114485200D02*
X152291000Y-113030000D01*
X151841200Y-114935000D02*
X152291000Y-114485200D01*
X147066000Y-114935000D02*
X151841200Y-114935000D01*
X144526000Y-117475000D02*
X147066000Y-114935000D01*
X154305000Y-118491000D02*
X154305000Y-122047000D01*
X152908000Y-117094000D02*
X154305000Y-118491000D01*
X164130107Y-120823107D02*
X164130107Y-123891512D01*
X160401000Y-117094000D02*
X164130107Y-120823107D01*
D20*
G36*
X170245000Y-123110154D02*
X170192167Y-123648977D01*
X170039944Y-124153166D01*
X169792690Y-124618185D01*
X169459820Y-125026323D01*
X169054018Y-125362032D01*
X168590735Y-125612528D01*
X168087624Y-125768268D01*
X167890058Y-125789032D01*
X167890058Y-117393426D01*
X167838635Y-117133719D01*
X167737747Y-116888947D01*
X167591237Y-116668432D01*
X167404686Y-116480574D01*
X167185199Y-116332529D01*
X166941137Y-116229934D01*
X166681796Y-116176699D01*
X166417054Y-116174851D01*
X166156995Y-116224460D01*
X165911524Y-116323636D01*
X165689992Y-116468603D01*
X165500836Y-116653838D01*
X165351262Y-116872286D01*
X165246966Y-117115626D01*
X165191922Y-117374589D01*
X165188226Y-117639312D01*
X165236018Y-117899711D01*
X165333478Y-118145868D01*
X165476895Y-118368407D01*
X165660805Y-118558851D01*
X165878203Y-118709947D01*
X166120809Y-118815939D01*
X166379381Y-118872789D01*
X166644072Y-118878334D01*
X166904798Y-118832361D01*
X167151630Y-118736621D01*
X167375164Y-118594762D01*
X167566888Y-118412186D01*
X167719498Y-118195848D01*
X167827181Y-117953988D01*
X167885835Y-117695819D01*
X167890058Y-117393426D01*
X167890058Y-125789032D01*
X167563836Y-125823320D01*
X167039341Y-125775588D01*
X166522611Y-125623506D01*
X166437128Y-125587125D01*
X166437084Y-125587111D01*
X166433969Y-125585802D01*
X164643248Y-124847720D01*
X164626930Y-124842793D01*
X164611078Y-124836551D01*
X164607041Y-124835432D01*
X164446763Y-124792208D01*
X164569323Y-124712617D01*
X164681255Y-124603767D01*
X164769914Y-124475247D01*
X164831922Y-124331956D01*
X164835262Y-124321297D01*
X164955040Y-123929519D01*
X164985900Y-123776467D01*
X164986446Y-123620336D01*
X164956654Y-123467071D01*
X164897661Y-123322513D01*
X164811712Y-123192166D01*
X164702083Y-123080995D01*
X164572948Y-122993236D01*
X164530107Y-122975050D01*
X164530107Y-120823107D01*
X164526500Y-120786322D01*
X164523281Y-120749527D01*
X164522694Y-120747507D01*
X164522489Y-120745413D01*
X164511820Y-120710076D01*
X164501502Y-120674560D01*
X164500531Y-120672687D01*
X164499925Y-120670679D01*
X164482615Y-120638124D01*
X164465576Y-120605252D01*
X164464261Y-120603605D01*
X164463275Y-120601750D01*
X164439952Y-120573153D01*
X164416872Y-120544241D01*
X164413984Y-120541313D01*
X164413935Y-120541253D01*
X164413878Y-120541206D01*
X164412950Y-120540265D01*
X160950496Y-117077810D01*
X160951023Y-117040070D01*
X160930073Y-116934263D01*
X160888971Y-116834541D01*
X160829282Y-116744702D01*
X160753279Y-116668167D01*
X160663859Y-116607853D01*
X160564426Y-116566055D01*
X160458769Y-116544367D01*
X160350911Y-116543614D01*
X160244961Y-116563825D01*
X160144954Y-116604230D01*
X160054701Y-116663290D01*
X159977637Y-116738756D01*
X159916699Y-116827754D01*
X159874209Y-116926892D01*
X159851783Y-117032395D01*
X159850277Y-117140245D01*
X159869748Y-117246334D01*
X159909454Y-117346620D01*
X159967883Y-117437284D01*
X160042809Y-117514873D01*
X160131379Y-117576430D01*
X160230218Y-117619612D01*
X160335563Y-117642773D01*
X160385125Y-117643811D01*
X163730107Y-120988792D01*
X163730107Y-123044939D01*
X163723230Y-123049405D01*
X163683154Y-122951201D01*
X163597205Y-122820854D01*
X163487576Y-122709683D01*
X163358441Y-122621924D01*
X163214721Y-122560918D01*
X163061888Y-122528990D01*
X162905764Y-122527355D01*
X162752295Y-122556077D01*
X162696154Y-122578531D01*
X162692829Y-122543992D01*
X162678636Y-122496836D01*
X162655517Y-122453355D01*
X162624358Y-122415220D01*
X162586359Y-122383895D01*
X162542979Y-122360587D01*
X162495885Y-122346189D01*
X162101049Y-122225475D01*
X162023007Y-122266971D01*
X161927376Y-122579765D01*
X161927376Y-122237734D01*
X161885880Y-122159691D01*
X161491044Y-122038978D01*
X161443950Y-122024580D01*
X161394953Y-122019646D01*
X161345934Y-122024366D01*
X161298777Y-122038558D01*
X161255295Y-122061677D01*
X161217160Y-122092835D01*
X161185836Y-122130835D01*
X161162527Y-122174215D01*
X160968941Y-122807406D01*
X161010437Y-122885449D01*
X161667896Y-123086454D01*
X161927376Y-122237734D01*
X161927376Y-122579765D01*
X161763527Y-123115691D01*
X161782653Y-123121538D01*
X161753415Y-123217169D01*
X161734290Y-123211322D01*
X161728442Y-123230448D01*
X161632811Y-123201210D01*
X161638659Y-123182085D01*
X160981200Y-122981079D01*
X160903157Y-123022575D01*
X160709571Y-123655766D01*
X160704637Y-123704764D01*
X160709357Y-123753784D01*
X160719355Y-123787003D01*
X158482937Y-123183888D01*
X158456144Y-123179407D01*
X158429367Y-123174545D01*
X158425190Y-123174232D01*
X154738910Y-122923414D01*
X154743051Y-122921250D01*
X154864731Y-122823417D01*
X154965091Y-122703813D01*
X155040308Y-122566993D01*
X155087518Y-122418168D01*
X155104922Y-122263009D01*
X155105000Y-122251839D01*
X155105000Y-121842161D01*
X155089764Y-121686774D01*
X155044637Y-121537305D01*
X154971337Y-121399448D01*
X154872657Y-121278454D01*
X154752354Y-121178931D01*
X154705000Y-121153326D01*
X154705000Y-118491000D01*
X154701393Y-118454215D01*
X154698174Y-118417420D01*
X154697587Y-118415400D01*
X154697382Y-118413306D01*
X154686699Y-118377923D01*
X154676394Y-118342453D01*
X154675425Y-118340585D01*
X154674818Y-118338572D01*
X154657479Y-118305962D01*
X154640468Y-118273144D01*
X154639154Y-118271499D01*
X154638168Y-118269643D01*
X154614816Y-118241010D01*
X154591764Y-118212134D01*
X154588879Y-118209208D01*
X154588828Y-118209146D01*
X154588770Y-118209098D01*
X154587842Y-118208157D01*
X153457496Y-117077810D01*
X153458023Y-117040070D01*
X153437073Y-116934263D01*
X153395971Y-116834541D01*
X153336282Y-116744702D01*
X153260279Y-116668167D01*
X153170859Y-116607853D01*
X153071426Y-116566055D01*
X152965769Y-116544367D01*
X152857911Y-116543614D01*
X152751961Y-116563825D01*
X152651954Y-116604230D01*
X152561701Y-116663290D01*
X152484637Y-116738756D01*
X152423699Y-116827754D01*
X152381209Y-116926892D01*
X152358783Y-117032395D01*
X152357277Y-117140245D01*
X152376748Y-117246334D01*
X152416454Y-117346620D01*
X152474883Y-117437284D01*
X152549809Y-117514873D01*
X152638379Y-117576430D01*
X152737218Y-117619612D01*
X152842563Y-117642773D01*
X152892125Y-117643811D01*
X153905000Y-118656685D01*
X153905000Y-121152857D01*
X153866949Y-121172750D01*
X153745269Y-121270583D01*
X153669693Y-121360649D01*
X153602657Y-121278454D01*
X153482354Y-121178931D01*
X153345012Y-121104670D01*
X153195862Y-121058501D01*
X153040585Y-121042180D01*
X152885095Y-121056331D01*
X152735315Y-121100414D01*
X152596949Y-121172750D01*
X152549825Y-121210637D01*
X152536547Y-121178580D01*
X152509188Y-121137634D01*
X152474366Y-121102812D01*
X152433419Y-121075453D01*
X152387922Y-121056607D01*
X152339623Y-121047000D01*
X152290377Y-121047000D01*
X151877500Y-121047000D01*
X151815000Y-121109500D01*
X151815000Y-121997000D01*
X151835000Y-121997000D01*
X151835000Y-122097000D01*
X151815000Y-122097000D01*
X151815000Y-122117000D01*
X151715000Y-122117000D01*
X151715000Y-122097000D01*
X151715000Y-121997000D01*
X151715000Y-121109500D01*
X151652500Y-121047000D01*
X151239623Y-121047000D01*
X151190377Y-121047000D01*
X151142078Y-121056607D01*
X151096581Y-121075453D01*
X151055634Y-121102812D01*
X151020812Y-121137634D01*
X150993453Y-121178580D01*
X150974607Y-121224078D01*
X150965000Y-121272377D01*
X150965000Y-121934500D01*
X151027500Y-121997000D01*
X151715000Y-121997000D01*
X151715000Y-122097000D01*
X151027500Y-122097000D01*
X150965000Y-122159500D01*
X150965000Y-122821623D01*
X150974607Y-122869922D01*
X150979285Y-122881215D01*
X145747039Y-123552183D01*
X145720549Y-123558253D01*
X145693950Y-123563959D01*
X145689979Y-123565258D01*
X145689969Y-123565261D01*
X145689960Y-123565264D01*
X145142437Y-123748543D01*
X145156582Y-123727731D01*
X145217588Y-123584011D01*
X145249517Y-123431178D01*
X145251152Y-123275053D01*
X145222431Y-123121585D01*
X145219240Y-123110881D01*
X145099462Y-122719103D01*
X145039461Y-122574960D01*
X144952606Y-122445216D01*
X144842203Y-122334813D01*
X144794307Y-122302749D01*
X144794307Y-122115778D01*
X145154843Y-121755242D01*
X145178298Y-121726686D01*
X145202046Y-121698386D01*
X145203058Y-121696543D01*
X145204395Y-121694917D01*
X145221840Y-121662381D01*
X145239655Y-121629976D01*
X145240292Y-121627965D01*
X145241284Y-121626117D01*
X145252065Y-121590853D01*
X145263260Y-121555564D01*
X145263494Y-121553471D01*
X145264109Y-121551462D01*
X145267837Y-121514751D01*
X145271962Y-121477984D01*
X145271990Y-121473866D01*
X145271998Y-121473795D01*
X145271991Y-121473728D01*
X145272001Y-121472399D01*
X145272001Y-117821001D01*
X145268394Y-117784216D01*
X145265175Y-117747421D01*
X145264588Y-117745401D01*
X145264383Y-117743307D01*
X145253700Y-117707924D01*
X145243395Y-117672454D01*
X145242426Y-117670586D01*
X145241819Y-117668573D01*
X145224480Y-117635963D01*
X145207469Y-117603145D01*
X145206155Y-117601500D01*
X145205169Y-117599644D01*
X145181817Y-117571011D01*
X145158765Y-117542135D01*
X145155880Y-117539209D01*
X145155829Y-117539147D01*
X145155771Y-117539099D01*
X145154843Y-117538158D01*
X145091685Y-117475000D01*
X147231685Y-115335000D01*
X151841200Y-115335000D01*
X151877984Y-115331393D01*
X151914780Y-115328174D01*
X151916799Y-115327587D01*
X151918894Y-115327382D01*
X151954276Y-115316699D01*
X151989747Y-115306394D01*
X151991614Y-115305425D01*
X151993628Y-115304818D01*
X152026257Y-115287468D01*
X152059055Y-115270468D01*
X152060697Y-115269156D01*
X152062557Y-115268168D01*
X152091211Y-115244798D01*
X152120066Y-115221764D01*
X152122995Y-115218875D01*
X152123054Y-115218828D01*
X152123098Y-115218774D01*
X152124043Y-115217843D01*
X152573843Y-114768043D01*
X152597322Y-114739457D01*
X152621045Y-114711187D01*
X152622057Y-114709344D01*
X152623394Y-114707718D01*
X152640858Y-114675147D01*
X152658654Y-114642777D01*
X152659290Y-114640771D01*
X152660284Y-114638918D01*
X152671079Y-114603608D01*
X152682259Y-114568365D01*
X152682493Y-114566272D01*
X152683108Y-114564263D01*
X152686836Y-114527552D01*
X152690961Y-114490785D01*
X152690989Y-114486667D01*
X152690997Y-114486596D01*
X152690990Y-114486529D01*
X152691000Y-114485200D01*
X152691000Y-114030337D01*
X152756122Y-113996292D01*
X152885322Y-113892413D01*
X152991884Y-113765417D01*
X153041105Y-113675882D01*
X153083483Y-113755584D01*
X153188262Y-113884055D01*
X153315999Y-113989729D01*
X153461829Y-114068578D01*
X153620196Y-114117601D01*
X153785070Y-114134930D01*
X153950169Y-114119905D01*
X154109206Y-114073098D01*
X154256122Y-113996292D01*
X154385322Y-113892413D01*
X154491884Y-113765417D01*
X154541105Y-113675882D01*
X154583483Y-113755584D01*
X154688262Y-113884055D01*
X154815999Y-113989729D01*
X154961829Y-114068578D01*
X155120196Y-114117601D01*
X155285070Y-114134930D01*
X155450169Y-114119905D01*
X155609206Y-114073098D01*
X155756122Y-113996292D01*
X155885322Y-113892413D01*
X155944150Y-113822304D01*
X155944150Y-113879630D01*
X155947448Y-113920198D01*
X155968499Y-113987520D01*
X156007436Y-114046336D01*
X156061190Y-114092009D01*
X156125522Y-114120937D01*
X156195360Y-114130840D01*
X157394240Y-114130840D01*
X157434808Y-114127542D01*
X157502130Y-114106491D01*
X157560946Y-114067554D01*
X157606619Y-114013800D01*
X157635547Y-113949468D01*
X157645450Y-113879630D01*
X157645450Y-112180370D01*
X157642152Y-112139802D01*
X157621101Y-112072480D01*
X157582164Y-112013664D01*
X157528410Y-111967991D01*
X157464078Y-111939063D01*
X157394240Y-111929160D01*
X156195360Y-111929160D01*
X156154792Y-111932458D01*
X156087470Y-111953509D01*
X156028654Y-111992446D01*
X155982981Y-112046200D01*
X155954053Y-112110532D01*
X155944150Y-112180370D01*
X155944150Y-112237755D01*
X155893738Y-112175945D01*
X155766001Y-112070271D01*
X155620171Y-111991422D01*
X155461804Y-111942399D01*
X155296930Y-111925070D01*
X155131831Y-111940095D01*
X154972794Y-111986902D01*
X154825878Y-112063708D01*
X154696678Y-112167587D01*
X154590116Y-112294583D01*
X154540894Y-112384117D01*
X154498517Y-112304416D01*
X154393738Y-112175945D01*
X154266001Y-112070271D01*
X154120171Y-111991422D01*
X153961804Y-111942399D01*
X153796930Y-111925070D01*
X153631831Y-111940095D01*
X153472794Y-111986902D01*
X153325878Y-112063708D01*
X153196678Y-112167587D01*
X153090116Y-112294583D01*
X153040894Y-112384117D01*
X152998517Y-112304416D01*
X152893738Y-112175945D01*
X152766001Y-112070271D01*
X152620171Y-111991422D01*
X152461804Y-111942399D01*
X152296930Y-111925070D01*
X152131831Y-111940095D01*
X151972794Y-111986902D01*
X151825878Y-112063708D01*
X151696678Y-112167587D01*
X151590116Y-112294583D01*
X151540894Y-112384117D01*
X151498517Y-112304416D01*
X151393738Y-112175945D01*
X151266001Y-112070271D01*
X151120171Y-111991422D01*
X150961804Y-111942399D01*
X150796930Y-111925070D01*
X150631831Y-111940095D01*
X150472794Y-111986902D01*
X150325878Y-112063708D01*
X150196678Y-112167587D01*
X150090116Y-112294583D01*
X150041264Y-112383443D01*
X149969505Y-112266313D01*
X149856289Y-112143810D01*
X149721350Y-112045748D01*
X149569873Y-111975896D01*
X149473036Y-111950105D01*
X149341000Y-111994460D01*
X149341000Y-112980000D01*
X149361000Y-112980000D01*
X149361000Y-113080000D01*
X149341000Y-113080000D01*
X149341000Y-114065540D01*
X149473036Y-114109895D01*
X149569873Y-114084104D01*
X149721350Y-114014252D01*
X149856289Y-113916190D01*
X149969505Y-113793687D01*
X150041371Y-113676382D01*
X150083483Y-113755584D01*
X150188262Y-113884055D01*
X150315999Y-113989729D01*
X150461829Y-114068578D01*
X150620196Y-114117601D01*
X150785070Y-114134930D01*
X150950169Y-114119905D01*
X151109206Y-114073098D01*
X151256122Y-113996292D01*
X151385322Y-113892413D01*
X151491884Y-113765417D01*
X151541105Y-113675882D01*
X151583483Y-113755584D01*
X151688262Y-113884055D01*
X151815999Y-113989729D01*
X151891000Y-114030281D01*
X151891000Y-114319514D01*
X151675514Y-114535000D01*
X149241000Y-114535000D01*
X149241000Y-114065540D01*
X149241000Y-113080000D01*
X149241000Y-112980000D01*
X149241000Y-111994460D01*
X149108964Y-111950105D01*
X149012127Y-111975896D01*
X148860650Y-112045748D01*
X148725711Y-112143810D01*
X148612495Y-112266313D01*
X148525354Y-112408549D01*
X148467636Y-112565053D01*
X148441560Y-112729810D01*
X148441560Y-112980000D01*
X149241000Y-112980000D01*
X149241000Y-113080000D01*
X148441560Y-113080000D01*
X148441560Y-113330190D01*
X148467636Y-113494947D01*
X148525354Y-113651451D01*
X148612495Y-113793687D01*
X148725711Y-113916190D01*
X148860650Y-114014252D01*
X149012127Y-114084104D01*
X149108964Y-114109895D01*
X149241000Y-114065540D01*
X149241000Y-114535000D01*
X147066000Y-114535000D01*
X147029171Y-114538611D01*
X146992420Y-114541826D01*
X146990400Y-114542412D01*
X146988306Y-114542618D01*
X146952923Y-114553300D01*
X146917453Y-114563606D01*
X146915585Y-114564574D01*
X146913572Y-114565182D01*
X146880962Y-114582520D01*
X146848144Y-114599532D01*
X146846499Y-114600845D01*
X146844643Y-114601832D01*
X146816010Y-114625183D01*
X146787134Y-114648236D01*
X146784208Y-114651120D01*
X146784146Y-114651172D01*
X146784098Y-114651229D01*
X146783157Y-114652158D01*
X144510458Y-116924855D01*
X144475911Y-116924614D01*
X144369961Y-116944825D01*
X144269954Y-116985230D01*
X144179701Y-117044290D01*
X144102637Y-117119756D01*
X144041699Y-117208754D01*
X143999209Y-117307892D01*
X143976783Y-117413395D01*
X143975277Y-117521245D01*
X143994748Y-117627334D01*
X144034454Y-117727620D01*
X144092883Y-117818284D01*
X144167809Y-117895873D01*
X144256379Y-117957430D01*
X144355218Y-118000612D01*
X144460563Y-118023773D01*
X144472001Y-118024012D01*
X144472001Y-121306713D01*
X144111464Y-121667250D01*
X144087984Y-121695835D01*
X144064262Y-121724106D01*
X144063249Y-121725948D01*
X144061913Y-121727575D01*
X144044448Y-121760145D01*
X144026653Y-121792516D01*
X144026016Y-121794521D01*
X144025023Y-121796375D01*
X144014231Y-121831671D01*
X144003048Y-121866928D01*
X144002813Y-121869022D01*
X144002199Y-121871031D01*
X143998465Y-121907779D01*
X143994346Y-121944508D01*
X143994317Y-121948615D01*
X143994309Y-121948697D01*
X143994316Y-121948773D01*
X143994307Y-121950093D01*
X143994307Y-122231867D01*
X143961310Y-122245334D01*
X143830963Y-122331282D01*
X143719792Y-122440911D01*
X143632032Y-122570045D01*
X143586091Y-122678273D01*
X143497953Y-122619269D01*
X143353809Y-122559268D01*
X143200756Y-122528406D01*
X143188540Y-122528363D01*
X143188540Y-112682995D01*
X143152411Y-112500527D01*
X143081528Y-112328552D01*
X142978591Y-112173620D01*
X142847522Y-112041632D01*
X142693312Y-111937617D01*
X142521836Y-111865535D01*
X142339625Y-111828132D01*
X142153619Y-111826834D01*
X141970903Y-111861688D01*
X141798438Y-111931369D01*
X141642791Y-112033222D01*
X141509891Y-112163366D01*
X141404802Y-112316846D01*
X141331524Y-112487815D01*
X141292851Y-112669760D01*
X141290254Y-112855752D01*
X141323832Y-113038707D01*
X141392307Y-113211655D01*
X141493070Y-113368009D01*
X141622284Y-113501814D01*
X141775026Y-113607972D01*
X141945479Y-113682442D01*
X142127150Y-113722385D01*
X142313120Y-113726280D01*
X142496305Y-113693980D01*
X142669726Y-113626714D01*
X142826780Y-113527044D01*
X142961484Y-113398768D01*
X143068706Y-113246771D01*
X143144363Y-113076842D01*
X143185574Y-112895454D01*
X143188540Y-112682995D01*
X143188540Y-122528363D01*
X143044625Y-122527862D01*
X142891361Y-122557652D01*
X142746803Y-122616646D01*
X142616456Y-122702594D01*
X142505285Y-122812223D01*
X142471297Y-122862234D01*
X142449226Y-122835459D01*
X142411091Y-122804301D01*
X142367609Y-122781182D01*
X142320452Y-122766990D01*
X142271433Y-122762270D01*
X142222436Y-122767204D01*
X142175342Y-122781602D01*
X141780506Y-122902315D01*
X141739010Y-122980358D01*
X141998490Y-123829078D01*
X142017615Y-123823230D01*
X142046853Y-123918861D01*
X142027727Y-123924709D01*
X142033574Y-123943834D01*
X141937943Y-123973072D01*
X141932096Y-123953946D01*
X141902859Y-123962884D01*
X141902859Y-123858315D01*
X141643379Y-123009595D01*
X141565337Y-122968099D01*
X141170501Y-123088813D01*
X141123407Y-123103211D01*
X141080027Y-123126519D01*
X141042028Y-123157844D01*
X141010869Y-123195979D01*
X140987750Y-123239460D01*
X140973557Y-123286616D01*
X140968837Y-123335636D01*
X140973771Y-123384634D01*
X141167357Y-124017825D01*
X141245400Y-124059321D01*
X141902859Y-123858315D01*
X141902859Y-123962884D01*
X141274637Y-124154951D01*
X141233141Y-124232994D01*
X141426727Y-124866185D01*
X141450036Y-124909565D01*
X141481360Y-124947565D01*
X141504362Y-124966358D01*
X140890058Y-125171991D01*
X140890058Y-117393426D01*
X140838635Y-117133719D01*
X140737747Y-116888947D01*
X140648540Y-116754679D01*
X140648540Y-112682995D01*
X140612411Y-112500527D01*
X140541528Y-112328552D01*
X140438591Y-112173620D01*
X140307522Y-112041632D01*
X140153312Y-111937617D01*
X139981836Y-111865535D01*
X139799625Y-111828132D01*
X139613619Y-111826834D01*
X139430903Y-111861688D01*
X139258438Y-111931369D01*
X139102791Y-112033222D01*
X138969891Y-112163366D01*
X138864802Y-112316846D01*
X138791524Y-112487815D01*
X138752851Y-112669760D01*
X138750254Y-112855752D01*
X138783832Y-113038707D01*
X138852307Y-113211655D01*
X138953070Y-113368009D01*
X139082284Y-113501814D01*
X139235026Y-113607972D01*
X139405479Y-113682442D01*
X139587150Y-113722385D01*
X139773120Y-113726280D01*
X139956305Y-113693980D01*
X140129726Y-113626714D01*
X140286780Y-113527044D01*
X140421484Y-113398768D01*
X140528706Y-113246771D01*
X140604363Y-113076842D01*
X140645574Y-112895454D01*
X140648540Y-112682995D01*
X140648540Y-116754679D01*
X140591237Y-116668432D01*
X140404686Y-116480574D01*
X140185199Y-116332529D01*
X139941137Y-116229934D01*
X139681796Y-116176699D01*
X139417054Y-116174851D01*
X139156995Y-116224460D01*
X138911524Y-116323636D01*
X138689992Y-116468603D01*
X138500836Y-116653838D01*
X138351262Y-116872286D01*
X138246966Y-117115626D01*
X138191922Y-117374589D01*
X138188226Y-117639312D01*
X138236018Y-117899711D01*
X138333478Y-118145868D01*
X138476895Y-118368407D01*
X138660805Y-118558851D01*
X138878203Y-118709947D01*
X139120809Y-118815939D01*
X139379381Y-118872789D01*
X139644072Y-118878334D01*
X139904798Y-118832361D01*
X140151630Y-118736621D01*
X140375164Y-118594762D01*
X140566888Y-118412186D01*
X140719498Y-118195848D01*
X140827181Y-117953988D01*
X140885835Y-117695819D01*
X140890058Y-117393426D01*
X140890058Y-125171991D01*
X139675123Y-125578681D01*
X139675120Y-125578682D01*
X139147796Y-125755198D01*
X138625413Y-125822188D01*
X138099960Y-125786435D01*
X137591457Y-125649303D01*
X137156084Y-125434200D01*
X139651762Y-125434200D01*
X139651762Y-123234200D01*
X136192238Y-123234200D01*
X136192238Y-124421296D01*
X136089561Y-124244223D01*
X135918898Y-123745974D01*
X135846657Y-123212192D01*
X135845000Y-123122082D01*
X135845000Y-111657070D01*
X135859742Y-111506716D01*
X135899148Y-111376197D01*
X135963154Y-111255819D01*
X136049319Y-111150171D01*
X136154368Y-111063266D01*
X136274295Y-110998422D01*
X136404539Y-110958105D01*
X136553965Y-110942400D01*
X169530329Y-110942400D01*
X169680683Y-110957142D01*
X169811202Y-110996548D01*
X169931580Y-111060554D01*
X170037228Y-111146719D01*
X170124133Y-111251768D01*
X170188977Y-111371695D01*
X170229294Y-111501939D01*
X170245000Y-111651365D01*
X170245000Y-123110154D01*
X170245000Y-123110154D01*
G37*
X170245000Y-123110154D02*
X170192167Y-123648977D01*
X170039944Y-124153166D01*
X169792690Y-124618185D01*
X169459820Y-125026323D01*
X169054018Y-125362032D01*
X168590735Y-125612528D01*
X168087624Y-125768268D01*
X167890058Y-125789032D01*
X167890058Y-117393426D01*
X167838635Y-117133719D01*
X167737747Y-116888947D01*
X167591237Y-116668432D01*
X167404686Y-116480574D01*
X167185199Y-116332529D01*
X166941137Y-116229934D01*
X166681796Y-116176699D01*
X166417054Y-116174851D01*
X166156995Y-116224460D01*
X165911524Y-116323636D01*
X165689992Y-116468603D01*
X165500836Y-116653838D01*
X165351262Y-116872286D01*
X165246966Y-117115626D01*
X165191922Y-117374589D01*
X165188226Y-117639312D01*
X165236018Y-117899711D01*
X165333478Y-118145868D01*
X165476895Y-118368407D01*
X165660805Y-118558851D01*
X165878203Y-118709947D01*
X166120809Y-118815939D01*
X166379381Y-118872789D01*
X166644072Y-118878334D01*
X166904798Y-118832361D01*
X167151630Y-118736621D01*
X167375164Y-118594762D01*
X167566888Y-118412186D01*
X167719498Y-118195848D01*
X167827181Y-117953988D01*
X167885835Y-117695819D01*
X167890058Y-117393426D01*
X167890058Y-125789032D01*
X167563836Y-125823320D01*
X167039341Y-125775588D01*
X166522611Y-125623506D01*
X166437128Y-125587125D01*
X166437084Y-125587111D01*
X166433969Y-125585802D01*
X164643248Y-124847720D01*
X164626930Y-124842793D01*
X164611078Y-124836551D01*
X164607041Y-124835432D01*
X164446763Y-124792208D01*
X164569323Y-124712617D01*
X164681255Y-124603767D01*
X164769914Y-124475247D01*
X164831922Y-124331956D01*
X164835262Y-124321297D01*
X164955040Y-123929519D01*
X164985900Y-123776467D01*
X164986446Y-123620336D01*
X164956654Y-123467071D01*
X164897661Y-123322513D01*
X164811712Y-123192166D01*
X164702083Y-123080995D01*
X164572948Y-122993236D01*
X164530107Y-122975050D01*
X164530107Y-120823107D01*
X164526500Y-120786322D01*
X164523281Y-120749527D01*
X164522694Y-120747507D01*
X164522489Y-120745413D01*
X164511820Y-120710076D01*
X164501502Y-120674560D01*
X164500531Y-120672687D01*
X164499925Y-120670679D01*
X164482615Y-120638124D01*
X164465576Y-120605252D01*
X164464261Y-120603605D01*
X164463275Y-120601750D01*
X164439952Y-120573153D01*
X164416872Y-120544241D01*
X164413984Y-120541313D01*
X164413935Y-120541253D01*
X164413878Y-120541206D01*
X164412950Y-120540265D01*
X160950496Y-117077810D01*
X160951023Y-117040070D01*
X160930073Y-116934263D01*
X160888971Y-116834541D01*
X160829282Y-116744702D01*
X160753279Y-116668167D01*
X160663859Y-116607853D01*
X160564426Y-116566055D01*
X160458769Y-116544367D01*
X160350911Y-116543614D01*
X160244961Y-116563825D01*
X160144954Y-116604230D01*
X160054701Y-116663290D01*
X159977637Y-116738756D01*
X159916699Y-116827754D01*
X159874209Y-116926892D01*
X159851783Y-117032395D01*
X159850277Y-117140245D01*
X159869748Y-117246334D01*
X159909454Y-117346620D01*
X159967883Y-117437284D01*
X160042809Y-117514873D01*
X160131379Y-117576430D01*
X160230218Y-117619612D01*
X160335563Y-117642773D01*
X160385125Y-117643811D01*
X163730107Y-120988792D01*
X163730107Y-123044939D01*
X163723230Y-123049405D01*
X163683154Y-122951201D01*
X163597205Y-122820854D01*
X163487576Y-122709683D01*
X163358441Y-122621924D01*
X163214721Y-122560918D01*
X163061888Y-122528990D01*
X162905764Y-122527355D01*
X162752295Y-122556077D01*
X162696154Y-122578531D01*
X162692829Y-122543992D01*
X162678636Y-122496836D01*
X162655517Y-122453355D01*
X162624358Y-122415220D01*
X162586359Y-122383895D01*
X162542979Y-122360587D01*
X162495885Y-122346189D01*
X162101049Y-122225475D01*
X162023007Y-122266971D01*
X161927376Y-122579765D01*
X161927376Y-122237734D01*
X161885880Y-122159691D01*
X161491044Y-122038978D01*
X161443950Y-122024580D01*
X161394953Y-122019646D01*
X161345934Y-122024366D01*
X161298777Y-122038558D01*
X161255295Y-122061677D01*
X161217160Y-122092835D01*
X161185836Y-122130835D01*
X161162527Y-122174215D01*
X160968941Y-122807406D01*
X161010437Y-122885449D01*
X161667896Y-123086454D01*
X161927376Y-122237734D01*
X161927376Y-122579765D01*
X161763527Y-123115691D01*
X161782653Y-123121538D01*
X161753415Y-123217169D01*
X161734290Y-123211322D01*
X161728442Y-123230448D01*
X161632811Y-123201210D01*
X161638659Y-123182085D01*
X160981200Y-122981079D01*
X160903157Y-123022575D01*
X160709571Y-123655766D01*
X160704637Y-123704764D01*
X160709357Y-123753784D01*
X160719355Y-123787003D01*
X158482937Y-123183888D01*
X158456144Y-123179407D01*
X158429367Y-123174545D01*
X158425190Y-123174232D01*
X154738910Y-122923414D01*
X154743051Y-122921250D01*
X154864731Y-122823417D01*
X154965091Y-122703813D01*
X155040308Y-122566993D01*
X155087518Y-122418168D01*
X155104922Y-122263009D01*
X155105000Y-122251839D01*
X155105000Y-121842161D01*
X155089764Y-121686774D01*
X155044637Y-121537305D01*
X154971337Y-121399448D01*
X154872657Y-121278454D01*
X154752354Y-121178931D01*
X154705000Y-121153326D01*
X154705000Y-118491000D01*
X154701393Y-118454215D01*
X154698174Y-118417420D01*
X154697587Y-118415400D01*
X154697382Y-118413306D01*
X154686699Y-118377923D01*
X154676394Y-118342453D01*
X154675425Y-118340585D01*
X154674818Y-118338572D01*
X154657479Y-118305962D01*
X154640468Y-118273144D01*
X154639154Y-118271499D01*
X154638168Y-118269643D01*
X154614816Y-118241010D01*
X154591764Y-118212134D01*
X154588879Y-118209208D01*
X154588828Y-118209146D01*
X154588770Y-118209098D01*
X154587842Y-118208157D01*
X153457496Y-117077810D01*
X153458023Y-117040070D01*
X153437073Y-116934263D01*
X153395971Y-116834541D01*
X153336282Y-116744702D01*
X153260279Y-116668167D01*
X153170859Y-116607853D01*
X153071426Y-116566055D01*
X152965769Y-116544367D01*
X152857911Y-116543614D01*
X152751961Y-116563825D01*
X152651954Y-116604230D01*
X152561701Y-116663290D01*
X152484637Y-116738756D01*
X152423699Y-116827754D01*
X152381209Y-116926892D01*
X152358783Y-117032395D01*
X152357277Y-117140245D01*
X152376748Y-117246334D01*
X152416454Y-117346620D01*
X152474883Y-117437284D01*
X152549809Y-117514873D01*
X152638379Y-117576430D01*
X152737218Y-117619612D01*
X152842563Y-117642773D01*
X152892125Y-117643811D01*
X153905000Y-118656685D01*
X153905000Y-121152857D01*
X153866949Y-121172750D01*
X153745269Y-121270583D01*
X153669693Y-121360649D01*
X153602657Y-121278454D01*
X153482354Y-121178931D01*
X153345012Y-121104670D01*
X153195862Y-121058501D01*
X153040585Y-121042180D01*
X152885095Y-121056331D01*
X152735315Y-121100414D01*
X152596949Y-121172750D01*
X152549825Y-121210637D01*
X152536547Y-121178580D01*
X152509188Y-121137634D01*
X152474366Y-121102812D01*
X152433419Y-121075453D01*
X152387922Y-121056607D01*
X152339623Y-121047000D01*
X152290377Y-121047000D01*
X151877500Y-121047000D01*
X151815000Y-121109500D01*
X151815000Y-121997000D01*
X151835000Y-121997000D01*
X151835000Y-122097000D01*
X151815000Y-122097000D01*
X151815000Y-122117000D01*
X151715000Y-122117000D01*
X151715000Y-122097000D01*
X151715000Y-121997000D01*
X151715000Y-121109500D01*
X151652500Y-121047000D01*
X151239623Y-121047000D01*
X151190377Y-121047000D01*
X151142078Y-121056607D01*
X151096581Y-121075453D01*
X151055634Y-121102812D01*
X151020812Y-121137634D01*
X150993453Y-121178580D01*
X150974607Y-121224078D01*
X150965000Y-121272377D01*
X150965000Y-121934500D01*
X151027500Y-121997000D01*
X151715000Y-121997000D01*
X151715000Y-122097000D01*
X151027500Y-122097000D01*
X150965000Y-122159500D01*
X150965000Y-122821623D01*
X150974607Y-122869922D01*
X150979285Y-122881215D01*
X145747039Y-123552183D01*
X145720549Y-123558253D01*
X145693950Y-123563959D01*
X145689979Y-123565258D01*
X145689969Y-123565261D01*
X145689960Y-123565264D01*
X145142437Y-123748543D01*
X145156582Y-123727731D01*
X145217588Y-123584011D01*
X145249517Y-123431178D01*
X145251152Y-123275053D01*
X145222431Y-123121585D01*
X145219240Y-123110881D01*
X145099462Y-122719103D01*
X145039461Y-122574960D01*
X144952606Y-122445216D01*
X144842203Y-122334813D01*
X144794307Y-122302749D01*
X144794307Y-122115778D01*
X145154843Y-121755242D01*
X145178298Y-121726686D01*
X145202046Y-121698386D01*
X145203058Y-121696543D01*
X145204395Y-121694917D01*
X145221840Y-121662381D01*
X145239655Y-121629976D01*
X145240292Y-121627965D01*
X145241284Y-121626117D01*
X145252065Y-121590853D01*
X145263260Y-121555564D01*
X145263494Y-121553471D01*
X145264109Y-121551462D01*
X145267837Y-121514751D01*
X145271962Y-121477984D01*
X145271990Y-121473866D01*
X145271998Y-121473795D01*
X145271991Y-121473728D01*
X145272001Y-121472399D01*
X145272001Y-117821001D01*
X145268394Y-117784216D01*
X145265175Y-117747421D01*
X145264588Y-117745401D01*
X145264383Y-117743307D01*
X145253700Y-117707924D01*
X145243395Y-117672454D01*
X145242426Y-117670586D01*
X145241819Y-117668573D01*
X145224480Y-117635963D01*
X145207469Y-117603145D01*
X145206155Y-117601500D01*
X145205169Y-117599644D01*
X145181817Y-117571011D01*
X145158765Y-117542135D01*
X145155880Y-117539209D01*
X145155829Y-117539147D01*
X145155771Y-117539099D01*
X145154843Y-117538158D01*
X145091685Y-117475000D01*
X147231685Y-115335000D01*
X151841200Y-115335000D01*
X151877984Y-115331393D01*
X151914780Y-115328174D01*
X151916799Y-115327587D01*
X151918894Y-115327382D01*
X151954276Y-115316699D01*
X151989747Y-115306394D01*
X151991614Y-115305425D01*
X151993628Y-115304818D01*
X152026257Y-115287468D01*
X152059055Y-115270468D01*
X152060697Y-115269156D01*
X152062557Y-115268168D01*
X152091211Y-115244798D01*
X152120066Y-115221764D01*
X152122995Y-115218875D01*
X152123054Y-115218828D01*
X152123098Y-115218774D01*
X152124043Y-115217843D01*
X152573843Y-114768043D01*
X152597322Y-114739457D01*
X152621045Y-114711187D01*
X152622057Y-114709344D01*
X152623394Y-114707718D01*
X152640858Y-114675147D01*
X152658654Y-114642777D01*
X152659290Y-114640771D01*
X152660284Y-114638918D01*
X152671079Y-114603608D01*
X152682259Y-114568365D01*
X152682493Y-114566272D01*
X152683108Y-114564263D01*
X152686836Y-114527552D01*
X152690961Y-114490785D01*
X152690989Y-114486667D01*
X152690997Y-114486596D01*
X152690990Y-114486529D01*
X152691000Y-114485200D01*
X152691000Y-114030337D01*
X152756122Y-113996292D01*
X152885322Y-113892413D01*
X152991884Y-113765417D01*
X153041105Y-113675882D01*
X153083483Y-113755584D01*
X153188262Y-113884055D01*
X153315999Y-113989729D01*
X153461829Y-114068578D01*
X153620196Y-114117601D01*
X153785070Y-114134930D01*
X153950169Y-114119905D01*
X154109206Y-114073098D01*
X154256122Y-113996292D01*
X154385322Y-113892413D01*
X154491884Y-113765417D01*
X154541105Y-113675882D01*
X154583483Y-113755584D01*
X154688262Y-113884055D01*
X154815999Y-113989729D01*
X154961829Y-114068578D01*
X155120196Y-114117601D01*
X155285070Y-114134930D01*
X155450169Y-114119905D01*
X155609206Y-114073098D01*
X155756122Y-113996292D01*
X155885322Y-113892413D01*
X155944150Y-113822304D01*
X155944150Y-113879630D01*
X155947448Y-113920198D01*
X155968499Y-113987520D01*
X156007436Y-114046336D01*
X156061190Y-114092009D01*
X156125522Y-114120937D01*
X156195360Y-114130840D01*
X157394240Y-114130840D01*
X157434808Y-114127542D01*
X157502130Y-114106491D01*
X157560946Y-114067554D01*
X157606619Y-114013800D01*
X157635547Y-113949468D01*
X157645450Y-113879630D01*
X157645450Y-112180370D01*
X157642152Y-112139802D01*
X157621101Y-112072480D01*
X157582164Y-112013664D01*
X157528410Y-111967991D01*
X157464078Y-111939063D01*
X157394240Y-111929160D01*
X156195360Y-111929160D01*
X156154792Y-111932458D01*
X156087470Y-111953509D01*
X156028654Y-111992446D01*
X155982981Y-112046200D01*
X155954053Y-112110532D01*
X155944150Y-112180370D01*
X155944150Y-112237755D01*
X155893738Y-112175945D01*
X155766001Y-112070271D01*
X155620171Y-111991422D01*
X155461804Y-111942399D01*
X155296930Y-111925070D01*
X155131831Y-111940095D01*
X154972794Y-111986902D01*
X154825878Y-112063708D01*
X154696678Y-112167587D01*
X154590116Y-112294583D01*
X154540894Y-112384117D01*
X154498517Y-112304416D01*
X154393738Y-112175945D01*
X154266001Y-112070271D01*
X154120171Y-111991422D01*
X153961804Y-111942399D01*
X153796930Y-111925070D01*
X153631831Y-111940095D01*
X153472794Y-111986902D01*
X153325878Y-112063708D01*
X153196678Y-112167587D01*
X153090116Y-112294583D01*
X153040894Y-112384117D01*
X152998517Y-112304416D01*
X152893738Y-112175945D01*
X152766001Y-112070271D01*
X152620171Y-111991422D01*
X152461804Y-111942399D01*
X152296930Y-111925070D01*
X152131831Y-111940095D01*
X151972794Y-111986902D01*
X151825878Y-112063708D01*
X151696678Y-112167587D01*
X151590116Y-112294583D01*
X151540894Y-112384117D01*
X151498517Y-112304416D01*
X151393738Y-112175945D01*
X151266001Y-112070271D01*
X151120171Y-111991422D01*
X150961804Y-111942399D01*
X150796930Y-111925070D01*
X150631831Y-111940095D01*
X150472794Y-111986902D01*
X150325878Y-112063708D01*
X150196678Y-112167587D01*
X150090116Y-112294583D01*
X150041264Y-112383443D01*
X149969505Y-112266313D01*
X149856289Y-112143810D01*
X149721350Y-112045748D01*
X149569873Y-111975896D01*
X149473036Y-111950105D01*
X149341000Y-111994460D01*
X149341000Y-112980000D01*
X149361000Y-112980000D01*
X149361000Y-113080000D01*
X149341000Y-113080000D01*
X149341000Y-114065540D01*
X149473036Y-114109895D01*
X149569873Y-114084104D01*
X149721350Y-114014252D01*
X149856289Y-113916190D01*
X149969505Y-113793687D01*
X150041371Y-113676382D01*
X150083483Y-113755584D01*
X150188262Y-113884055D01*
X150315999Y-113989729D01*
X150461829Y-114068578D01*
X150620196Y-114117601D01*
X150785070Y-114134930D01*
X150950169Y-114119905D01*
X151109206Y-114073098D01*
X151256122Y-113996292D01*
X151385322Y-113892413D01*
X151491884Y-113765417D01*
X151541105Y-113675882D01*
X151583483Y-113755584D01*
X151688262Y-113884055D01*
X151815999Y-113989729D01*
X151891000Y-114030281D01*
X151891000Y-114319514D01*
X151675514Y-114535000D01*
X149241000Y-114535000D01*
X149241000Y-114065540D01*
X149241000Y-113080000D01*
X149241000Y-112980000D01*
X149241000Y-111994460D01*
X149108964Y-111950105D01*
X149012127Y-111975896D01*
X148860650Y-112045748D01*
X148725711Y-112143810D01*
X148612495Y-112266313D01*
X148525354Y-112408549D01*
X148467636Y-112565053D01*
X148441560Y-112729810D01*
X148441560Y-112980000D01*
X149241000Y-112980000D01*
X149241000Y-113080000D01*
X148441560Y-113080000D01*
X148441560Y-113330190D01*
X148467636Y-113494947D01*
X148525354Y-113651451D01*
X148612495Y-113793687D01*
X148725711Y-113916190D01*
X148860650Y-114014252D01*
X149012127Y-114084104D01*
X149108964Y-114109895D01*
X149241000Y-114065540D01*
X149241000Y-114535000D01*
X147066000Y-114535000D01*
X147029171Y-114538611D01*
X146992420Y-114541826D01*
X146990400Y-114542412D01*
X146988306Y-114542618D01*
X146952923Y-114553300D01*
X146917453Y-114563606D01*
X146915585Y-114564574D01*
X146913572Y-114565182D01*
X146880962Y-114582520D01*
X146848144Y-114599532D01*
X146846499Y-114600845D01*
X146844643Y-114601832D01*
X146816010Y-114625183D01*
X146787134Y-114648236D01*
X146784208Y-114651120D01*
X146784146Y-114651172D01*
X146784098Y-114651229D01*
X146783157Y-114652158D01*
X144510458Y-116924855D01*
X144475911Y-116924614D01*
X144369961Y-116944825D01*
X144269954Y-116985230D01*
X144179701Y-117044290D01*
X144102637Y-117119756D01*
X144041699Y-117208754D01*
X143999209Y-117307892D01*
X143976783Y-117413395D01*
X143975277Y-117521245D01*
X143994748Y-117627334D01*
X144034454Y-117727620D01*
X144092883Y-117818284D01*
X144167809Y-117895873D01*
X144256379Y-117957430D01*
X144355218Y-118000612D01*
X144460563Y-118023773D01*
X144472001Y-118024012D01*
X144472001Y-121306713D01*
X144111464Y-121667250D01*
X144087984Y-121695835D01*
X144064262Y-121724106D01*
X144063249Y-121725948D01*
X144061913Y-121727575D01*
X144044448Y-121760145D01*
X144026653Y-121792516D01*
X144026016Y-121794521D01*
X144025023Y-121796375D01*
X144014231Y-121831671D01*
X144003048Y-121866928D01*
X144002813Y-121869022D01*
X144002199Y-121871031D01*
X143998465Y-121907779D01*
X143994346Y-121944508D01*
X143994317Y-121948615D01*
X143994309Y-121948697D01*
X143994316Y-121948773D01*
X143994307Y-121950093D01*
X143994307Y-122231867D01*
X143961310Y-122245334D01*
X143830963Y-122331282D01*
X143719792Y-122440911D01*
X143632032Y-122570045D01*
X143586091Y-122678273D01*
X143497953Y-122619269D01*
X143353809Y-122559268D01*
X143200756Y-122528406D01*
X143188540Y-122528363D01*
X143188540Y-112682995D01*
X143152411Y-112500527D01*
X143081528Y-112328552D01*
X142978591Y-112173620D01*
X142847522Y-112041632D01*
X142693312Y-111937617D01*
X142521836Y-111865535D01*
X142339625Y-111828132D01*
X142153619Y-111826834D01*
X141970903Y-111861688D01*
X141798438Y-111931369D01*
X141642791Y-112033222D01*
X141509891Y-112163366D01*
X141404802Y-112316846D01*
X141331524Y-112487815D01*
X141292851Y-112669760D01*
X141290254Y-112855752D01*
X141323832Y-113038707D01*
X141392307Y-113211655D01*
X141493070Y-113368009D01*
X141622284Y-113501814D01*
X141775026Y-113607972D01*
X141945479Y-113682442D01*
X142127150Y-113722385D01*
X142313120Y-113726280D01*
X142496305Y-113693980D01*
X142669726Y-113626714D01*
X142826780Y-113527044D01*
X142961484Y-113398768D01*
X143068706Y-113246771D01*
X143144363Y-113076842D01*
X143185574Y-112895454D01*
X143188540Y-112682995D01*
X143188540Y-122528363D01*
X143044625Y-122527862D01*
X142891361Y-122557652D01*
X142746803Y-122616646D01*
X142616456Y-122702594D01*
X142505285Y-122812223D01*
X142471297Y-122862234D01*
X142449226Y-122835459D01*
X142411091Y-122804301D01*
X142367609Y-122781182D01*
X142320452Y-122766990D01*
X142271433Y-122762270D01*
X142222436Y-122767204D01*
X142175342Y-122781602D01*
X141780506Y-122902315D01*
X141739010Y-122980358D01*
X141998490Y-123829078D01*
X142017615Y-123823230D01*
X142046853Y-123918861D01*
X142027727Y-123924709D01*
X142033574Y-123943834D01*
X141937943Y-123973072D01*
X141932096Y-123953946D01*
X141902859Y-123962884D01*
X141902859Y-123858315D01*
X141643379Y-123009595D01*
X141565337Y-122968099D01*
X141170501Y-123088813D01*
X141123407Y-123103211D01*
X141080027Y-123126519D01*
X141042028Y-123157844D01*
X141010869Y-123195979D01*
X140987750Y-123239460D01*
X140973557Y-123286616D01*
X140968837Y-123335636D01*
X140973771Y-123384634D01*
X141167357Y-124017825D01*
X141245400Y-124059321D01*
X141902859Y-123858315D01*
X141902859Y-123962884D01*
X141274637Y-124154951D01*
X141233141Y-124232994D01*
X141426727Y-124866185D01*
X141450036Y-124909565D01*
X141481360Y-124947565D01*
X141504362Y-124966358D01*
X140890058Y-125171991D01*
X140890058Y-117393426D01*
X140838635Y-117133719D01*
X140737747Y-116888947D01*
X140648540Y-116754679D01*
X140648540Y-112682995D01*
X140612411Y-112500527D01*
X140541528Y-112328552D01*
X140438591Y-112173620D01*
X140307522Y-112041632D01*
X140153312Y-111937617D01*
X139981836Y-111865535D01*
X139799625Y-111828132D01*
X139613619Y-111826834D01*
X139430903Y-111861688D01*
X139258438Y-111931369D01*
X139102791Y-112033222D01*
X138969891Y-112163366D01*
X138864802Y-112316846D01*
X138791524Y-112487815D01*
X138752851Y-112669760D01*
X138750254Y-112855752D01*
X138783832Y-113038707D01*
X138852307Y-113211655D01*
X138953070Y-113368009D01*
X139082284Y-113501814D01*
X139235026Y-113607972D01*
X139405479Y-113682442D01*
X139587150Y-113722385D01*
X139773120Y-113726280D01*
X139956305Y-113693980D01*
X140129726Y-113626714D01*
X140286780Y-113527044D01*
X140421484Y-113398768D01*
X140528706Y-113246771D01*
X140604363Y-113076842D01*
X140645574Y-112895454D01*
X140648540Y-112682995D01*
X140648540Y-116754679D01*
X140591237Y-116668432D01*
X140404686Y-116480574D01*
X140185199Y-116332529D01*
X139941137Y-116229934D01*
X139681796Y-116176699D01*
X139417054Y-116174851D01*
X139156995Y-116224460D01*
X138911524Y-116323636D01*
X138689992Y-116468603D01*
X138500836Y-116653838D01*
X138351262Y-116872286D01*
X138246966Y-117115626D01*
X138191922Y-117374589D01*
X138188226Y-117639312D01*
X138236018Y-117899711D01*
X138333478Y-118145868D01*
X138476895Y-118368407D01*
X138660805Y-118558851D01*
X138878203Y-118709947D01*
X139120809Y-118815939D01*
X139379381Y-118872789D01*
X139644072Y-118878334D01*
X139904798Y-118832361D01*
X140151630Y-118736621D01*
X140375164Y-118594762D01*
X140566888Y-118412186D01*
X140719498Y-118195848D01*
X140827181Y-117953988D01*
X140885835Y-117695819D01*
X140890058Y-117393426D01*
X140890058Y-125171991D01*
X139675123Y-125578681D01*
X139675120Y-125578682D01*
X139147796Y-125755198D01*
X138625413Y-125822188D01*
X138099960Y-125786435D01*
X137591457Y-125649303D01*
X137156084Y-125434200D01*
X139651762Y-125434200D01*
X139651762Y-123234200D01*
X136192238Y-123234200D01*
X136192238Y-124421296D01*
X136089561Y-124244223D01*
X135918898Y-123745974D01*
X135846657Y-123212192D01*
X135845000Y-123122082D01*
X135845000Y-111657070D01*
X135859742Y-111506716D01*
X135899148Y-111376197D01*
X135963154Y-111255819D01*
X136049319Y-111150171D01*
X136154368Y-111063266D01*
X136274295Y-110998422D01*
X136404539Y-110958105D01*
X136553965Y-110942400D01*
X169530329Y-110942400D01*
X169680683Y-110957142D01*
X169811202Y-110996548D01*
X169931580Y-111060554D01*
X170037228Y-111146719D01*
X170124133Y-111251768D01*
X170188977Y-111371695D01*
X170229294Y-111501939D01*
X170245000Y-111651365D01*
X170245000Y-123110154D01*
M02*
