G04 #@! TF.FileFunction,Copper,L1,Top,Signal*
%FSLAX46Y46*%
G04 Gerber Fmt 4.6, Leading zero omitted, Abs format (unit mm)*
G04 Created by KiCad (PCBNEW (after 2015-mar-04 BZR unknown)-product) date 02.05.2015 13:27:57*
%MOMM*%
G01*
G04 APERTURE LIST*
%ADD10C,0.100000*%
%ADD11C,0.150000*%
%ADD12R,0.900000X1.700000*%
%ADD13C,1.397000*%
%ADD14R,1.700000X0.900000*%
%ADD15C,1.100000*%
%ADD16R,1.198880X1.198880*%
%ADD17R,1.198880X1.699260*%
%ADD18O,1.198880X1.699260*%
%ADD19R,1.100000X1.500000*%
%ADD20O,1.100000X1.500000*%
%ADD21C,0.600000*%
%ADD22C,0.500000*%
%ADD23C,0.300000*%
%ADD24C,0.200000*%
G04 APERTURE END LIST*
D10*
D11*
X136612476Y-123861581D02*
X137183905Y-123861581D01*
X136898190Y-124861581D02*
X136898190Y-123861581D01*
X137707714Y-123861581D02*
X137898191Y-123861581D01*
X137993429Y-123909200D01*
X138088667Y-124004438D01*
X138136286Y-124194914D01*
X138136286Y-124528248D01*
X138088667Y-124718724D01*
X137993429Y-124813962D01*
X137898191Y-124861581D01*
X137707714Y-124861581D01*
X137612476Y-124813962D01*
X137517238Y-124718724D01*
X137469619Y-124528248D01*
X137469619Y-124194914D01*
X137517238Y-124004438D01*
X137612476Y-123909200D01*
X137707714Y-123861581D01*
X138564857Y-124861581D02*
X138564857Y-123861581D01*
X138945810Y-123861581D01*
X139041048Y-123909200D01*
X139088667Y-123956819D01*
X139136286Y-124052057D01*
X139136286Y-124194914D01*
X139088667Y-124290152D01*
X139041048Y-124337771D01*
X138945810Y-124385390D01*
X138564857Y-124385390D01*
D12*
X137742000Y-121920000D03*
X140642000Y-121920000D03*
D13*
X142240000Y-112776000D03*
X139700000Y-112776000D03*
D12*
X143510000Y-120650000D03*
X146410000Y-120650000D03*
D14*
X145034000Y-112342000D03*
X145034000Y-115242000D03*
D12*
X143510000Y-118110000D03*
X146410000Y-118110000D03*
D10*
G36*
X142710539Y-124447936D02*
X141658604Y-124769545D01*
X141220047Y-123335088D01*
X142271982Y-123013479D01*
X142710539Y-124447936D01*
X142710539Y-124447936D01*
G37*
D15*
X143238274Y-123711461D02*
X143121326Y-123328939D01*
X144452781Y-123340149D02*
X144335833Y-122957627D01*
D12*
X159230400Y-119278400D03*
X162130400Y-119278400D03*
X159230400Y-116738400D03*
X162130400Y-116738400D03*
D16*
X166463980Y-113030000D03*
X168562020Y-113030000D03*
D12*
X162126000Y-113030000D03*
X165026000Y-113030000D03*
D10*
G36*
X162007782Y-124026921D02*
X160955847Y-123705312D01*
X161394404Y-122270855D01*
X162446339Y-122592464D01*
X162007782Y-124026921D01*
X162007782Y-124026921D01*
G37*
D15*
X162857126Y-123711461D02*
X162974074Y-123328939D01*
X164071633Y-124082773D02*
X164188581Y-123700251D01*
D14*
X149504400Y-119204400D03*
X149504400Y-116304400D03*
D17*
X156794800Y-113030000D03*
D18*
X153791000Y-113030000D03*
X155291000Y-113030000D03*
X152291000Y-113030000D03*
X150791000Y-113030000D03*
X149291000Y-113030000D03*
D14*
X157124400Y-119204400D03*
X157124400Y-116304400D03*
D12*
X151610400Y-119278400D03*
X154510400Y-119278400D03*
X151610400Y-116738400D03*
X154510400Y-116738400D03*
D19*
X151765000Y-122047000D03*
D20*
X153035000Y-122047000D03*
X154305000Y-122047000D03*
D21*
X160274000Y-119380000D03*
X163322000Y-113030000D03*
X138938000Y-121920000D03*
X149352000Y-118110000D03*
X145034000Y-113538000D03*
X144272000Y-120675400D03*
X144526000Y-117475000D03*
X152908000Y-117094000D03*
X160401000Y-117094000D03*
D22*
X159156400Y-119204400D02*
X159332000Y-119380000D01*
X159332000Y-119380000D02*
X160274000Y-119380000D01*
X157124400Y-119204400D02*
X159156400Y-119204400D01*
X149504400Y-119204400D02*
X149504400Y-118262400D01*
X151536400Y-119204400D02*
X151610400Y-119278400D01*
X149504400Y-119204400D02*
X151536400Y-119204400D01*
X137742000Y-121920000D02*
X138938000Y-121920000D01*
X145034000Y-112342000D02*
X145034000Y-113538000D01*
X149504400Y-118262400D02*
X149352000Y-118110000D01*
X162126000Y-113030000D02*
X163322000Y-113030000D01*
X144246600Y-120650000D02*
X144272000Y-120675400D01*
X143510000Y-120650000D02*
X144246600Y-120650000D01*
D23*
X142760000Y-118110000D02*
X143510000Y-118110000D01*
X142240000Y-118630000D02*
X142760000Y-118110000D01*
X142240000Y-121072000D02*
X142240000Y-118630000D01*
X141392000Y-121920000D02*
X142240000Y-121072000D01*
X140642000Y-121920000D02*
X141392000Y-121920000D01*
X144526000Y-117475000D02*
X144526000Y-117881400D01*
X144297400Y-118110000D02*
X143510000Y-118110000D01*
X144526000Y-117881400D02*
X144297400Y-118110000D01*
X149504400Y-116304400D02*
X151176400Y-116304400D01*
X151176400Y-116304400D02*
X151610400Y-116738400D01*
X151610400Y-116738400D02*
X152552400Y-116738400D01*
X151610400Y-116738400D02*
X152360400Y-116738400D01*
X152552400Y-116738400D02*
X152908000Y-117094000D01*
X153791000Y-115499800D02*
X153791000Y-113030000D01*
X152552400Y-116738400D02*
X153791000Y-115499800D01*
X159586000Y-117094000D02*
X159230400Y-116738400D01*
X158796400Y-116304400D02*
X159230400Y-116738400D01*
X157124400Y-116304400D02*
X158796400Y-116304400D01*
X160401000Y-117094000D02*
X159586000Y-117094000D01*
X155690770Y-114706400D02*
X156845000Y-114706400D01*
X157124400Y-114985800D02*
X157124400Y-116304400D01*
X156845000Y-114706400D02*
X157124400Y-114985800D01*
X155291000Y-114306630D02*
X155291000Y-113030000D01*
X155690770Y-114706400D02*
X155291000Y-114306630D01*
X165026000Y-113030000D02*
X166463980Y-113030000D01*
X150791000Y-111880370D02*
X150791000Y-113030000D01*
X150502629Y-111591999D02*
X150791000Y-111880370D01*
X143424001Y-111591999D02*
X150502629Y-111591999D01*
X142240000Y-112776000D02*
X143424001Y-111591999D01*
D24*
G36*
X170245000Y-123110154D02*
X170192167Y-123648977D01*
X170039944Y-124153166D01*
X169792690Y-124618185D01*
X169459820Y-125026323D01*
X169411460Y-125066329D01*
X169411460Y-113654063D01*
X169411460Y-113604817D01*
X169411460Y-113142500D01*
X169411460Y-112917500D01*
X169411460Y-112455183D01*
X169411460Y-112405937D01*
X169401853Y-112357638D01*
X169383007Y-112312141D01*
X169355648Y-112271194D01*
X169320826Y-112236372D01*
X169279880Y-112209013D01*
X169234382Y-112190167D01*
X169186083Y-112180560D01*
X168674520Y-112180560D01*
X168612020Y-112243060D01*
X168612020Y-112980000D01*
X169348960Y-112980000D01*
X169411460Y-112917500D01*
X169411460Y-113142500D01*
X169348960Y-113080000D01*
X168612020Y-113080000D01*
X168612020Y-113816940D01*
X168674520Y-113879440D01*
X169186083Y-113879440D01*
X169234382Y-113869833D01*
X169279880Y-113850987D01*
X169320826Y-113823628D01*
X169355648Y-113788806D01*
X169383007Y-113747859D01*
X169401853Y-113702362D01*
X169411460Y-113654063D01*
X169411460Y-125066329D01*
X169054018Y-125362032D01*
X168590735Y-125612528D01*
X168512020Y-125636894D01*
X168512020Y-113816940D01*
X168512020Y-113080000D01*
X168512020Y-112980000D01*
X168512020Y-112243060D01*
X168449520Y-112180560D01*
X167937957Y-112180560D01*
X167889658Y-112190167D01*
X167844160Y-112209013D01*
X167803214Y-112236372D01*
X167768392Y-112271194D01*
X167741033Y-112312141D01*
X167722187Y-112357638D01*
X167712580Y-112405937D01*
X167712580Y-112455183D01*
X167712580Y-112917500D01*
X167775080Y-112980000D01*
X168512020Y-112980000D01*
X168512020Y-113080000D01*
X167775080Y-113080000D01*
X167712580Y-113142500D01*
X167712580Y-113604817D01*
X167712580Y-113654063D01*
X167722187Y-113702362D01*
X167741033Y-113747859D01*
X167768392Y-113788806D01*
X167803214Y-113823628D01*
X167844160Y-113850987D01*
X167889658Y-113869833D01*
X167937957Y-113879440D01*
X168449520Y-113879440D01*
X168512020Y-113816940D01*
X168512020Y-125636894D01*
X168087624Y-125768268D01*
X167890058Y-125789032D01*
X167890058Y-117393426D01*
X167838635Y-117133719D01*
X167737747Y-116888947D01*
X167591237Y-116668432D01*
X167404686Y-116480574D01*
X167314630Y-116419830D01*
X167314630Y-113629440D01*
X167314630Y-112430560D01*
X167311332Y-112389992D01*
X167290281Y-112322670D01*
X167251344Y-112263854D01*
X167197590Y-112218181D01*
X167133258Y-112189253D01*
X167063420Y-112179350D01*
X165864540Y-112179350D01*
X165823972Y-112182648D01*
X165756650Y-112203699D01*
X165727210Y-112223188D01*
X165727210Y-112180000D01*
X165723912Y-112139432D01*
X165702861Y-112072110D01*
X165663924Y-112013294D01*
X165610170Y-111967621D01*
X165545838Y-111938693D01*
X165476000Y-111928790D01*
X164576000Y-111928790D01*
X164535432Y-111932088D01*
X164468110Y-111953139D01*
X164409294Y-111992076D01*
X164363621Y-112045830D01*
X164334693Y-112110162D01*
X164324790Y-112180000D01*
X164324790Y-113880000D01*
X164328088Y-113920568D01*
X164349139Y-113987890D01*
X164388076Y-114046706D01*
X164441830Y-114092379D01*
X164506162Y-114121307D01*
X164576000Y-114131210D01*
X165476000Y-114131210D01*
X165516568Y-114127912D01*
X165583890Y-114106861D01*
X165642706Y-114067924D01*
X165688379Y-114014170D01*
X165717307Y-113949838D01*
X165727210Y-113880000D01*
X165727210Y-113839134D01*
X165730370Y-113841819D01*
X165794702Y-113870747D01*
X165864540Y-113880650D01*
X167063420Y-113880650D01*
X167103988Y-113877352D01*
X167171310Y-113856301D01*
X167230126Y-113817364D01*
X167275799Y-113763610D01*
X167304727Y-113699278D01*
X167314630Y-113629440D01*
X167314630Y-116419830D01*
X167185199Y-116332529D01*
X166941137Y-116229934D01*
X166681796Y-116176699D01*
X166417054Y-116174851D01*
X166156995Y-116224460D01*
X165911524Y-116323636D01*
X165689992Y-116468603D01*
X165500836Y-116653838D01*
X165351262Y-116872286D01*
X165246966Y-117115626D01*
X165191922Y-117374589D01*
X165188226Y-117639312D01*
X165236018Y-117899711D01*
X165333478Y-118145868D01*
X165476895Y-118368407D01*
X165660805Y-118558851D01*
X165878203Y-118709947D01*
X166120809Y-118815939D01*
X166379381Y-118872789D01*
X166644072Y-118878334D01*
X166904798Y-118832361D01*
X167151630Y-118736621D01*
X167375164Y-118594762D01*
X167566888Y-118412186D01*
X167719498Y-118195848D01*
X167827181Y-117953988D01*
X167885835Y-117695819D01*
X167890058Y-117393426D01*
X167890058Y-125789032D01*
X167563836Y-125823320D01*
X167039341Y-125775588D01*
X166522611Y-125623506D01*
X166437128Y-125587125D01*
X166437084Y-125587111D01*
X166433969Y-125585802D01*
X164643248Y-124847720D01*
X164626930Y-124842793D01*
X164611078Y-124836551D01*
X164607041Y-124835432D01*
X164446763Y-124792208D01*
X164569323Y-124712617D01*
X164681255Y-124603767D01*
X164769914Y-124475247D01*
X164831922Y-124331956D01*
X164835262Y-124321297D01*
X164955040Y-123929519D01*
X164985900Y-123776467D01*
X164986446Y-123620336D01*
X164956654Y-123467071D01*
X164897661Y-123322513D01*
X164811712Y-123192166D01*
X164702083Y-123080995D01*
X164572948Y-122993236D01*
X164429228Y-122932230D01*
X164276395Y-122900302D01*
X164120271Y-122898667D01*
X163966802Y-122927389D01*
X163872023Y-122965297D01*
X163872023Y-112976070D01*
X163851073Y-112870263D01*
X163809971Y-112770541D01*
X163750282Y-112680702D01*
X163674279Y-112604167D01*
X163584859Y-112543853D01*
X163485426Y-112502055D01*
X163379769Y-112480367D01*
X163271911Y-112479614D01*
X163165961Y-112499825D01*
X163091274Y-112530000D01*
X162827210Y-112530000D01*
X162827210Y-112180000D01*
X162823912Y-112139432D01*
X162802861Y-112072110D01*
X162763924Y-112013294D01*
X162710170Y-111967621D01*
X162645838Y-111938693D01*
X162576000Y-111928790D01*
X161676000Y-111928790D01*
X161635432Y-111932088D01*
X161568110Y-111953139D01*
X161509294Y-111992076D01*
X161463621Y-112045830D01*
X161434693Y-112110162D01*
X161424790Y-112180000D01*
X161424790Y-113880000D01*
X161428088Y-113920568D01*
X161449139Y-113987890D01*
X161488076Y-114046706D01*
X161541830Y-114092379D01*
X161606162Y-114121307D01*
X161676000Y-114131210D01*
X162576000Y-114131210D01*
X162616568Y-114127912D01*
X162683890Y-114106861D01*
X162742706Y-114067924D01*
X162788379Y-114014170D01*
X162817307Y-113949838D01*
X162827210Y-113880000D01*
X162827210Y-113530000D01*
X163092594Y-113530000D01*
X163151218Y-113555612D01*
X163256563Y-113578773D01*
X163364400Y-113581032D01*
X163470621Y-113562302D01*
X163571182Y-113523297D01*
X163662252Y-113465503D01*
X163740362Y-113391120D01*
X163802536Y-113302982D01*
X163846407Y-113204447D01*
X163870303Y-113099267D01*
X163872023Y-112976070D01*
X163872023Y-122965297D01*
X163821835Y-122985371D01*
X163724717Y-123048439D01*
X163656960Y-122909214D01*
X163561955Y-122784055D01*
X163444357Y-122679835D01*
X163369025Y-122633228D01*
X163237018Y-122639906D01*
X162978034Y-123487003D01*
X162997160Y-123492850D01*
X162967922Y-123588481D01*
X162948797Y-123582634D01*
X162942949Y-123601760D01*
X162847318Y-123572522D01*
X162853166Y-123553397D01*
X162834039Y-123547549D01*
X162863277Y-123451918D01*
X162882403Y-123457766D01*
X163141387Y-122610669D01*
X163035682Y-122531315D01*
X162947167Y-122527828D01*
X162830400Y-122543302D01*
X162830400Y-120153023D01*
X162830400Y-120103777D01*
X162830400Y-119390900D01*
X162830400Y-119165900D01*
X162830400Y-118453023D01*
X162830400Y-118403777D01*
X162830400Y-117613023D01*
X162830400Y-117563777D01*
X162830400Y-116850900D01*
X162830400Y-116625900D01*
X162830400Y-115913023D01*
X162830400Y-115863777D01*
X162820793Y-115815478D01*
X162801947Y-115769981D01*
X162774588Y-115729034D01*
X162739766Y-115694212D01*
X162698820Y-115666853D01*
X162653322Y-115648007D01*
X162605023Y-115638400D01*
X162242900Y-115638400D01*
X162180400Y-115700900D01*
X162180400Y-116688400D01*
X162767900Y-116688400D01*
X162830400Y-116625900D01*
X162830400Y-116850900D01*
X162767900Y-116788400D01*
X162180400Y-116788400D01*
X162180400Y-117775900D01*
X162242900Y-117838400D01*
X162605023Y-117838400D01*
X162653322Y-117828793D01*
X162698820Y-117809947D01*
X162739766Y-117782588D01*
X162774588Y-117747766D01*
X162801947Y-117706819D01*
X162820793Y-117661322D01*
X162830400Y-117613023D01*
X162830400Y-118403777D01*
X162820793Y-118355478D01*
X162801947Y-118309981D01*
X162774588Y-118269034D01*
X162739766Y-118234212D01*
X162698820Y-118206853D01*
X162653322Y-118188007D01*
X162605023Y-118178400D01*
X162242900Y-118178400D01*
X162180400Y-118240900D01*
X162180400Y-119228400D01*
X162767900Y-119228400D01*
X162830400Y-119165900D01*
X162830400Y-119390900D01*
X162767900Y-119328400D01*
X162180400Y-119328400D01*
X162180400Y-120315900D01*
X162242900Y-120378400D01*
X162605023Y-120378400D01*
X162653322Y-120368793D01*
X162698820Y-120349947D01*
X162739766Y-120322588D01*
X162774588Y-120287766D01*
X162801947Y-120246819D01*
X162820793Y-120201322D01*
X162830400Y-120153023D01*
X162830400Y-122543302D01*
X162791395Y-122548471D01*
X162694994Y-122581286D01*
X162694831Y-122555616D01*
X162674792Y-122487986D01*
X162636740Y-122428593D01*
X162583677Y-122382120D01*
X162519786Y-122352231D01*
X162080400Y-122217897D01*
X162080400Y-120315900D01*
X162080400Y-119328400D01*
X162080400Y-119228400D01*
X162080400Y-118240900D01*
X162080400Y-117775900D01*
X162080400Y-116788400D01*
X162080400Y-116688400D01*
X162080400Y-115700900D01*
X162017900Y-115638400D01*
X161655777Y-115638400D01*
X161607478Y-115648007D01*
X161561980Y-115666853D01*
X161521034Y-115694212D01*
X161486212Y-115729034D01*
X161458853Y-115769981D01*
X161440007Y-115815478D01*
X161430400Y-115863777D01*
X161430400Y-115913023D01*
X161430400Y-116625900D01*
X161492900Y-116688400D01*
X162080400Y-116688400D01*
X162080400Y-116788400D01*
X161492900Y-116788400D01*
X161430400Y-116850900D01*
X161430400Y-117563777D01*
X161430400Y-117613023D01*
X161440007Y-117661322D01*
X161458853Y-117706819D01*
X161486212Y-117747766D01*
X161521034Y-117782588D01*
X161561980Y-117809947D01*
X161607478Y-117828793D01*
X161655777Y-117838400D01*
X162017900Y-117838400D01*
X162080400Y-117775900D01*
X162080400Y-118240900D01*
X162017900Y-118178400D01*
X161655777Y-118178400D01*
X161607478Y-118188007D01*
X161561980Y-118206853D01*
X161521034Y-118234212D01*
X161486212Y-118269034D01*
X161458853Y-118309981D01*
X161440007Y-118355478D01*
X161430400Y-118403777D01*
X161430400Y-118453023D01*
X161430400Y-119165900D01*
X161492900Y-119228400D01*
X162080400Y-119228400D01*
X162080400Y-119328400D01*
X161492900Y-119328400D01*
X161430400Y-119390900D01*
X161430400Y-120103777D01*
X161430400Y-120153023D01*
X161440007Y-120201322D01*
X161458853Y-120246819D01*
X161486212Y-120287766D01*
X161521034Y-120322588D01*
X161561980Y-120349947D01*
X161607478Y-120368793D01*
X161655777Y-120378400D01*
X162017900Y-120378400D01*
X162080400Y-120315900D01*
X162080400Y-122217897D01*
X161467851Y-122030622D01*
X161428091Y-122021914D01*
X161357556Y-122022363D01*
X161289926Y-122042403D01*
X161230533Y-122080454D01*
X161184060Y-122133517D01*
X161154171Y-122197408D01*
X160951023Y-122861875D01*
X160951023Y-117040070D01*
X160930073Y-116934263D01*
X160888971Y-116834541D01*
X160829282Y-116744702D01*
X160753279Y-116668167D01*
X160663859Y-116607853D01*
X160564426Y-116566055D01*
X160458769Y-116544367D01*
X160350911Y-116543614D01*
X160244961Y-116563825D01*
X160144954Y-116604230D01*
X160054701Y-116663290D01*
X160023340Y-116694000D01*
X159931610Y-116694000D01*
X159931610Y-115888400D01*
X159928312Y-115847832D01*
X159907261Y-115780510D01*
X159868324Y-115721694D01*
X159814570Y-115676021D01*
X159750238Y-115647093D01*
X159680400Y-115637190D01*
X158780400Y-115637190D01*
X158739832Y-115640488D01*
X158672510Y-115661539D01*
X158613694Y-115700476D01*
X158568021Y-115754230D01*
X158539093Y-115818562D01*
X158529190Y-115888400D01*
X158529190Y-115904400D01*
X158225610Y-115904400D01*
X158225610Y-115854400D01*
X158222312Y-115813832D01*
X158201261Y-115746510D01*
X158162324Y-115687694D01*
X158108570Y-115642021D01*
X158044238Y-115613093D01*
X157974400Y-115603190D01*
X157644240Y-115603190D01*
X157644240Y-113904253D01*
X157644240Y-113855007D01*
X157644240Y-113142500D01*
X157644240Y-112917500D01*
X157644240Y-112204993D01*
X157644240Y-112155747D01*
X157634633Y-112107448D01*
X157615787Y-112061951D01*
X157588428Y-112021004D01*
X157553606Y-111986182D01*
X157512660Y-111958823D01*
X157467162Y-111939977D01*
X157418863Y-111930370D01*
X156907300Y-111930370D01*
X156844800Y-111992870D01*
X156844800Y-112980000D01*
X157581740Y-112980000D01*
X157644240Y-112917500D01*
X157644240Y-113142500D01*
X157581740Y-113080000D01*
X156844800Y-113080000D01*
X156844800Y-114067130D01*
X156907300Y-114129630D01*
X157418863Y-114129630D01*
X157467162Y-114120023D01*
X157512660Y-114101177D01*
X157553606Y-114073818D01*
X157588428Y-114038996D01*
X157615787Y-113998049D01*
X157634633Y-113952552D01*
X157644240Y-113904253D01*
X157644240Y-115603190D01*
X157524400Y-115603190D01*
X157524400Y-114985800D01*
X157520793Y-114949015D01*
X157517574Y-114912220D01*
X157516987Y-114910200D01*
X157516782Y-114908106D01*
X157506099Y-114872723D01*
X157495794Y-114837253D01*
X157494825Y-114835385D01*
X157494218Y-114833372D01*
X157476879Y-114800762D01*
X157459868Y-114767944D01*
X157458554Y-114766299D01*
X157457568Y-114764443D01*
X157434216Y-114735810D01*
X157411164Y-114706934D01*
X157408275Y-114704004D01*
X157408228Y-114703946D01*
X157408174Y-114703901D01*
X157407243Y-114702957D01*
X157127843Y-114423557D01*
X157099257Y-114400077D01*
X157070987Y-114376355D01*
X157069144Y-114375342D01*
X157067518Y-114374006D01*
X157034947Y-114356541D01*
X157002577Y-114338746D01*
X157000571Y-114338109D01*
X156998718Y-114337116D01*
X156963421Y-114326324D01*
X156928165Y-114315141D01*
X156926070Y-114314906D01*
X156924062Y-114314292D01*
X156887313Y-114310558D01*
X156850585Y-114306439D01*
X156846477Y-114306410D01*
X156846396Y-114306402D01*
X156846319Y-114306409D01*
X156845000Y-114306400D01*
X155856455Y-114306400D01*
X155691000Y-114140944D01*
X155691000Y-114030337D01*
X155756122Y-113996292D01*
X155885322Y-113892413D01*
X155945360Y-113820862D01*
X155945360Y-113855007D01*
X155945360Y-113904253D01*
X155954967Y-113952552D01*
X155973813Y-113998049D01*
X156001172Y-114038996D01*
X156035994Y-114073818D01*
X156076940Y-114101177D01*
X156122438Y-114120023D01*
X156170737Y-114129630D01*
X156682300Y-114129630D01*
X156744800Y-114067130D01*
X156744800Y-113080000D01*
X156724800Y-113080000D01*
X156724800Y-112980000D01*
X156744800Y-112980000D01*
X156744800Y-111992870D01*
X156682300Y-111930370D01*
X156170737Y-111930370D01*
X156122438Y-111939977D01*
X156076940Y-111958823D01*
X156035994Y-111986182D01*
X156001172Y-112021004D01*
X155973813Y-112061951D01*
X155954967Y-112107448D01*
X155945360Y-112155747D01*
X155945360Y-112204993D01*
X155945360Y-112239239D01*
X155893738Y-112175945D01*
X155766001Y-112070271D01*
X155620171Y-111991422D01*
X155461804Y-111942399D01*
X155296930Y-111925070D01*
X155131831Y-111940095D01*
X154972794Y-111986902D01*
X154825878Y-112063708D01*
X154696678Y-112167587D01*
X154590116Y-112294583D01*
X154540894Y-112384117D01*
X154498517Y-112304416D01*
X154393738Y-112175945D01*
X154266001Y-112070271D01*
X154120171Y-111991422D01*
X153961804Y-111942399D01*
X153796930Y-111925070D01*
X153631831Y-111940095D01*
X153472794Y-111986902D01*
X153325878Y-112063708D01*
X153196678Y-112167587D01*
X153090116Y-112294583D01*
X153040894Y-112384117D01*
X152998517Y-112304416D01*
X152893738Y-112175945D01*
X152766001Y-112070271D01*
X152620171Y-111991422D01*
X152461804Y-111942399D01*
X152296930Y-111925070D01*
X152131831Y-111940095D01*
X151972794Y-111986902D01*
X151825878Y-112063708D01*
X151696678Y-112167587D01*
X151590116Y-112294583D01*
X151540894Y-112384117D01*
X151498517Y-112304416D01*
X151393738Y-112175945D01*
X151266001Y-112070271D01*
X151191000Y-112029718D01*
X151191000Y-111880370D01*
X151187393Y-111843585D01*
X151184174Y-111806790D01*
X151183587Y-111804770D01*
X151183382Y-111802676D01*
X151172699Y-111767293D01*
X151162394Y-111731823D01*
X151161425Y-111729955D01*
X151160818Y-111727942D01*
X151143468Y-111695312D01*
X151126468Y-111662515D01*
X151125156Y-111660872D01*
X151124168Y-111659013D01*
X151100798Y-111630358D01*
X151077764Y-111601504D01*
X151074875Y-111598574D01*
X151074828Y-111598516D01*
X151074774Y-111598471D01*
X151073843Y-111597527D01*
X150785472Y-111309156D01*
X150756886Y-111285676D01*
X150728616Y-111261954D01*
X150726773Y-111260941D01*
X150725147Y-111259605D01*
X150692576Y-111242140D01*
X150660206Y-111224345D01*
X150658200Y-111223708D01*
X150656347Y-111222715D01*
X150621050Y-111211923D01*
X150585794Y-111200740D01*
X150583699Y-111200505D01*
X150581691Y-111199891D01*
X150544942Y-111196157D01*
X150508214Y-111192038D01*
X150504106Y-111192009D01*
X150504025Y-111192001D01*
X150503948Y-111192008D01*
X150502629Y-111191999D01*
X143424001Y-111191999D01*
X143387216Y-111195605D01*
X143350421Y-111198825D01*
X143348401Y-111199411D01*
X143346307Y-111199617D01*
X143310924Y-111210299D01*
X143275454Y-111220605D01*
X143273586Y-111221573D01*
X143271573Y-111222181D01*
X143238963Y-111239519D01*
X143206145Y-111256531D01*
X143204500Y-111257844D01*
X143202644Y-111258831D01*
X143174011Y-111282182D01*
X143145135Y-111305235D01*
X143142205Y-111308123D01*
X143142147Y-111308171D01*
X143142102Y-111308224D01*
X143141158Y-111309156D01*
X142566150Y-111884163D01*
X142521836Y-111865535D01*
X142339625Y-111828132D01*
X142153619Y-111826834D01*
X141970903Y-111861688D01*
X141798438Y-111931369D01*
X141642791Y-112033222D01*
X141509891Y-112163366D01*
X141404802Y-112316846D01*
X141331524Y-112487815D01*
X141292851Y-112669760D01*
X141290254Y-112855752D01*
X141323832Y-113038707D01*
X141392307Y-113211655D01*
X141493070Y-113368009D01*
X141622284Y-113501814D01*
X141775026Y-113607972D01*
X141945479Y-113682442D01*
X142127150Y-113722385D01*
X142313120Y-113726280D01*
X142496305Y-113693980D01*
X142669726Y-113626714D01*
X142826780Y-113527044D01*
X142961484Y-113398768D01*
X143068706Y-113246771D01*
X143144363Y-113076842D01*
X143185574Y-112895454D01*
X143188540Y-112682995D01*
X143152411Y-112500527D01*
X143131614Y-112450071D01*
X143589687Y-111991999D01*
X143932790Y-111991999D01*
X143932790Y-112792000D01*
X143936088Y-112832568D01*
X143957139Y-112899890D01*
X143996076Y-112958706D01*
X144049830Y-113004379D01*
X144114162Y-113033307D01*
X144184000Y-113043210D01*
X144534000Y-113043210D01*
X144534000Y-113308383D01*
X144507209Y-113370892D01*
X144484783Y-113476395D01*
X144483277Y-113584245D01*
X144502748Y-113690334D01*
X144542454Y-113790620D01*
X144600883Y-113881284D01*
X144675809Y-113958873D01*
X144764379Y-114020430D01*
X144863218Y-114063612D01*
X144968563Y-114086773D01*
X145076400Y-114089032D01*
X145182621Y-114070302D01*
X145283182Y-114031297D01*
X145374252Y-113973503D01*
X145452362Y-113899120D01*
X145514536Y-113810982D01*
X145558407Y-113712447D01*
X145582303Y-113607267D01*
X145584023Y-113484070D01*
X145563073Y-113378263D01*
X145534000Y-113307725D01*
X145534000Y-113043210D01*
X145884000Y-113043210D01*
X145924568Y-113039912D01*
X145991890Y-113018861D01*
X146050706Y-112979924D01*
X146096379Y-112926170D01*
X146125307Y-112861838D01*
X146135210Y-112792000D01*
X146135210Y-111991999D01*
X148963044Y-111991999D01*
X148825878Y-112063708D01*
X148696678Y-112167587D01*
X148590116Y-112294583D01*
X148510250Y-112439859D01*
X148460122Y-112597880D01*
X148441643Y-112762629D01*
X148441560Y-112774489D01*
X148441560Y-113285511D01*
X148457737Y-113450501D01*
X148505654Y-113609207D01*
X148583483Y-113755584D01*
X148688262Y-113884055D01*
X148815999Y-113989729D01*
X148961829Y-114068578D01*
X149120196Y-114117601D01*
X149285070Y-114134930D01*
X149450169Y-114119905D01*
X149609206Y-114073098D01*
X149756122Y-113996292D01*
X149885322Y-113892413D01*
X149991884Y-113765417D01*
X150041105Y-113675882D01*
X150083483Y-113755584D01*
X150188262Y-113884055D01*
X150315999Y-113989729D01*
X150461829Y-114068578D01*
X150620196Y-114117601D01*
X150785070Y-114134930D01*
X150950169Y-114119905D01*
X151109206Y-114073098D01*
X151256122Y-113996292D01*
X151385322Y-113892413D01*
X151491884Y-113765417D01*
X151541105Y-113675882D01*
X151583483Y-113755584D01*
X151688262Y-113884055D01*
X151815999Y-113989729D01*
X151961829Y-114068578D01*
X152120196Y-114117601D01*
X152285070Y-114134930D01*
X152450169Y-114119905D01*
X152609206Y-114073098D01*
X152756122Y-113996292D01*
X152885322Y-113892413D01*
X152991884Y-113765417D01*
X153041105Y-113675882D01*
X153083483Y-113755584D01*
X153188262Y-113884055D01*
X153315999Y-113989729D01*
X153391000Y-114030281D01*
X153391000Y-115334114D01*
X152386714Y-116338400D01*
X152360400Y-116338400D01*
X152311610Y-116338400D01*
X152311610Y-115888400D01*
X152308312Y-115847832D01*
X152287261Y-115780510D01*
X152248324Y-115721694D01*
X152194570Y-115676021D01*
X152130238Y-115647093D01*
X152060400Y-115637190D01*
X151160400Y-115637190D01*
X151119832Y-115640488D01*
X151052510Y-115661539D01*
X150993694Y-115700476D01*
X150948021Y-115754230D01*
X150919093Y-115818562D01*
X150909190Y-115888400D01*
X150909190Y-115904400D01*
X150605610Y-115904400D01*
X150605610Y-115854400D01*
X150602312Y-115813832D01*
X150581261Y-115746510D01*
X150542324Y-115687694D01*
X150488570Y-115642021D01*
X150424238Y-115613093D01*
X150354400Y-115603190D01*
X148654400Y-115603190D01*
X148613832Y-115606488D01*
X148546510Y-115627539D01*
X148487694Y-115666476D01*
X148442021Y-115720230D01*
X148413093Y-115784562D01*
X148403190Y-115854400D01*
X148403190Y-116754400D01*
X148406488Y-116794968D01*
X148427539Y-116862290D01*
X148466476Y-116921106D01*
X148520230Y-116966779D01*
X148584562Y-116995707D01*
X148654400Y-117005610D01*
X150354400Y-117005610D01*
X150394968Y-117002312D01*
X150462290Y-116981261D01*
X150521106Y-116942324D01*
X150566779Y-116888570D01*
X150595707Y-116824238D01*
X150605610Y-116754400D01*
X150605610Y-116704400D01*
X150909190Y-116704400D01*
X150909190Y-117588400D01*
X150912488Y-117628968D01*
X150933539Y-117696290D01*
X150972476Y-117755106D01*
X151026230Y-117800779D01*
X151090562Y-117829707D01*
X151160400Y-117839610D01*
X152060400Y-117839610D01*
X152100968Y-117836312D01*
X152168290Y-117815261D01*
X152227106Y-117776324D01*
X152272779Y-117722570D01*
X152301707Y-117658238D01*
X152311610Y-117588400D01*
X152311610Y-117138400D01*
X152357302Y-117138400D01*
X152357277Y-117140245D01*
X152376748Y-117246334D01*
X152416454Y-117346620D01*
X152474883Y-117437284D01*
X152549809Y-117514873D01*
X152638379Y-117576430D01*
X152737218Y-117619612D01*
X152842563Y-117642773D01*
X152950400Y-117645032D01*
X153056621Y-117626302D01*
X153157182Y-117587297D01*
X153248252Y-117529503D01*
X153326362Y-117455120D01*
X153388536Y-117366982D01*
X153432407Y-117268447D01*
X153456303Y-117163267D01*
X153458023Y-117040070D01*
X153437073Y-116934263D01*
X153395971Y-116834541D01*
X153336282Y-116744702D01*
X153260279Y-116668167D01*
X153217305Y-116639180D01*
X153810400Y-116046086D01*
X153810400Y-116625900D01*
X153872900Y-116688400D01*
X154460400Y-116688400D01*
X154460400Y-115700900D01*
X154397900Y-115638400D01*
X154164905Y-115638400D01*
X154171075Y-115618221D01*
X154182259Y-115582965D01*
X154182493Y-115580870D01*
X154183108Y-115578862D01*
X154186841Y-115542113D01*
X154190961Y-115505385D01*
X154190989Y-115501277D01*
X154190998Y-115501196D01*
X154190990Y-115501119D01*
X154191000Y-115499800D01*
X154191000Y-114030337D01*
X154256122Y-113996292D01*
X154385322Y-113892413D01*
X154491884Y-113765417D01*
X154541105Y-113675882D01*
X154583483Y-113755584D01*
X154688262Y-113884055D01*
X154815999Y-113989729D01*
X154891000Y-114030281D01*
X154891000Y-114306630D01*
X154894606Y-114343414D01*
X154897826Y-114380210D01*
X154898412Y-114382229D01*
X154898618Y-114384324D01*
X154909300Y-114419706D01*
X154919606Y-114455177D01*
X154920574Y-114457044D01*
X154921182Y-114459058D01*
X154938531Y-114491687D01*
X154955532Y-114524485D01*
X154956843Y-114526127D01*
X154957832Y-114527987D01*
X154981201Y-114556641D01*
X155004236Y-114585496D01*
X155007124Y-114588425D01*
X155007172Y-114588484D01*
X155007225Y-114588528D01*
X155008157Y-114589473D01*
X155407927Y-114989243D01*
X155436512Y-115012722D01*
X155464783Y-115036445D01*
X155466625Y-115037457D01*
X155468252Y-115038794D01*
X155500822Y-115056258D01*
X155533193Y-115074054D01*
X155535198Y-115074690D01*
X155537052Y-115075684D01*
X155572348Y-115086475D01*
X155607605Y-115097659D01*
X155609699Y-115097893D01*
X155611708Y-115098508D01*
X155648412Y-115102236D01*
X155685185Y-115106361D01*
X155689302Y-115106389D01*
X155689374Y-115106397D01*
X155689440Y-115106390D01*
X155690770Y-115106400D01*
X156679314Y-115106400D01*
X156724400Y-115151486D01*
X156724400Y-115603190D01*
X156274400Y-115603190D01*
X156233832Y-115606488D01*
X156166510Y-115627539D01*
X156107694Y-115666476D01*
X156062021Y-115720230D01*
X156033093Y-115784562D01*
X156023190Y-115854400D01*
X156023190Y-116754400D01*
X156026488Y-116794968D01*
X156047539Y-116862290D01*
X156086476Y-116921106D01*
X156140230Y-116966779D01*
X156204562Y-116995707D01*
X156274400Y-117005610D01*
X157974400Y-117005610D01*
X158014968Y-117002312D01*
X158082290Y-116981261D01*
X158141106Y-116942324D01*
X158186779Y-116888570D01*
X158215707Y-116824238D01*
X158225610Y-116754400D01*
X158225610Y-116704400D01*
X158529190Y-116704400D01*
X158529190Y-117588400D01*
X158532488Y-117628968D01*
X158553539Y-117696290D01*
X158592476Y-117755106D01*
X158646230Y-117800779D01*
X158710562Y-117829707D01*
X158780400Y-117839610D01*
X159680400Y-117839610D01*
X159720968Y-117836312D01*
X159788290Y-117815261D01*
X159847106Y-117776324D01*
X159892779Y-117722570D01*
X159921707Y-117658238D01*
X159931610Y-117588400D01*
X159931610Y-117494000D01*
X160022652Y-117494000D01*
X160042809Y-117514873D01*
X160131379Y-117576430D01*
X160230218Y-117619612D01*
X160335563Y-117642773D01*
X160443400Y-117645032D01*
X160549621Y-117626302D01*
X160650182Y-117587297D01*
X160741252Y-117529503D01*
X160819362Y-117455120D01*
X160881536Y-117366982D01*
X160925407Y-117268447D01*
X160949303Y-117163267D01*
X160951023Y-117040070D01*
X160951023Y-122861875D01*
X160824023Y-123277274D01*
X160824023Y-119326070D01*
X160803073Y-119220263D01*
X160761971Y-119120541D01*
X160702282Y-119030702D01*
X160626279Y-118954167D01*
X160536859Y-118893853D01*
X160437426Y-118852055D01*
X160331769Y-118830367D01*
X160223911Y-118829614D01*
X160117961Y-118849825D01*
X160043274Y-118880000D01*
X159931610Y-118880000D01*
X159931610Y-118428400D01*
X159928312Y-118387832D01*
X159907261Y-118320510D01*
X159868324Y-118261694D01*
X159814570Y-118216021D01*
X159750238Y-118187093D01*
X159680400Y-118177190D01*
X158780400Y-118177190D01*
X158739832Y-118180488D01*
X158672510Y-118201539D01*
X158613694Y-118240476D01*
X158568021Y-118294230D01*
X158539093Y-118358562D01*
X158529190Y-118428400D01*
X158529190Y-118704400D01*
X158219362Y-118704400D01*
X158201261Y-118646510D01*
X158162324Y-118587694D01*
X158108570Y-118542021D01*
X158044238Y-118513093D01*
X157974400Y-118503190D01*
X156274400Y-118503190D01*
X156233832Y-118506488D01*
X156166510Y-118527539D01*
X156107694Y-118566476D01*
X156062021Y-118620230D01*
X156033093Y-118684562D01*
X156023190Y-118754400D01*
X156023190Y-119654400D01*
X156026488Y-119694968D01*
X156047539Y-119762290D01*
X156086476Y-119821106D01*
X156140230Y-119866779D01*
X156204562Y-119895707D01*
X156274400Y-119905610D01*
X157974400Y-119905610D01*
X158014968Y-119902312D01*
X158082290Y-119881261D01*
X158141106Y-119842324D01*
X158186779Y-119788570D01*
X158215707Y-119724238D01*
X158218520Y-119704400D01*
X158529190Y-119704400D01*
X158529190Y-120128400D01*
X158532488Y-120168968D01*
X158553539Y-120236290D01*
X158592476Y-120295106D01*
X158646230Y-120340779D01*
X158710562Y-120369707D01*
X158780400Y-120379610D01*
X159680400Y-120379610D01*
X159720968Y-120376312D01*
X159788290Y-120355261D01*
X159847106Y-120316324D01*
X159892779Y-120262570D01*
X159921707Y-120198238D01*
X159931610Y-120128400D01*
X159931610Y-119880000D01*
X160044594Y-119880000D01*
X160103218Y-119905612D01*
X160208563Y-119928773D01*
X160316400Y-119931032D01*
X160422621Y-119912302D01*
X160523182Y-119873297D01*
X160614252Y-119815503D01*
X160692362Y-119741120D01*
X160754536Y-119652982D01*
X160798407Y-119554447D01*
X160822303Y-119449267D01*
X160824023Y-119326070D01*
X160824023Y-123277274D01*
X160715614Y-123631865D01*
X160706906Y-123671625D01*
X160707355Y-123742160D01*
X160720754Y-123787380D01*
X158482937Y-123183888D01*
X158456144Y-123179407D01*
X158429367Y-123174545D01*
X158425190Y-123174232D01*
X155210400Y-122955494D01*
X155210400Y-120153023D01*
X155210400Y-120103777D01*
X155210400Y-119390900D01*
X155210400Y-119165900D01*
X155210400Y-118453023D01*
X155210400Y-118403777D01*
X155210400Y-117613023D01*
X155210400Y-117563777D01*
X155210400Y-116850900D01*
X155210400Y-116625900D01*
X155210400Y-115913023D01*
X155210400Y-115863777D01*
X155200793Y-115815478D01*
X155181947Y-115769981D01*
X155154588Y-115729034D01*
X155119766Y-115694212D01*
X155078820Y-115666853D01*
X155033322Y-115648007D01*
X154985023Y-115638400D01*
X154622900Y-115638400D01*
X154560400Y-115700900D01*
X154560400Y-116688400D01*
X155147900Y-116688400D01*
X155210400Y-116625900D01*
X155210400Y-116850900D01*
X155147900Y-116788400D01*
X154560400Y-116788400D01*
X154560400Y-117775900D01*
X154622900Y-117838400D01*
X154985023Y-117838400D01*
X155033322Y-117828793D01*
X155078820Y-117809947D01*
X155119766Y-117782588D01*
X155154588Y-117747766D01*
X155181947Y-117706819D01*
X155200793Y-117661322D01*
X155210400Y-117613023D01*
X155210400Y-118403777D01*
X155200793Y-118355478D01*
X155181947Y-118309981D01*
X155154588Y-118269034D01*
X155119766Y-118234212D01*
X155078820Y-118206853D01*
X155033322Y-118188007D01*
X154985023Y-118178400D01*
X154622900Y-118178400D01*
X154560400Y-118240900D01*
X154560400Y-119228400D01*
X155147900Y-119228400D01*
X155210400Y-119165900D01*
X155210400Y-119390900D01*
X155147900Y-119328400D01*
X154560400Y-119328400D01*
X154560400Y-120315900D01*
X154622900Y-120378400D01*
X154985023Y-120378400D01*
X155033322Y-120368793D01*
X155078820Y-120349947D01*
X155119766Y-120322588D01*
X155154588Y-120287766D01*
X155181947Y-120246819D01*
X155200793Y-120201322D01*
X155210400Y-120153023D01*
X155210400Y-122955494D01*
X154738910Y-122923414D01*
X154743051Y-122921250D01*
X154864731Y-122823417D01*
X154965091Y-122703813D01*
X155040308Y-122566993D01*
X155087518Y-122418168D01*
X155104922Y-122263009D01*
X155105000Y-122251839D01*
X155105000Y-121842161D01*
X155089764Y-121686774D01*
X155044637Y-121537305D01*
X154971337Y-121399448D01*
X154872657Y-121278454D01*
X154752354Y-121178931D01*
X154615012Y-121104670D01*
X154465862Y-121058501D01*
X154460400Y-121057926D01*
X154460400Y-120315900D01*
X154460400Y-119328400D01*
X154460400Y-119228400D01*
X154460400Y-118240900D01*
X154460400Y-117775900D01*
X154460400Y-116788400D01*
X153872900Y-116788400D01*
X153810400Y-116850900D01*
X153810400Y-117563777D01*
X153810400Y-117613023D01*
X153820007Y-117661322D01*
X153838853Y-117706819D01*
X153866212Y-117747766D01*
X153901034Y-117782588D01*
X153941980Y-117809947D01*
X153987478Y-117828793D01*
X154035777Y-117838400D01*
X154397900Y-117838400D01*
X154460400Y-117775900D01*
X154460400Y-118240900D01*
X154397900Y-118178400D01*
X154035777Y-118178400D01*
X153987478Y-118188007D01*
X153941980Y-118206853D01*
X153901034Y-118234212D01*
X153866212Y-118269034D01*
X153838853Y-118309981D01*
X153820007Y-118355478D01*
X153810400Y-118403777D01*
X153810400Y-118453023D01*
X153810400Y-119165900D01*
X153872900Y-119228400D01*
X154460400Y-119228400D01*
X154460400Y-119328400D01*
X153872900Y-119328400D01*
X153810400Y-119390900D01*
X153810400Y-120103777D01*
X153810400Y-120153023D01*
X153820007Y-120201322D01*
X153838853Y-120246819D01*
X153866212Y-120287766D01*
X153901034Y-120322588D01*
X153941980Y-120349947D01*
X153987478Y-120368793D01*
X154035777Y-120378400D01*
X154397900Y-120378400D01*
X154460400Y-120315900D01*
X154460400Y-121057926D01*
X154310585Y-121042180D01*
X154155095Y-121056331D01*
X154005315Y-121100414D01*
X153866949Y-121172750D01*
X153745269Y-121270583D01*
X153670834Y-121359290D01*
X153565331Y-121245959D01*
X153437884Y-121154045D01*
X153294954Y-121088761D01*
X153209287Y-121066216D01*
X153085000Y-121111197D01*
X153085000Y-121997000D01*
X153105000Y-121997000D01*
X153105000Y-122097000D01*
X153085000Y-122097000D01*
X153085000Y-122117000D01*
X152985000Y-122117000D01*
X152985000Y-122097000D01*
X152965000Y-122097000D01*
X152965000Y-121997000D01*
X152985000Y-121997000D01*
X152985000Y-121111197D01*
X152860713Y-121066216D01*
X152775046Y-121088761D01*
X152632116Y-121154045D01*
X152549522Y-121213611D01*
X152541861Y-121189110D01*
X152502924Y-121130294D01*
X152449170Y-121084621D01*
X152384838Y-121055693D01*
X152315000Y-121045790D01*
X152311610Y-121045790D01*
X152311610Y-120128400D01*
X152311610Y-118428400D01*
X152308312Y-118387832D01*
X152287261Y-118320510D01*
X152248324Y-118261694D01*
X152194570Y-118216021D01*
X152130238Y-118187093D01*
X152060400Y-118177190D01*
X151160400Y-118177190D01*
X151119832Y-118180488D01*
X151052510Y-118201539D01*
X150993694Y-118240476D01*
X150948021Y-118294230D01*
X150919093Y-118358562D01*
X150909190Y-118428400D01*
X150909190Y-118704400D01*
X150599362Y-118704400D01*
X150581261Y-118646510D01*
X150542324Y-118587694D01*
X150488570Y-118542021D01*
X150424238Y-118513093D01*
X150354400Y-118503190D01*
X150004400Y-118503190D01*
X150004400Y-118262400D01*
X149999890Y-118216411D01*
X149995868Y-118170424D01*
X149995134Y-118167899D01*
X149994878Y-118165283D01*
X149981531Y-118121076D01*
X149968643Y-118076716D01*
X149967432Y-118074380D01*
X149966673Y-118071865D01*
X149944984Y-118031075D01*
X149923735Y-117990080D01*
X149922096Y-117988027D01*
X149920861Y-117985704D01*
X149891669Y-117949912D01*
X149869462Y-117922094D01*
X149839971Y-117850541D01*
X149780282Y-117760702D01*
X149704279Y-117684167D01*
X149614859Y-117623853D01*
X149515426Y-117582055D01*
X149409769Y-117560367D01*
X149301911Y-117559614D01*
X149195961Y-117579825D01*
X149095954Y-117620230D01*
X149005701Y-117679290D01*
X148928637Y-117754756D01*
X148867699Y-117843754D01*
X148825209Y-117942892D01*
X148802783Y-118048395D01*
X148801277Y-118156245D01*
X148820748Y-118262334D01*
X148860454Y-118362620D01*
X148918883Y-118453284D01*
X148967076Y-118503190D01*
X148654400Y-118503190D01*
X148613832Y-118506488D01*
X148546510Y-118527539D01*
X148487694Y-118566476D01*
X148442021Y-118620230D01*
X148413093Y-118684562D01*
X148403190Y-118754400D01*
X148403190Y-119654400D01*
X148406488Y-119694968D01*
X148427539Y-119762290D01*
X148466476Y-119821106D01*
X148520230Y-119866779D01*
X148584562Y-119895707D01*
X148654400Y-119905610D01*
X150354400Y-119905610D01*
X150394968Y-119902312D01*
X150462290Y-119881261D01*
X150521106Y-119842324D01*
X150566779Y-119788570D01*
X150595707Y-119724238D01*
X150598520Y-119704400D01*
X150909190Y-119704400D01*
X150909190Y-120128400D01*
X150912488Y-120168968D01*
X150933539Y-120236290D01*
X150972476Y-120295106D01*
X151026230Y-120340779D01*
X151090562Y-120369707D01*
X151160400Y-120379610D01*
X152060400Y-120379610D01*
X152100968Y-120376312D01*
X152168290Y-120355261D01*
X152227106Y-120316324D01*
X152272779Y-120262570D01*
X152301707Y-120198238D01*
X152311610Y-120128400D01*
X152311610Y-121045790D01*
X151215000Y-121045790D01*
X151174432Y-121049088D01*
X151107110Y-121070139D01*
X151048294Y-121109076D01*
X151002621Y-121162830D01*
X150973693Y-121227162D01*
X150963790Y-121297000D01*
X150963790Y-122797000D01*
X150967088Y-122837568D01*
X150980680Y-122881036D01*
X147110000Y-123377400D01*
X147110000Y-121524623D01*
X147110000Y-121475377D01*
X147110000Y-120762500D01*
X147110000Y-120537500D01*
X147110000Y-119824623D01*
X147110000Y-119775377D01*
X147110000Y-118984623D01*
X147110000Y-118935377D01*
X147110000Y-118222500D01*
X147110000Y-117997500D01*
X147110000Y-117284623D01*
X147110000Y-117235377D01*
X147100393Y-117187078D01*
X147081547Y-117141581D01*
X147054188Y-117100634D01*
X147019366Y-117065812D01*
X146978420Y-117038453D01*
X146932922Y-117019607D01*
X146884623Y-117010000D01*
X146522500Y-117010000D01*
X146460000Y-117072500D01*
X146460000Y-118060000D01*
X147047500Y-118060000D01*
X147110000Y-117997500D01*
X147110000Y-118222500D01*
X147047500Y-118160000D01*
X146460000Y-118160000D01*
X146460000Y-119147500D01*
X146522500Y-119210000D01*
X146884623Y-119210000D01*
X146932922Y-119200393D01*
X146978420Y-119181547D01*
X147019366Y-119154188D01*
X147054188Y-119119366D01*
X147081547Y-119078419D01*
X147100393Y-119032922D01*
X147110000Y-118984623D01*
X147110000Y-119775377D01*
X147100393Y-119727078D01*
X147081547Y-119681581D01*
X147054188Y-119640634D01*
X147019366Y-119605812D01*
X146978420Y-119578453D01*
X146932922Y-119559607D01*
X146884623Y-119550000D01*
X146522500Y-119550000D01*
X146460000Y-119612500D01*
X146460000Y-120600000D01*
X147047500Y-120600000D01*
X147110000Y-120537500D01*
X147110000Y-120762500D01*
X147047500Y-120700000D01*
X146460000Y-120700000D01*
X146460000Y-121687500D01*
X146522500Y-121750000D01*
X146884623Y-121750000D01*
X146932922Y-121740393D01*
X146978420Y-121721547D01*
X147019366Y-121694188D01*
X147054188Y-121659366D01*
X147081547Y-121618419D01*
X147100393Y-121572922D01*
X147110000Y-121524623D01*
X147110000Y-123377400D01*
X146360000Y-123473578D01*
X146360000Y-121687500D01*
X146360000Y-120700000D01*
X146360000Y-120600000D01*
X146360000Y-119612500D01*
X146360000Y-119147500D01*
X146360000Y-118160000D01*
X146360000Y-118060000D01*
X146360000Y-117072500D01*
X146297500Y-117010000D01*
X146134000Y-117010000D01*
X146134000Y-115716623D01*
X146134000Y-115354500D01*
X146134000Y-115129500D01*
X146134000Y-114767377D01*
X146124393Y-114719078D01*
X146105547Y-114673580D01*
X146078188Y-114632634D01*
X146043366Y-114597812D01*
X146002419Y-114570453D01*
X145956922Y-114551607D01*
X145908623Y-114542000D01*
X145859377Y-114542000D01*
X145146500Y-114542000D01*
X145084000Y-114604500D01*
X145084000Y-115192000D01*
X146071500Y-115192000D01*
X146134000Y-115129500D01*
X146134000Y-115354500D01*
X146071500Y-115292000D01*
X145084000Y-115292000D01*
X145084000Y-115879500D01*
X145146500Y-115942000D01*
X145859377Y-115942000D01*
X145908623Y-115942000D01*
X145956922Y-115932393D01*
X146002419Y-115913547D01*
X146043366Y-115886188D01*
X146078188Y-115851366D01*
X146105547Y-115810420D01*
X146124393Y-115764922D01*
X146134000Y-115716623D01*
X146134000Y-117010000D01*
X145935377Y-117010000D01*
X145887078Y-117019607D01*
X145841580Y-117038453D01*
X145800634Y-117065812D01*
X145765812Y-117100634D01*
X145738453Y-117141581D01*
X145719607Y-117187078D01*
X145710000Y-117235377D01*
X145710000Y-117284623D01*
X145710000Y-117997500D01*
X145772500Y-118060000D01*
X146360000Y-118060000D01*
X146360000Y-118160000D01*
X145772500Y-118160000D01*
X145710000Y-118222500D01*
X145710000Y-118935377D01*
X145710000Y-118984623D01*
X145719607Y-119032922D01*
X145738453Y-119078419D01*
X145765812Y-119119366D01*
X145800634Y-119154188D01*
X145841580Y-119181547D01*
X145887078Y-119200393D01*
X145935377Y-119210000D01*
X146297500Y-119210000D01*
X146360000Y-119147500D01*
X146360000Y-119612500D01*
X146297500Y-119550000D01*
X145935377Y-119550000D01*
X145887078Y-119559607D01*
X145841580Y-119578453D01*
X145800634Y-119605812D01*
X145765812Y-119640634D01*
X145738453Y-119681581D01*
X145719607Y-119727078D01*
X145710000Y-119775377D01*
X145710000Y-119824623D01*
X145710000Y-120537500D01*
X145772500Y-120600000D01*
X146360000Y-120600000D01*
X146360000Y-120700000D01*
X145772500Y-120700000D01*
X145710000Y-120762500D01*
X145710000Y-121475377D01*
X145710000Y-121524623D01*
X145719607Y-121572922D01*
X145738453Y-121618419D01*
X145765812Y-121659366D01*
X145800634Y-121694188D01*
X145841580Y-121721547D01*
X145887078Y-121740393D01*
X145935377Y-121750000D01*
X146297500Y-121750000D01*
X146360000Y-121687500D01*
X146360000Y-123473578D01*
X145747039Y-123552183D01*
X145720549Y-123558253D01*
X145693950Y-123563959D01*
X145689979Y-123565258D01*
X145689969Y-123565261D01*
X145689960Y-123565264D01*
X145142437Y-123748543D01*
X145156582Y-123727731D01*
X145217588Y-123584011D01*
X145249517Y-123431178D01*
X145251152Y-123275053D01*
X145222431Y-123121585D01*
X145219240Y-123110881D01*
X145099462Y-122719103D01*
X145076023Y-122662794D01*
X145076023Y-117421070D01*
X145055073Y-117315263D01*
X145013971Y-117215541D01*
X144984000Y-117170431D01*
X144984000Y-115879500D01*
X144984000Y-115292000D01*
X144984000Y-115192000D01*
X144984000Y-114604500D01*
X144921500Y-114542000D01*
X144208623Y-114542000D01*
X144159377Y-114542000D01*
X144111078Y-114551607D01*
X144065581Y-114570453D01*
X144024634Y-114597812D01*
X143989812Y-114632634D01*
X143962453Y-114673580D01*
X143943607Y-114719078D01*
X143934000Y-114767377D01*
X143934000Y-115129500D01*
X143996500Y-115192000D01*
X144984000Y-115192000D01*
X144984000Y-115292000D01*
X143996500Y-115292000D01*
X143934000Y-115354500D01*
X143934000Y-115716623D01*
X143943607Y-115764922D01*
X143962453Y-115810420D01*
X143989812Y-115851366D01*
X144024634Y-115886188D01*
X144065581Y-115913547D01*
X144111078Y-115932393D01*
X144159377Y-115942000D01*
X144208623Y-115942000D01*
X144921500Y-115942000D01*
X144984000Y-115879500D01*
X144984000Y-117170431D01*
X144954282Y-117125702D01*
X144878279Y-117049167D01*
X144788859Y-116988853D01*
X144689426Y-116947055D01*
X144583769Y-116925367D01*
X144475911Y-116924614D01*
X144369961Y-116944825D01*
X144269954Y-116985230D01*
X144179701Y-117044290D01*
X144138144Y-117084984D01*
X144094170Y-117047621D01*
X144029838Y-117018693D01*
X143960000Y-117008790D01*
X143060000Y-117008790D01*
X143019432Y-117012088D01*
X142952110Y-117033139D01*
X142893294Y-117072076D01*
X142847621Y-117125830D01*
X142818693Y-117190162D01*
X142808790Y-117260000D01*
X142808790Y-117710000D01*
X142760000Y-117710000D01*
X142723215Y-117713606D01*
X142686420Y-117716826D01*
X142684400Y-117717412D01*
X142682306Y-117717618D01*
X142646923Y-117728300D01*
X142611453Y-117738606D01*
X142609585Y-117739574D01*
X142607572Y-117740182D01*
X142574942Y-117757531D01*
X142542145Y-117774532D01*
X142540502Y-117775843D01*
X142538643Y-117776832D01*
X142509988Y-117800201D01*
X142481134Y-117823236D01*
X142478204Y-117826124D01*
X142478146Y-117826172D01*
X142478101Y-117826225D01*
X142477157Y-117827157D01*
X141957157Y-118347157D01*
X141933677Y-118375742D01*
X141909955Y-118404013D01*
X141908942Y-118405855D01*
X141907606Y-118407482D01*
X141890141Y-118440052D01*
X141872346Y-118472423D01*
X141871709Y-118474428D01*
X141870716Y-118476282D01*
X141859924Y-118511578D01*
X141848741Y-118546835D01*
X141848506Y-118548929D01*
X141847892Y-118550938D01*
X141844158Y-118587686D01*
X141840039Y-118624415D01*
X141840010Y-118628522D01*
X141840002Y-118628604D01*
X141840009Y-118628680D01*
X141840000Y-118630000D01*
X141840000Y-120906314D01*
X141343210Y-121403104D01*
X141343210Y-121070000D01*
X141339912Y-121029432D01*
X141318861Y-120962110D01*
X141279924Y-120903294D01*
X141226170Y-120857621D01*
X141161838Y-120828693D01*
X141092000Y-120818790D01*
X140890058Y-120818790D01*
X140890058Y-117393426D01*
X140838635Y-117133719D01*
X140737747Y-116888947D01*
X140653006Y-116761401D01*
X140653006Y-112763405D01*
X140632237Y-112577724D01*
X140575643Y-112399664D01*
X140499393Y-112257010D01*
X140364103Y-112182607D01*
X140293393Y-112253317D01*
X140293393Y-112111897D01*
X140218990Y-111976607D01*
X140053063Y-111890717D01*
X139873569Y-111838849D01*
X139687405Y-111822994D01*
X139501724Y-111843763D01*
X139323664Y-111900357D01*
X139181010Y-111976607D01*
X139106607Y-112111897D01*
X139700000Y-112705289D01*
X140293393Y-112111897D01*
X140293393Y-112253317D01*
X139770711Y-112776000D01*
X140364103Y-113369393D01*
X140499393Y-113294990D01*
X140585283Y-113129063D01*
X140637151Y-112949569D01*
X140653006Y-112763405D01*
X140653006Y-116761401D01*
X140591237Y-116668432D01*
X140404686Y-116480574D01*
X140293393Y-116405506D01*
X140293393Y-113440103D01*
X139700000Y-112846711D01*
X139629289Y-112917421D01*
X139629289Y-112776000D01*
X139035897Y-112182607D01*
X138900607Y-112257010D01*
X138814717Y-112422937D01*
X138762849Y-112602431D01*
X138746994Y-112788595D01*
X138767763Y-112974276D01*
X138824357Y-113152336D01*
X138900607Y-113294990D01*
X139035897Y-113369393D01*
X139629289Y-112776000D01*
X139629289Y-112917421D01*
X139106607Y-113440103D01*
X139181010Y-113575393D01*
X139346937Y-113661283D01*
X139526431Y-113713151D01*
X139712595Y-113729006D01*
X139898276Y-113708237D01*
X140076336Y-113651643D01*
X140218990Y-113575393D01*
X140293393Y-113440103D01*
X140293393Y-116405506D01*
X140185199Y-116332529D01*
X139941137Y-116229934D01*
X139681796Y-116176699D01*
X139417054Y-116174851D01*
X139156995Y-116224460D01*
X138911524Y-116323636D01*
X138689992Y-116468603D01*
X138500836Y-116653838D01*
X138351262Y-116872286D01*
X138246966Y-117115626D01*
X138191922Y-117374589D01*
X138188226Y-117639312D01*
X138236018Y-117899711D01*
X138333478Y-118145868D01*
X138476895Y-118368407D01*
X138660805Y-118558851D01*
X138878203Y-118709947D01*
X139120809Y-118815939D01*
X139379381Y-118872789D01*
X139644072Y-118878334D01*
X139904798Y-118832361D01*
X140151630Y-118736621D01*
X140375164Y-118594762D01*
X140566888Y-118412186D01*
X140719498Y-118195848D01*
X140827181Y-117953988D01*
X140885835Y-117695819D01*
X140890058Y-117393426D01*
X140890058Y-120818790D01*
X140192000Y-120818790D01*
X140151432Y-120822088D01*
X140084110Y-120843139D01*
X140025294Y-120882076D01*
X139979621Y-120935830D01*
X139950693Y-121000162D01*
X139940790Y-121070000D01*
X139940790Y-122770000D01*
X139944088Y-122810568D01*
X139965139Y-122877890D01*
X140004076Y-122936706D01*
X140057830Y-122982379D01*
X140122162Y-123011307D01*
X140192000Y-123021210D01*
X141092000Y-123021210D01*
X141132568Y-123017912D01*
X141199890Y-122996861D01*
X141258706Y-122957924D01*
X141304379Y-122904170D01*
X141333307Y-122839838D01*
X141343210Y-122770000D01*
X141343210Y-122320000D01*
X141392000Y-122320000D01*
X141428784Y-122316393D01*
X141465580Y-122313174D01*
X141467599Y-122312587D01*
X141469694Y-122312382D01*
X141505076Y-122301699D01*
X141540547Y-122291394D01*
X141542414Y-122290425D01*
X141544428Y-122289818D01*
X141577057Y-122272468D01*
X141609855Y-122255468D01*
X141611497Y-122254156D01*
X141613357Y-122253168D01*
X141642011Y-122229798D01*
X141670866Y-122206764D01*
X141673795Y-122203875D01*
X141673854Y-122203828D01*
X141673898Y-122203774D01*
X141674843Y-122202843D01*
X142522843Y-121354843D01*
X142546322Y-121326257D01*
X142570045Y-121297987D01*
X142571057Y-121296144D01*
X142572394Y-121294518D01*
X142589858Y-121261947D01*
X142607654Y-121229577D01*
X142608290Y-121227571D01*
X142609284Y-121225718D01*
X142620075Y-121190421D01*
X142631259Y-121155165D01*
X142631493Y-121153070D01*
X142632108Y-121151062D01*
X142635841Y-121114313D01*
X142639961Y-121077585D01*
X142639989Y-121073477D01*
X142639998Y-121073396D01*
X142639990Y-121073319D01*
X142640000Y-121072000D01*
X142640000Y-118795686D01*
X142808790Y-118626896D01*
X142808790Y-118960000D01*
X142812088Y-119000568D01*
X142833139Y-119067890D01*
X142872076Y-119126706D01*
X142925830Y-119172379D01*
X142990162Y-119201307D01*
X143060000Y-119211210D01*
X143960000Y-119211210D01*
X144000568Y-119207912D01*
X144067890Y-119186861D01*
X144126706Y-119147924D01*
X144172379Y-119094170D01*
X144201307Y-119029838D01*
X144211210Y-118960000D01*
X144211210Y-118510000D01*
X144297400Y-118510000D01*
X144334184Y-118506393D01*
X144370980Y-118503174D01*
X144372999Y-118502587D01*
X144375094Y-118502382D01*
X144410476Y-118491699D01*
X144445947Y-118481394D01*
X144447814Y-118480425D01*
X144449828Y-118479818D01*
X144482457Y-118462468D01*
X144515255Y-118445468D01*
X144516897Y-118444156D01*
X144518757Y-118443168D01*
X144547411Y-118419798D01*
X144576266Y-118396764D01*
X144579195Y-118393875D01*
X144579254Y-118393828D01*
X144579298Y-118393774D01*
X144580243Y-118392843D01*
X144808843Y-118164243D01*
X144832322Y-118135657D01*
X144856045Y-118107387D01*
X144857057Y-118105544D01*
X144858394Y-118103918D01*
X144875858Y-118071347D01*
X144893654Y-118038977D01*
X144894290Y-118036971D01*
X144895284Y-118035118D01*
X144906075Y-117999821D01*
X144917259Y-117964565D01*
X144917493Y-117962470D01*
X144918108Y-117960462D01*
X144921836Y-117923757D01*
X144925961Y-117886985D01*
X144925989Y-117882867D01*
X144925997Y-117882796D01*
X144925990Y-117882729D01*
X144926000Y-117881400D01*
X144926000Y-117853605D01*
X144944362Y-117836120D01*
X145006536Y-117747982D01*
X145050407Y-117649447D01*
X145074303Y-117544267D01*
X145076023Y-117421070D01*
X145076023Y-122662794D01*
X145039461Y-122574960D01*
X144952606Y-122445216D01*
X144842203Y-122334813D01*
X144822023Y-122321303D01*
X144822023Y-120621470D01*
X144801073Y-120515663D01*
X144759971Y-120415941D01*
X144700282Y-120326102D01*
X144624279Y-120249567D01*
X144534859Y-120189253D01*
X144435426Y-120147455D01*
X144329769Y-120125767D01*
X144221911Y-120125014D01*
X144211210Y-120127055D01*
X144211210Y-119800000D01*
X144207912Y-119759432D01*
X144186861Y-119692110D01*
X144147924Y-119633294D01*
X144094170Y-119587621D01*
X144029838Y-119558693D01*
X143960000Y-119548790D01*
X143060000Y-119548790D01*
X143019432Y-119552088D01*
X142952110Y-119573139D01*
X142893294Y-119612076D01*
X142847621Y-119665830D01*
X142818693Y-119730162D01*
X142808790Y-119800000D01*
X142808790Y-121500000D01*
X142812088Y-121540568D01*
X142833139Y-121607890D01*
X142872076Y-121666706D01*
X142925830Y-121712379D01*
X142990162Y-121741307D01*
X143060000Y-121751210D01*
X143960000Y-121751210D01*
X144000568Y-121747912D01*
X144067890Y-121726861D01*
X144126706Y-121687924D01*
X144172379Y-121634170D01*
X144201307Y-121569838D01*
X144211210Y-121500000D01*
X144211210Y-121224270D01*
X144314400Y-121226432D01*
X144420621Y-121207702D01*
X144521182Y-121168697D01*
X144612252Y-121110903D01*
X144690362Y-121036520D01*
X144752536Y-120948382D01*
X144796407Y-120849847D01*
X144820303Y-120744667D01*
X144822023Y-120621470D01*
X144822023Y-122321303D01*
X144712460Y-122247957D01*
X144568316Y-122187956D01*
X144415263Y-122157094D01*
X144259132Y-122156550D01*
X144105868Y-122186340D01*
X143961310Y-122245334D01*
X143830963Y-122331282D01*
X143719792Y-122440911D01*
X143632032Y-122570045D01*
X143586784Y-122676639D01*
X143452756Y-122599107D01*
X143304005Y-122548471D01*
X143148233Y-122527828D01*
X143059718Y-122531315D01*
X142954013Y-122610669D01*
X143212997Y-123457766D01*
X143232122Y-123451918D01*
X143261360Y-123547549D01*
X143242234Y-123553397D01*
X143248081Y-123572522D01*
X143152450Y-123601760D01*
X143146603Y-123582634D01*
X143127477Y-123588481D01*
X143098239Y-123492850D01*
X143117366Y-123487003D01*
X142858382Y-122639906D01*
X142726375Y-122633228D01*
X142651043Y-122679835D01*
X142533445Y-122784055D01*
X142471876Y-122865165D01*
X142457386Y-122843975D01*
X142402954Y-122799113D01*
X142338196Y-122771153D01*
X142268217Y-122762298D01*
X142198535Y-122773246D01*
X141146600Y-123094855D01*
X141108769Y-123109869D01*
X141050543Y-123149684D01*
X141005682Y-123204116D01*
X140977721Y-123268874D01*
X140968866Y-123338853D01*
X140979814Y-123408535D01*
X141418371Y-124842992D01*
X141433385Y-124880823D01*
X141473200Y-124939049D01*
X141505765Y-124965888D01*
X139675123Y-125578681D01*
X139675120Y-125578682D01*
X139147796Y-125755198D01*
X138625413Y-125822188D01*
X138099960Y-125786435D01*
X137591457Y-125649303D01*
X137156084Y-125434200D01*
X139651762Y-125434200D01*
X139651762Y-123234200D01*
X139488023Y-123234200D01*
X139488023Y-121866070D01*
X139467073Y-121760263D01*
X139425971Y-121660541D01*
X139366282Y-121570702D01*
X139290279Y-121494167D01*
X139200859Y-121433853D01*
X139101426Y-121392055D01*
X138995769Y-121370367D01*
X138887911Y-121369614D01*
X138781961Y-121389825D01*
X138707274Y-121420000D01*
X138443210Y-121420000D01*
X138443210Y-121070000D01*
X138439912Y-121029432D01*
X138418861Y-120962110D01*
X138379924Y-120903294D01*
X138326170Y-120857621D01*
X138261838Y-120828693D01*
X138192000Y-120818790D01*
X137292000Y-120818790D01*
X137251432Y-120822088D01*
X137184110Y-120843139D01*
X137125294Y-120882076D01*
X137079621Y-120935830D01*
X137050693Y-121000162D01*
X137040790Y-121070000D01*
X137040790Y-122770000D01*
X137044088Y-122810568D01*
X137065139Y-122877890D01*
X137104076Y-122936706D01*
X137157830Y-122982379D01*
X137222162Y-123011307D01*
X137292000Y-123021210D01*
X138192000Y-123021210D01*
X138232568Y-123017912D01*
X138299890Y-122996861D01*
X138358706Y-122957924D01*
X138404379Y-122904170D01*
X138433307Y-122839838D01*
X138443210Y-122770000D01*
X138443210Y-122420000D01*
X138708594Y-122420000D01*
X138767218Y-122445612D01*
X138872563Y-122468773D01*
X138980400Y-122471032D01*
X139086621Y-122452302D01*
X139187182Y-122413297D01*
X139278252Y-122355503D01*
X139356362Y-122281120D01*
X139418536Y-122192982D01*
X139462407Y-122094447D01*
X139486303Y-121989267D01*
X139488023Y-121866070D01*
X139488023Y-123234200D01*
X136192238Y-123234200D01*
X136192238Y-124421296D01*
X136089561Y-124244223D01*
X135918898Y-123745974D01*
X135846657Y-123212192D01*
X135845000Y-123122082D01*
X135845000Y-111657070D01*
X135859742Y-111506716D01*
X135899148Y-111376197D01*
X135963154Y-111255819D01*
X136049319Y-111150171D01*
X136154368Y-111063266D01*
X136274295Y-110998422D01*
X136404539Y-110958105D01*
X136553965Y-110942400D01*
X169530329Y-110942400D01*
X169680683Y-110957142D01*
X169811202Y-110996548D01*
X169931580Y-111060554D01*
X170037228Y-111146719D01*
X170124133Y-111251768D01*
X170188977Y-111371695D01*
X170229294Y-111501939D01*
X170245000Y-111651365D01*
X170245000Y-123110154D01*
X170245000Y-123110154D01*
G37*
X170245000Y-123110154D02*
X170192167Y-123648977D01*
X170039944Y-124153166D01*
X169792690Y-124618185D01*
X169459820Y-125026323D01*
X169411460Y-125066329D01*
X169411460Y-113654063D01*
X169411460Y-113604817D01*
X169411460Y-113142500D01*
X169411460Y-112917500D01*
X169411460Y-112455183D01*
X169411460Y-112405937D01*
X169401853Y-112357638D01*
X169383007Y-112312141D01*
X169355648Y-112271194D01*
X169320826Y-112236372D01*
X169279880Y-112209013D01*
X169234382Y-112190167D01*
X169186083Y-112180560D01*
X168674520Y-112180560D01*
X168612020Y-112243060D01*
X168612020Y-112980000D01*
X169348960Y-112980000D01*
X169411460Y-112917500D01*
X169411460Y-113142500D01*
X169348960Y-113080000D01*
X168612020Y-113080000D01*
X168612020Y-113816940D01*
X168674520Y-113879440D01*
X169186083Y-113879440D01*
X169234382Y-113869833D01*
X169279880Y-113850987D01*
X169320826Y-113823628D01*
X169355648Y-113788806D01*
X169383007Y-113747859D01*
X169401853Y-113702362D01*
X169411460Y-113654063D01*
X169411460Y-125066329D01*
X169054018Y-125362032D01*
X168590735Y-125612528D01*
X168512020Y-125636894D01*
X168512020Y-113816940D01*
X168512020Y-113080000D01*
X168512020Y-112980000D01*
X168512020Y-112243060D01*
X168449520Y-112180560D01*
X167937957Y-112180560D01*
X167889658Y-112190167D01*
X167844160Y-112209013D01*
X167803214Y-112236372D01*
X167768392Y-112271194D01*
X167741033Y-112312141D01*
X167722187Y-112357638D01*
X167712580Y-112405937D01*
X167712580Y-112455183D01*
X167712580Y-112917500D01*
X167775080Y-112980000D01*
X168512020Y-112980000D01*
X168512020Y-113080000D01*
X167775080Y-113080000D01*
X167712580Y-113142500D01*
X167712580Y-113604817D01*
X167712580Y-113654063D01*
X167722187Y-113702362D01*
X167741033Y-113747859D01*
X167768392Y-113788806D01*
X167803214Y-113823628D01*
X167844160Y-113850987D01*
X167889658Y-113869833D01*
X167937957Y-113879440D01*
X168449520Y-113879440D01*
X168512020Y-113816940D01*
X168512020Y-125636894D01*
X168087624Y-125768268D01*
X167890058Y-125789032D01*
X167890058Y-117393426D01*
X167838635Y-117133719D01*
X167737747Y-116888947D01*
X167591237Y-116668432D01*
X167404686Y-116480574D01*
X167314630Y-116419830D01*
X167314630Y-113629440D01*
X167314630Y-112430560D01*
X167311332Y-112389992D01*
X167290281Y-112322670D01*
X167251344Y-112263854D01*
X167197590Y-112218181D01*
X167133258Y-112189253D01*
X167063420Y-112179350D01*
X165864540Y-112179350D01*
X165823972Y-112182648D01*
X165756650Y-112203699D01*
X165727210Y-112223188D01*
X165727210Y-112180000D01*
X165723912Y-112139432D01*
X165702861Y-112072110D01*
X165663924Y-112013294D01*
X165610170Y-111967621D01*
X165545838Y-111938693D01*
X165476000Y-111928790D01*
X164576000Y-111928790D01*
X164535432Y-111932088D01*
X164468110Y-111953139D01*
X164409294Y-111992076D01*
X164363621Y-112045830D01*
X164334693Y-112110162D01*
X164324790Y-112180000D01*
X164324790Y-113880000D01*
X164328088Y-113920568D01*
X164349139Y-113987890D01*
X164388076Y-114046706D01*
X164441830Y-114092379D01*
X164506162Y-114121307D01*
X164576000Y-114131210D01*
X165476000Y-114131210D01*
X165516568Y-114127912D01*
X165583890Y-114106861D01*
X165642706Y-114067924D01*
X165688379Y-114014170D01*
X165717307Y-113949838D01*
X165727210Y-113880000D01*
X165727210Y-113839134D01*
X165730370Y-113841819D01*
X165794702Y-113870747D01*
X165864540Y-113880650D01*
X167063420Y-113880650D01*
X167103988Y-113877352D01*
X167171310Y-113856301D01*
X167230126Y-113817364D01*
X167275799Y-113763610D01*
X167304727Y-113699278D01*
X167314630Y-113629440D01*
X167314630Y-116419830D01*
X167185199Y-116332529D01*
X166941137Y-116229934D01*
X166681796Y-116176699D01*
X166417054Y-116174851D01*
X166156995Y-116224460D01*
X165911524Y-116323636D01*
X165689992Y-116468603D01*
X165500836Y-116653838D01*
X165351262Y-116872286D01*
X165246966Y-117115626D01*
X165191922Y-117374589D01*
X165188226Y-117639312D01*
X165236018Y-117899711D01*
X165333478Y-118145868D01*
X165476895Y-118368407D01*
X165660805Y-118558851D01*
X165878203Y-118709947D01*
X166120809Y-118815939D01*
X166379381Y-118872789D01*
X166644072Y-118878334D01*
X166904798Y-118832361D01*
X167151630Y-118736621D01*
X167375164Y-118594762D01*
X167566888Y-118412186D01*
X167719498Y-118195848D01*
X167827181Y-117953988D01*
X167885835Y-117695819D01*
X167890058Y-117393426D01*
X167890058Y-125789032D01*
X167563836Y-125823320D01*
X167039341Y-125775588D01*
X166522611Y-125623506D01*
X166437128Y-125587125D01*
X166437084Y-125587111D01*
X166433969Y-125585802D01*
X164643248Y-124847720D01*
X164626930Y-124842793D01*
X164611078Y-124836551D01*
X164607041Y-124835432D01*
X164446763Y-124792208D01*
X164569323Y-124712617D01*
X164681255Y-124603767D01*
X164769914Y-124475247D01*
X164831922Y-124331956D01*
X164835262Y-124321297D01*
X164955040Y-123929519D01*
X164985900Y-123776467D01*
X164986446Y-123620336D01*
X164956654Y-123467071D01*
X164897661Y-123322513D01*
X164811712Y-123192166D01*
X164702083Y-123080995D01*
X164572948Y-122993236D01*
X164429228Y-122932230D01*
X164276395Y-122900302D01*
X164120271Y-122898667D01*
X163966802Y-122927389D01*
X163872023Y-122965297D01*
X163872023Y-112976070D01*
X163851073Y-112870263D01*
X163809971Y-112770541D01*
X163750282Y-112680702D01*
X163674279Y-112604167D01*
X163584859Y-112543853D01*
X163485426Y-112502055D01*
X163379769Y-112480367D01*
X163271911Y-112479614D01*
X163165961Y-112499825D01*
X163091274Y-112530000D01*
X162827210Y-112530000D01*
X162827210Y-112180000D01*
X162823912Y-112139432D01*
X162802861Y-112072110D01*
X162763924Y-112013294D01*
X162710170Y-111967621D01*
X162645838Y-111938693D01*
X162576000Y-111928790D01*
X161676000Y-111928790D01*
X161635432Y-111932088D01*
X161568110Y-111953139D01*
X161509294Y-111992076D01*
X161463621Y-112045830D01*
X161434693Y-112110162D01*
X161424790Y-112180000D01*
X161424790Y-113880000D01*
X161428088Y-113920568D01*
X161449139Y-113987890D01*
X161488076Y-114046706D01*
X161541830Y-114092379D01*
X161606162Y-114121307D01*
X161676000Y-114131210D01*
X162576000Y-114131210D01*
X162616568Y-114127912D01*
X162683890Y-114106861D01*
X162742706Y-114067924D01*
X162788379Y-114014170D01*
X162817307Y-113949838D01*
X162827210Y-113880000D01*
X162827210Y-113530000D01*
X163092594Y-113530000D01*
X163151218Y-113555612D01*
X163256563Y-113578773D01*
X163364400Y-113581032D01*
X163470621Y-113562302D01*
X163571182Y-113523297D01*
X163662252Y-113465503D01*
X163740362Y-113391120D01*
X163802536Y-113302982D01*
X163846407Y-113204447D01*
X163870303Y-113099267D01*
X163872023Y-112976070D01*
X163872023Y-122965297D01*
X163821835Y-122985371D01*
X163724717Y-123048439D01*
X163656960Y-122909214D01*
X163561955Y-122784055D01*
X163444357Y-122679835D01*
X163369025Y-122633228D01*
X163237018Y-122639906D01*
X162978034Y-123487003D01*
X162997160Y-123492850D01*
X162967922Y-123588481D01*
X162948797Y-123582634D01*
X162942949Y-123601760D01*
X162847318Y-123572522D01*
X162853166Y-123553397D01*
X162834039Y-123547549D01*
X162863277Y-123451918D01*
X162882403Y-123457766D01*
X163141387Y-122610669D01*
X163035682Y-122531315D01*
X162947167Y-122527828D01*
X162830400Y-122543302D01*
X162830400Y-120153023D01*
X162830400Y-120103777D01*
X162830400Y-119390900D01*
X162830400Y-119165900D01*
X162830400Y-118453023D01*
X162830400Y-118403777D01*
X162830400Y-117613023D01*
X162830400Y-117563777D01*
X162830400Y-116850900D01*
X162830400Y-116625900D01*
X162830400Y-115913023D01*
X162830400Y-115863777D01*
X162820793Y-115815478D01*
X162801947Y-115769981D01*
X162774588Y-115729034D01*
X162739766Y-115694212D01*
X162698820Y-115666853D01*
X162653322Y-115648007D01*
X162605023Y-115638400D01*
X162242900Y-115638400D01*
X162180400Y-115700900D01*
X162180400Y-116688400D01*
X162767900Y-116688400D01*
X162830400Y-116625900D01*
X162830400Y-116850900D01*
X162767900Y-116788400D01*
X162180400Y-116788400D01*
X162180400Y-117775900D01*
X162242900Y-117838400D01*
X162605023Y-117838400D01*
X162653322Y-117828793D01*
X162698820Y-117809947D01*
X162739766Y-117782588D01*
X162774588Y-117747766D01*
X162801947Y-117706819D01*
X162820793Y-117661322D01*
X162830400Y-117613023D01*
X162830400Y-118403777D01*
X162820793Y-118355478D01*
X162801947Y-118309981D01*
X162774588Y-118269034D01*
X162739766Y-118234212D01*
X162698820Y-118206853D01*
X162653322Y-118188007D01*
X162605023Y-118178400D01*
X162242900Y-118178400D01*
X162180400Y-118240900D01*
X162180400Y-119228400D01*
X162767900Y-119228400D01*
X162830400Y-119165900D01*
X162830400Y-119390900D01*
X162767900Y-119328400D01*
X162180400Y-119328400D01*
X162180400Y-120315900D01*
X162242900Y-120378400D01*
X162605023Y-120378400D01*
X162653322Y-120368793D01*
X162698820Y-120349947D01*
X162739766Y-120322588D01*
X162774588Y-120287766D01*
X162801947Y-120246819D01*
X162820793Y-120201322D01*
X162830400Y-120153023D01*
X162830400Y-122543302D01*
X162791395Y-122548471D01*
X162694994Y-122581286D01*
X162694831Y-122555616D01*
X162674792Y-122487986D01*
X162636740Y-122428593D01*
X162583677Y-122382120D01*
X162519786Y-122352231D01*
X162080400Y-122217897D01*
X162080400Y-120315900D01*
X162080400Y-119328400D01*
X162080400Y-119228400D01*
X162080400Y-118240900D01*
X162080400Y-117775900D01*
X162080400Y-116788400D01*
X162080400Y-116688400D01*
X162080400Y-115700900D01*
X162017900Y-115638400D01*
X161655777Y-115638400D01*
X161607478Y-115648007D01*
X161561980Y-115666853D01*
X161521034Y-115694212D01*
X161486212Y-115729034D01*
X161458853Y-115769981D01*
X161440007Y-115815478D01*
X161430400Y-115863777D01*
X161430400Y-115913023D01*
X161430400Y-116625900D01*
X161492900Y-116688400D01*
X162080400Y-116688400D01*
X162080400Y-116788400D01*
X161492900Y-116788400D01*
X161430400Y-116850900D01*
X161430400Y-117563777D01*
X161430400Y-117613023D01*
X161440007Y-117661322D01*
X161458853Y-117706819D01*
X161486212Y-117747766D01*
X161521034Y-117782588D01*
X161561980Y-117809947D01*
X161607478Y-117828793D01*
X161655777Y-117838400D01*
X162017900Y-117838400D01*
X162080400Y-117775900D01*
X162080400Y-118240900D01*
X162017900Y-118178400D01*
X161655777Y-118178400D01*
X161607478Y-118188007D01*
X161561980Y-118206853D01*
X161521034Y-118234212D01*
X161486212Y-118269034D01*
X161458853Y-118309981D01*
X161440007Y-118355478D01*
X161430400Y-118403777D01*
X161430400Y-118453023D01*
X161430400Y-119165900D01*
X161492900Y-119228400D01*
X162080400Y-119228400D01*
X162080400Y-119328400D01*
X161492900Y-119328400D01*
X161430400Y-119390900D01*
X161430400Y-120103777D01*
X161430400Y-120153023D01*
X161440007Y-120201322D01*
X161458853Y-120246819D01*
X161486212Y-120287766D01*
X161521034Y-120322588D01*
X161561980Y-120349947D01*
X161607478Y-120368793D01*
X161655777Y-120378400D01*
X162017900Y-120378400D01*
X162080400Y-120315900D01*
X162080400Y-122217897D01*
X161467851Y-122030622D01*
X161428091Y-122021914D01*
X161357556Y-122022363D01*
X161289926Y-122042403D01*
X161230533Y-122080454D01*
X161184060Y-122133517D01*
X161154171Y-122197408D01*
X160951023Y-122861875D01*
X160951023Y-117040070D01*
X160930073Y-116934263D01*
X160888971Y-116834541D01*
X160829282Y-116744702D01*
X160753279Y-116668167D01*
X160663859Y-116607853D01*
X160564426Y-116566055D01*
X160458769Y-116544367D01*
X160350911Y-116543614D01*
X160244961Y-116563825D01*
X160144954Y-116604230D01*
X160054701Y-116663290D01*
X160023340Y-116694000D01*
X159931610Y-116694000D01*
X159931610Y-115888400D01*
X159928312Y-115847832D01*
X159907261Y-115780510D01*
X159868324Y-115721694D01*
X159814570Y-115676021D01*
X159750238Y-115647093D01*
X159680400Y-115637190D01*
X158780400Y-115637190D01*
X158739832Y-115640488D01*
X158672510Y-115661539D01*
X158613694Y-115700476D01*
X158568021Y-115754230D01*
X158539093Y-115818562D01*
X158529190Y-115888400D01*
X158529190Y-115904400D01*
X158225610Y-115904400D01*
X158225610Y-115854400D01*
X158222312Y-115813832D01*
X158201261Y-115746510D01*
X158162324Y-115687694D01*
X158108570Y-115642021D01*
X158044238Y-115613093D01*
X157974400Y-115603190D01*
X157644240Y-115603190D01*
X157644240Y-113904253D01*
X157644240Y-113855007D01*
X157644240Y-113142500D01*
X157644240Y-112917500D01*
X157644240Y-112204993D01*
X157644240Y-112155747D01*
X157634633Y-112107448D01*
X157615787Y-112061951D01*
X157588428Y-112021004D01*
X157553606Y-111986182D01*
X157512660Y-111958823D01*
X157467162Y-111939977D01*
X157418863Y-111930370D01*
X156907300Y-111930370D01*
X156844800Y-111992870D01*
X156844800Y-112980000D01*
X157581740Y-112980000D01*
X157644240Y-112917500D01*
X157644240Y-113142500D01*
X157581740Y-113080000D01*
X156844800Y-113080000D01*
X156844800Y-114067130D01*
X156907300Y-114129630D01*
X157418863Y-114129630D01*
X157467162Y-114120023D01*
X157512660Y-114101177D01*
X157553606Y-114073818D01*
X157588428Y-114038996D01*
X157615787Y-113998049D01*
X157634633Y-113952552D01*
X157644240Y-113904253D01*
X157644240Y-115603190D01*
X157524400Y-115603190D01*
X157524400Y-114985800D01*
X157520793Y-114949015D01*
X157517574Y-114912220D01*
X157516987Y-114910200D01*
X157516782Y-114908106D01*
X157506099Y-114872723D01*
X157495794Y-114837253D01*
X157494825Y-114835385D01*
X157494218Y-114833372D01*
X157476879Y-114800762D01*
X157459868Y-114767944D01*
X157458554Y-114766299D01*
X157457568Y-114764443D01*
X157434216Y-114735810D01*
X157411164Y-114706934D01*
X157408275Y-114704004D01*
X157408228Y-114703946D01*
X157408174Y-114703901D01*
X157407243Y-114702957D01*
X157127843Y-114423557D01*
X157099257Y-114400077D01*
X157070987Y-114376355D01*
X157069144Y-114375342D01*
X157067518Y-114374006D01*
X157034947Y-114356541D01*
X157002577Y-114338746D01*
X157000571Y-114338109D01*
X156998718Y-114337116D01*
X156963421Y-114326324D01*
X156928165Y-114315141D01*
X156926070Y-114314906D01*
X156924062Y-114314292D01*
X156887313Y-114310558D01*
X156850585Y-114306439D01*
X156846477Y-114306410D01*
X156846396Y-114306402D01*
X156846319Y-114306409D01*
X156845000Y-114306400D01*
X155856455Y-114306400D01*
X155691000Y-114140944D01*
X155691000Y-114030337D01*
X155756122Y-113996292D01*
X155885322Y-113892413D01*
X155945360Y-113820862D01*
X155945360Y-113855007D01*
X155945360Y-113904253D01*
X155954967Y-113952552D01*
X155973813Y-113998049D01*
X156001172Y-114038996D01*
X156035994Y-114073818D01*
X156076940Y-114101177D01*
X156122438Y-114120023D01*
X156170737Y-114129630D01*
X156682300Y-114129630D01*
X156744800Y-114067130D01*
X156744800Y-113080000D01*
X156724800Y-113080000D01*
X156724800Y-112980000D01*
X156744800Y-112980000D01*
X156744800Y-111992870D01*
X156682300Y-111930370D01*
X156170737Y-111930370D01*
X156122438Y-111939977D01*
X156076940Y-111958823D01*
X156035994Y-111986182D01*
X156001172Y-112021004D01*
X155973813Y-112061951D01*
X155954967Y-112107448D01*
X155945360Y-112155747D01*
X155945360Y-112204993D01*
X155945360Y-112239239D01*
X155893738Y-112175945D01*
X155766001Y-112070271D01*
X155620171Y-111991422D01*
X155461804Y-111942399D01*
X155296930Y-111925070D01*
X155131831Y-111940095D01*
X154972794Y-111986902D01*
X154825878Y-112063708D01*
X154696678Y-112167587D01*
X154590116Y-112294583D01*
X154540894Y-112384117D01*
X154498517Y-112304416D01*
X154393738Y-112175945D01*
X154266001Y-112070271D01*
X154120171Y-111991422D01*
X153961804Y-111942399D01*
X153796930Y-111925070D01*
X153631831Y-111940095D01*
X153472794Y-111986902D01*
X153325878Y-112063708D01*
X153196678Y-112167587D01*
X153090116Y-112294583D01*
X153040894Y-112384117D01*
X152998517Y-112304416D01*
X152893738Y-112175945D01*
X152766001Y-112070271D01*
X152620171Y-111991422D01*
X152461804Y-111942399D01*
X152296930Y-111925070D01*
X152131831Y-111940095D01*
X151972794Y-111986902D01*
X151825878Y-112063708D01*
X151696678Y-112167587D01*
X151590116Y-112294583D01*
X151540894Y-112384117D01*
X151498517Y-112304416D01*
X151393738Y-112175945D01*
X151266001Y-112070271D01*
X151191000Y-112029718D01*
X151191000Y-111880370D01*
X151187393Y-111843585D01*
X151184174Y-111806790D01*
X151183587Y-111804770D01*
X151183382Y-111802676D01*
X151172699Y-111767293D01*
X151162394Y-111731823D01*
X151161425Y-111729955D01*
X151160818Y-111727942D01*
X151143468Y-111695312D01*
X151126468Y-111662515D01*
X151125156Y-111660872D01*
X151124168Y-111659013D01*
X151100798Y-111630358D01*
X151077764Y-111601504D01*
X151074875Y-111598574D01*
X151074828Y-111598516D01*
X151074774Y-111598471D01*
X151073843Y-111597527D01*
X150785472Y-111309156D01*
X150756886Y-111285676D01*
X150728616Y-111261954D01*
X150726773Y-111260941D01*
X150725147Y-111259605D01*
X150692576Y-111242140D01*
X150660206Y-111224345D01*
X150658200Y-111223708D01*
X150656347Y-111222715D01*
X150621050Y-111211923D01*
X150585794Y-111200740D01*
X150583699Y-111200505D01*
X150581691Y-111199891D01*
X150544942Y-111196157D01*
X150508214Y-111192038D01*
X150504106Y-111192009D01*
X150504025Y-111192001D01*
X150503948Y-111192008D01*
X150502629Y-111191999D01*
X143424001Y-111191999D01*
X143387216Y-111195605D01*
X143350421Y-111198825D01*
X143348401Y-111199411D01*
X143346307Y-111199617D01*
X143310924Y-111210299D01*
X143275454Y-111220605D01*
X143273586Y-111221573D01*
X143271573Y-111222181D01*
X143238963Y-111239519D01*
X143206145Y-111256531D01*
X143204500Y-111257844D01*
X143202644Y-111258831D01*
X143174011Y-111282182D01*
X143145135Y-111305235D01*
X143142205Y-111308123D01*
X143142147Y-111308171D01*
X143142102Y-111308224D01*
X143141158Y-111309156D01*
X142566150Y-111884163D01*
X142521836Y-111865535D01*
X142339625Y-111828132D01*
X142153619Y-111826834D01*
X141970903Y-111861688D01*
X141798438Y-111931369D01*
X141642791Y-112033222D01*
X141509891Y-112163366D01*
X141404802Y-112316846D01*
X141331524Y-112487815D01*
X141292851Y-112669760D01*
X141290254Y-112855752D01*
X141323832Y-113038707D01*
X141392307Y-113211655D01*
X141493070Y-113368009D01*
X141622284Y-113501814D01*
X141775026Y-113607972D01*
X141945479Y-113682442D01*
X142127150Y-113722385D01*
X142313120Y-113726280D01*
X142496305Y-113693980D01*
X142669726Y-113626714D01*
X142826780Y-113527044D01*
X142961484Y-113398768D01*
X143068706Y-113246771D01*
X143144363Y-113076842D01*
X143185574Y-112895454D01*
X143188540Y-112682995D01*
X143152411Y-112500527D01*
X143131614Y-112450071D01*
X143589687Y-111991999D01*
X143932790Y-111991999D01*
X143932790Y-112792000D01*
X143936088Y-112832568D01*
X143957139Y-112899890D01*
X143996076Y-112958706D01*
X144049830Y-113004379D01*
X144114162Y-113033307D01*
X144184000Y-113043210D01*
X144534000Y-113043210D01*
X144534000Y-113308383D01*
X144507209Y-113370892D01*
X144484783Y-113476395D01*
X144483277Y-113584245D01*
X144502748Y-113690334D01*
X144542454Y-113790620D01*
X144600883Y-113881284D01*
X144675809Y-113958873D01*
X144764379Y-114020430D01*
X144863218Y-114063612D01*
X144968563Y-114086773D01*
X145076400Y-114089032D01*
X145182621Y-114070302D01*
X145283182Y-114031297D01*
X145374252Y-113973503D01*
X145452362Y-113899120D01*
X145514536Y-113810982D01*
X145558407Y-113712447D01*
X145582303Y-113607267D01*
X145584023Y-113484070D01*
X145563073Y-113378263D01*
X145534000Y-113307725D01*
X145534000Y-113043210D01*
X145884000Y-113043210D01*
X145924568Y-113039912D01*
X145991890Y-113018861D01*
X146050706Y-112979924D01*
X146096379Y-112926170D01*
X146125307Y-112861838D01*
X146135210Y-112792000D01*
X146135210Y-111991999D01*
X148963044Y-111991999D01*
X148825878Y-112063708D01*
X148696678Y-112167587D01*
X148590116Y-112294583D01*
X148510250Y-112439859D01*
X148460122Y-112597880D01*
X148441643Y-112762629D01*
X148441560Y-112774489D01*
X148441560Y-113285511D01*
X148457737Y-113450501D01*
X148505654Y-113609207D01*
X148583483Y-113755584D01*
X148688262Y-113884055D01*
X148815999Y-113989729D01*
X148961829Y-114068578D01*
X149120196Y-114117601D01*
X149285070Y-114134930D01*
X149450169Y-114119905D01*
X149609206Y-114073098D01*
X149756122Y-113996292D01*
X149885322Y-113892413D01*
X149991884Y-113765417D01*
X150041105Y-113675882D01*
X150083483Y-113755584D01*
X150188262Y-113884055D01*
X150315999Y-113989729D01*
X150461829Y-114068578D01*
X150620196Y-114117601D01*
X150785070Y-114134930D01*
X150950169Y-114119905D01*
X151109206Y-114073098D01*
X151256122Y-113996292D01*
X151385322Y-113892413D01*
X151491884Y-113765417D01*
X151541105Y-113675882D01*
X151583483Y-113755584D01*
X151688262Y-113884055D01*
X151815999Y-113989729D01*
X151961829Y-114068578D01*
X152120196Y-114117601D01*
X152285070Y-114134930D01*
X152450169Y-114119905D01*
X152609206Y-114073098D01*
X152756122Y-113996292D01*
X152885322Y-113892413D01*
X152991884Y-113765417D01*
X153041105Y-113675882D01*
X153083483Y-113755584D01*
X153188262Y-113884055D01*
X153315999Y-113989729D01*
X153391000Y-114030281D01*
X153391000Y-115334114D01*
X152386714Y-116338400D01*
X152360400Y-116338400D01*
X152311610Y-116338400D01*
X152311610Y-115888400D01*
X152308312Y-115847832D01*
X152287261Y-115780510D01*
X152248324Y-115721694D01*
X152194570Y-115676021D01*
X152130238Y-115647093D01*
X152060400Y-115637190D01*
X151160400Y-115637190D01*
X151119832Y-115640488D01*
X151052510Y-115661539D01*
X150993694Y-115700476D01*
X150948021Y-115754230D01*
X150919093Y-115818562D01*
X150909190Y-115888400D01*
X150909190Y-115904400D01*
X150605610Y-115904400D01*
X150605610Y-115854400D01*
X150602312Y-115813832D01*
X150581261Y-115746510D01*
X150542324Y-115687694D01*
X150488570Y-115642021D01*
X150424238Y-115613093D01*
X150354400Y-115603190D01*
X148654400Y-115603190D01*
X148613832Y-115606488D01*
X148546510Y-115627539D01*
X148487694Y-115666476D01*
X148442021Y-115720230D01*
X148413093Y-115784562D01*
X148403190Y-115854400D01*
X148403190Y-116754400D01*
X148406488Y-116794968D01*
X148427539Y-116862290D01*
X148466476Y-116921106D01*
X148520230Y-116966779D01*
X148584562Y-116995707D01*
X148654400Y-117005610D01*
X150354400Y-117005610D01*
X150394968Y-117002312D01*
X150462290Y-116981261D01*
X150521106Y-116942324D01*
X150566779Y-116888570D01*
X150595707Y-116824238D01*
X150605610Y-116754400D01*
X150605610Y-116704400D01*
X150909190Y-116704400D01*
X150909190Y-117588400D01*
X150912488Y-117628968D01*
X150933539Y-117696290D01*
X150972476Y-117755106D01*
X151026230Y-117800779D01*
X151090562Y-117829707D01*
X151160400Y-117839610D01*
X152060400Y-117839610D01*
X152100968Y-117836312D01*
X152168290Y-117815261D01*
X152227106Y-117776324D01*
X152272779Y-117722570D01*
X152301707Y-117658238D01*
X152311610Y-117588400D01*
X152311610Y-117138400D01*
X152357302Y-117138400D01*
X152357277Y-117140245D01*
X152376748Y-117246334D01*
X152416454Y-117346620D01*
X152474883Y-117437284D01*
X152549809Y-117514873D01*
X152638379Y-117576430D01*
X152737218Y-117619612D01*
X152842563Y-117642773D01*
X152950400Y-117645032D01*
X153056621Y-117626302D01*
X153157182Y-117587297D01*
X153248252Y-117529503D01*
X153326362Y-117455120D01*
X153388536Y-117366982D01*
X153432407Y-117268447D01*
X153456303Y-117163267D01*
X153458023Y-117040070D01*
X153437073Y-116934263D01*
X153395971Y-116834541D01*
X153336282Y-116744702D01*
X153260279Y-116668167D01*
X153217305Y-116639180D01*
X153810400Y-116046086D01*
X153810400Y-116625900D01*
X153872900Y-116688400D01*
X154460400Y-116688400D01*
X154460400Y-115700900D01*
X154397900Y-115638400D01*
X154164905Y-115638400D01*
X154171075Y-115618221D01*
X154182259Y-115582965D01*
X154182493Y-115580870D01*
X154183108Y-115578862D01*
X154186841Y-115542113D01*
X154190961Y-115505385D01*
X154190989Y-115501277D01*
X154190998Y-115501196D01*
X154190990Y-115501119D01*
X154191000Y-115499800D01*
X154191000Y-114030337D01*
X154256122Y-113996292D01*
X154385322Y-113892413D01*
X154491884Y-113765417D01*
X154541105Y-113675882D01*
X154583483Y-113755584D01*
X154688262Y-113884055D01*
X154815999Y-113989729D01*
X154891000Y-114030281D01*
X154891000Y-114306630D01*
X154894606Y-114343414D01*
X154897826Y-114380210D01*
X154898412Y-114382229D01*
X154898618Y-114384324D01*
X154909300Y-114419706D01*
X154919606Y-114455177D01*
X154920574Y-114457044D01*
X154921182Y-114459058D01*
X154938531Y-114491687D01*
X154955532Y-114524485D01*
X154956843Y-114526127D01*
X154957832Y-114527987D01*
X154981201Y-114556641D01*
X155004236Y-114585496D01*
X155007124Y-114588425D01*
X155007172Y-114588484D01*
X155007225Y-114588528D01*
X155008157Y-114589473D01*
X155407927Y-114989243D01*
X155436512Y-115012722D01*
X155464783Y-115036445D01*
X155466625Y-115037457D01*
X155468252Y-115038794D01*
X155500822Y-115056258D01*
X155533193Y-115074054D01*
X155535198Y-115074690D01*
X155537052Y-115075684D01*
X155572348Y-115086475D01*
X155607605Y-115097659D01*
X155609699Y-115097893D01*
X155611708Y-115098508D01*
X155648412Y-115102236D01*
X155685185Y-115106361D01*
X155689302Y-115106389D01*
X155689374Y-115106397D01*
X155689440Y-115106390D01*
X155690770Y-115106400D01*
X156679314Y-115106400D01*
X156724400Y-115151486D01*
X156724400Y-115603190D01*
X156274400Y-115603190D01*
X156233832Y-115606488D01*
X156166510Y-115627539D01*
X156107694Y-115666476D01*
X156062021Y-115720230D01*
X156033093Y-115784562D01*
X156023190Y-115854400D01*
X156023190Y-116754400D01*
X156026488Y-116794968D01*
X156047539Y-116862290D01*
X156086476Y-116921106D01*
X156140230Y-116966779D01*
X156204562Y-116995707D01*
X156274400Y-117005610D01*
X157974400Y-117005610D01*
X158014968Y-117002312D01*
X158082290Y-116981261D01*
X158141106Y-116942324D01*
X158186779Y-116888570D01*
X158215707Y-116824238D01*
X158225610Y-116754400D01*
X158225610Y-116704400D01*
X158529190Y-116704400D01*
X158529190Y-117588400D01*
X158532488Y-117628968D01*
X158553539Y-117696290D01*
X158592476Y-117755106D01*
X158646230Y-117800779D01*
X158710562Y-117829707D01*
X158780400Y-117839610D01*
X159680400Y-117839610D01*
X159720968Y-117836312D01*
X159788290Y-117815261D01*
X159847106Y-117776324D01*
X159892779Y-117722570D01*
X159921707Y-117658238D01*
X159931610Y-117588400D01*
X159931610Y-117494000D01*
X160022652Y-117494000D01*
X160042809Y-117514873D01*
X160131379Y-117576430D01*
X160230218Y-117619612D01*
X160335563Y-117642773D01*
X160443400Y-117645032D01*
X160549621Y-117626302D01*
X160650182Y-117587297D01*
X160741252Y-117529503D01*
X160819362Y-117455120D01*
X160881536Y-117366982D01*
X160925407Y-117268447D01*
X160949303Y-117163267D01*
X160951023Y-117040070D01*
X160951023Y-122861875D01*
X160824023Y-123277274D01*
X160824023Y-119326070D01*
X160803073Y-119220263D01*
X160761971Y-119120541D01*
X160702282Y-119030702D01*
X160626279Y-118954167D01*
X160536859Y-118893853D01*
X160437426Y-118852055D01*
X160331769Y-118830367D01*
X160223911Y-118829614D01*
X160117961Y-118849825D01*
X160043274Y-118880000D01*
X159931610Y-118880000D01*
X159931610Y-118428400D01*
X159928312Y-118387832D01*
X159907261Y-118320510D01*
X159868324Y-118261694D01*
X159814570Y-118216021D01*
X159750238Y-118187093D01*
X159680400Y-118177190D01*
X158780400Y-118177190D01*
X158739832Y-118180488D01*
X158672510Y-118201539D01*
X158613694Y-118240476D01*
X158568021Y-118294230D01*
X158539093Y-118358562D01*
X158529190Y-118428400D01*
X158529190Y-118704400D01*
X158219362Y-118704400D01*
X158201261Y-118646510D01*
X158162324Y-118587694D01*
X158108570Y-118542021D01*
X158044238Y-118513093D01*
X157974400Y-118503190D01*
X156274400Y-118503190D01*
X156233832Y-118506488D01*
X156166510Y-118527539D01*
X156107694Y-118566476D01*
X156062021Y-118620230D01*
X156033093Y-118684562D01*
X156023190Y-118754400D01*
X156023190Y-119654400D01*
X156026488Y-119694968D01*
X156047539Y-119762290D01*
X156086476Y-119821106D01*
X156140230Y-119866779D01*
X156204562Y-119895707D01*
X156274400Y-119905610D01*
X157974400Y-119905610D01*
X158014968Y-119902312D01*
X158082290Y-119881261D01*
X158141106Y-119842324D01*
X158186779Y-119788570D01*
X158215707Y-119724238D01*
X158218520Y-119704400D01*
X158529190Y-119704400D01*
X158529190Y-120128400D01*
X158532488Y-120168968D01*
X158553539Y-120236290D01*
X158592476Y-120295106D01*
X158646230Y-120340779D01*
X158710562Y-120369707D01*
X158780400Y-120379610D01*
X159680400Y-120379610D01*
X159720968Y-120376312D01*
X159788290Y-120355261D01*
X159847106Y-120316324D01*
X159892779Y-120262570D01*
X159921707Y-120198238D01*
X159931610Y-120128400D01*
X159931610Y-119880000D01*
X160044594Y-119880000D01*
X160103218Y-119905612D01*
X160208563Y-119928773D01*
X160316400Y-119931032D01*
X160422621Y-119912302D01*
X160523182Y-119873297D01*
X160614252Y-119815503D01*
X160692362Y-119741120D01*
X160754536Y-119652982D01*
X160798407Y-119554447D01*
X160822303Y-119449267D01*
X160824023Y-119326070D01*
X160824023Y-123277274D01*
X160715614Y-123631865D01*
X160706906Y-123671625D01*
X160707355Y-123742160D01*
X160720754Y-123787380D01*
X158482937Y-123183888D01*
X158456144Y-123179407D01*
X158429367Y-123174545D01*
X158425190Y-123174232D01*
X155210400Y-122955494D01*
X155210400Y-120153023D01*
X155210400Y-120103777D01*
X155210400Y-119390900D01*
X155210400Y-119165900D01*
X155210400Y-118453023D01*
X155210400Y-118403777D01*
X155210400Y-117613023D01*
X155210400Y-117563777D01*
X155210400Y-116850900D01*
X155210400Y-116625900D01*
X155210400Y-115913023D01*
X155210400Y-115863777D01*
X155200793Y-115815478D01*
X155181947Y-115769981D01*
X155154588Y-115729034D01*
X155119766Y-115694212D01*
X155078820Y-115666853D01*
X155033322Y-115648007D01*
X154985023Y-115638400D01*
X154622900Y-115638400D01*
X154560400Y-115700900D01*
X154560400Y-116688400D01*
X155147900Y-116688400D01*
X155210400Y-116625900D01*
X155210400Y-116850900D01*
X155147900Y-116788400D01*
X154560400Y-116788400D01*
X154560400Y-117775900D01*
X154622900Y-117838400D01*
X154985023Y-117838400D01*
X155033322Y-117828793D01*
X155078820Y-117809947D01*
X155119766Y-117782588D01*
X155154588Y-117747766D01*
X155181947Y-117706819D01*
X155200793Y-117661322D01*
X155210400Y-117613023D01*
X155210400Y-118403777D01*
X155200793Y-118355478D01*
X155181947Y-118309981D01*
X155154588Y-118269034D01*
X155119766Y-118234212D01*
X155078820Y-118206853D01*
X155033322Y-118188007D01*
X154985023Y-118178400D01*
X154622900Y-118178400D01*
X154560400Y-118240900D01*
X154560400Y-119228400D01*
X155147900Y-119228400D01*
X155210400Y-119165900D01*
X155210400Y-119390900D01*
X155147900Y-119328400D01*
X154560400Y-119328400D01*
X154560400Y-120315900D01*
X154622900Y-120378400D01*
X154985023Y-120378400D01*
X155033322Y-120368793D01*
X155078820Y-120349947D01*
X155119766Y-120322588D01*
X155154588Y-120287766D01*
X155181947Y-120246819D01*
X155200793Y-120201322D01*
X155210400Y-120153023D01*
X155210400Y-122955494D01*
X154738910Y-122923414D01*
X154743051Y-122921250D01*
X154864731Y-122823417D01*
X154965091Y-122703813D01*
X155040308Y-122566993D01*
X155087518Y-122418168D01*
X155104922Y-122263009D01*
X155105000Y-122251839D01*
X155105000Y-121842161D01*
X155089764Y-121686774D01*
X155044637Y-121537305D01*
X154971337Y-121399448D01*
X154872657Y-121278454D01*
X154752354Y-121178931D01*
X154615012Y-121104670D01*
X154465862Y-121058501D01*
X154460400Y-121057926D01*
X154460400Y-120315900D01*
X154460400Y-119328400D01*
X154460400Y-119228400D01*
X154460400Y-118240900D01*
X154460400Y-117775900D01*
X154460400Y-116788400D01*
X153872900Y-116788400D01*
X153810400Y-116850900D01*
X153810400Y-117563777D01*
X153810400Y-117613023D01*
X153820007Y-117661322D01*
X153838853Y-117706819D01*
X153866212Y-117747766D01*
X153901034Y-117782588D01*
X153941980Y-117809947D01*
X153987478Y-117828793D01*
X154035777Y-117838400D01*
X154397900Y-117838400D01*
X154460400Y-117775900D01*
X154460400Y-118240900D01*
X154397900Y-118178400D01*
X154035777Y-118178400D01*
X153987478Y-118188007D01*
X153941980Y-118206853D01*
X153901034Y-118234212D01*
X153866212Y-118269034D01*
X153838853Y-118309981D01*
X153820007Y-118355478D01*
X153810400Y-118403777D01*
X153810400Y-118453023D01*
X153810400Y-119165900D01*
X153872900Y-119228400D01*
X154460400Y-119228400D01*
X154460400Y-119328400D01*
X153872900Y-119328400D01*
X153810400Y-119390900D01*
X153810400Y-120103777D01*
X153810400Y-120153023D01*
X153820007Y-120201322D01*
X153838853Y-120246819D01*
X153866212Y-120287766D01*
X153901034Y-120322588D01*
X153941980Y-120349947D01*
X153987478Y-120368793D01*
X154035777Y-120378400D01*
X154397900Y-120378400D01*
X154460400Y-120315900D01*
X154460400Y-121057926D01*
X154310585Y-121042180D01*
X154155095Y-121056331D01*
X154005315Y-121100414D01*
X153866949Y-121172750D01*
X153745269Y-121270583D01*
X153670834Y-121359290D01*
X153565331Y-121245959D01*
X153437884Y-121154045D01*
X153294954Y-121088761D01*
X153209287Y-121066216D01*
X153085000Y-121111197D01*
X153085000Y-121997000D01*
X153105000Y-121997000D01*
X153105000Y-122097000D01*
X153085000Y-122097000D01*
X153085000Y-122117000D01*
X152985000Y-122117000D01*
X152985000Y-122097000D01*
X152965000Y-122097000D01*
X152965000Y-121997000D01*
X152985000Y-121997000D01*
X152985000Y-121111197D01*
X152860713Y-121066216D01*
X152775046Y-121088761D01*
X152632116Y-121154045D01*
X152549522Y-121213611D01*
X152541861Y-121189110D01*
X152502924Y-121130294D01*
X152449170Y-121084621D01*
X152384838Y-121055693D01*
X152315000Y-121045790D01*
X152311610Y-121045790D01*
X152311610Y-120128400D01*
X152311610Y-118428400D01*
X152308312Y-118387832D01*
X152287261Y-118320510D01*
X152248324Y-118261694D01*
X152194570Y-118216021D01*
X152130238Y-118187093D01*
X152060400Y-118177190D01*
X151160400Y-118177190D01*
X151119832Y-118180488D01*
X151052510Y-118201539D01*
X150993694Y-118240476D01*
X150948021Y-118294230D01*
X150919093Y-118358562D01*
X150909190Y-118428400D01*
X150909190Y-118704400D01*
X150599362Y-118704400D01*
X150581261Y-118646510D01*
X150542324Y-118587694D01*
X150488570Y-118542021D01*
X150424238Y-118513093D01*
X150354400Y-118503190D01*
X150004400Y-118503190D01*
X150004400Y-118262400D01*
X149999890Y-118216411D01*
X149995868Y-118170424D01*
X149995134Y-118167899D01*
X149994878Y-118165283D01*
X149981531Y-118121076D01*
X149968643Y-118076716D01*
X149967432Y-118074380D01*
X149966673Y-118071865D01*
X149944984Y-118031075D01*
X149923735Y-117990080D01*
X149922096Y-117988027D01*
X149920861Y-117985704D01*
X149891669Y-117949912D01*
X149869462Y-117922094D01*
X149839971Y-117850541D01*
X149780282Y-117760702D01*
X149704279Y-117684167D01*
X149614859Y-117623853D01*
X149515426Y-117582055D01*
X149409769Y-117560367D01*
X149301911Y-117559614D01*
X149195961Y-117579825D01*
X149095954Y-117620230D01*
X149005701Y-117679290D01*
X148928637Y-117754756D01*
X148867699Y-117843754D01*
X148825209Y-117942892D01*
X148802783Y-118048395D01*
X148801277Y-118156245D01*
X148820748Y-118262334D01*
X148860454Y-118362620D01*
X148918883Y-118453284D01*
X148967076Y-118503190D01*
X148654400Y-118503190D01*
X148613832Y-118506488D01*
X148546510Y-118527539D01*
X148487694Y-118566476D01*
X148442021Y-118620230D01*
X148413093Y-118684562D01*
X148403190Y-118754400D01*
X148403190Y-119654400D01*
X148406488Y-119694968D01*
X148427539Y-119762290D01*
X148466476Y-119821106D01*
X148520230Y-119866779D01*
X148584562Y-119895707D01*
X148654400Y-119905610D01*
X150354400Y-119905610D01*
X150394968Y-119902312D01*
X150462290Y-119881261D01*
X150521106Y-119842324D01*
X150566779Y-119788570D01*
X150595707Y-119724238D01*
X150598520Y-119704400D01*
X150909190Y-119704400D01*
X150909190Y-120128400D01*
X150912488Y-120168968D01*
X150933539Y-120236290D01*
X150972476Y-120295106D01*
X151026230Y-120340779D01*
X151090562Y-120369707D01*
X151160400Y-120379610D01*
X152060400Y-120379610D01*
X152100968Y-120376312D01*
X152168290Y-120355261D01*
X152227106Y-120316324D01*
X152272779Y-120262570D01*
X152301707Y-120198238D01*
X152311610Y-120128400D01*
X152311610Y-121045790D01*
X151215000Y-121045790D01*
X151174432Y-121049088D01*
X151107110Y-121070139D01*
X151048294Y-121109076D01*
X151002621Y-121162830D01*
X150973693Y-121227162D01*
X150963790Y-121297000D01*
X150963790Y-122797000D01*
X150967088Y-122837568D01*
X150980680Y-122881036D01*
X147110000Y-123377400D01*
X147110000Y-121524623D01*
X147110000Y-121475377D01*
X147110000Y-120762500D01*
X147110000Y-120537500D01*
X147110000Y-119824623D01*
X147110000Y-119775377D01*
X147110000Y-118984623D01*
X147110000Y-118935377D01*
X147110000Y-118222500D01*
X147110000Y-117997500D01*
X147110000Y-117284623D01*
X147110000Y-117235377D01*
X147100393Y-117187078D01*
X147081547Y-117141581D01*
X147054188Y-117100634D01*
X147019366Y-117065812D01*
X146978420Y-117038453D01*
X146932922Y-117019607D01*
X146884623Y-117010000D01*
X146522500Y-117010000D01*
X146460000Y-117072500D01*
X146460000Y-118060000D01*
X147047500Y-118060000D01*
X147110000Y-117997500D01*
X147110000Y-118222500D01*
X147047500Y-118160000D01*
X146460000Y-118160000D01*
X146460000Y-119147500D01*
X146522500Y-119210000D01*
X146884623Y-119210000D01*
X146932922Y-119200393D01*
X146978420Y-119181547D01*
X147019366Y-119154188D01*
X147054188Y-119119366D01*
X147081547Y-119078419D01*
X147100393Y-119032922D01*
X147110000Y-118984623D01*
X147110000Y-119775377D01*
X147100393Y-119727078D01*
X147081547Y-119681581D01*
X147054188Y-119640634D01*
X147019366Y-119605812D01*
X146978420Y-119578453D01*
X146932922Y-119559607D01*
X146884623Y-119550000D01*
X146522500Y-119550000D01*
X146460000Y-119612500D01*
X146460000Y-120600000D01*
X147047500Y-120600000D01*
X147110000Y-120537500D01*
X147110000Y-120762500D01*
X147047500Y-120700000D01*
X146460000Y-120700000D01*
X146460000Y-121687500D01*
X146522500Y-121750000D01*
X146884623Y-121750000D01*
X146932922Y-121740393D01*
X146978420Y-121721547D01*
X147019366Y-121694188D01*
X147054188Y-121659366D01*
X147081547Y-121618419D01*
X147100393Y-121572922D01*
X147110000Y-121524623D01*
X147110000Y-123377400D01*
X146360000Y-123473578D01*
X146360000Y-121687500D01*
X146360000Y-120700000D01*
X146360000Y-120600000D01*
X146360000Y-119612500D01*
X146360000Y-119147500D01*
X146360000Y-118160000D01*
X146360000Y-118060000D01*
X146360000Y-117072500D01*
X146297500Y-117010000D01*
X146134000Y-117010000D01*
X146134000Y-115716623D01*
X146134000Y-115354500D01*
X146134000Y-115129500D01*
X146134000Y-114767377D01*
X146124393Y-114719078D01*
X146105547Y-114673580D01*
X146078188Y-114632634D01*
X146043366Y-114597812D01*
X146002419Y-114570453D01*
X145956922Y-114551607D01*
X145908623Y-114542000D01*
X145859377Y-114542000D01*
X145146500Y-114542000D01*
X145084000Y-114604500D01*
X145084000Y-115192000D01*
X146071500Y-115192000D01*
X146134000Y-115129500D01*
X146134000Y-115354500D01*
X146071500Y-115292000D01*
X145084000Y-115292000D01*
X145084000Y-115879500D01*
X145146500Y-115942000D01*
X145859377Y-115942000D01*
X145908623Y-115942000D01*
X145956922Y-115932393D01*
X146002419Y-115913547D01*
X146043366Y-115886188D01*
X146078188Y-115851366D01*
X146105547Y-115810420D01*
X146124393Y-115764922D01*
X146134000Y-115716623D01*
X146134000Y-117010000D01*
X145935377Y-117010000D01*
X145887078Y-117019607D01*
X145841580Y-117038453D01*
X145800634Y-117065812D01*
X145765812Y-117100634D01*
X145738453Y-117141581D01*
X145719607Y-117187078D01*
X145710000Y-117235377D01*
X145710000Y-117284623D01*
X145710000Y-117997500D01*
X145772500Y-118060000D01*
X146360000Y-118060000D01*
X146360000Y-118160000D01*
X145772500Y-118160000D01*
X145710000Y-118222500D01*
X145710000Y-118935377D01*
X145710000Y-118984623D01*
X145719607Y-119032922D01*
X145738453Y-119078419D01*
X145765812Y-119119366D01*
X145800634Y-119154188D01*
X145841580Y-119181547D01*
X145887078Y-119200393D01*
X145935377Y-119210000D01*
X146297500Y-119210000D01*
X146360000Y-119147500D01*
X146360000Y-119612500D01*
X146297500Y-119550000D01*
X145935377Y-119550000D01*
X145887078Y-119559607D01*
X145841580Y-119578453D01*
X145800634Y-119605812D01*
X145765812Y-119640634D01*
X145738453Y-119681581D01*
X145719607Y-119727078D01*
X145710000Y-119775377D01*
X145710000Y-119824623D01*
X145710000Y-120537500D01*
X145772500Y-120600000D01*
X146360000Y-120600000D01*
X146360000Y-120700000D01*
X145772500Y-120700000D01*
X145710000Y-120762500D01*
X145710000Y-121475377D01*
X145710000Y-121524623D01*
X145719607Y-121572922D01*
X145738453Y-121618419D01*
X145765812Y-121659366D01*
X145800634Y-121694188D01*
X145841580Y-121721547D01*
X145887078Y-121740393D01*
X145935377Y-121750000D01*
X146297500Y-121750000D01*
X146360000Y-121687500D01*
X146360000Y-123473578D01*
X145747039Y-123552183D01*
X145720549Y-123558253D01*
X145693950Y-123563959D01*
X145689979Y-123565258D01*
X145689969Y-123565261D01*
X145689960Y-123565264D01*
X145142437Y-123748543D01*
X145156582Y-123727731D01*
X145217588Y-123584011D01*
X145249517Y-123431178D01*
X145251152Y-123275053D01*
X145222431Y-123121585D01*
X145219240Y-123110881D01*
X145099462Y-122719103D01*
X145076023Y-122662794D01*
X145076023Y-117421070D01*
X145055073Y-117315263D01*
X145013971Y-117215541D01*
X144984000Y-117170431D01*
X144984000Y-115879500D01*
X144984000Y-115292000D01*
X144984000Y-115192000D01*
X144984000Y-114604500D01*
X144921500Y-114542000D01*
X144208623Y-114542000D01*
X144159377Y-114542000D01*
X144111078Y-114551607D01*
X144065581Y-114570453D01*
X144024634Y-114597812D01*
X143989812Y-114632634D01*
X143962453Y-114673580D01*
X143943607Y-114719078D01*
X143934000Y-114767377D01*
X143934000Y-115129500D01*
X143996500Y-115192000D01*
X144984000Y-115192000D01*
X144984000Y-115292000D01*
X143996500Y-115292000D01*
X143934000Y-115354500D01*
X143934000Y-115716623D01*
X143943607Y-115764922D01*
X143962453Y-115810420D01*
X143989812Y-115851366D01*
X144024634Y-115886188D01*
X144065581Y-115913547D01*
X144111078Y-115932393D01*
X144159377Y-115942000D01*
X144208623Y-115942000D01*
X144921500Y-115942000D01*
X144984000Y-115879500D01*
X144984000Y-117170431D01*
X144954282Y-117125702D01*
X144878279Y-117049167D01*
X144788859Y-116988853D01*
X144689426Y-116947055D01*
X144583769Y-116925367D01*
X144475911Y-116924614D01*
X144369961Y-116944825D01*
X144269954Y-116985230D01*
X144179701Y-117044290D01*
X144138144Y-117084984D01*
X144094170Y-117047621D01*
X144029838Y-117018693D01*
X143960000Y-117008790D01*
X143060000Y-117008790D01*
X143019432Y-117012088D01*
X142952110Y-117033139D01*
X142893294Y-117072076D01*
X142847621Y-117125830D01*
X142818693Y-117190162D01*
X142808790Y-117260000D01*
X142808790Y-117710000D01*
X142760000Y-117710000D01*
X142723215Y-117713606D01*
X142686420Y-117716826D01*
X142684400Y-117717412D01*
X142682306Y-117717618D01*
X142646923Y-117728300D01*
X142611453Y-117738606D01*
X142609585Y-117739574D01*
X142607572Y-117740182D01*
X142574942Y-117757531D01*
X142542145Y-117774532D01*
X142540502Y-117775843D01*
X142538643Y-117776832D01*
X142509988Y-117800201D01*
X142481134Y-117823236D01*
X142478204Y-117826124D01*
X142478146Y-117826172D01*
X142478101Y-117826225D01*
X142477157Y-117827157D01*
X141957157Y-118347157D01*
X141933677Y-118375742D01*
X141909955Y-118404013D01*
X141908942Y-118405855D01*
X141907606Y-118407482D01*
X141890141Y-118440052D01*
X141872346Y-118472423D01*
X141871709Y-118474428D01*
X141870716Y-118476282D01*
X141859924Y-118511578D01*
X141848741Y-118546835D01*
X141848506Y-118548929D01*
X141847892Y-118550938D01*
X141844158Y-118587686D01*
X141840039Y-118624415D01*
X141840010Y-118628522D01*
X141840002Y-118628604D01*
X141840009Y-118628680D01*
X141840000Y-118630000D01*
X141840000Y-120906314D01*
X141343210Y-121403104D01*
X141343210Y-121070000D01*
X141339912Y-121029432D01*
X141318861Y-120962110D01*
X141279924Y-120903294D01*
X141226170Y-120857621D01*
X141161838Y-120828693D01*
X141092000Y-120818790D01*
X140890058Y-120818790D01*
X140890058Y-117393426D01*
X140838635Y-117133719D01*
X140737747Y-116888947D01*
X140653006Y-116761401D01*
X140653006Y-112763405D01*
X140632237Y-112577724D01*
X140575643Y-112399664D01*
X140499393Y-112257010D01*
X140364103Y-112182607D01*
X140293393Y-112253317D01*
X140293393Y-112111897D01*
X140218990Y-111976607D01*
X140053063Y-111890717D01*
X139873569Y-111838849D01*
X139687405Y-111822994D01*
X139501724Y-111843763D01*
X139323664Y-111900357D01*
X139181010Y-111976607D01*
X139106607Y-112111897D01*
X139700000Y-112705289D01*
X140293393Y-112111897D01*
X140293393Y-112253317D01*
X139770711Y-112776000D01*
X140364103Y-113369393D01*
X140499393Y-113294990D01*
X140585283Y-113129063D01*
X140637151Y-112949569D01*
X140653006Y-112763405D01*
X140653006Y-116761401D01*
X140591237Y-116668432D01*
X140404686Y-116480574D01*
X140293393Y-116405506D01*
X140293393Y-113440103D01*
X139700000Y-112846711D01*
X139629289Y-112917421D01*
X139629289Y-112776000D01*
X139035897Y-112182607D01*
X138900607Y-112257010D01*
X138814717Y-112422937D01*
X138762849Y-112602431D01*
X138746994Y-112788595D01*
X138767763Y-112974276D01*
X138824357Y-113152336D01*
X138900607Y-113294990D01*
X139035897Y-113369393D01*
X139629289Y-112776000D01*
X139629289Y-112917421D01*
X139106607Y-113440103D01*
X139181010Y-113575393D01*
X139346937Y-113661283D01*
X139526431Y-113713151D01*
X139712595Y-113729006D01*
X139898276Y-113708237D01*
X140076336Y-113651643D01*
X140218990Y-113575393D01*
X140293393Y-113440103D01*
X140293393Y-116405506D01*
X140185199Y-116332529D01*
X139941137Y-116229934D01*
X139681796Y-116176699D01*
X139417054Y-116174851D01*
X139156995Y-116224460D01*
X138911524Y-116323636D01*
X138689992Y-116468603D01*
X138500836Y-116653838D01*
X138351262Y-116872286D01*
X138246966Y-117115626D01*
X138191922Y-117374589D01*
X138188226Y-117639312D01*
X138236018Y-117899711D01*
X138333478Y-118145868D01*
X138476895Y-118368407D01*
X138660805Y-118558851D01*
X138878203Y-118709947D01*
X139120809Y-118815939D01*
X139379381Y-118872789D01*
X139644072Y-118878334D01*
X139904798Y-118832361D01*
X140151630Y-118736621D01*
X140375164Y-118594762D01*
X140566888Y-118412186D01*
X140719498Y-118195848D01*
X140827181Y-117953988D01*
X140885835Y-117695819D01*
X140890058Y-117393426D01*
X140890058Y-120818790D01*
X140192000Y-120818790D01*
X140151432Y-120822088D01*
X140084110Y-120843139D01*
X140025294Y-120882076D01*
X139979621Y-120935830D01*
X139950693Y-121000162D01*
X139940790Y-121070000D01*
X139940790Y-122770000D01*
X139944088Y-122810568D01*
X139965139Y-122877890D01*
X140004076Y-122936706D01*
X140057830Y-122982379D01*
X140122162Y-123011307D01*
X140192000Y-123021210D01*
X141092000Y-123021210D01*
X141132568Y-123017912D01*
X141199890Y-122996861D01*
X141258706Y-122957924D01*
X141304379Y-122904170D01*
X141333307Y-122839838D01*
X141343210Y-122770000D01*
X141343210Y-122320000D01*
X141392000Y-122320000D01*
X141428784Y-122316393D01*
X141465580Y-122313174D01*
X141467599Y-122312587D01*
X141469694Y-122312382D01*
X141505076Y-122301699D01*
X141540547Y-122291394D01*
X141542414Y-122290425D01*
X141544428Y-122289818D01*
X141577057Y-122272468D01*
X141609855Y-122255468D01*
X141611497Y-122254156D01*
X141613357Y-122253168D01*
X141642011Y-122229798D01*
X141670866Y-122206764D01*
X141673795Y-122203875D01*
X141673854Y-122203828D01*
X141673898Y-122203774D01*
X141674843Y-122202843D01*
X142522843Y-121354843D01*
X142546322Y-121326257D01*
X142570045Y-121297987D01*
X142571057Y-121296144D01*
X142572394Y-121294518D01*
X142589858Y-121261947D01*
X142607654Y-121229577D01*
X142608290Y-121227571D01*
X142609284Y-121225718D01*
X142620075Y-121190421D01*
X142631259Y-121155165D01*
X142631493Y-121153070D01*
X142632108Y-121151062D01*
X142635841Y-121114313D01*
X142639961Y-121077585D01*
X142639989Y-121073477D01*
X142639998Y-121073396D01*
X142639990Y-121073319D01*
X142640000Y-121072000D01*
X142640000Y-118795686D01*
X142808790Y-118626896D01*
X142808790Y-118960000D01*
X142812088Y-119000568D01*
X142833139Y-119067890D01*
X142872076Y-119126706D01*
X142925830Y-119172379D01*
X142990162Y-119201307D01*
X143060000Y-119211210D01*
X143960000Y-119211210D01*
X144000568Y-119207912D01*
X144067890Y-119186861D01*
X144126706Y-119147924D01*
X144172379Y-119094170D01*
X144201307Y-119029838D01*
X144211210Y-118960000D01*
X144211210Y-118510000D01*
X144297400Y-118510000D01*
X144334184Y-118506393D01*
X144370980Y-118503174D01*
X144372999Y-118502587D01*
X144375094Y-118502382D01*
X144410476Y-118491699D01*
X144445947Y-118481394D01*
X144447814Y-118480425D01*
X144449828Y-118479818D01*
X144482457Y-118462468D01*
X144515255Y-118445468D01*
X144516897Y-118444156D01*
X144518757Y-118443168D01*
X144547411Y-118419798D01*
X144576266Y-118396764D01*
X144579195Y-118393875D01*
X144579254Y-118393828D01*
X144579298Y-118393774D01*
X144580243Y-118392843D01*
X144808843Y-118164243D01*
X144832322Y-118135657D01*
X144856045Y-118107387D01*
X144857057Y-118105544D01*
X144858394Y-118103918D01*
X144875858Y-118071347D01*
X144893654Y-118038977D01*
X144894290Y-118036971D01*
X144895284Y-118035118D01*
X144906075Y-117999821D01*
X144917259Y-117964565D01*
X144917493Y-117962470D01*
X144918108Y-117960462D01*
X144921836Y-117923757D01*
X144925961Y-117886985D01*
X144925989Y-117882867D01*
X144925997Y-117882796D01*
X144925990Y-117882729D01*
X144926000Y-117881400D01*
X144926000Y-117853605D01*
X144944362Y-117836120D01*
X145006536Y-117747982D01*
X145050407Y-117649447D01*
X145074303Y-117544267D01*
X145076023Y-117421070D01*
X145076023Y-122662794D01*
X145039461Y-122574960D01*
X144952606Y-122445216D01*
X144842203Y-122334813D01*
X144822023Y-122321303D01*
X144822023Y-120621470D01*
X144801073Y-120515663D01*
X144759971Y-120415941D01*
X144700282Y-120326102D01*
X144624279Y-120249567D01*
X144534859Y-120189253D01*
X144435426Y-120147455D01*
X144329769Y-120125767D01*
X144221911Y-120125014D01*
X144211210Y-120127055D01*
X144211210Y-119800000D01*
X144207912Y-119759432D01*
X144186861Y-119692110D01*
X144147924Y-119633294D01*
X144094170Y-119587621D01*
X144029838Y-119558693D01*
X143960000Y-119548790D01*
X143060000Y-119548790D01*
X143019432Y-119552088D01*
X142952110Y-119573139D01*
X142893294Y-119612076D01*
X142847621Y-119665830D01*
X142818693Y-119730162D01*
X142808790Y-119800000D01*
X142808790Y-121500000D01*
X142812088Y-121540568D01*
X142833139Y-121607890D01*
X142872076Y-121666706D01*
X142925830Y-121712379D01*
X142990162Y-121741307D01*
X143060000Y-121751210D01*
X143960000Y-121751210D01*
X144000568Y-121747912D01*
X144067890Y-121726861D01*
X144126706Y-121687924D01*
X144172379Y-121634170D01*
X144201307Y-121569838D01*
X144211210Y-121500000D01*
X144211210Y-121224270D01*
X144314400Y-121226432D01*
X144420621Y-121207702D01*
X144521182Y-121168697D01*
X144612252Y-121110903D01*
X144690362Y-121036520D01*
X144752536Y-120948382D01*
X144796407Y-120849847D01*
X144820303Y-120744667D01*
X144822023Y-120621470D01*
X144822023Y-122321303D01*
X144712460Y-122247957D01*
X144568316Y-122187956D01*
X144415263Y-122157094D01*
X144259132Y-122156550D01*
X144105868Y-122186340D01*
X143961310Y-122245334D01*
X143830963Y-122331282D01*
X143719792Y-122440911D01*
X143632032Y-122570045D01*
X143586784Y-122676639D01*
X143452756Y-122599107D01*
X143304005Y-122548471D01*
X143148233Y-122527828D01*
X143059718Y-122531315D01*
X142954013Y-122610669D01*
X143212997Y-123457766D01*
X143232122Y-123451918D01*
X143261360Y-123547549D01*
X143242234Y-123553397D01*
X143248081Y-123572522D01*
X143152450Y-123601760D01*
X143146603Y-123582634D01*
X143127477Y-123588481D01*
X143098239Y-123492850D01*
X143117366Y-123487003D01*
X142858382Y-122639906D01*
X142726375Y-122633228D01*
X142651043Y-122679835D01*
X142533445Y-122784055D01*
X142471876Y-122865165D01*
X142457386Y-122843975D01*
X142402954Y-122799113D01*
X142338196Y-122771153D01*
X142268217Y-122762298D01*
X142198535Y-122773246D01*
X141146600Y-123094855D01*
X141108769Y-123109869D01*
X141050543Y-123149684D01*
X141005682Y-123204116D01*
X140977721Y-123268874D01*
X140968866Y-123338853D01*
X140979814Y-123408535D01*
X141418371Y-124842992D01*
X141433385Y-124880823D01*
X141473200Y-124939049D01*
X141505765Y-124965888D01*
X139675123Y-125578681D01*
X139675120Y-125578682D01*
X139147796Y-125755198D01*
X138625413Y-125822188D01*
X138099960Y-125786435D01*
X137591457Y-125649303D01*
X137156084Y-125434200D01*
X139651762Y-125434200D01*
X139651762Y-123234200D01*
X139488023Y-123234200D01*
X139488023Y-121866070D01*
X139467073Y-121760263D01*
X139425971Y-121660541D01*
X139366282Y-121570702D01*
X139290279Y-121494167D01*
X139200859Y-121433853D01*
X139101426Y-121392055D01*
X138995769Y-121370367D01*
X138887911Y-121369614D01*
X138781961Y-121389825D01*
X138707274Y-121420000D01*
X138443210Y-121420000D01*
X138443210Y-121070000D01*
X138439912Y-121029432D01*
X138418861Y-120962110D01*
X138379924Y-120903294D01*
X138326170Y-120857621D01*
X138261838Y-120828693D01*
X138192000Y-120818790D01*
X137292000Y-120818790D01*
X137251432Y-120822088D01*
X137184110Y-120843139D01*
X137125294Y-120882076D01*
X137079621Y-120935830D01*
X137050693Y-121000162D01*
X137040790Y-121070000D01*
X137040790Y-122770000D01*
X137044088Y-122810568D01*
X137065139Y-122877890D01*
X137104076Y-122936706D01*
X137157830Y-122982379D01*
X137222162Y-123011307D01*
X137292000Y-123021210D01*
X138192000Y-123021210D01*
X138232568Y-123017912D01*
X138299890Y-122996861D01*
X138358706Y-122957924D01*
X138404379Y-122904170D01*
X138433307Y-122839838D01*
X138443210Y-122770000D01*
X138443210Y-122420000D01*
X138708594Y-122420000D01*
X138767218Y-122445612D01*
X138872563Y-122468773D01*
X138980400Y-122471032D01*
X139086621Y-122452302D01*
X139187182Y-122413297D01*
X139278252Y-122355503D01*
X139356362Y-122281120D01*
X139418536Y-122192982D01*
X139462407Y-122094447D01*
X139486303Y-121989267D01*
X139488023Y-121866070D01*
X139488023Y-123234200D01*
X136192238Y-123234200D01*
X136192238Y-124421296D01*
X136089561Y-124244223D01*
X135918898Y-123745974D01*
X135846657Y-123212192D01*
X135845000Y-123122082D01*
X135845000Y-111657070D01*
X135859742Y-111506716D01*
X135899148Y-111376197D01*
X135963154Y-111255819D01*
X136049319Y-111150171D01*
X136154368Y-111063266D01*
X136274295Y-110998422D01*
X136404539Y-110958105D01*
X136553965Y-110942400D01*
X169530329Y-110942400D01*
X169680683Y-110957142D01*
X169811202Y-110996548D01*
X169931580Y-111060554D01*
X170037228Y-111146719D01*
X170124133Y-111251768D01*
X170188977Y-111371695D01*
X170229294Y-111501939D01*
X170245000Y-111651365D01*
X170245000Y-123110154D01*
M02*
