G04 #@! TF.FileFunction,Copper,L1,Top,Signal*
%FSLAX46Y46*%
G04 Gerber Fmt 4.6, Leading zero omitted, Abs format (unit mm)*
G04 Created by KiCad (PCBNEW (2015-01-16 BZR 5376)-product) date 09.04.2015 11:54:56*
%MOMM*%
G01*
G04 APERTURE LIST*
%ADD10C,0.100000*%
%ADD11C,0.150000*%
%ADD12R,1.198880X1.699260*%
%ADD13O,1.198880X1.699260*%
%ADD14R,1.700000X0.900000*%
%ADD15R,0.900000X1.700000*%
%ADD16R,1.198880X1.198880*%
%ADD17C,1.397000*%
%ADD18C,1.100000*%
%ADD19R,1.100000X1.100000*%
%ADD20C,0.600000*%
%ADD21C,0.500000*%
%ADD22C,0.300000*%
G04 APERTURE END LIST*
D10*
D11*
X136358476Y-123912381D02*
X136929905Y-123912381D01*
X136644190Y-124912381D02*
X136644190Y-123912381D01*
X137453714Y-123912381D02*
X137644191Y-123912381D01*
X137739429Y-123960000D01*
X137834667Y-124055238D01*
X137882286Y-124245714D01*
X137882286Y-124579048D01*
X137834667Y-124769524D01*
X137739429Y-124864762D01*
X137644191Y-124912381D01*
X137453714Y-124912381D01*
X137358476Y-124864762D01*
X137263238Y-124769524D01*
X137215619Y-124579048D01*
X137215619Y-124245714D01*
X137263238Y-124055238D01*
X137358476Y-123960000D01*
X137453714Y-123912381D01*
X138310857Y-124912381D02*
X138310857Y-123912381D01*
X138691810Y-123912381D01*
X138787048Y-123960000D01*
X138834667Y-124007619D01*
X138882286Y-124102857D01*
X138882286Y-124245714D01*
X138834667Y-124340952D01*
X138787048Y-124388571D01*
X138691810Y-124436190D01*
X138310857Y-124436190D01*
D12*
X157683800Y-113030000D03*
D13*
X154680000Y-113030000D03*
X156180000Y-113030000D03*
X153180000Y-113030000D03*
X151680000Y-113030000D03*
X150180000Y-113030000D03*
D14*
X157124400Y-119204400D03*
X157124400Y-116304400D03*
D15*
X142974400Y-120802400D03*
X145874400Y-120802400D03*
X151610400Y-119278400D03*
X154510400Y-119278400D03*
X159230400Y-119278400D03*
X162130400Y-119278400D03*
D14*
X145034000Y-112342000D03*
X145034000Y-115242000D03*
D15*
X142974400Y-118262400D03*
X145874400Y-118262400D03*
X151610400Y-116738400D03*
X154510400Y-116738400D03*
X159230400Y-116738400D03*
X162130400Y-116738400D03*
D16*
X166463980Y-113030000D03*
X168562020Y-113030000D03*
D15*
X162126000Y-113030000D03*
X165026000Y-113030000D03*
X137742000Y-121920000D03*
X140642000Y-121920000D03*
D14*
X149504400Y-119204400D03*
X149504400Y-116304400D03*
D17*
X142240000Y-112776000D03*
X142240000Y-115316000D03*
D10*
G36*
X161366583Y-123941310D02*
X160304064Y-123656609D01*
X160588765Y-122594090D01*
X161651284Y-122878791D01*
X161366583Y-123941310D01*
X161366583Y-123941310D01*
G37*
D18*
X162204400Y-123596400D03*
X163431126Y-123925100D03*
D19*
X151790400Y-122224800D03*
D18*
X153060400Y-122224800D03*
X154330400Y-122224800D03*
D10*
G36*
X143363284Y-124314009D02*
X142300765Y-124598710D01*
X142016064Y-123536191D01*
X143078583Y-123251490D01*
X143363284Y-124314009D01*
X143363284Y-124314009D01*
G37*
D18*
X143916400Y-123596400D03*
X145143126Y-123267700D03*
D20*
X163195000Y-113030000D03*
X149352000Y-118110000D03*
X144018000Y-120904000D03*
X160274000Y-119126000D03*
X156972000Y-118110000D03*
X152654000Y-119380000D03*
X138684000Y-121920000D03*
X145034000Y-113284000D03*
X144526000Y-117475000D03*
X152908000Y-117094000D03*
X160401000Y-117094000D03*
D21*
X162126000Y-113030000D02*
X163195000Y-113030000D01*
X149504400Y-119204400D02*
X149504400Y-118262400D01*
X149504400Y-118262400D02*
X149352000Y-118110000D01*
X142974400Y-120802400D02*
X143916400Y-120802400D01*
X143916400Y-120802400D02*
X144018000Y-120904000D01*
X159230400Y-119278400D02*
X160121600Y-119278400D01*
X160121600Y-119278400D02*
X160274000Y-119126000D01*
X157124400Y-119204400D02*
X157124400Y-118262400D01*
X157124400Y-118262400D02*
X156972000Y-118110000D01*
X151610400Y-119278400D02*
X152552400Y-119278400D01*
X152552400Y-119278400D02*
X152654000Y-119380000D01*
X137742000Y-121920000D02*
X138684000Y-121920000D01*
X145034000Y-112342000D02*
X145034000Y-113284000D01*
D22*
X141605000Y-122133000D02*
X144008426Y-122133000D01*
X144008426Y-122133000D02*
X145143126Y-123267700D01*
X140642000Y-121920000D02*
X141392000Y-121920000D01*
X141392000Y-121920000D02*
X141605000Y-122133000D01*
X142974400Y-118262400D02*
X143738600Y-118262400D01*
X143738600Y-118262400D02*
X144526000Y-117475000D01*
X142974400Y-118262400D02*
X143724400Y-118262400D01*
X144693547Y-119231547D02*
X144693547Y-122818121D01*
X143724400Y-118262400D02*
X144693547Y-119231547D01*
X144693547Y-122818121D02*
X145143126Y-123267700D01*
X151610400Y-116738400D02*
X152552400Y-116738400D01*
X152552400Y-116738400D02*
X152908000Y-117094000D01*
X151610400Y-116738400D02*
X152360400Y-116738400D01*
X152360400Y-116738400D02*
X154680000Y-114418800D01*
X154680000Y-114418800D02*
X154680000Y-113030000D01*
X149504400Y-116304400D02*
X151176400Y-116304400D01*
X151176400Y-116304400D02*
X151610400Y-116738400D01*
X160082000Y-116840000D02*
X160147000Y-116840000D01*
X160147000Y-116840000D02*
X160401000Y-117094000D01*
X159230400Y-116738400D02*
X159980400Y-116738400D01*
X159980400Y-116738400D02*
X160082000Y-116840000D01*
X156180000Y-114270000D02*
X157124400Y-115214400D01*
X157124400Y-115214400D02*
X157124400Y-116304400D01*
X156180000Y-113030000D02*
X156180000Y-114270000D01*
X157124400Y-116304400D02*
X158796400Y-116304400D01*
X158796400Y-116304400D02*
X159230400Y-116738400D01*
X165026000Y-113030000D02*
X166463980Y-113030000D01*
X142240000Y-112776000D02*
X142240000Y-111788172D01*
X142240000Y-111788172D02*
X142776172Y-111252000D01*
X151680000Y-111806696D02*
X151680000Y-111880370D01*
D11*
X151680000Y-111880370D02*
X151680000Y-113030000D01*
D22*
X151680000Y-111806696D02*
X151680000Y-113030000D01*
X142776172Y-111252000D02*
X151125304Y-111252000D01*
X151125304Y-111252000D02*
X151680000Y-111806696D01*
D11*
G36*
X170266750Y-123013094D02*
X170213557Y-123555584D01*
X170059918Y-124064461D01*
X169810360Y-124533814D01*
X169474394Y-124945748D01*
X169386460Y-125018493D01*
X169386460Y-113651600D01*
X169386460Y-113607279D01*
X169386460Y-113161250D01*
X169386460Y-112898750D01*
X169386460Y-112452721D01*
X169386460Y-112408400D01*
X169377814Y-112364930D01*
X169360853Y-112323983D01*
X169336229Y-112287131D01*
X169304890Y-112255791D01*
X169268038Y-112231168D01*
X169227091Y-112214207D01*
X169183621Y-112205560D01*
X168693270Y-112205560D01*
X168637020Y-112261810D01*
X168637020Y-112955000D01*
X169330210Y-112955000D01*
X169386460Y-112898750D01*
X169386460Y-113161250D01*
X169330210Y-113105000D01*
X168637020Y-113105000D01*
X168637020Y-113798190D01*
X168693270Y-113854440D01*
X169183621Y-113854440D01*
X169227091Y-113845793D01*
X169268038Y-113828832D01*
X169304890Y-113804209D01*
X169336229Y-113772869D01*
X169360853Y-113736017D01*
X169377814Y-113695070D01*
X169386460Y-113651600D01*
X169386460Y-125018493D01*
X169238074Y-125141248D01*
X169238074Y-117178855D01*
X169172367Y-116847008D01*
X169043455Y-116534243D01*
X168856248Y-116252474D01*
X168617877Y-116012433D01*
X168487020Y-115924168D01*
X168487020Y-113798190D01*
X168487020Y-113105000D01*
X168487020Y-112955000D01*
X168487020Y-112261810D01*
X168430770Y-112205560D01*
X167940419Y-112205560D01*
X167896949Y-112214207D01*
X167856002Y-112231168D01*
X167819150Y-112255791D01*
X167787811Y-112287131D01*
X167763187Y-112323983D01*
X167746226Y-112364930D01*
X167737580Y-112408400D01*
X167737580Y-112452721D01*
X167737580Y-112898750D01*
X167793830Y-112955000D01*
X168487020Y-112955000D01*
X168487020Y-113105000D01*
X167793830Y-113105000D01*
X167737580Y-113161250D01*
X167737580Y-113607279D01*
X167737580Y-113651600D01*
X167746226Y-113695070D01*
X167763187Y-113736017D01*
X167787811Y-113772869D01*
X167819150Y-113804209D01*
X167856002Y-113828832D01*
X167896949Y-113845793D01*
X167940419Y-113854440D01*
X168430770Y-113854440D01*
X168487020Y-113798190D01*
X168487020Y-115924168D01*
X168337422Y-115823264D01*
X168025565Y-115692171D01*
X167694184Y-115624148D01*
X167355902Y-115621787D01*
X167289509Y-115634452D01*
X167289509Y-113629440D01*
X167289509Y-112430560D01*
X167286541Y-112394049D01*
X167267595Y-112333459D01*
X167232551Y-112280524D01*
X167184173Y-112239419D01*
X167126274Y-112213384D01*
X167063420Y-112204471D01*
X165864540Y-112204471D01*
X165828029Y-112207439D01*
X165767439Y-112226385D01*
X165714504Y-112261429D01*
X165702089Y-112276040D01*
X165702089Y-112180000D01*
X165699121Y-112143489D01*
X165680175Y-112082899D01*
X165645131Y-112029964D01*
X165596753Y-111988859D01*
X165538854Y-111962824D01*
X165476000Y-111953911D01*
X164576000Y-111953911D01*
X164539489Y-111956879D01*
X164478899Y-111975825D01*
X164425964Y-112010869D01*
X164384859Y-112059247D01*
X164358824Y-112117146D01*
X164349911Y-112180000D01*
X164349911Y-113880000D01*
X164352879Y-113916511D01*
X164371825Y-113977101D01*
X164406869Y-114030036D01*
X164455247Y-114071141D01*
X164513146Y-114097176D01*
X164576000Y-114106089D01*
X165476000Y-114106089D01*
X165512511Y-114103121D01*
X165573101Y-114084175D01*
X165626036Y-114049131D01*
X165667141Y-114000753D01*
X165693176Y-113942854D01*
X165702089Y-113880000D01*
X165702089Y-113785151D01*
X165743787Y-113820581D01*
X165801686Y-113846616D01*
X165864540Y-113855529D01*
X167063420Y-113855529D01*
X167099931Y-113852561D01*
X167160521Y-113833615D01*
X167213456Y-113798571D01*
X167254561Y-113750193D01*
X167280596Y-113692294D01*
X167289509Y-113629440D01*
X167289509Y-115634452D01*
X167023604Y-115685176D01*
X166709947Y-115811902D01*
X166426878Y-115997137D01*
X166185179Y-116233826D01*
X165994056Y-116512954D01*
X165860790Y-116823888D01*
X165790455Y-117154786D01*
X165785732Y-117493043D01*
X165846800Y-117825775D01*
X165971333Y-118140309D01*
X166154587Y-118424665D01*
X166389583Y-118668010D01*
X166667370Y-118861077D01*
X166977366Y-118996511D01*
X167307765Y-119069154D01*
X167645981Y-119076238D01*
X167979131Y-119017495D01*
X168294527Y-118895161D01*
X168580155Y-118713896D01*
X168825135Y-118480605D01*
X169020136Y-118204173D01*
X169157731Y-117895129D01*
X169232679Y-117565246D01*
X169238074Y-117178855D01*
X169238074Y-125141248D01*
X169064810Y-125284585D01*
X168597220Y-125537409D01*
X168089422Y-125694600D01*
X167560761Y-125750163D01*
X167031382Y-125701986D01*
X166510910Y-125548803D01*
X166424088Y-125511853D01*
X166424047Y-125511840D01*
X166421192Y-125510640D01*
X164630471Y-124772558D01*
X164615514Y-124768042D01*
X164600982Y-124762320D01*
X164597281Y-124761294D01*
X163869280Y-124564967D01*
X163910572Y-124538763D01*
X164020636Y-124433951D01*
X164108245Y-124309757D01*
X164170063Y-124170912D01*
X164203735Y-124022703D01*
X164206159Y-123849107D01*
X164176639Y-123700016D01*
X164118721Y-123559499D01*
X164034614Y-123432907D01*
X163927520Y-123325063D01*
X163801518Y-123240074D01*
X163720022Y-123205815D01*
X163720022Y-112978521D01*
X163700024Y-112877524D01*
X163660790Y-112782335D01*
X163603814Y-112696579D01*
X163531267Y-112623523D01*
X163445911Y-112565950D01*
X163350998Y-112526052D01*
X163250143Y-112505350D01*
X163147188Y-112504631D01*
X163046054Y-112523924D01*
X162969136Y-112555000D01*
X162802089Y-112555000D01*
X162802089Y-112180000D01*
X162799121Y-112143489D01*
X162780175Y-112082899D01*
X162745131Y-112029964D01*
X162696753Y-111988859D01*
X162638854Y-111962824D01*
X162576000Y-111953911D01*
X161676000Y-111953911D01*
X161639489Y-111956879D01*
X161578899Y-111975825D01*
X161525964Y-112010869D01*
X161484859Y-112059247D01*
X161458824Y-112117146D01*
X161449911Y-112180000D01*
X161449911Y-113880000D01*
X161452879Y-113916511D01*
X161471825Y-113977101D01*
X161506869Y-114030036D01*
X161555247Y-114071141D01*
X161613146Y-114097176D01*
X161676000Y-114106089D01*
X162576000Y-114106089D01*
X162612511Y-114103121D01*
X162673101Y-114084175D01*
X162726036Y-114049131D01*
X162767141Y-114000753D01*
X162793176Y-113942854D01*
X162802089Y-113880000D01*
X162802089Y-113505000D01*
X162970821Y-113505000D01*
X163031981Y-113531720D01*
X163132537Y-113553829D01*
X163235472Y-113555985D01*
X163336866Y-113538107D01*
X163432856Y-113500875D01*
X163519786Y-113445707D01*
X163594345Y-113374706D01*
X163653693Y-113290574D01*
X163695570Y-113196517D01*
X163718380Y-113096118D01*
X163720022Y-112978521D01*
X163720022Y-123205815D01*
X163661409Y-123181177D01*
X163512528Y-123150616D01*
X163360546Y-123149555D01*
X163211253Y-123178034D01*
X163070334Y-123234969D01*
X162943158Y-123318191D01*
X162912538Y-123348175D01*
X162864223Y-123302053D01*
X162805400Y-123336014D01*
X162805400Y-120150560D01*
X162805400Y-120106239D01*
X162805400Y-119409650D01*
X162805400Y-119147150D01*
X162805400Y-118450561D01*
X162805400Y-118406240D01*
X162805400Y-117610560D01*
X162805400Y-117566239D01*
X162805400Y-116869650D01*
X162805400Y-116607150D01*
X162805400Y-115910561D01*
X162805400Y-115866240D01*
X162796754Y-115822770D01*
X162779793Y-115781823D01*
X162755169Y-115744971D01*
X162723830Y-115713631D01*
X162686978Y-115689008D01*
X162646031Y-115672047D01*
X162602561Y-115663400D01*
X162261650Y-115663400D01*
X162205400Y-115719650D01*
X162205400Y-116663400D01*
X162749150Y-116663400D01*
X162805400Y-116607150D01*
X162805400Y-116869650D01*
X162749150Y-116813400D01*
X162205400Y-116813400D01*
X162205400Y-117757150D01*
X162261650Y-117813400D01*
X162602561Y-117813400D01*
X162646031Y-117804753D01*
X162686978Y-117787792D01*
X162723830Y-117763169D01*
X162755169Y-117731829D01*
X162779793Y-117694977D01*
X162796754Y-117654030D01*
X162805400Y-117610560D01*
X162805400Y-118406240D01*
X162796754Y-118362770D01*
X162779793Y-118321823D01*
X162755169Y-118284971D01*
X162723830Y-118253631D01*
X162686978Y-118229008D01*
X162646031Y-118212047D01*
X162602561Y-118203400D01*
X162261650Y-118203400D01*
X162205400Y-118259650D01*
X162205400Y-119203400D01*
X162749150Y-119203400D01*
X162805400Y-119147150D01*
X162805400Y-119409650D01*
X162749150Y-119353400D01*
X162205400Y-119353400D01*
X162205400Y-120297150D01*
X162261650Y-120353400D01*
X162602561Y-120353400D01*
X162646031Y-120344753D01*
X162686978Y-120327792D01*
X162723830Y-120303169D01*
X162755169Y-120271829D01*
X162779793Y-120234977D01*
X162796754Y-120194030D01*
X162805400Y-120150560D01*
X162805400Y-123336014D01*
X162789223Y-123345354D01*
X162789223Y-123172150D01*
X162759590Y-123050309D01*
X162642385Y-122952490D01*
X162508348Y-122879416D01*
X162362631Y-122833895D01*
X162210834Y-122817677D01*
X162058788Y-122831385D01*
X162055400Y-122832174D01*
X162055400Y-120297150D01*
X162055400Y-119353400D01*
X162055400Y-119203400D01*
X162055400Y-118259650D01*
X162055400Y-117757150D01*
X162055400Y-116813400D01*
X162055400Y-116663400D01*
X162055400Y-115719650D01*
X161999150Y-115663400D01*
X161658239Y-115663400D01*
X161614769Y-115672047D01*
X161573822Y-115689008D01*
X161536970Y-115713631D01*
X161505631Y-115744971D01*
X161481007Y-115781823D01*
X161464046Y-115822770D01*
X161455400Y-115866240D01*
X161455400Y-115910561D01*
X161455400Y-116607150D01*
X161511650Y-116663400D01*
X162055400Y-116663400D01*
X162055400Y-116813400D01*
X161511650Y-116813400D01*
X161455400Y-116869650D01*
X161455400Y-117566239D01*
X161455400Y-117610560D01*
X161464046Y-117654030D01*
X161481007Y-117694977D01*
X161505631Y-117731829D01*
X161536970Y-117763169D01*
X161573822Y-117787792D01*
X161614769Y-117804753D01*
X161658239Y-117813400D01*
X161999150Y-117813400D01*
X162055400Y-117757150D01*
X162055400Y-118259650D01*
X161999150Y-118203400D01*
X161658239Y-118203400D01*
X161614769Y-118212047D01*
X161573822Y-118229008D01*
X161536970Y-118253631D01*
X161505631Y-118284971D01*
X161481007Y-118321823D01*
X161464046Y-118362770D01*
X161455400Y-118406240D01*
X161455400Y-118450561D01*
X161455400Y-119147150D01*
X161511650Y-119203400D01*
X162055400Y-119203400D01*
X162055400Y-119353400D01*
X161511650Y-119353400D01*
X161455400Y-119409650D01*
X161455400Y-120106239D01*
X161455400Y-120150560D01*
X161464046Y-120194030D01*
X161481007Y-120234977D01*
X161505631Y-120271829D01*
X161536970Y-120303169D01*
X161573822Y-120327792D01*
X161614769Y-120344753D01*
X161658239Y-120353400D01*
X161999150Y-120353400D01*
X162055400Y-120297150D01*
X162055400Y-122832174D01*
X161996637Y-122845876D01*
X161910053Y-122936577D01*
X162231852Y-123493948D01*
X162789223Y-123172150D01*
X162789223Y-123345354D01*
X162326548Y-123612479D01*
X162324610Y-123610541D01*
X162317373Y-123617777D01*
X162306852Y-123623852D01*
X162308479Y-123626671D01*
X162218541Y-123716610D01*
X162554196Y-124052265D01*
X162628650Y-124181223D01*
X162672491Y-124170560D01*
X162701768Y-124199837D01*
X162705037Y-124196567D01*
X162729163Y-124257501D01*
X162457129Y-124184139D01*
X162188320Y-123718548D01*
X162190259Y-123716610D01*
X162183022Y-123709373D01*
X162176948Y-123698852D01*
X162174128Y-123700479D01*
X162084190Y-123610541D01*
X161748536Y-123946194D01*
X161693224Y-123978129D01*
X161597685Y-123952364D01*
X161626936Y-123843196D01*
X162082251Y-123580320D01*
X162084190Y-123582259D01*
X162091426Y-123575022D01*
X162101948Y-123568948D01*
X162100320Y-123566128D01*
X162190259Y-123476190D01*
X161854603Y-123140534D01*
X161827700Y-123093936D01*
X161869669Y-122937307D01*
X161876252Y-122901272D01*
X161873634Y-122837843D01*
X161853484Y-122777642D01*
X161817393Y-122725416D01*
X161768206Y-122685283D01*
X161709800Y-122660406D01*
X160926022Y-122450393D01*
X160926022Y-117042521D01*
X160906024Y-116941524D01*
X160866790Y-116846335D01*
X160809814Y-116760579D01*
X160737267Y-116687523D01*
X160651911Y-116629950D01*
X160556998Y-116590052D01*
X160456143Y-116569350D01*
X160405053Y-116568993D01*
X160385425Y-116552870D01*
X160358863Y-116530582D01*
X160357132Y-116529630D01*
X160355611Y-116528381D01*
X160325103Y-116512022D01*
X160294728Y-116495324D01*
X160292849Y-116494728D01*
X160291111Y-116493796D01*
X160258001Y-116483673D01*
X160255075Y-116482745D01*
X160245565Y-116473235D01*
X160218825Y-116451270D01*
X160192263Y-116428982D01*
X160190532Y-116428030D01*
X160189011Y-116426781D01*
X160158503Y-116410422D01*
X160128128Y-116393724D01*
X160126249Y-116393128D01*
X160124511Y-116392196D01*
X160091401Y-116382073D01*
X160058367Y-116371595D01*
X160056404Y-116371374D01*
X160054521Y-116370799D01*
X160020047Y-116367296D01*
X159985636Y-116363437D01*
X159981785Y-116363409D01*
X159981709Y-116363402D01*
X159981637Y-116363408D01*
X159980400Y-116363400D01*
X159906489Y-116363400D01*
X159906489Y-115888400D01*
X159903521Y-115851889D01*
X159884575Y-115791299D01*
X159849531Y-115738364D01*
X159801153Y-115697259D01*
X159743254Y-115671224D01*
X159680400Y-115662311D01*
X158780400Y-115662311D01*
X158743889Y-115665279D01*
X158683299Y-115684225D01*
X158630364Y-115719269D01*
X158589259Y-115767647D01*
X158563224Y-115825546D01*
X158554311Y-115888400D01*
X158554311Y-115929400D01*
X158508240Y-115929400D01*
X158508240Y-113901790D01*
X158508240Y-113857469D01*
X158508240Y-113161250D01*
X158508240Y-112898750D01*
X158508240Y-112202531D01*
X158508240Y-112158210D01*
X158499594Y-112114740D01*
X158482633Y-112073793D01*
X158458009Y-112036941D01*
X158426670Y-112005601D01*
X158389818Y-111980978D01*
X158348871Y-111964017D01*
X158305401Y-111955370D01*
X157815050Y-111955370D01*
X157758800Y-112011620D01*
X157758800Y-112955000D01*
X158451990Y-112955000D01*
X158508240Y-112898750D01*
X158508240Y-113161250D01*
X158451990Y-113105000D01*
X157758800Y-113105000D01*
X157758800Y-114048380D01*
X157815050Y-114104630D01*
X158305401Y-114104630D01*
X158348871Y-114095983D01*
X158389818Y-114079022D01*
X158426670Y-114054399D01*
X158458009Y-114023059D01*
X158482633Y-113986207D01*
X158499594Y-113945260D01*
X158508240Y-113901790D01*
X158508240Y-115929400D01*
X158200489Y-115929400D01*
X158200489Y-115854400D01*
X158197521Y-115817889D01*
X158178575Y-115757299D01*
X158143531Y-115704364D01*
X158095153Y-115663259D01*
X158037254Y-115637224D01*
X157974400Y-115628311D01*
X157499400Y-115628311D01*
X157499400Y-115214400D01*
X157496020Y-115179930D01*
X157493001Y-115145418D01*
X157492450Y-115143522D01*
X157492258Y-115141562D01*
X157482248Y-115108408D01*
X157472582Y-115075137D01*
X157471675Y-115073387D01*
X157471105Y-115071499D01*
X157454840Y-115040909D01*
X157438901Y-115010160D01*
X157437670Y-115008618D01*
X157436745Y-115006878D01*
X157414843Y-114980024D01*
X157393241Y-114952963D01*
X157390536Y-114950220D01*
X157390489Y-114950162D01*
X157390435Y-114950117D01*
X157389565Y-114949235D01*
X156555000Y-114114670D01*
X156555000Y-114015210D01*
X156631433Y-113975252D01*
X156756830Y-113874430D01*
X156859360Y-113752239D01*
X156859360Y-113857469D01*
X156859360Y-113901790D01*
X156868006Y-113945260D01*
X156884967Y-113986207D01*
X156909591Y-114023059D01*
X156940930Y-114054399D01*
X156977782Y-114079022D01*
X157018729Y-114095983D01*
X157062199Y-114104630D01*
X157552550Y-114104630D01*
X157608800Y-114048380D01*
X157608800Y-113105000D01*
X157588800Y-113105000D01*
X157588800Y-112955000D01*
X157608800Y-112955000D01*
X157608800Y-112011620D01*
X157552550Y-111955370D01*
X157062199Y-111955370D01*
X157018729Y-111964017D01*
X156977782Y-111980978D01*
X156940930Y-112005601D01*
X156909591Y-112036941D01*
X156884967Y-112073793D01*
X156868006Y-112114740D01*
X156859360Y-112158210D01*
X156859360Y-112202531D01*
X156859360Y-112309379D01*
X156764998Y-112193681D01*
X156641021Y-112091118D01*
X156499483Y-112014589D01*
X156345777Y-111967009D01*
X156185756Y-111950190D01*
X156025515Y-111964773D01*
X155871159Y-112010203D01*
X155728567Y-112084748D01*
X155603170Y-112185570D01*
X155499743Y-112308829D01*
X155429529Y-112436547D01*
X155366694Y-112318372D01*
X155264998Y-112193681D01*
X155141021Y-112091118D01*
X154999483Y-112014589D01*
X154845777Y-111967009D01*
X154685756Y-111950190D01*
X154525515Y-111964773D01*
X154371159Y-112010203D01*
X154228567Y-112084748D01*
X154103170Y-112185570D01*
X153999743Y-112308829D01*
X153929529Y-112436547D01*
X153866694Y-112318372D01*
X153764998Y-112193681D01*
X153641021Y-112091118D01*
X153499483Y-112014589D01*
X153345777Y-111967009D01*
X153185756Y-111950190D01*
X153025515Y-111964773D01*
X152871159Y-112010203D01*
X152728567Y-112084748D01*
X152603170Y-112185570D01*
X152499743Y-112308829D01*
X152429529Y-112436547D01*
X152366694Y-112318372D01*
X152264998Y-112193681D01*
X152141021Y-112091118D01*
X152055000Y-112044606D01*
X152055000Y-111880370D01*
X152055000Y-111806696D01*
X152051629Y-111772317D01*
X152048602Y-111737714D01*
X152048049Y-111735813D01*
X152047858Y-111733858D01*
X152037861Y-111700745D01*
X152028182Y-111667433D01*
X152027275Y-111665683D01*
X152026705Y-111663795D01*
X152010450Y-111633224D01*
X151994502Y-111602457D01*
X151993270Y-111600913D01*
X151992345Y-111599174D01*
X151970453Y-111572331D01*
X151948842Y-111545260D01*
X151946136Y-111542516D01*
X151946089Y-111542458D01*
X151946035Y-111542413D01*
X151945165Y-111541531D01*
X151390469Y-110986835D01*
X151363729Y-110964870D01*
X151337167Y-110942582D01*
X151335436Y-110941630D01*
X151333915Y-110940381D01*
X151303407Y-110924022D01*
X151273032Y-110907324D01*
X151271153Y-110906728D01*
X151269415Y-110905796D01*
X151236305Y-110895673D01*
X151203271Y-110885195D01*
X151201308Y-110884974D01*
X151199425Y-110884399D01*
X151164951Y-110880896D01*
X151130540Y-110877037D01*
X151126689Y-110877009D01*
X151126613Y-110877002D01*
X151126541Y-110877008D01*
X151125304Y-110877000D01*
X142776172Y-110877000D01*
X142741793Y-110880370D01*
X142707190Y-110883398D01*
X142705289Y-110883950D01*
X142703334Y-110884142D01*
X142670221Y-110894138D01*
X142636909Y-110903818D01*
X142635159Y-110904724D01*
X142633271Y-110905295D01*
X142602661Y-110921570D01*
X142571933Y-110937499D01*
X142570393Y-110938727D01*
X142568650Y-110939655D01*
X142541749Y-110961593D01*
X142514736Y-110983159D01*
X142511993Y-110985862D01*
X142511934Y-110985911D01*
X142511888Y-110985966D01*
X142511007Y-110986835D01*
X141974835Y-111523007D01*
X141952870Y-111549746D01*
X141930582Y-111576309D01*
X141929630Y-111578039D01*
X141928381Y-111579561D01*
X141912022Y-111610068D01*
X141895324Y-111640444D01*
X141894728Y-111642322D01*
X141893796Y-111644061D01*
X141883673Y-111677170D01*
X141873195Y-111710205D01*
X141872974Y-111712167D01*
X141872399Y-111714051D01*
X141868896Y-111748524D01*
X141865037Y-111782936D01*
X141865009Y-111786786D01*
X141865002Y-111786863D01*
X141865008Y-111786934D01*
X141865000Y-111788172D01*
X141865000Y-111931440D01*
X141810076Y-111953631D01*
X141658532Y-112052799D01*
X141529135Y-112179514D01*
X141426815Y-112328948D01*
X141355470Y-112495410D01*
X141317815Y-112672560D01*
X141315287Y-112853650D01*
X141347980Y-113031783D01*
X141414650Y-113200172D01*
X141512758Y-113352405D01*
X141638565Y-113482683D01*
X141787282Y-113586044D01*
X141953242Y-113658550D01*
X142130125Y-113697440D01*
X142311193Y-113701233D01*
X142489549Y-113669784D01*
X142658400Y-113604291D01*
X142811314Y-113507249D01*
X142942467Y-113382353D01*
X143046863Y-113234362D01*
X143120527Y-113068912D01*
X143160651Y-112892305D01*
X143163539Y-112685446D01*
X143128362Y-112507788D01*
X143059347Y-112340345D01*
X142959124Y-112189497D01*
X142831509Y-112060988D01*
X142681364Y-111959714D01*
X142623226Y-111935275D01*
X142931502Y-111627000D01*
X150969973Y-111627000D01*
X151305000Y-111962026D01*
X151305000Y-112044789D01*
X151228567Y-112084748D01*
X151103170Y-112185570D01*
X150999743Y-112308829D01*
X150929529Y-112436547D01*
X150866694Y-112318372D01*
X150764998Y-112193681D01*
X150641021Y-112091118D01*
X150499483Y-112014589D01*
X150345777Y-111967009D01*
X150185756Y-111950190D01*
X150025515Y-111964773D01*
X149871159Y-112010203D01*
X149728567Y-112084748D01*
X149603170Y-112185570D01*
X149499743Y-112308829D01*
X149422228Y-112449829D01*
X149373576Y-112603199D01*
X149355640Y-112763099D01*
X149355560Y-112774610D01*
X149355560Y-113285390D01*
X149371261Y-113445525D01*
X149417767Y-113599560D01*
X149493306Y-113741628D01*
X149595002Y-113866319D01*
X149718979Y-113968882D01*
X149860517Y-114045411D01*
X150014223Y-114092991D01*
X150174244Y-114109810D01*
X150334485Y-114095227D01*
X150488841Y-114049797D01*
X150631433Y-113975252D01*
X150756830Y-113874430D01*
X150860257Y-113751171D01*
X150930470Y-113623452D01*
X150993306Y-113741628D01*
X151095002Y-113866319D01*
X151218979Y-113968882D01*
X151360517Y-114045411D01*
X151514223Y-114092991D01*
X151674244Y-114109810D01*
X151834485Y-114095227D01*
X151988841Y-114049797D01*
X152131433Y-113975252D01*
X152256830Y-113874430D01*
X152360257Y-113751171D01*
X152430470Y-113623452D01*
X152493306Y-113741628D01*
X152595002Y-113866319D01*
X152718979Y-113968882D01*
X152860517Y-114045411D01*
X153014223Y-114092991D01*
X153174244Y-114109810D01*
X153334485Y-114095227D01*
X153488841Y-114049797D01*
X153631433Y-113975252D01*
X153756830Y-113874430D01*
X153860257Y-113751171D01*
X153930470Y-113623452D01*
X153993306Y-113741628D01*
X154095002Y-113866319D01*
X154218979Y-113968882D01*
X154305000Y-114015393D01*
X154305000Y-114263470D01*
X152286489Y-116281981D01*
X152286489Y-115888400D01*
X152283521Y-115851889D01*
X152264575Y-115791299D01*
X152229531Y-115738364D01*
X152181153Y-115697259D01*
X152123254Y-115671224D01*
X152060400Y-115662311D01*
X151160400Y-115662311D01*
X151123889Y-115665279D01*
X151063299Y-115684225D01*
X151010364Y-115719269D01*
X150969259Y-115767647D01*
X150943224Y-115825546D01*
X150934311Y-115888400D01*
X150934311Y-115929400D01*
X150580489Y-115929400D01*
X150580489Y-115854400D01*
X150577521Y-115817889D01*
X150558575Y-115757299D01*
X150523531Y-115704364D01*
X150475153Y-115663259D01*
X150417254Y-115637224D01*
X150354400Y-115628311D01*
X148654400Y-115628311D01*
X148617889Y-115631279D01*
X148557299Y-115650225D01*
X148504364Y-115685269D01*
X148463259Y-115733647D01*
X148437224Y-115791546D01*
X148428311Y-115854400D01*
X148428311Y-116754400D01*
X148431279Y-116790911D01*
X148450225Y-116851501D01*
X148485269Y-116904436D01*
X148533647Y-116945541D01*
X148591546Y-116971576D01*
X148654400Y-116980489D01*
X150354400Y-116980489D01*
X150390911Y-116977521D01*
X150451501Y-116958575D01*
X150504436Y-116923531D01*
X150545541Y-116875153D01*
X150571576Y-116817254D01*
X150580489Y-116754400D01*
X150580489Y-116679400D01*
X150934311Y-116679400D01*
X150934311Y-117588400D01*
X150937279Y-117624911D01*
X150956225Y-117685501D01*
X150991269Y-117738436D01*
X151039647Y-117779541D01*
X151097546Y-117805576D01*
X151160400Y-117814489D01*
X152060400Y-117814489D01*
X152096911Y-117811521D01*
X152157501Y-117792575D01*
X152210436Y-117757531D01*
X152251541Y-117709153D01*
X152277576Y-117651254D01*
X152286489Y-117588400D01*
X152286489Y-117113400D01*
X152360400Y-117113400D01*
X152382655Y-117113400D01*
X152382310Y-117138143D01*
X152400896Y-117239410D01*
X152438797Y-117335137D01*
X152494570Y-117421680D01*
X152566091Y-117495742D01*
X152650635Y-117554501D01*
X152744981Y-117595720D01*
X152845537Y-117617829D01*
X152948472Y-117619985D01*
X153049866Y-117602107D01*
X153145856Y-117564875D01*
X153232786Y-117509707D01*
X153307345Y-117438706D01*
X153366693Y-117354574D01*
X153408570Y-117260517D01*
X153431380Y-117160118D01*
X153433022Y-117042521D01*
X153413024Y-116941524D01*
X153373790Y-116846335D01*
X153316814Y-116760579D01*
X153244267Y-116687523D01*
X153158911Y-116629950D01*
X153063998Y-116590052D01*
X153043322Y-116585807D01*
X154945165Y-114683965D01*
X154967111Y-114657247D01*
X154989418Y-114630663D01*
X154990371Y-114628929D01*
X154991619Y-114627410D01*
X155007965Y-114596924D01*
X155024676Y-114566528D01*
X155025272Y-114564649D01*
X155026204Y-114562911D01*
X155036339Y-114529760D01*
X155046805Y-114496767D01*
X155047024Y-114494809D01*
X155047602Y-114492921D01*
X155051108Y-114458397D01*
X155054963Y-114424036D01*
X155054990Y-114420185D01*
X155054998Y-114420109D01*
X155054991Y-114420037D01*
X155055000Y-114418800D01*
X155055000Y-114015210D01*
X155131433Y-113975252D01*
X155256830Y-113874430D01*
X155360257Y-113751171D01*
X155430470Y-113623452D01*
X155493306Y-113741628D01*
X155595002Y-113866319D01*
X155718979Y-113968882D01*
X155805000Y-114015393D01*
X155805000Y-114270000D01*
X155808380Y-114304473D01*
X155811399Y-114338982D01*
X155811949Y-114340877D01*
X155812142Y-114342838D01*
X155822151Y-114375991D01*
X155831818Y-114409263D01*
X155832724Y-114411012D01*
X155833295Y-114412901D01*
X155849570Y-114443510D01*
X155865499Y-114474239D01*
X155866727Y-114475778D01*
X155867655Y-114477522D01*
X155889593Y-114504422D01*
X155911159Y-114531436D01*
X155913862Y-114534178D01*
X155913911Y-114534238D01*
X155913966Y-114534283D01*
X155914835Y-114535165D01*
X156749400Y-115369730D01*
X156749400Y-115628311D01*
X156274400Y-115628311D01*
X156237889Y-115631279D01*
X156177299Y-115650225D01*
X156124364Y-115685269D01*
X156083259Y-115733647D01*
X156057224Y-115791546D01*
X156048311Y-115854400D01*
X156048311Y-116754400D01*
X156051279Y-116790911D01*
X156070225Y-116851501D01*
X156105269Y-116904436D01*
X156153647Y-116945541D01*
X156211546Y-116971576D01*
X156274400Y-116980489D01*
X157974400Y-116980489D01*
X158010911Y-116977521D01*
X158071501Y-116958575D01*
X158124436Y-116923531D01*
X158165541Y-116875153D01*
X158191576Y-116817254D01*
X158200489Y-116754400D01*
X158200489Y-116679400D01*
X158554311Y-116679400D01*
X158554311Y-117588400D01*
X158557279Y-117624911D01*
X158576225Y-117685501D01*
X158611269Y-117738436D01*
X158659647Y-117779541D01*
X158717546Y-117805576D01*
X158780400Y-117814489D01*
X159680400Y-117814489D01*
X159716911Y-117811521D01*
X159777501Y-117792575D01*
X159830436Y-117757531D01*
X159871541Y-117709153D01*
X159897576Y-117651254D01*
X159906489Y-117588400D01*
X159906489Y-117271216D01*
X159931797Y-117335137D01*
X159987570Y-117421680D01*
X160059091Y-117495742D01*
X160143635Y-117554501D01*
X160237981Y-117595720D01*
X160338537Y-117617829D01*
X160441472Y-117619985D01*
X160542866Y-117602107D01*
X160638856Y-117564875D01*
X160725786Y-117509707D01*
X160800345Y-117438706D01*
X160859693Y-117354574D01*
X160901570Y-117260517D01*
X160924380Y-117160118D01*
X160926022Y-117042521D01*
X160926022Y-122450393D01*
X160799022Y-122416363D01*
X160799022Y-119074521D01*
X160779024Y-118973524D01*
X160739790Y-118878335D01*
X160682814Y-118792579D01*
X160610267Y-118719523D01*
X160524911Y-118661950D01*
X160429998Y-118622052D01*
X160329143Y-118601350D01*
X160226188Y-118600631D01*
X160125054Y-118619924D01*
X160029593Y-118658492D01*
X159943441Y-118714868D01*
X159906489Y-118751054D01*
X159906489Y-118428400D01*
X159903521Y-118391889D01*
X159884575Y-118331299D01*
X159849531Y-118278364D01*
X159801153Y-118237259D01*
X159743254Y-118211224D01*
X159680400Y-118202311D01*
X158780400Y-118202311D01*
X158743889Y-118205279D01*
X158683299Y-118224225D01*
X158630364Y-118259269D01*
X158589259Y-118307647D01*
X158563224Y-118365546D01*
X158554311Y-118428400D01*
X158554311Y-120128400D01*
X158557279Y-120164911D01*
X158576225Y-120225501D01*
X158611269Y-120278436D01*
X158659647Y-120319541D01*
X158717546Y-120345576D01*
X158780400Y-120354489D01*
X159680400Y-120354489D01*
X159716911Y-120351521D01*
X159777501Y-120332575D01*
X159830436Y-120297531D01*
X159871541Y-120249153D01*
X159897576Y-120191254D01*
X159906489Y-120128400D01*
X159906489Y-119753400D01*
X160121600Y-119753400D01*
X160165290Y-119749116D01*
X160208977Y-119745294D01*
X160211372Y-119744597D01*
X160213861Y-119744354D01*
X160255896Y-119731662D01*
X160298000Y-119719430D01*
X160300216Y-119718281D01*
X160302608Y-119717559D01*
X160341373Y-119696947D01*
X160380304Y-119676768D01*
X160382253Y-119675211D01*
X160384461Y-119674038D01*
X160418443Y-119646322D01*
X160450643Y-119620617D01*
X160511856Y-119596875D01*
X160598786Y-119541707D01*
X160673345Y-119470706D01*
X160732693Y-119386574D01*
X160774570Y-119292517D01*
X160797380Y-119192118D01*
X160799022Y-119074521D01*
X160799022Y-122416363D01*
X160647281Y-122375705D01*
X160611246Y-122369122D01*
X160547817Y-122371740D01*
X160487616Y-122391890D01*
X160435390Y-122427981D01*
X160395257Y-122477168D01*
X160370380Y-122535574D01*
X160099044Y-123548212D01*
X158473178Y-123109750D01*
X158448602Y-123105640D01*
X158424072Y-123101186D01*
X158420243Y-123100898D01*
X158420242Y-123100898D01*
X158200489Y-123085945D01*
X158200489Y-119654400D01*
X158200489Y-118754400D01*
X158197521Y-118717889D01*
X158178575Y-118657299D01*
X158143531Y-118604364D01*
X158095153Y-118563259D01*
X158037254Y-118537224D01*
X157974400Y-118528311D01*
X157599400Y-118528311D01*
X157599400Y-118262400D01*
X157595116Y-118218709D01*
X157591294Y-118175023D01*
X157590597Y-118172627D01*
X157590354Y-118170139D01*
X157577662Y-118128103D01*
X157565430Y-118086000D01*
X157564281Y-118083783D01*
X157563559Y-118081392D01*
X157542947Y-118042626D01*
X157522768Y-118003696D01*
X157521211Y-118001746D01*
X157520038Y-117999539D01*
X157492322Y-117965556D01*
X157467538Y-117934509D01*
X157437790Y-117862335D01*
X157380814Y-117776579D01*
X157308267Y-117703523D01*
X157222911Y-117645950D01*
X157127998Y-117606052D01*
X157027143Y-117585350D01*
X156924188Y-117584631D01*
X156823054Y-117603924D01*
X156727593Y-117642492D01*
X156641441Y-117698868D01*
X156567881Y-117770904D01*
X156509713Y-117855856D01*
X156469154Y-117950488D01*
X156447748Y-118051196D01*
X156446310Y-118154143D01*
X156464896Y-118255410D01*
X156502797Y-118351137D01*
X156558570Y-118437680D01*
X156630091Y-118511742D01*
X156649400Y-118525161D01*
X156649400Y-118528311D01*
X156274400Y-118528311D01*
X156237889Y-118531279D01*
X156177299Y-118550225D01*
X156124364Y-118585269D01*
X156083259Y-118633647D01*
X156057224Y-118691546D01*
X156048311Y-118754400D01*
X156048311Y-119654400D01*
X156051279Y-119690911D01*
X156070225Y-119751501D01*
X156105269Y-119804436D01*
X156153647Y-119845541D01*
X156211546Y-119871576D01*
X156274400Y-119880489D01*
X157974400Y-119880489D01*
X158010911Y-119877521D01*
X158071501Y-119858575D01*
X158124436Y-119823531D01*
X158165541Y-119775153D01*
X158191576Y-119717254D01*
X158200489Y-119654400D01*
X158200489Y-123085945D01*
X155185400Y-122880796D01*
X155185400Y-120150560D01*
X155185400Y-120106239D01*
X155185400Y-119409650D01*
X155185400Y-119147150D01*
X155185400Y-118450561D01*
X155185400Y-118406240D01*
X155185400Y-117610560D01*
X155185400Y-117566239D01*
X155185400Y-116869650D01*
X155185400Y-116607150D01*
X155185400Y-115910561D01*
X155185400Y-115866240D01*
X155176754Y-115822770D01*
X155159793Y-115781823D01*
X155135169Y-115744971D01*
X155103830Y-115713631D01*
X155066978Y-115689008D01*
X155026031Y-115672047D01*
X154982561Y-115663400D01*
X154641650Y-115663400D01*
X154585400Y-115719650D01*
X154585400Y-116663400D01*
X155129150Y-116663400D01*
X155185400Y-116607150D01*
X155185400Y-116869650D01*
X155129150Y-116813400D01*
X154585400Y-116813400D01*
X154585400Y-117757150D01*
X154641650Y-117813400D01*
X154982561Y-117813400D01*
X155026031Y-117804753D01*
X155066978Y-117787792D01*
X155103830Y-117763169D01*
X155135169Y-117731829D01*
X155159793Y-117694977D01*
X155176754Y-117654030D01*
X155185400Y-117610560D01*
X155185400Y-118406240D01*
X155176754Y-118362770D01*
X155159793Y-118321823D01*
X155135169Y-118284971D01*
X155103830Y-118253631D01*
X155066978Y-118229008D01*
X155026031Y-118212047D01*
X154982561Y-118203400D01*
X154641650Y-118203400D01*
X154585400Y-118259650D01*
X154585400Y-119203400D01*
X155129150Y-119203400D01*
X155185400Y-119147150D01*
X155185400Y-119409650D01*
X155129150Y-119353400D01*
X154585400Y-119353400D01*
X154585400Y-120297150D01*
X154641650Y-120353400D01*
X154982561Y-120353400D01*
X155026031Y-120344753D01*
X155066978Y-120327792D01*
X155103830Y-120303169D01*
X155135169Y-120271829D01*
X155159793Y-120234977D01*
X155176754Y-120194030D01*
X155185400Y-120150560D01*
X155185400Y-122880796D01*
X154785964Y-122853618D01*
X154809846Y-122838463D01*
X154919910Y-122733651D01*
X155007519Y-122609457D01*
X155069337Y-122470612D01*
X155103009Y-122322403D01*
X155105433Y-122148807D01*
X155075913Y-121999716D01*
X155017995Y-121859199D01*
X154933888Y-121732607D01*
X154826794Y-121624763D01*
X154700792Y-121539774D01*
X154560683Y-121480877D01*
X154435400Y-121455159D01*
X154435400Y-120297150D01*
X154435400Y-119353400D01*
X154435400Y-119203400D01*
X154435400Y-118259650D01*
X154435400Y-117757150D01*
X154435400Y-116813400D01*
X154435400Y-116663400D01*
X154435400Y-115719650D01*
X154379150Y-115663400D01*
X154038239Y-115663400D01*
X153994769Y-115672047D01*
X153953822Y-115689008D01*
X153916970Y-115713631D01*
X153885631Y-115744971D01*
X153861007Y-115781823D01*
X153844046Y-115822770D01*
X153835400Y-115866240D01*
X153835400Y-115910561D01*
X153835400Y-116607150D01*
X153891650Y-116663400D01*
X154435400Y-116663400D01*
X154435400Y-116813400D01*
X153891650Y-116813400D01*
X153835400Y-116869650D01*
X153835400Y-117566239D01*
X153835400Y-117610560D01*
X153844046Y-117654030D01*
X153861007Y-117694977D01*
X153885631Y-117731829D01*
X153916970Y-117763169D01*
X153953822Y-117787792D01*
X153994769Y-117804753D01*
X154038239Y-117813400D01*
X154379150Y-117813400D01*
X154435400Y-117757150D01*
X154435400Y-118259650D01*
X154379150Y-118203400D01*
X154038239Y-118203400D01*
X153994769Y-118212047D01*
X153953822Y-118229008D01*
X153916970Y-118253631D01*
X153885631Y-118284971D01*
X153861007Y-118321823D01*
X153844046Y-118362770D01*
X153835400Y-118406240D01*
X153835400Y-118450561D01*
X153835400Y-119147150D01*
X153891650Y-119203400D01*
X154435400Y-119203400D01*
X154435400Y-119353400D01*
X153891650Y-119353400D01*
X153835400Y-119409650D01*
X153835400Y-120106239D01*
X153835400Y-120150560D01*
X153844046Y-120194030D01*
X153861007Y-120234977D01*
X153885631Y-120271829D01*
X153916970Y-120303169D01*
X153953822Y-120327792D01*
X153994769Y-120344753D01*
X154038239Y-120353400D01*
X154379150Y-120353400D01*
X154435400Y-120297150D01*
X154435400Y-121455159D01*
X154411802Y-121450316D01*
X154259820Y-121449255D01*
X154110527Y-121477734D01*
X153969608Y-121534669D01*
X153842432Y-121617891D01*
X153733843Y-121724229D01*
X153680597Y-121801991D01*
X153621558Y-121769708D01*
X153515492Y-121875774D01*
X153166466Y-122224800D01*
X153180608Y-122238942D01*
X153074542Y-122345008D01*
X153060400Y-122330866D01*
X153046257Y-122345008D01*
X152940191Y-122238942D01*
X152954334Y-122224800D01*
X152940191Y-122210657D01*
X153046257Y-122104591D01*
X153060400Y-122118734D01*
X153515492Y-121663642D01*
X153455333Y-121553623D01*
X153316805Y-121489472D01*
X153179022Y-121456142D01*
X153179022Y-119328521D01*
X153159024Y-119227524D01*
X153119790Y-119132335D01*
X153062814Y-119046579D01*
X152990267Y-118973523D01*
X152904911Y-118915950D01*
X152809998Y-118876052D01*
X152797704Y-118873528D01*
X152777957Y-118862940D01*
X152739522Y-118841811D01*
X152737139Y-118841055D01*
X152734940Y-118839876D01*
X152692983Y-118827047D01*
X152651158Y-118813780D01*
X152648678Y-118813501D01*
X152646288Y-118812771D01*
X152602636Y-118808337D01*
X152559032Y-118803446D01*
X152554147Y-118803412D01*
X152554058Y-118803403D01*
X152553974Y-118803410D01*
X152552400Y-118803400D01*
X152286489Y-118803400D01*
X152286489Y-118428400D01*
X152283521Y-118391889D01*
X152264575Y-118331299D01*
X152229531Y-118278364D01*
X152181153Y-118237259D01*
X152123254Y-118211224D01*
X152060400Y-118202311D01*
X151160400Y-118202311D01*
X151123889Y-118205279D01*
X151063299Y-118224225D01*
X151010364Y-118259269D01*
X150969259Y-118307647D01*
X150943224Y-118365546D01*
X150934311Y-118428400D01*
X150934311Y-120128400D01*
X150937279Y-120164911D01*
X150956225Y-120225501D01*
X150991269Y-120278436D01*
X151039647Y-120319541D01*
X151097546Y-120345576D01*
X151160400Y-120354489D01*
X152060400Y-120354489D01*
X152096911Y-120351521D01*
X152157501Y-120332575D01*
X152210436Y-120297531D01*
X152251541Y-120249153D01*
X152277576Y-120191254D01*
X152286489Y-120128400D01*
X152286489Y-119755230D01*
X152312091Y-119781742D01*
X152396635Y-119840501D01*
X152490981Y-119881720D01*
X152591537Y-119903829D01*
X152694472Y-119905985D01*
X152795866Y-119888107D01*
X152891856Y-119850875D01*
X152978786Y-119795707D01*
X153053345Y-119724706D01*
X153112693Y-119640574D01*
X153154570Y-119546517D01*
X153177380Y-119446118D01*
X153179022Y-119328521D01*
X153179022Y-121456142D01*
X153168423Y-121453579D01*
X153015889Y-121447323D01*
X152865066Y-121470946D01*
X152721750Y-121523540D01*
X152665467Y-121553623D01*
X152605309Y-121663640D01*
X152563032Y-121621363D01*
X152559372Y-121625022D01*
X152544575Y-121577699D01*
X152509531Y-121524764D01*
X152461153Y-121483659D01*
X152403254Y-121457624D01*
X152340400Y-121448711D01*
X151240400Y-121448711D01*
X151203889Y-121451679D01*
X151143299Y-121470625D01*
X151090364Y-121505669D01*
X151049259Y-121554047D01*
X151023224Y-121611946D01*
X151014311Y-121674800D01*
X151014311Y-122774800D01*
X151016598Y-122802942D01*
X150580489Y-122858867D01*
X150580489Y-119654400D01*
X150580489Y-118754400D01*
X150577521Y-118717889D01*
X150558575Y-118657299D01*
X150523531Y-118604364D01*
X150475153Y-118563259D01*
X150417254Y-118537224D01*
X150354400Y-118528311D01*
X149979400Y-118528311D01*
X149979400Y-118262400D01*
X149975116Y-118218709D01*
X149971294Y-118175023D01*
X149970597Y-118172627D01*
X149970354Y-118170139D01*
X149957662Y-118128103D01*
X149945430Y-118086000D01*
X149944281Y-118083783D01*
X149943559Y-118081392D01*
X149922947Y-118042626D01*
X149902768Y-118003696D01*
X149901211Y-118001746D01*
X149900038Y-117999539D01*
X149872322Y-117965556D01*
X149847538Y-117934509D01*
X149817790Y-117862335D01*
X149760814Y-117776579D01*
X149688267Y-117703523D01*
X149602911Y-117645950D01*
X149507998Y-117606052D01*
X149407143Y-117585350D01*
X149304188Y-117584631D01*
X149203054Y-117603924D01*
X149107593Y-117642492D01*
X149021441Y-117698868D01*
X148947881Y-117770904D01*
X148889713Y-117855856D01*
X148849154Y-117950488D01*
X148827748Y-118051196D01*
X148826310Y-118154143D01*
X148844896Y-118255410D01*
X148882797Y-118351137D01*
X148938570Y-118437680D01*
X149010091Y-118511742D01*
X149029400Y-118525161D01*
X149029400Y-118528311D01*
X148654400Y-118528311D01*
X148617889Y-118531279D01*
X148557299Y-118550225D01*
X148504364Y-118585269D01*
X148463259Y-118633647D01*
X148437224Y-118691546D01*
X148428311Y-118754400D01*
X148428311Y-119654400D01*
X148431279Y-119690911D01*
X148450225Y-119751501D01*
X148485269Y-119804436D01*
X148533647Y-119845541D01*
X148591546Y-119871576D01*
X148654400Y-119880489D01*
X150354400Y-119880489D01*
X150390911Y-119877521D01*
X150451501Y-119858575D01*
X150504436Y-119823531D01*
X150545541Y-119775153D01*
X150571576Y-119717254D01*
X150580489Y-119654400D01*
X150580489Y-122858867D01*
X146549400Y-123375802D01*
X146549400Y-121674560D01*
X146549400Y-121630239D01*
X146549400Y-120933650D01*
X146549400Y-120671150D01*
X146549400Y-119974561D01*
X146549400Y-119930240D01*
X146549400Y-119134560D01*
X146549400Y-119090239D01*
X146549400Y-118393650D01*
X146549400Y-118131150D01*
X146549400Y-117434561D01*
X146549400Y-117390240D01*
X146540754Y-117346770D01*
X146523793Y-117305823D01*
X146499169Y-117268971D01*
X146467830Y-117237631D01*
X146430978Y-117213008D01*
X146390031Y-117196047D01*
X146346561Y-117187400D01*
X146110089Y-117187400D01*
X146110089Y-112792000D01*
X146110089Y-111892000D01*
X146107121Y-111855489D01*
X146088175Y-111794899D01*
X146053131Y-111741964D01*
X146004753Y-111700859D01*
X145946854Y-111674824D01*
X145884000Y-111665911D01*
X144184000Y-111665911D01*
X144147489Y-111668879D01*
X144086899Y-111687825D01*
X144033964Y-111722869D01*
X143992859Y-111771247D01*
X143966824Y-111829146D01*
X143957911Y-111892000D01*
X143957911Y-112792000D01*
X143960879Y-112828511D01*
X143979825Y-112889101D01*
X144014869Y-112942036D01*
X144063247Y-112983141D01*
X144121146Y-113009176D01*
X144184000Y-113018089D01*
X144559000Y-113018089D01*
X144559000Y-113059517D01*
X144531154Y-113124488D01*
X144509748Y-113225196D01*
X144508310Y-113328143D01*
X144526896Y-113429410D01*
X144564797Y-113525137D01*
X144620570Y-113611680D01*
X144692091Y-113685742D01*
X144776635Y-113744501D01*
X144870981Y-113785720D01*
X144971537Y-113807829D01*
X145074472Y-113809985D01*
X145175866Y-113792107D01*
X145271856Y-113754875D01*
X145358786Y-113699707D01*
X145433345Y-113628706D01*
X145492693Y-113544574D01*
X145534570Y-113450517D01*
X145557380Y-113350118D01*
X145559022Y-113232521D01*
X145539024Y-113131524D01*
X145509000Y-113058680D01*
X145509000Y-113018089D01*
X145884000Y-113018089D01*
X145920511Y-113015121D01*
X145981101Y-112996175D01*
X146034036Y-112961131D01*
X146075141Y-112912753D01*
X146101176Y-112854854D01*
X146110089Y-112792000D01*
X146110089Y-117187400D01*
X146109000Y-117187400D01*
X146109000Y-115714161D01*
X146109000Y-115373250D01*
X146109000Y-115110750D01*
X146109000Y-114769839D01*
X146100353Y-114726369D01*
X146083392Y-114685422D01*
X146058769Y-114648570D01*
X146027429Y-114617231D01*
X145990577Y-114592607D01*
X145949630Y-114575646D01*
X145906160Y-114567000D01*
X145861839Y-114567000D01*
X145165250Y-114567000D01*
X145109000Y-114623250D01*
X145109000Y-115167000D01*
X146052750Y-115167000D01*
X146109000Y-115110750D01*
X146109000Y-115373250D01*
X146052750Y-115317000D01*
X145109000Y-115317000D01*
X145109000Y-115860750D01*
X145165250Y-115917000D01*
X145861839Y-115917000D01*
X145906160Y-115917000D01*
X145949630Y-115908354D01*
X145990577Y-115891393D01*
X146027429Y-115866769D01*
X146058769Y-115835430D01*
X146083392Y-115798578D01*
X146100353Y-115757631D01*
X146109000Y-115714161D01*
X146109000Y-117187400D01*
X146005650Y-117187400D01*
X145949400Y-117243650D01*
X145949400Y-118187400D01*
X146493150Y-118187400D01*
X146549400Y-118131150D01*
X146549400Y-118393650D01*
X146493150Y-118337400D01*
X145949400Y-118337400D01*
X145949400Y-119281150D01*
X146005650Y-119337400D01*
X146346561Y-119337400D01*
X146390031Y-119328753D01*
X146430978Y-119311792D01*
X146467830Y-119287169D01*
X146499169Y-119255829D01*
X146523793Y-119218977D01*
X146540754Y-119178030D01*
X146549400Y-119134560D01*
X146549400Y-119930240D01*
X146540754Y-119886770D01*
X146523793Y-119845823D01*
X146499169Y-119808971D01*
X146467830Y-119777631D01*
X146430978Y-119753008D01*
X146390031Y-119736047D01*
X146346561Y-119727400D01*
X146005650Y-119727400D01*
X145949400Y-119783650D01*
X145949400Y-120727400D01*
X146493150Y-120727400D01*
X146549400Y-120671150D01*
X146549400Y-120933650D01*
X146493150Y-120877400D01*
X145949400Y-120877400D01*
X145949400Y-121821150D01*
X146005650Y-121877400D01*
X146346561Y-121877400D01*
X146390031Y-121868753D01*
X146430978Y-121851792D01*
X146467830Y-121827169D01*
X146499169Y-121795829D01*
X146523793Y-121758977D01*
X146540754Y-121718030D01*
X146549400Y-121674560D01*
X146549400Y-123375802D01*
X145894262Y-123459815D01*
X145915735Y-123365303D01*
X145918159Y-123191707D01*
X145888639Y-123042616D01*
X145830721Y-122902099D01*
X145799400Y-122854956D01*
X145799400Y-121821150D01*
X145799400Y-120877400D01*
X145799400Y-120727400D01*
X145799400Y-119783650D01*
X145799400Y-119281150D01*
X145799400Y-118337400D01*
X145799400Y-118187400D01*
X145799400Y-117243650D01*
X145743150Y-117187400D01*
X145402239Y-117187400D01*
X145358769Y-117196047D01*
X145317822Y-117213008D01*
X145280970Y-117237631D01*
X145249631Y-117268971D01*
X145225007Y-117305823D01*
X145208046Y-117346770D01*
X145199400Y-117390240D01*
X145199400Y-117434561D01*
X145199400Y-118131150D01*
X145255650Y-118187400D01*
X145799400Y-118187400D01*
X145799400Y-118337400D01*
X145255650Y-118337400D01*
X145199400Y-118393650D01*
X145199400Y-119090239D01*
X145199400Y-119134560D01*
X145208046Y-119178030D01*
X145225007Y-119218977D01*
X145249631Y-119255829D01*
X145280970Y-119287169D01*
X145317822Y-119311792D01*
X145358769Y-119328753D01*
X145402239Y-119337400D01*
X145743150Y-119337400D01*
X145799400Y-119281150D01*
X145799400Y-119783650D01*
X145743150Y-119727400D01*
X145402239Y-119727400D01*
X145358769Y-119736047D01*
X145317822Y-119753008D01*
X145280970Y-119777631D01*
X145249631Y-119808971D01*
X145225007Y-119845823D01*
X145208046Y-119886770D01*
X145199400Y-119930240D01*
X145199400Y-119974561D01*
X145199400Y-120671150D01*
X145255650Y-120727400D01*
X145799400Y-120727400D01*
X145799400Y-120877400D01*
X145255650Y-120877400D01*
X145199400Y-120933650D01*
X145199400Y-121630239D01*
X145199400Y-121674560D01*
X145208046Y-121718030D01*
X145225007Y-121758977D01*
X145249631Y-121795829D01*
X145280970Y-121827169D01*
X145317822Y-121851792D01*
X145358769Y-121868753D01*
X145402239Y-121877400D01*
X145743150Y-121877400D01*
X145799400Y-121821150D01*
X145799400Y-122854956D01*
X145746614Y-122775507D01*
X145639520Y-122667663D01*
X145513518Y-122582674D01*
X145373409Y-122523777D01*
X145224528Y-122493216D01*
X145072546Y-122492155D01*
X145068547Y-122492917D01*
X145068547Y-119231547D01*
X145065171Y-119197118D01*
X145062148Y-119162565D01*
X145061597Y-119160669D01*
X145061405Y-119158709D01*
X145051395Y-119125555D01*
X145041729Y-119092284D01*
X145040822Y-119090534D01*
X145040252Y-119088646D01*
X145023976Y-119058036D01*
X145008048Y-119027308D01*
X145006819Y-119025768D01*
X145005892Y-119024025D01*
X144983953Y-118997124D01*
X144962388Y-118970111D01*
X144959684Y-118967368D01*
X144959636Y-118967309D01*
X144959580Y-118967263D01*
X144958712Y-118966382D01*
X144261830Y-118269500D01*
X144531086Y-118000243D01*
X144566472Y-118000985D01*
X144667866Y-117983107D01*
X144763856Y-117945875D01*
X144850786Y-117890707D01*
X144925345Y-117819706D01*
X144984693Y-117735574D01*
X145026570Y-117641517D01*
X145049380Y-117541118D01*
X145051022Y-117423521D01*
X145031024Y-117322524D01*
X144991790Y-117227335D01*
X144959000Y-117177981D01*
X144959000Y-115860750D01*
X144959000Y-115317000D01*
X144959000Y-115167000D01*
X144959000Y-114623250D01*
X144902750Y-114567000D01*
X144206161Y-114567000D01*
X144161840Y-114567000D01*
X144118370Y-114575646D01*
X144077423Y-114592607D01*
X144040571Y-114617231D01*
X144009231Y-114648570D01*
X143984608Y-114685422D01*
X143967647Y-114726369D01*
X143959000Y-114769839D01*
X143959000Y-115110750D01*
X144015250Y-115167000D01*
X144959000Y-115167000D01*
X144959000Y-115317000D01*
X144015250Y-115317000D01*
X143959000Y-115373250D01*
X143959000Y-115714161D01*
X143967647Y-115757631D01*
X143984608Y-115798578D01*
X144009231Y-115835430D01*
X144040571Y-115866769D01*
X144077423Y-115891393D01*
X144118370Y-115908354D01*
X144161840Y-115917000D01*
X144206161Y-115917000D01*
X144902750Y-115917000D01*
X144959000Y-115860750D01*
X144959000Y-117177981D01*
X144934814Y-117141579D01*
X144862267Y-117068523D01*
X144776911Y-117010950D01*
X144681998Y-116971052D01*
X144581143Y-116950350D01*
X144478188Y-116949631D01*
X144377054Y-116968924D01*
X144281593Y-117007492D01*
X144195441Y-117063868D01*
X144121881Y-117135904D01*
X144063713Y-117220856D01*
X144023154Y-117315488D01*
X144001748Y-117416196D01*
X144001001Y-117469668D01*
X143650489Y-117820181D01*
X143650489Y-117412400D01*
X143647521Y-117375889D01*
X143628575Y-117315299D01*
X143593531Y-117262364D01*
X143545153Y-117221259D01*
X143487254Y-117195224D01*
X143424400Y-117186311D01*
X143167163Y-117186311D01*
X143167163Y-115277371D01*
X143141811Y-115097232D01*
X143081804Y-114925501D01*
X143032370Y-114833015D01*
X142907145Y-114754921D01*
X142801079Y-114860987D01*
X142801079Y-114648855D01*
X142722985Y-114523630D01*
X142559121Y-114444630D01*
X142382993Y-114399117D01*
X142201371Y-114388837D01*
X142021232Y-114414189D01*
X141849501Y-114474196D01*
X141757015Y-114523630D01*
X141678921Y-114648855D01*
X142240000Y-115209934D01*
X142801079Y-114648855D01*
X142801079Y-114860987D01*
X142346066Y-115316000D01*
X142907145Y-115877079D01*
X143032370Y-115798985D01*
X143111370Y-115635121D01*
X143156883Y-115458993D01*
X143167163Y-115277371D01*
X143167163Y-117186311D01*
X142801079Y-117186311D01*
X142801079Y-115983145D01*
X142240000Y-115422066D01*
X142133934Y-115528132D01*
X142133934Y-115316000D01*
X141572855Y-114754921D01*
X141447630Y-114833015D01*
X141368630Y-114996879D01*
X141323117Y-115173007D01*
X141312837Y-115354629D01*
X141338189Y-115534768D01*
X141398196Y-115706499D01*
X141447630Y-115798985D01*
X141572855Y-115877079D01*
X142133934Y-115316000D01*
X142133934Y-115528132D01*
X141678921Y-115983145D01*
X141757015Y-116108370D01*
X141920879Y-116187370D01*
X142097007Y-116232883D01*
X142278629Y-116243163D01*
X142458768Y-116217811D01*
X142630499Y-116157804D01*
X142722985Y-116108370D01*
X142801079Y-115983145D01*
X142801079Y-117186311D01*
X142524400Y-117186311D01*
X142487889Y-117189279D01*
X142427299Y-117208225D01*
X142374364Y-117243269D01*
X142333259Y-117291647D01*
X142307224Y-117349546D01*
X142298311Y-117412400D01*
X142298311Y-119112400D01*
X142301279Y-119148911D01*
X142320225Y-119209501D01*
X142355269Y-119262436D01*
X142403647Y-119303541D01*
X142461546Y-119329576D01*
X142524400Y-119338489D01*
X143424400Y-119338489D01*
X143460911Y-119335521D01*
X143521501Y-119316575D01*
X143574436Y-119281531D01*
X143615541Y-119233153D01*
X143641576Y-119175254D01*
X143650489Y-119112400D01*
X143650489Y-118718819D01*
X144318547Y-119386877D01*
X144318547Y-120473429D01*
X144268911Y-120439950D01*
X144173998Y-120400052D01*
X144161704Y-120397528D01*
X144141957Y-120386940D01*
X144103522Y-120365811D01*
X144101139Y-120365055D01*
X144098940Y-120363876D01*
X144056983Y-120351047D01*
X144015158Y-120337780D01*
X144012678Y-120337501D01*
X144010288Y-120336771D01*
X143966636Y-120332337D01*
X143923032Y-120327446D01*
X143918147Y-120327412D01*
X143918058Y-120327403D01*
X143917974Y-120327410D01*
X143916400Y-120327400D01*
X143650489Y-120327400D01*
X143650489Y-119952400D01*
X143647521Y-119915889D01*
X143628575Y-119855299D01*
X143593531Y-119802364D01*
X143545153Y-119761259D01*
X143487254Y-119735224D01*
X143424400Y-119726311D01*
X142524400Y-119726311D01*
X142487889Y-119729279D01*
X142427299Y-119748225D01*
X142374364Y-119783269D01*
X142333259Y-119831647D01*
X142307224Y-119889546D01*
X142298311Y-119952400D01*
X142298311Y-121652400D01*
X142301279Y-121688911D01*
X142320225Y-121749501D01*
X142325851Y-121758000D01*
X141760330Y-121758000D01*
X141657165Y-121654835D01*
X141630425Y-121632870D01*
X141603863Y-121610582D01*
X141602132Y-121609630D01*
X141600611Y-121608381D01*
X141570103Y-121592022D01*
X141539728Y-121575324D01*
X141537849Y-121574728D01*
X141536111Y-121573796D01*
X141503001Y-121563673D01*
X141469967Y-121553195D01*
X141468004Y-121552974D01*
X141466121Y-121552399D01*
X141431647Y-121548896D01*
X141397236Y-121545037D01*
X141393385Y-121545009D01*
X141393309Y-121545002D01*
X141393237Y-121545008D01*
X141392000Y-121545000D01*
X141318089Y-121545000D01*
X141318089Y-121070000D01*
X141315121Y-121033489D01*
X141296175Y-120972899D01*
X141261131Y-120919964D01*
X141212753Y-120878859D01*
X141154854Y-120852824D01*
X141092000Y-120843911D01*
X140282074Y-120843911D01*
X140282074Y-117178855D01*
X140216367Y-116847008D01*
X140087455Y-116534243D01*
X139900248Y-116252474D01*
X139661877Y-116012433D01*
X139381422Y-115823264D01*
X139069565Y-115692171D01*
X138738184Y-115624148D01*
X138399902Y-115621787D01*
X138067604Y-115685176D01*
X137753947Y-115811902D01*
X137470878Y-115997137D01*
X137229179Y-116233826D01*
X137038056Y-116512954D01*
X136904790Y-116823888D01*
X136834455Y-117154786D01*
X136829732Y-117493043D01*
X136890800Y-117825775D01*
X137015333Y-118140309D01*
X137198587Y-118424665D01*
X137433583Y-118668010D01*
X137711370Y-118861077D01*
X138021366Y-118996511D01*
X138351765Y-119069154D01*
X138689981Y-119076238D01*
X139023131Y-119017495D01*
X139338527Y-118895161D01*
X139624155Y-118713896D01*
X139869135Y-118480605D01*
X140064136Y-118204173D01*
X140201731Y-117895129D01*
X140276679Y-117565246D01*
X140282074Y-117178855D01*
X140282074Y-120843911D01*
X140192000Y-120843911D01*
X140155489Y-120846879D01*
X140094899Y-120865825D01*
X140041964Y-120900869D01*
X140000859Y-120949247D01*
X139974824Y-121007146D01*
X139965911Y-121070000D01*
X139965911Y-122770000D01*
X139968879Y-122806511D01*
X139987825Y-122867101D01*
X140022869Y-122920036D01*
X140071247Y-122961141D01*
X140129146Y-122987176D01*
X140192000Y-122996089D01*
X141092000Y-122996089D01*
X141128511Y-122993121D01*
X141189101Y-122974175D01*
X141242036Y-122939131D01*
X141283141Y-122890753D01*
X141309176Y-122832854D01*
X141318089Y-122770000D01*
X141318089Y-122376419D01*
X141339835Y-122398165D01*
X141366574Y-122420129D01*
X141393137Y-122442418D01*
X141394867Y-122443369D01*
X141396389Y-122444619D01*
X141426880Y-122460968D01*
X141457272Y-122477676D01*
X141459152Y-122478272D01*
X141460888Y-122479203D01*
X141493966Y-122489316D01*
X141527033Y-122499805D01*
X141528995Y-122500025D01*
X141530879Y-122500601D01*
X141565308Y-122504098D01*
X141599764Y-122507963D01*
X141603624Y-122507990D01*
X141603691Y-122507997D01*
X141603752Y-122507991D01*
X141605000Y-122508000D01*
X143853096Y-122508000D01*
X144361822Y-123016726D01*
X144340650Y-123011577D01*
X144266195Y-123140535D01*
X144210747Y-123195984D01*
X144210747Y-122936577D01*
X144124163Y-122845876D01*
X143973751Y-122819765D01*
X143821135Y-122823500D01*
X143672180Y-122856936D01*
X143532610Y-122918789D01*
X143422437Y-122996368D01*
X143419032Y-122992963D01*
X143368715Y-123043279D01*
X143361210Y-123050309D01*
X143361057Y-123050937D01*
X143312963Y-123099032D01*
X143342239Y-123128308D01*
X143331577Y-123172150D01*
X143460534Y-123246603D01*
X143796190Y-123582259D01*
X143886128Y-123492320D01*
X143888948Y-123493948D01*
X143895022Y-123483426D01*
X143902259Y-123476190D01*
X143900320Y-123474251D01*
X144210747Y-122936577D01*
X144210747Y-123195984D01*
X143930541Y-123476190D01*
X144020479Y-123566128D01*
X144018852Y-123568948D01*
X144029373Y-123575022D01*
X144036610Y-123582259D01*
X144038548Y-123580320D01*
X144548080Y-123874499D01*
X144362641Y-123936572D01*
X144036610Y-123610541D01*
X143946671Y-123700479D01*
X143943852Y-123698852D01*
X143937777Y-123709373D01*
X143930541Y-123716610D01*
X143932479Y-123718548D01*
X143673397Y-124167291D01*
X143567531Y-124202729D01*
X143539700Y-124098863D01*
X143566602Y-124052266D01*
X143902259Y-123716610D01*
X143812320Y-123626671D01*
X143813948Y-123623852D01*
X143803426Y-123617777D01*
X143796190Y-123610541D01*
X143794251Y-123612479D01*
X143338936Y-123349603D01*
X143296968Y-123192974D01*
X143284652Y-123158475D01*
X143250669Y-123104853D01*
X143203119Y-123062792D01*
X143145751Y-123035609D01*
X143083086Y-123025446D01*
X143020067Y-123033105D01*
X141957548Y-123317806D01*
X141923049Y-123330122D01*
X141869427Y-123364105D01*
X141827366Y-123411655D01*
X141800183Y-123469023D01*
X141790020Y-123531688D01*
X141797679Y-123594707D01*
X142082380Y-124657226D01*
X142094696Y-124691725D01*
X142096799Y-124695044D01*
X139679809Y-125504112D01*
X139150157Y-125681408D01*
X138622913Y-125749020D01*
X138092563Y-125712935D01*
X137579334Y-125574528D01*
X137347527Y-125460000D01*
X139372762Y-125460000D01*
X139372762Y-123310000D01*
X139209022Y-123310000D01*
X139209022Y-121868521D01*
X139189024Y-121767524D01*
X139149790Y-121672335D01*
X139092814Y-121586579D01*
X139020267Y-121513523D01*
X138934911Y-121455950D01*
X138839998Y-121416052D01*
X138739143Y-121395350D01*
X138636188Y-121394631D01*
X138535054Y-121413924D01*
X138458136Y-121445000D01*
X138418089Y-121445000D01*
X138418089Y-121070000D01*
X138415121Y-121033489D01*
X138396175Y-120972899D01*
X138361131Y-120919964D01*
X138312753Y-120878859D01*
X138254854Y-120852824D01*
X138192000Y-120843911D01*
X137292000Y-120843911D01*
X137255489Y-120846879D01*
X137194899Y-120865825D01*
X137141964Y-120900869D01*
X137100859Y-120949247D01*
X137074824Y-121007146D01*
X137065911Y-121070000D01*
X137065911Y-122770000D01*
X137068879Y-122806511D01*
X137087825Y-122867101D01*
X137122869Y-122920036D01*
X137171247Y-122961141D01*
X137229146Y-122987176D01*
X137292000Y-122996089D01*
X138192000Y-122996089D01*
X138228511Y-122993121D01*
X138289101Y-122974175D01*
X138342036Y-122939131D01*
X138383141Y-122890753D01*
X138409176Y-122832854D01*
X138418089Y-122770000D01*
X138418089Y-122395000D01*
X138459821Y-122395000D01*
X138520981Y-122421720D01*
X138621537Y-122443829D01*
X138724472Y-122445985D01*
X138825866Y-122428107D01*
X138921856Y-122390875D01*
X139008786Y-122335707D01*
X139083345Y-122264706D01*
X139142693Y-122180574D01*
X139184570Y-122086517D01*
X139207380Y-121986118D01*
X139209022Y-121868521D01*
X139209022Y-123310000D01*
X135963238Y-123310000D01*
X135963238Y-123863784D01*
X135891203Y-123653480D01*
X135818439Y-123115834D01*
X135816750Y-123023993D01*
X135816750Y-110743000D01*
X170266750Y-110743000D01*
X170266750Y-123013094D01*
X170266750Y-123013094D01*
G37*
X170266750Y-123013094D02*
X170213557Y-123555584D01*
X170059918Y-124064461D01*
X169810360Y-124533814D01*
X169474394Y-124945748D01*
X169386460Y-125018493D01*
X169386460Y-113651600D01*
X169386460Y-113607279D01*
X169386460Y-113161250D01*
X169386460Y-112898750D01*
X169386460Y-112452721D01*
X169386460Y-112408400D01*
X169377814Y-112364930D01*
X169360853Y-112323983D01*
X169336229Y-112287131D01*
X169304890Y-112255791D01*
X169268038Y-112231168D01*
X169227091Y-112214207D01*
X169183621Y-112205560D01*
X168693270Y-112205560D01*
X168637020Y-112261810D01*
X168637020Y-112955000D01*
X169330210Y-112955000D01*
X169386460Y-112898750D01*
X169386460Y-113161250D01*
X169330210Y-113105000D01*
X168637020Y-113105000D01*
X168637020Y-113798190D01*
X168693270Y-113854440D01*
X169183621Y-113854440D01*
X169227091Y-113845793D01*
X169268038Y-113828832D01*
X169304890Y-113804209D01*
X169336229Y-113772869D01*
X169360853Y-113736017D01*
X169377814Y-113695070D01*
X169386460Y-113651600D01*
X169386460Y-125018493D01*
X169238074Y-125141248D01*
X169238074Y-117178855D01*
X169172367Y-116847008D01*
X169043455Y-116534243D01*
X168856248Y-116252474D01*
X168617877Y-116012433D01*
X168487020Y-115924168D01*
X168487020Y-113798190D01*
X168487020Y-113105000D01*
X168487020Y-112955000D01*
X168487020Y-112261810D01*
X168430770Y-112205560D01*
X167940419Y-112205560D01*
X167896949Y-112214207D01*
X167856002Y-112231168D01*
X167819150Y-112255791D01*
X167787811Y-112287131D01*
X167763187Y-112323983D01*
X167746226Y-112364930D01*
X167737580Y-112408400D01*
X167737580Y-112452721D01*
X167737580Y-112898750D01*
X167793830Y-112955000D01*
X168487020Y-112955000D01*
X168487020Y-113105000D01*
X167793830Y-113105000D01*
X167737580Y-113161250D01*
X167737580Y-113607279D01*
X167737580Y-113651600D01*
X167746226Y-113695070D01*
X167763187Y-113736017D01*
X167787811Y-113772869D01*
X167819150Y-113804209D01*
X167856002Y-113828832D01*
X167896949Y-113845793D01*
X167940419Y-113854440D01*
X168430770Y-113854440D01*
X168487020Y-113798190D01*
X168487020Y-115924168D01*
X168337422Y-115823264D01*
X168025565Y-115692171D01*
X167694184Y-115624148D01*
X167355902Y-115621787D01*
X167289509Y-115634452D01*
X167289509Y-113629440D01*
X167289509Y-112430560D01*
X167286541Y-112394049D01*
X167267595Y-112333459D01*
X167232551Y-112280524D01*
X167184173Y-112239419D01*
X167126274Y-112213384D01*
X167063420Y-112204471D01*
X165864540Y-112204471D01*
X165828029Y-112207439D01*
X165767439Y-112226385D01*
X165714504Y-112261429D01*
X165702089Y-112276040D01*
X165702089Y-112180000D01*
X165699121Y-112143489D01*
X165680175Y-112082899D01*
X165645131Y-112029964D01*
X165596753Y-111988859D01*
X165538854Y-111962824D01*
X165476000Y-111953911D01*
X164576000Y-111953911D01*
X164539489Y-111956879D01*
X164478899Y-111975825D01*
X164425964Y-112010869D01*
X164384859Y-112059247D01*
X164358824Y-112117146D01*
X164349911Y-112180000D01*
X164349911Y-113880000D01*
X164352879Y-113916511D01*
X164371825Y-113977101D01*
X164406869Y-114030036D01*
X164455247Y-114071141D01*
X164513146Y-114097176D01*
X164576000Y-114106089D01*
X165476000Y-114106089D01*
X165512511Y-114103121D01*
X165573101Y-114084175D01*
X165626036Y-114049131D01*
X165667141Y-114000753D01*
X165693176Y-113942854D01*
X165702089Y-113880000D01*
X165702089Y-113785151D01*
X165743787Y-113820581D01*
X165801686Y-113846616D01*
X165864540Y-113855529D01*
X167063420Y-113855529D01*
X167099931Y-113852561D01*
X167160521Y-113833615D01*
X167213456Y-113798571D01*
X167254561Y-113750193D01*
X167280596Y-113692294D01*
X167289509Y-113629440D01*
X167289509Y-115634452D01*
X167023604Y-115685176D01*
X166709947Y-115811902D01*
X166426878Y-115997137D01*
X166185179Y-116233826D01*
X165994056Y-116512954D01*
X165860790Y-116823888D01*
X165790455Y-117154786D01*
X165785732Y-117493043D01*
X165846800Y-117825775D01*
X165971333Y-118140309D01*
X166154587Y-118424665D01*
X166389583Y-118668010D01*
X166667370Y-118861077D01*
X166977366Y-118996511D01*
X167307765Y-119069154D01*
X167645981Y-119076238D01*
X167979131Y-119017495D01*
X168294527Y-118895161D01*
X168580155Y-118713896D01*
X168825135Y-118480605D01*
X169020136Y-118204173D01*
X169157731Y-117895129D01*
X169232679Y-117565246D01*
X169238074Y-117178855D01*
X169238074Y-125141248D01*
X169064810Y-125284585D01*
X168597220Y-125537409D01*
X168089422Y-125694600D01*
X167560761Y-125750163D01*
X167031382Y-125701986D01*
X166510910Y-125548803D01*
X166424088Y-125511853D01*
X166424047Y-125511840D01*
X166421192Y-125510640D01*
X164630471Y-124772558D01*
X164615514Y-124768042D01*
X164600982Y-124762320D01*
X164597281Y-124761294D01*
X163869280Y-124564967D01*
X163910572Y-124538763D01*
X164020636Y-124433951D01*
X164108245Y-124309757D01*
X164170063Y-124170912D01*
X164203735Y-124022703D01*
X164206159Y-123849107D01*
X164176639Y-123700016D01*
X164118721Y-123559499D01*
X164034614Y-123432907D01*
X163927520Y-123325063D01*
X163801518Y-123240074D01*
X163720022Y-123205815D01*
X163720022Y-112978521D01*
X163700024Y-112877524D01*
X163660790Y-112782335D01*
X163603814Y-112696579D01*
X163531267Y-112623523D01*
X163445911Y-112565950D01*
X163350998Y-112526052D01*
X163250143Y-112505350D01*
X163147188Y-112504631D01*
X163046054Y-112523924D01*
X162969136Y-112555000D01*
X162802089Y-112555000D01*
X162802089Y-112180000D01*
X162799121Y-112143489D01*
X162780175Y-112082899D01*
X162745131Y-112029964D01*
X162696753Y-111988859D01*
X162638854Y-111962824D01*
X162576000Y-111953911D01*
X161676000Y-111953911D01*
X161639489Y-111956879D01*
X161578899Y-111975825D01*
X161525964Y-112010869D01*
X161484859Y-112059247D01*
X161458824Y-112117146D01*
X161449911Y-112180000D01*
X161449911Y-113880000D01*
X161452879Y-113916511D01*
X161471825Y-113977101D01*
X161506869Y-114030036D01*
X161555247Y-114071141D01*
X161613146Y-114097176D01*
X161676000Y-114106089D01*
X162576000Y-114106089D01*
X162612511Y-114103121D01*
X162673101Y-114084175D01*
X162726036Y-114049131D01*
X162767141Y-114000753D01*
X162793176Y-113942854D01*
X162802089Y-113880000D01*
X162802089Y-113505000D01*
X162970821Y-113505000D01*
X163031981Y-113531720D01*
X163132537Y-113553829D01*
X163235472Y-113555985D01*
X163336866Y-113538107D01*
X163432856Y-113500875D01*
X163519786Y-113445707D01*
X163594345Y-113374706D01*
X163653693Y-113290574D01*
X163695570Y-113196517D01*
X163718380Y-113096118D01*
X163720022Y-112978521D01*
X163720022Y-123205815D01*
X163661409Y-123181177D01*
X163512528Y-123150616D01*
X163360546Y-123149555D01*
X163211253Y-123178034D01*
X163070334Y-123234969D01*
X162943158Y-123318191D01*
X162912538Y-123348175D01*
X162864223Y-123302053D01*
X162805400Y-123336014D01*
X162805400Y-120150560D01*
X162805400Y-120106239D01*
X162805400Y-119409650D01*
X162805400Y-119147150D01*
X162805400Y-118450561D01*
X162805400Y-118406240D01*
X162805400Y-117610560D01*
X162805400Y-117566239D01*
X162805400Y-116869650D01*
X162805400Y-116607150D01*
X162805400Y-115910561D01*
X162805400Y-115866240D01*
X162796754Y-115822770D01*
X162779793Y-115781823D01*
X162755169Y-115744971D01*
X162723830Y-115713631D01*
X162686978Y-115689008D01*
X162646031Y-115672047D01*
X162602561Y-115663400D01*
X162261650Y-115663400D01*
X162205400Y-115719650D01*
X162205400Y-116663400D01*
X162749150Y-116663400D01*
X162805400Y-116607150D01*
X162805400Y-116869650D01*
X162749150Y-116813400D01*
X162205400Y-116813400D01*
X162205400Y-117757150D01*
X162261650Y-117813400D01*
X162602561Y-117813400D01*
X162646031Y-117804753D01*
X162686978Y-117787792D01*
X162723830Y-117763169D01*
X162755169Y-117731829D01*
X162779793Y-117694977D01*
X162796754Y-117654030D01*
X162805400Y-117610560D01*
X162805400Y-118406240D01*
X162796754Y-118362770D01*
X162779793Y-118321823D01*
X162755169Y-118284971D01*
X162723830Y-118253631D01*
X162686978Y-118229008D01*
X162646031Y-118212047D01*
X162602561Y-118203400D01*
X162261650Y-118203400D01*
X162205400Y-118259650D01*
X162205400Y-119203400D01*
X162749150Y-119203400D01*
X162805400Y-119147150D01*
X162805400Y-119409650D01*
X162749150Y-119353400D01*
X162205400Y-119353400D01*
X162205400Y-120297150D01*
X162261650Y-120353400D01*
X162602561Y-120353400D01*
X162646031Y-120344753D01*
X162686978Y-120327792D01*
X162723830Y-120303169D01*
X162755169Y-120271829D01*
X162779793Y-120234977D01*
X162796754Y-120194030D01*
X162805400Y-120150560D01*
X162805400Y-123336014D01*
X162789223Y-123345354D01*
X162789223Y-123172150D01*
X162759590Y-123050309D01*
X162642385Y-122952490D01*
X162508348Y-122879416D01*
X162362631Y-122833895D01*
X162210834Y-122817677D01*
X162058788Y-122831385D01*
X162055400Y-122832174D01*
X162055400Y-120297150D01*
X162055400Y-119353400D01*
X162055400Y-119203400D01*
X162055400Y-118259650D01*
X162055400Y-117757150D01*
X162055400Y-116813400D01*
X162055400Y-116663400D01*
X162055400Y-115719650D01*
X161999150Y-115663400D01*
X161658239Y-115663400D01*
X161614769Y-115672047D01*
X161573822Y-115689008D01*
X161536970Y-115713631D01*
X161505631Y-115744971D01*
X161481007Y-115781823D01*
X161464046Y-115822770D01*
X161455400Y-115866240D01*
X161455400Y-115910561D01*
X161455400Y-116607150D01*
X161511650Y-116663400D01*
X162055400Y-116663400D01*
X162055400Y-116813400D01*
X161511650Y-116813400D01*
X161455400Y-116869650D01*
X161455400Y-117566239D01*
X161455400Y-117610560D01*
X161464046Y-117654030D01*
X161481007Y-117694977D01*
X161505631Y-117731829D01*
X161536970Y-117763169D01*
X161573822Y-117787792D01*
X161614769Y-117804753D01*
X161658239Y-117813400D01*
X161999150Y-117813400D01*
X162055400Y-117757150D01*
X162055400Y-118259650D01*
X161999150Y-118203400D01*
X161658239Y-118203400D01*
X161614769Y-118212047D01*
X161573822Y-118229008D01*
X161536970Y-118253631D01*
X161505631Y-118284971D01*
X161481007Y-118321823D01*
X161464046Y-118362770D01*
X161455400Y-118406240D01*
X161455400Y-118450561D01*
X161455400Y-119147150D01*
X161511650Y-119203400D01*
X162055400Y-119203400D01*
X162055400Y-119353400D01*
X161511650Y-119353400D01*
X161455400Y-119409650D01*
X161455400Y-120106239D01*
X161455400Y-120150560D01*
X161464046Y-120194030D01*
X161481007Y-120234977D01*
X161505631Y-120271829D01*
X161536970Y-120303169D01*
X161573822Y-120327792D01*
X161614769Y-120344753D01*
X161658239Y-120353400D01*
X161999150Y-120353400D01*
X162055400Y-120297150D01*
X162055400Y-122832174D01*
X161996637Y-122845876D01*
X161910053Y-122936577D01*
X162231852Y-123493948D01*
X162789223Y-123172150D01*
X162789223Y-123345354D01*
X162326548Y-123612479D01*
X162324610Y-123610541D01*
X162317373Y-123617777D01*
X162306852Y-123623852D01*
X162308479Y-123626671D01*
X162218541Y-123716610D01*
X162554196Y-124052265D01*
X162628650Y-124181223D01*
X162672491Y-124170560D01*
X162701768Y-124199837D01*
X162705037Y-124196567D01*
X162729163Y-124257501D01*
X162457129Y-124184139D01*
X162188320Y-123718548D01*
X162190259Y-123716610D01*
X162183022Y-123709373D01*
X162176948Y-123698852D01*
X162174128Y-123700479D01*
X162084190Y-123610541D01*
X161748536Y-123946194D01*
X161693224Y-123978129D01*
X161597685Y-123952364D01*
X161626936Y-123843196D01*
X162082251Y-123580320D01*
X162084190Y-123582259D01*
X162091426Y-123575022D01*
X162101948Y-123568948D01*
X162100320Y-123566128D01*
X162190259Y-123476190D01*
X161854603Y-123140534D01*
X161827700Y-123093936D01*
X161869669Y-122937307D01*
X161876252Y-122901272D01*
X161873634Y-122837843D01*
X161853484Y-122777642D01*
X161817393Y-122725416D01*
X161768206Y-122685283D01*
X161709800Y-122660406D01*
X160926022Y-122450393D01*
X160926022Y-117042521D01*
X160906024Y-116941524D01*
X160866790Y-116846335D01*
X160809814Y-116760579D01*
X160737267Y-116687523D01*
X160651911Y-116629950D01*
X160556998Y-116590052D01*
X160456143Y-116569350D01*
X160405053Y-116568993D01*
X160385425Y-116552870D01*
X160358863Y-116530582D01*
X160357132Y-116529630D01*
X160355611Y-116528381D01*
X160325103Y-116512022D01*
X160294728Y-116495324D01*
X160292849Y-116494728D01*
X160291111Y-116493796D01*
X160258001Y-116483673D01*
X160255075Y-116482745D01*
X160245565Y-116473235D01*
X160218825Y-116451270D01*
X160192263Y-116428982D01*
X160190532Y-116428030D01*
X160189011Y-116426781D01*
X160158503Y-116410422D01*
X160128128Y-116393724D01*
X160126249Y-116393128D01*
X160124511Y-116392196D01*
X160091401Y-116382073D01*
X160058367Y-116371595D01*
X160056404Y-116371374D01*
X160054521Y-116370799D01*
X160020047Y-116367296D01*
X159985636Y-116363437D01*
X159981785Y-116363409D01*
X159981709Y-116363402D01*
X159981637Y-116363408D01*
X159980400Y-116363400D01*
X159906489Y-116363400D01*
X159906489Y-115888400D01*
X159903521Y-115851889D01*
X159884575Y-115791299D01*
X159849531Y-115738364D01*
X159801153Y-115697259D01*
X159743254Y-115671224D01*
X159680400Y-115662311D01*
X158780400Y-115662311D01*
X158743889Y-115665279D01*
X158683299Y-115684225D01*
X158630364Y-115719269D01*
X158589259Y-115767647D01*
X158563224Y-115825546D01*
X158554311Y-115888400D01*
X158554311Y-115929400D01*
X158508240Y-115929400D01*
X158508240Y-113901790D01*
X158508240Y-113857469D01*
X158508240Y-113161250D01*
X158508240Y-112898750D01*
X158508240Y-112202531D01*
X158508240Y-112158210D01*
X158499594Y-112114740D01*
X158482633Y-112073793D01*
X158458009Y-112036941D01*
X158426670Y-112005601D01*
X158389818Y-111980978D01*
X158348871Y-111964017D01*
X158305401Y-111955370D01*
X157815050Y-111955370D01*
X157758800Y-112011620D01*
X157758800Y-112955000D01*
X158451990Y-112955000D01*
X158508240Y-112898750D01*
X158508240Y-113161250D01*
X158451990Y-113105000D01*
X157758800Y-113105000D01*
X157758800Y-114048380D01*
X157815050Y-114104630D01*
X158305401Y-114104630D01*
X158348871Y-114095983D01*
X158389818Y-114079022D01*
X158426670Y-114054399D01*
X158458009Y-114023059D01*
X158482633Y-113986207D01*
X158499594Y-113945260D01*
X158508240Y-113901790D01*
X158508240Y-115929400D01*
X158200489Y-115929400D01*
X158200489Y-115854400D01*
X158197521Y-115817889D01*
X158178575Y-115757299D01*
X158143531Y-115704364D01*
X158095153Y-115663259D01*
X158037254Y-115637224D01*
X157974400Y-115628311D01*
X157499400Y-115628311D01*
X157499400Y-115214400D01*
X157496020Y-115179930D01*
X157493001Y-115145418D01*
X157492450Y-115143522D01*
X157492258Y-115141562D01*
X157482248Y-115108408D01*
X157472582Y-115075137D01*
X157471675Y-115073387D01*
X157471105Y-115071499D01*
X157454840Y-115040909D01*
X157438901Y-115010160D01*
X157437670Y-115008618D01*
X157436745Y-115006878D01*
X157414843Y-114980024D01*
X157393241Y-114952963D01*
X157390536Y-114950220D01*
X157390489Y-114950162D01*
X157390435Y-114950117D01*
X157389565Y-114949235D01*
X156555000Y-114114670D01*
X156555000Y-114015210D01*
X156631433Y-113975252D01*
X156756830Y-113874430D01*
X156859360Y-113752239D01*
X156859360Y-113857469D01*
X156859360Y-113901790D01*
X156868006Y-113945260D01*
X156884967Y-113986207D01*
X156909591Y-114023059D01*
X156940930Y-114054399D01*
X156977782Y-114079022D01*
X157018729Y-114095983D01*
X157062199Y-114104630D01*
X157552550Y-114104630D01*
X157608800Y-114048380D01*
X157608800Y-113105000D01*
X157588800Y-113105000D01*
X157588800Y-112955000D01*
X157608800Y-112955000D01*
X157608800Y-112011620D01*
X157552550Y-111955370D01*
X157062199Y-111955370D01*
X157018729Y-111964017D01*
X156977782Y-111980978D01*
X156940930Y-112005601D01*
X156909591Y-112036941D01*
X156884967Y-112073793D01*
X156868006Y-112114740D01*
X156859360Y-112158210D01*
X156859360Y-112202531D01*
X156859360Y-112309379D01*
X156764998Y-112193681D01*
X156641021Y-112091118D01*
X156499483Y-112014589D01*
X156345777Y-111967009D01*
X156185756Y-111950190D01*
X156025515Y-111964773D01*
X155871159Y-112010203D01*
X155728567Y-112084748D01*
X155603170Y-112185570D01*
X155499743Y-112308829D01*
X155429529Y-112436547D01*
X155366694Y-112318372D01*
X155264998Y-112193681D01*
X155141021Y-112091118D01*
X154999483Y-112014589D01*
X154845777Y-111967009D01*
X154685756Y-111950190D01*
X154525515Y-111964773D01*
X154371159Y-112010203D01*
X154228567Y-112084748D01*
X154103170Y-112185570D01*
X153999743Y-112308829D01*
X153929529Y-112436547D01*
X153866694Y-112318372D01*
X153764998Y-112193681D01*
X153641021Y-112091118D01*
X153499483Y-112014589D01*
X153345777Y-111967009D01*
X153185756Y-111950190D01*
X153025515Y-111964773D01*
X152871159Y-112010203D01*
X152728567Y-112084748D01*
X152603170Y-112185570D01*
X152499743Y-112308829D01*
X152429529Y-112436547D01*
X152366694Y-112318372D01*
X152264998Y-112193681D01*
X152141021Y-112091118D01*
X152055000Y-112044606D01*
X152055000Y-111880370D01*
X152055000Y-111806696D01*
X152051629Y-111772317D01*
X152048602Y-111737714D01*
X152048049Y-111735813D01*
X152047858Y-111733858D01*
X152037861Y-111700745D01*
X152028182Y-111667433D01*
X152027275Y-111665683D01*
X152026705Y-111663795D01*
X152010450Y-111633224D01*
X151994502Y-111602457D01*
X151993270Y-111600913D01*
X151992345Y-111599174D01*
X151970453Y-111572331D01*
X151948842Y-111545260D01*
X151946136Y-111542516D01*
X151946089Y-111542458D01*
X151946035Y-111542413D01*
X151945165Y-111541531D01*
X151390469Y-110986835D01*
X151363729Y-110964870D01*
X151337167Y-110942582D01*
X151335436Y-110941630D01*
X151333915Y-110940381D01*
X151303407Y-110924022D01*
X151273032Y-110907324D01*
X151271153Y-110906728D01*
X151269415Y-110905796D01*
X151236305Y-110895673D01*
X151203271Y-110885195D01*
X151201308Y-110884974D01*
X151199425Y-110884399D01*
X151164951Y-110880896D01*
X151130540Y-110877037D01*
X151126689Y-110877009D01*
X151126613Y-110877002D01*
X151126541Y-110877008D01*
X151125304Y-110877000D01*
X142776172Y-110877000D01*
X142741793Y-110880370D01*
X142707190Y-110883398D01*
X142705289Y-110883950D01*
X142703334Y-110884142D01*
X142670221Y-110894138D01*
X142636909Y-110903818D01*
X142635159Y-110904724D01*
X142633271Y-110905295D01*
X142602661Y-110921570D01*
X142571933Y-110937499D01*
X142570393Y-110938727D01*
X142568650Y-110939655D01*
X142541749Y-110961593D01*
X142514736Y-110983159D01*
X142511993Y-110985862D01*
X142511934Y-110985911D01*
X142511888Y-110985966D01*
X142511007Y-110986835D01*
X141974835Y-111523007D01*
X141952870Y-111549746D01*
X141930582Y-111576309D01*
X141929630Y-111578039D01*
X141928381Y-111579561D01*
X141912022Y-111610068D01*
X141895324Y-111640444D01*
X141894728Y-111642322D01*
X141893796Y-111644061D01*
X141883673Y-111677170D01*
X141873195Y-111710205D01*
X141872974Y-111712167D01*
X141872399Y-111714051D01*
X141868896Y-111748524D01*
X141865037Y-111782936D01*
X141865009Y-111786786D01*
X141865002Y-111786863D01*
X141865008Y-111786934D01*
X141865000Y-111788172D01*
X141865000Y-111931440D01*
X141810076Y-111953631D01*
X141658532Y-112052799D01*
X141529135Y-112179514D01*
X141426815Y-112328948D01*
X141355470Y-112495410D01*
X141317815Y-112672560D01*
X141315287Y-112853650D01*
X141347980Y-113031783D01*
X141414650Y-113200172D01*
X141512758Y-113352405D01*
X141638565Y-113482683D01*
X141787282Y-113586044D01*
X141953242Y-113658550D01*
X142130125Y-113697440D01*
X142311193Y-113701233D01*
X142489549Y-113669784D01*
X142658400Y-113604291D01*
X142811314Y-113507249D01*
X142942467Y-113382353D01*
X143046863Y-113234362D01*
X143120527Y-113068912D01*
X143160651Y-112892305D01*
X143163539Y-112685446D01*
X143128362Y-112507788D01*
X143059347Y-112340345D01*
X142959124Y-112189497D01*
X142831509Y-112060988D01*
X142681364Y-111959714D01*
X142623226Y-111935275D01*
X142931502Y-111627000D01*
X150969973Y-111627000D01*
X151305000Y-111962026D01*
X151305000Y-112044789D01*
X151228567Y-112084748D01*
X151103170Y-112185570D01*
X150999743Y-112308829D01*
X150929529Y-112436547D01*
X150866694Y-112318372D01*
X150764998Y-112193681D01*
X150641021Y-112091118D01*
X150499483Y-112014589D01*
X150345777Y-111967009D01*
X150185756Y-111950190D01*
X150025515Y-111964773D01*
X149871159Y-112010203D01*
X149728567Y-112084748D01*
X149603170Y-112185570D01*
X149499743Y-112308829D01*
X149422228Y-112449829D01*
X149373576Y-112603199D01*
X149355640Y-112763099D01*
X149355560Y-112774610D01*
X149355560Y-113285390D01*
X149371261Y-113445525D01*
X149417767Y-113599560D01*
X149493306Y-113741628D01*
X149595002Y-113866319D01*
X149718979Y-113968882D01*
X149860517Y-114045411D01*
X150014223Y-114092991D01*
X150174244Y-114109810D01*
X150334485Y-114095227D01*
X150488841Y-114049797D01*
X150631433Y-113975252D01*
X150756830Y-113874430D01*
X150860257Y-113751171D01*
X150930470Y-113623452D01*
X150993306Y-113741628D01*
X151095002Y-113866319D01*
X151218979Y-113968882D01*
X151360517Y-114045411D01*
X151514223Y-114092991D01*
X151674244Y-114109810D01*
X151834485Y-114095227D01*
X151988841Y-114049797D01*
X152131433Y-113975252D01*
X152256830Y-113874430D01*
X152360257Y-113751171D01*
X152430470Y-113623452D01*
X152493306Y-113741628D01*
X152595002Y-113866319D01*
X152718979Y-113968882D01*
X152860517Y-114045411D01*
X153014223Y-114092991D01*
X153174244Y-114109810D01*
X153334485Y-114095227D01*
X153488841Y-114049797D01*
X153631433Y-113975252D01*
X153756830Y-113874430D01*
X153860257Y-113751171D01*
X153930470Y-113623452D01*
X153993306Y-113741628D01*
X154095002Y-113866319D01*
X154218979Y-113968882D01*
X154305000Y-114015393D01*
X154305000Y-114263470D01*
X152286489Y-116281981D01*
X152286489Y-115888400D01*
X152283521Y-115851889D01*
X152264575Y-115791299D01*
X152229531Y-115738364D01*
X152181153Y-115697259D01*
X152123254Y-115671224D01*
X152060400Y-115662311D01*
X151160400Y-115662311D01*
X151123889Y-115665279D01*
X151063299Y-115684225D01*
X151010364Y-115719269D01*
X150969259Y-115767647D01*
X150943224Y-115825546D01*
X150934311Y-115888400D01*
X150934311Y-115929400D01*
X150580489Y-115929400D01*
X150580489Y-115854400D01*
X150577521Y-115817889D01*
X150558575Y-115757299D01*
X150523531Y-115704364D01*
X150475153Y-115663259D01*
X150417254Y-115637224D01*
X150354400Y-115628311D01*
X148654400Y-115628311D01*
X148617889Y-115631279D01*
X148557299Y-115650225D01*
X148504364Y-115685269D01*
X148463259Y-115733647D01*
X148437224Y-115791546D01*
X148428311Y-115854400D01*
X148428311Y-116754400D01*
X148431279Y-116790911D01*
X148450225Y-116851501D01*
X148485269Y-116904436D01*
X148533647Y-116945541D01*
X148591546Y-116971576D01*
X148654400Y-116980489D01*
X150354400Y-116980489D01*
X150390911Y-116977521D01*
X150451501Y-116958575D01*
X150504436Y-116923531D01*
X150545541Y-116875153D01*
X150571576Y-116817254D01*
X150580489Y-116754400D01*
X150580489Y-116679400D01*
X150934311Y-116679400D01*
X150934311Y-117588400D01*
X150937279Y-117624911D01*
X150956225Y-117685501D01*
X150991269Y-117738436D01*
X151039647Y-117779541D01*
X151097546Y-117805576D01*
X151160400Y-117814489D01*
X152060400Y-117814489D01*
X152096911Y-117811521D01*
X152157501Y-117792575D01*
X152210436Y-117757531D01*
X152251541Y-117709153D01*
X152277576Y-117651254D01*
X152286489Y-117588400D01*
X152286489Y-117113400D01*
X152360400Y-117113400D01*
X152382655Y-117113400D01*
X152382310Y-117138143D01*
X152400896Y-117239410D01*
X152438797Y-117335137D01*
X152494570Y-117421680D01*
X152566091Y-117495742D01*
X152650635Y-117554501D01*
X152744981Y-117595720D01*
X152845537Y-117617829D01*
X152948472Y-117619985D01*
X153049866Y-117602107D01*
X153145856Y-117564875D01*
X153232786Y-117509707D01*
X153307345Y-117438706D01*
X153366693Y-117354574D01*
X153408570Y-117260517D01*
X153431380Y-117160118D01*
X153433022Y-117042521D01*
X153413024Y-116941524D01*
X153373790Y-116846335D01*
X153316814Y-116760579D01*
X153244267Y-116687523D01*
X153158911Y-116629950D01*
X153063998Y-116590052D01*
X153043322Y-116585807D01*
X154945165Y-114683965D01*
X154967111Y-114657247D01*
X154989418Y-114630663D01*
X154990371Y-114628929D01*
X154991619Y-114627410D01*
X155007965Y-114596924D01*
X155024676Y-114566528D01*
X155025272Y-114564649D01*
X155026204Y-114562911D01*
X155036339Y-114529760D01*
X155046805Y-114496767D01*
X155047024Y-114494809D01*
X155047602Y-114492921D01*
X155051108Y-114458397D01*
X155054963Y-114424036D01*
X155054990Y-114420185D01*
X155054998Y-114420109D01*
X155054991Y-114420037D01*
X155055000Y-114418800D01*
X155055000Y-114015210D01*
X155131433Y-113975252D01*
X155256830Y-113874430D01*
X155360257Y-113751171D01*
X155430470Y-113623452D01*
X155493306Y-113741628D01*
X155595002Y-113866319D01*
X155718979Y-113968882D01*
X155805000Y-114015393D01*
X155805000Y-114270000D01*
X155808380Y-114304473D01*
X155811399Y-114338982D01*
X155811949Y-114340877D01*
X155812142Y-114342838D01*
X155822151Y-114375991D01*
X155831818Y-114409263D01*
X155832724Y-114411012D01*
X155833295Y-114412901D01*
X155849570Y-114443510D01*
X155865499Y-114474239D01*
X155866727Y-114475778D01*
X155867655Y-114477522D01*
X155889593Y-114504422D01*
X155911159Y-114531436D01*
X155913862Y-114534178D01*
X155913911Y-114534238D01*
X155913966Y-114534283D01*
X155914835Y-114535165D01*
X156749400Y-115369730D01*
X156749400Y-115628311D01*
X156274400Y-115628311D01*
X156237889Y-115631279D01*
X156177299Y-115650225D01*
X156124364Y-115685269D01*
X156083259Y-115733647D01*
X156057224Y-115791546D01*
X156048311Y-115854400D01*
X156048311Y-116754400D01*
X156051279Y-116790911D01*
X156070225Y-116851501D01*
X156105269Y-116904436D01*
X156153647Y-116945541D01*
X156211546Y-116971576D01*
X156274400Y-116980489D01*
X157974400Y-116980489D01*
X158010911Y-116977521D01*
X158071501Y-116958575D01*
X158124436Y-116923531D01*
X158165541Y-116875153D01*
X158191576Y-116817254D01*
X158200489Y-116754400D01*
X158200489Y-116679400D01*
X158554311Y-116679400D01*
X158554311Y-117588400D01*
X158557279Y-117624911D01*
X158576225Y-117685501D01*
X158611269Y-117738436D01*
X158659647Y-117779541D01*
X158717546Y-117805576D01*
X158780400Y-117814489D01*
X159680400Y-117814489D01*
X159716911Y-117811521D01*
X159777501Y-117792575D01*
X159830436Y-117757531D01*
X159871541Y-117709153D01*
X159897576Y-117651254D01*
X159906489Y-117588400D01*
X159906489Y-117271216D01*
X159931797Y-117335137D01*
X159987570Y-117421680D01*
X160059091Y-117495742D01*
X160143635Y-117554501D01*
X160237981Y-117595720D01*
X160338537Y-117617829D01*
X160441472Y-117619985D01*
X160542866Y-117602107D01*
X160638856Y-117564875D01*
X160725786Y-117509707D01*
X160800345Y-117438706D01*
X160859693Y-117354574D01*
X160901570Y-117260517D01*
X160924380Y-117160118D01*
X160926022Y-117042521D01*
X160926022Y-122450393D01*
X160799022Y-122416363D01*
X160799022Y-119074521D01*
X160779024Y-118973524D01*
X160739790Y-118878335D01*
X160682814Y-118792579D01*
X160610267Y-118719523D01*
X160524911Y-118661950D01*
X160429998Y-118622052D01*
X160329143Y-118601350D01*
X160226188Y-118600631D01*
X160125054Y-118619924D01*
X160029593Y-118658492D01*
X159943441Y-118714868D01*
X159906489Y-118751054D01*
X159906489Y-118428400D01*
X159903521Y-118391889D01*
X159884575Y-118331299D01*
X159849531Y-118278364D01*
X159801153Y-118237259D01*
X159743254Y-118211224D01*
X159680400Y-118202311D01*
X158780400Y-118202311D01*
X158743889Y-118205279D01*
X158683299Y-118224225D01*
X158630364Y-118259269D01*
X158589259Y-118307647D01*
X158563224Y-118365546D01*
X158554311Y-118428400D01*
X158554311Y-120128400D01*
X158557279Y-120164911D01*
X158576225Y-120225501D01*
X158611269Y-120278436D01*
X158659647Y-120319541D01*
X158717546Y-120345576D01*
X158780400Y-120354489D01*
X159680400Y-120354489D01*
X159716911Y-120351521D01*
X159777501Y-120332575D01*
X159830436Y-120297531D01*
X159871541Y-120249153D01*
X159897576Y-120191254D01*
X159906489Y-120128400D01*
X159906489Y-119753400D01*
X160121600Y-119753400D01*
X160165290Y-119749116D01*
X160208977Y-119745294D01*
X160211372Y-119744597D01*
X160213861Y-119744354D01*
X160255896Y-119731662D01*
X160298000Y-119719430D01*
X160300216Y-119718281D01*
X160302608Y-119717559D01*
X160341373Y-119696947D01*
X160380304Y-119676768D01*
X160382253Y-119675211D01*
X160384461Y-119674038D01*
X160418443Y-119646322D01*
X160450643Y-119620617D01*
X160511856Y-119596875D01*
X160598786Y-119541707D01*
X160673345Y-119470706D01*
X160732693Y-119386574D01*
X160774570Y-119292517D01*
X160797380Y-119192118D01*
X160799022Y-119074521D01*
X160799022Y-122416363D01*
X160647281Y-122375705D01*
X160611246Y-122369122D01*
X160547817Y-122371740D01*
X160487616Y-122391890D01*
X160435390Y-122427981D01*
X160395257Y-122477168D01*
X160370380Y-122535574D01*
X160099044Y-123548212D01*
X158473178Y-123109750D01*
X158448602Y-123105640D01*
X158424072Y-123101186D01*
X158420243Y-123100898D01*
X158420242Y-123100898D01*
X158200489Y-123085945D01*
X158200489Y-119654400D01*
X158200489Y-118754400D01*
X158197521Y-118717889D01*
X158178575Y-118657299D01*
X158143531Y-118604364D01*
X158095153Y-118563259D01*
X158037254Y-118537224D01*
X157974400Y-118528311D01*
X157599400Y-118528311D01*
X157599400Y-118262400D01*
X157595116Y-118218709D01*
X157591294Y-118175023D01*
X157590597Y-118172627D01*
X157590354Y-118170139D01*
X157577662Y-118128103D01*
X157565430Y-118086000D01*
X157564281Y-118083783D01*
X157563559Y-118081392D01*
X157542947Y-118042626D01*
X157522768Y-118003696D01*
X157521211Y-118001746D01*
X157520038Y-117999539D01*
X157492322Y-117965556D01*
X157467538Y-117934509D01*
X157437790Y-117862335D01*
X157380814Y-117776579D01*
X157308267Y-117703523D01*
X157222911Y-117645950D01*
X157127998Y-117606052D01*
X157027143Y-117585350D01*
X156924188Y-117584631D01*
X156823054Y-117603924D01*
X156727593Y-117642492D01*
X156641441Y-117698868D01*
X156567881Y-117770904D01*
X156509713Y-117855856D01*
X156469154Y-117950488D01*
X156447748Y-118051196D01*
X156446310Y-118154143D01*
X156464896Y-118255410D01*
X156502797Y-118351137D01*
X156558570Y-118437680D01*
X156630091Y-118511742D01*
X156649400Y-118525161D01*
X156649400Y-118528311D01*
X156274400Y-118528311D01*
X156237889Y-118531279D01*
X156177299Y-118550225D01*
X156124364Y-118585269D01*
X156083259Y-118633647D01*
X156057224Y-118691546D01*
X156048311Y-118754400D01*
X156048311Y-119654400D01*
X156051279Y-119690911D01*
X156070225Y-119751501D01*
X156105269Y-119804436D01*
X156153647Y-119845541D01*
X156211546Y-119871576D01*
X156274400Y-119880489D01*
X157974400Y-119880489D01*
X158010911Y-119877521D01*
X158071501Y-119858575D01*
X158124436Y-119823531D01*
X158165541Y-119775153D01*
X158191576Y-119717254D01*
X158200489Y-119654400D01*
X158200489Y-123085945D01*
X155185400Y-122880796D01*
X155185400Y-120150560D01*
X155185400Y-120106239D01*
X155185400Y-119409650D01*
X155185400Y-119147150D01*
X155185400Y-118450561D01*
X155185400Y-118406240D01*
X155185400Y-117610560D01*
X155185400Y-117566239D01*
X155185400Y-116869650D01*
X155185400Y-116607150D01*
X155185400Y-115910561D01*
X155185400Y-115866240D01*
X155176754Y-115822770D01*
X155159793Y-115781823D01*
X155135169Y-115744971D01*
X155103830Y-115713631D01*
X155066978Y-115689008D01*
X155026031Y-115672047D01*
X154982561Y-115663400D01*
X154641650Y-115663400D01*
X154585400Y-115719650D01*
X154585400Y-116663400D01*
X155129150Y-116663400D01*
X155185400Y-116607150D01*
X155185400Y-116869650D01*
X155129150Y-116813400D01*
X154585400Y-116813400D01*
X154585400Y-117757150D01*
X154641650Y-117813400D01*
X154982561Y-117813400D01*
X155026031Y-117804753D01*
X155066978Y-117787792D01*
X155103830Y-117763169D01*
X155135169Y-117731829D01*
X155159793Y-117694977D01*
X155176754Y-117654030D01*
X155185400Y-117610560D01*
X155185400Y-118406240D01*
X155176754Y-118362770D01*
X155159793Y-118321823D01*
X155135169Y-118284971D01*
X155103830Y-118253631D01*
X155066978Y-118229008D01*
X155026031Y-118212047D01*
X154982561Y-118203400D01*
X154641650Y-118203400D01*
X154585400Y-118259650D01*
X154585400Y-119203400D01*
X155129150Y-119203400D01*
X155185400Y-119147150D01*
X155185400Y-119409650D01*
X155129150Y-119353400D01*
X154585400Y-119353400D01*
X154585400Y-120297150D01*
X154641650Y-120353400D01*
X154982561Y-120353400D01*
X155026031Y-120344753D01*
X155066978Y-120327792D01*
X155103830Y-120303169D01*
X155135169Y-120271829D01*
X155159793Y-120234977D01*
X155176754Y-120194030D01*
X155185400Y-120150560D01*
X155185400Y-122880796D01*
X154785964Y-122853618D01*
X154809846Y-122838463D01*
X154919910Y-122733651D01*
X155007519Y-122609457D01*
X155069337Y-122470612D01*
X155103009Y-122322403D01*
X155105433Y-122148807D01*
X155075913Y-121999716D01*
X155017995Y-121859199D01*
X154933888Y-121732607D01*
X154826794Y-121624763D01*
X154700792Y-121539774D01*
X154560683Y-121480877D01*
X154435400Y-121455159D01*
X154435400Y-120297150D01*
X154435400Y-119353400D01*
X154435400Y-119203400D01*
X154435400Y-118259650D01*
X154435400Y-117757150D01*
X154435400Y-116813400D01*
X154435400Y-116663400D01*
X154435400Y-115719650D01*
X154379150Y-115663400D01*
X154038239Y-115663400D01*
X153994769Y-115672047D01*
X153953822Y-115689008D01*
X153916970Y-115713631D01*
X153885631Y-115744971D01*
X153861007Y-115781823D01*
X153844046Y-115822770D01*
X153835400Y-115866240D01*
X153835400Y-115910561D01*
X153835400Y-116607150D01*
X153891650Y-116663400D01*
X154435400Y-116663400D01*
X154435400Y-116813400D01*
X153891650Y-116813400D01*
X153835400Y-116869650D01*
X153835400Y-117566239D01*
X153835400Y-117610560D01*
X153844046Y-117654030D01*
X153861007Y-117694977D01*
X153885631Y-117731829D01*
X153916970Y-117763169D01*
X153953822Y-117787792D01*
X153994769Y-117804753D01*
X154038239Y-117813400D01*
X154379150Y-117813400D01*
X154435400Y-117757150D01*
X154435400Y-118259650D01*
X154379150Y-118203400D01*
X154038239Y-118203400D01*
X153994769Y-118212047D01*
X153953822Y-118229008D01*
X153916970Y-118253631D01*
X153885631Y-118284971D01*
X153861007Y-118321823D01*
X153844046Y-118362770D01*
X153835400Y-118406240D01*
X153835400Y-118450561D01*
X153835400Y-119147150D01*
X153891650Y-119203400D01*
X154435400Y-119203400D01*
X154435400Y-119353400D01*
X153891650Y-119353400D01*
X153835400Y-119409650D01*
X153835400Y-120106239D01*
X153835400Y-120150560D01*
X153844046Y-120194030D01*
X153861007Y-120234977D01*
X153885631Y-120271829D01*
X153916970Y-120303169D01*
X153953822Y-120327792D01*
X153994769Y-120344753D01*
X154038239Y-120353400D01*
X154379150Y-120353400D01*
X154435400Y-120297150D01*
X154435400Y-121455159D01*
X154411802Y-121450316D01*
X154259820Y-121449255D01*
X154110527Y-121477734D01*
X153969608Y-121534669D01*
X153842432Y-121617891D01*
X153733843Y-121724229D01*
X153680597Y-121801991D01*
X153621558Y-121769708D01*
X153515492Y-121875774D01*
X153166466Y-122224800D01*
X153180608Y-122238942D01*
X153074542Y-122345008D01*
X153060400Y-122330866D01*
X153046257Y-122345008D01*
X152940191Y-122238942D01*
X152954334Y-122224800D01*
X152940191Y-122210657D01*
X153046257Y-122104591D01*
X153060400Y-122118734D01*
X153515492Y-121663642D01*
X153455333Y-121553623D01*
X153316805Y-121489472D01*
X153179022Y-121456142D01*
X153179022Y-119328521D01*
X153159024Y-119227524D01*
X153119790Y-119132335D01*
X153062814Y-119046579D01*
X152990267Y-118973523D01*
X152904911Y-118915950D01*
X152809998Y-118876052D01*
X152797704Y-118873528D01*
X152777957Y-118862940D01*
X152739522Y-118841811D01*
X152737139Y-118841055D01*
X152734940Y-118839876D01*
X152692983Y-118827047D01*
X152651158Y-118813780D01*
X152648678Y-118813501D01*
X152646288Y-118812771D01*
X152602636Y-118808337D01*
X152559032Y-118803446D01*
X152554147Y-118803412D01*
X152554058Y-118803403D01*
X152553974Y-118803410D01*
X152552400Y-118803400D01*
X152286489Y-118803400D01*
X152286489Y-118428400D01*
X152283521Y-118391889D01*
X152264575Y-118331299D01*
X152229531Y-118278364D01*
X152181153Y-118237259D01*
X152123254Y-118211224D01*
X152060400Y-118202311D01*
X151160400Y-118202311D01*
X151123889Y-118205279D01*
X151063299Y-118224225D01*
X151010364Y-118259269D01*
X150969259Y-118307647D01*
X150943224Y-118365546D01*
X150934311Y-118428400D01*
X150934311Y-120128400D01*
X150937279Y-120164911D01*
X150956225Y-120225501D01*
X150991269Y-120278436D01*
X151039647Y-120319541D01*
X151097546Y-120345576D01*
X151160400Y-120354489D01*
X152060400Y-120354489D01*
X152096911Y-120351521D01*
X152157501Y-120332575D01*
X152210436Y-120297531D01*
X152251541Y-120249153D01*
X152277576Y-120191254D01*
X152286489Y-120128400D01*
X152286489Y-119755230D01*
X152312091Y-119781742D01*
X152396635Y-119840501D01*
X152490981Y-119881720D01*
X152591537Y-119903829D01*
X152694472Y-119905985D01*
X152795866Y-119888107D01*
X152891856Y-119850875D01*
X152978786Y-119795707D01*
X153053345Y-119724706D01*
X153112693Y-119640574D01*
X153154570Y-119546517D01*
X153177380Y-119446118D01*
X153179022Y-119328521D01*
X153179022Y-121456142D01*
X153168423Y-121453579D01*
X153015889Y-121447323D01*
X152865066Y-121470946D01*
X152721750Y-121523540D01*
X152665467Y-121553623D01*
X152605309Y-121663640D01*
X152563032Y-121621363D01*
X152559372Y-121625022D01*
X152544575Y-121577699D01*
X152509531Y-121524764D01*
X152461153Y-121483659D01*
X152403254Y-121457624D01*
X152340400Y-121448711D01*
X151240400Y-121448711D01*
X151203889Y-121451679D01*
X151143299Y-121470625D01*
X151090364Y-121505669D01*
X151049259Y-121554047D01*
X151023224Y-121611946D01*
X151014311Y-121674800D01*
X151014311Y-122774800D01*
X151016598Y-122802942D01*
X150580489Y-122858867D01*
X150580489Y-119654400D01*
X150580489Y-118754400D01*
X150577521Y-118717889D01*
X150558575Y-118657299D01*
X150523531Y-118604364D01*
X150475153Y-118563259D01*
X150417254Y-118537224D01*
X150354400Y-118528311D01*
X149979400Y-118528311D01*
X149979400Y-118262400D01*
X149975116Y-118218709D01*
X149971294Y-118175023D01*
X149970597Y-118172627D01*
X149970354Y-118170139D01*
X149957662Y-118128103D01*
X149945430Y-118086000D01*
X149944281Y-118083783D01*
X149943559Y-118081392D01*
X149922947Y-118042626D01*
X149902768Y-118003696D01*
X149901211Y-118001746D01*
X149900038Y-117999539D01*
X149872322Y-117965556D01*
X149847538Y-117934509D01*
X149817790Y-117862335D01*
X149760814Y-117776579D01*
X149688267Y-117703523D01*
X149602911Y-117645950D01*
X149507998Y-117606052D01*
X149407143Y-117585350D01*
X149304188Y-117584631D01*
X149203054Y-117603924D01*
X149107593Y-117642492D01*
X149021441Y-117698868D01*
X148947881Y-117770904D01*
X148889713Y-117855856D01*
X148849154Y-117950488D01*
X148827748Y-118051196D01*
X148826310Y-118154143D01*
X148844896Y-118255410D01*
X148882797Y-118351137D01*
X148938570Y-118437680D01*
X149010091Y-118511742D01*
X149029400Y-118525161D01*
X149029400Y-118528311D01*
X148654400Y-118528311D01*
X148617889Y-118531279D01*
X148557299Y-118550225D01*
X148504364Y-118585269D01*
X148463259Y-118633647D01*
X148437224Y-118691546D01*
X148428311Y-118754400D01*
X148428311Y-119654400D01*
X148431279Y-119690911D01*
X148450225Y-119751501D01*
X148485269Y-119804436D01*
X148533647Y-119845541D01*
X148591546Y-119871576D01*
X148654400Y-119880489D01*
X150354400Y-119880489D01*
X150390911Y-119877521D01*
X150451501Y-119858575D01*
X150504436Y-119823531D01*
X150545541Y-119775153D01*
X150571576Y-119717254D01*
X150580489Y-119654400D01*
X150580489Y-122858867D01*
X146549400Y-123375802D01*
X146549400Y-121674560D01*
X146549400Y-121630239D01*
X146549400Y-120933650D01*
X146549400Y-120671150D01*
X146549400Y-119974561D01*
X146549400Y-119930240D01*
X146549400Y-119134560D01*
X146549400Y-119090239D01*
X146549400Y-118393650D01*
X146549400Y-118131150D01*
X146549400Y-117434561D01*
X146549400Y-117390240D01*
X146540754Y-117346770D01*
X146523793Y-117305823D01*
X146499169Y-117268971D01*
X146467830Y-117237631D01*
X146430978Y-117213008D01*
X146390031Y-117196047D01*
X146346561Y-117187400D01*
X146110089Y-117187400D01*
X146110089Y-112792000D01*
X146110089Y-111892000D01*
X146107121Y-111855489D01*
X146088175Y-111794899D01*
X146053131Y-111741964D01*
X146004753Y-111700859D01*
X145946854Y-111674824D01*
X145884000Y-111665911D01*
X144184000Y-111665911D01*
X144147489Y-111668879D01*
X144086899Y-111687825D01*
X144033964Y-111722869D01*
X143992859Y-111771247D01*
X143966824Y-111829146D01*
X143957911Y-111892000D01*
X143957911Y-112792000D01*
X143960879Y-112828511D01*
X143979825Y-112889101D01*
X144014869Y-112942036D01*
X144063247Y-112983141D01*
X144121146Y-113009176D01*
X144184000Y-113018089D01*
X144559000Y-113018089D01*
X144559000Y-113059517D01*
X144531154Y-113124488D01*
X144509748Y-113225196D01*
X144508310Y-113328143D01*
X144526896Y-113429410D01*
X144564797Y-113525137D01*
X144620570Y-113611680D01*
X144692091Y-113685742D01*
X144776635Y-113744501D01*
X144870981Y-113785720D01*
X144971537Y-113807829D01*
X145074472Y-113809985D01*
X145175866Y-113792107D01*
X145271856Y-113754875D01*
X145358786Y-113699707D01*
X145433345Y-113628706D01*
X145492693Y-113544574D01*
X145534570Y-113450517D01*
X145557380Y-113350118D01*
X145559022Y-113232521D01*
X145539024Y-113131524D01*
X145509000Y-113058680D01*
X145509000Y-113018089D01*
X145884000Y-113018089D01*
X145920511Y-113015121D01*
X145981101Y-112996175D01*
X146034036Y-112961131D01*
X146075141Y-112912753D01*
X146101176Y-112854854D01*
X146110089Y-112792000D01*
X146110089Y-117187400D01*
X146109000Y-117187400D01*
X146109000Y-115714161D01*
X146109000Y-115373250D01*
X146109000Y-115110750D01*
X146109000Y-114769839D01*
X146100353Y-114726369D01*
X146083392Y-114685422D01*
X146058769Y-114648570D01*
X146027429Y-114617231D01*
X145990577Y-114592607D01*
X145949630Y-114575646D01*
X145906160Y-114567000D01*
X145861839Y-114567000D01*
X145165250Y-114567000D01*
X145109000Y-114623250D01*
X145109000Y-115167000D01*
X146052750Y-115167000D01*
X146109000Y-115110750D01*
X146109000Y-115373250D01*
X146052750Y-115317000D01*
X145109000Y-115317000D01*
X145109000Y-115860750D01*
X145165250Y-115917000D01*
X145861839Y-115917000D01*
X145906160Y-115917000D01*
X145949630Y-115908354D01*
X145990577Y-115891393D01*
X146027429Y-115866769D01*
X146058769Y-115835430D01*
X146083392Y-115798578D01*
X146100353Y-115757631D01*
X146109000Y-115714161D01*
X146109000Y-117187400D01*
X146005650Y-117187400D01*
X145949400Y-117243650D01*
X145949400Y-118187400D01*
X146493150Y-118187400D01*
X146549400Y-118131150D01*
X146549400Y-118393650D01*
X146493150Y-118337400D01*
X145949400Y-118337400D01*
X145949400Y-119281150D01*
X146005650Y-119337400D01*
X146346561Y-119337400D01*
X146390031Y-119328753D01*
X146430978Y-119311792D01*
X146467830Y-119287169D01*
X146499169Y-119255829D01*
X146523793Y-119218977D01*
X146540754Y-119178030D01*
X146549400Y-119134560D01*
X146549400Y-119930240D01*
X146540754Y-119886770D01*
X146523793Y-119845823D01*
X146499169Y-119808971D01*
X146467830Y-119777631D01*
X146430978Y-119753008D01*
X146390031Y-119736047D01*
X146346561Y-119727400D01*
X146005650Y-119727400D01*
X145949400Y-119783650D01*
X145949400Y-120727400D01*
X146493150Y-120727400D01*
X146549400Y-120671150D01*
X146549400Y-120933650D01*
X146493150Y-120877400D01*
X145949400Y-120877400D01*
X145949400Y-121821150D01*
X146005650Y-121877400D01*
X146346561Y-121877400D01*
X146390031Y-121868753D01*
X146430978Y-121851792D01*
X146467830Y-121827169D01*
X146499169Y-121795829D01*
X146523793Y-121758977D01*
X146540754Y-121718030D01*
X146549400Y-121674560D01*
X146549400Y-123375802D01*
X145894262Y-123459815D01*
X145915735Y-123365303D01*
X145918159Y-123191707D01*
X145888639Y-123042616D01*
X145830721Y-122902099D01*
X145799400Y-122854956D01*
X145799400Y-121821150D01*
X145799400Y-120877400D01*
X145799400Y-120727400D01*
X145799400Y-119783650D01*
X145799400Y-119281150D01*
X145799400Y-118337400D01*
X145799400Y-118187400D01*
X145799400Y-117243650D01*
X145743150Y-117187400D01*
X145402239Y-117187400D01*
X145358769Y-117196047D01*
X145317822Y-117213008D01*
X145280970Y-117237631D01*
X145249631Y-117268971D01*
X145225007Y-117305823D01*
X145208046Y-117346770D01*
X145199400Y-117390240D01*
X145199400Y-117434561D01*
X145199400Y-118131150D01*
X145255650Y-118187400D01*
X145799400Y-118187400D01*
X145799400Y-118337400D01*
X145255650Y-118337400D01*
X145199400Y-118393650D01*
X145199400Y-119090239D01*
X145199400Y-119134560D01*
X145208046Y-119178030D01*
X145225007Y-119218977D01*
X145249631Y-119255829D01*
X145280970Y-119287169D01*
X145317822Y-119311792D01*
X145358769Y-119328753D01*
X145402239Y-119337400D01*
X145743150Y-119337400D01*
X145799400Y-119281150D01*
X145799400Y-119783650D01*
X145743150Y-119727400D01*
X145402239Y-119727400D01*
X145358769Y-119736047D01*
X145317822Y-119753008D01*
X145280970Y-119777631D01*
X145249631Y-119808971D01*
X145225007Y-119845823D01*
X145208046Y-119886770D01*
X145199400Y-119930240D01*
X145199400Y-119974561D01*
X145199400Y-120671150D01*
X145255650Y-120727400D01*
X145799400Y-120727400D01*
X145799400Y-120877400D01*
X145255650Y-120877400D01*
X145199400Y-120933650D01*
X145199400Y-121630239D01*
X145199400Y-121674560D01*
X145208046Y-121718030D01*
X145225007Y-121758977D01*
X145249631Y-121795829D01*
X145280970Y-121827169D01*
X145317822Y-121851792D01*
X145358769Y-121868753D01*
X145402239Y-121877400D01*
X145743150Y-121877400D01*
X145799400Y-121821150D01*
X145799400Y-122854956D01*
X145746614Y-122775507D01*
X145639520Y-122667663D01*
X145513518Y-122582674D01*
X145373409Y-122523777D01*
X145224528Y-122493216D01*
X145072546Y-122492155D01*
X145068547Y-122492917D01*
X145068547Y-119231547D01*
X145065171Y-119197118D01*
X145062148Y-119162565D01*
X145061597Y-119160669D01*
X145061405Y-119158709D01*
X145051395Y-119125555D01*
X145041729Y-119092284D01*
X145040822Y-119090534D01*
X145040252Y-119088646D01*
X145023976Y-119058036D01*
X145008048Y-119027308D01*
X145006819Y-119025768D01*
X145005892Y-119024025D01*
X144983953Y-118997124D01*
X144962388Y-118970111D01*
X144959684Y-118967368D01*
X144959636Y-118967309D01*
X144959580Y-118967263D01*
X144958712Y-118966382D01*
X144261830Y-118269500D01*
X144531086Y-118000243D01*
X144566472Y-118000985D01*
X144667866Y-117983107D01*
X144763856Y-117945875D01*
X144850786Y-117890707D01*
X144925345Y-117819706D01*
X144984693Y-117735574D01*
X145026570Y-117641517D01*
X145049380Y-117541118D01*
X145051022Y-117423521D01*
X145031024Y-117322524D01*
X144991790Y-117227335D01*
X144959000Y-117177981D01*
X144959000Y-115860750D01*
X144959000Y-115317000D01*
X144959000Y-115167000D01*
X144959000Y-114623250D01*
X144902750Y-114567000D01*
X144206161Y-114567000D01*
X144161840Y-114567000D01*
X144118370Y-114575646D01*
X144077423Y-114592607D01*
X144040571Y-114617231D01*
X144009231Y-114648570D01*
X143984608Y-114685422D01*
X143967647Y-114726369D01*
X143959000Y-114769839D01*
X143959000Y-115110750D01*
X144015250Y-115167000D01*
X144959000Y-115167000D01*
X144959000Y-115317000D01*
X144015250Y-115317000D01*
X143959000Y-115373250D01*
X143959000Y-115714161D01*
X143967647Y-115757631D01*
X143984608Y-115798578D01*
X144009231Y-115835430D01*
X144040571Y-115866769D01*
X144077423Y-115891393D01*
X144118370Y-115908354D01*
X144161840Y-115917000D01*
X144206161Y-115917000D01*
X144902750Y-115917000D01*
X144959000Y-115860750D01*
X144959000Y-117177981D01*
X144934814Y-117141579D01*
X144862267Y-117068523D01*
X144776911Y-117010950D01*
X144681998Y-116971052D01*
X144581143Y-116950350D01*
X144478188Y-116949631D01*
X144377054Y-116968924D01*
X144281593Y-117007492D01*
X144195441Y-117063868D01*
X144121881Y-117135904D01*
X144063713Y-117220856D01*
X144023154Y-117315488D01*
X144001748Y-117416196D01*
X144001001Y-117469668D01*
X143650489Y-117820181D01*
X143650489Y-117412400D01*
X143647521Y-117375889D01*
X143628575Y-117315299D01*
X143593531Y-117262364D01*
X143545153Y-117221259D01*
X143487254Y-117195224D01*
X143424400Y-117186311D01*
X143167163Y-117186311D01*
X143167163Y-115277371D01*
X143141811Y-115097232D01*
X143081804Y-114925501D01*
X143032370Y-114833015D01*
X142907145Y-114754921D01*
X142801079Y-114860987D01*
X142801079Y-114648855D01*
X142722985Y-114523630D01*
X142559121Y-114444630D01*
X142382993Y-114399117D01*
X142201371Y-114388837D01*
X142021232Y-114414189D01*
X141849501Y-114474196D01*
X141757015Y-114523630D01*
X141678921Y-114648855D01*
X142240000Y-115209934D01*
X142801079Y-114648855D01*
X142801079Y-114860987D01*
X142346066Y-115316000D01*
X142907145Y-115877079D01*
X143032370Y-115798985D01*
X143111370Y-115635121D01*
X143156883Y-115458993D01*
X143167163Y-115277371D01*
X143167163Y-117186311D01*
X142801079Y-117186311D01*
X142801079Y-115983145D01*
X142240000Y-115422066D01*
X142133934Y-115528132D01*
X142133934Y-115316000D01*
X141572855Y-114754921D01*
X141447630Y-114833015D01*
X141368630Y-114996879D01*
X141323117Y-115173007D01*
X141312837Y-115354629D01*
X141338189Y-115534768D01*
X141398196Y-115706499D01*
X141447630Y-115798985D01*
X141572855Y-115877079D01*
X142133934Y-115316000D01*
X142133934Y-115528132D01*
X141678921Y-115983145D01*
X141757015Y-116108370D01*
X141920879Y-116187370D01*
X142097007Y-116232883D01*
X142278629Y-116243163D01*
X142458768Y-116217811D01*
X142630499Y-116157804D01*
X142722985Y-116108370D01*
X142801079Y-115983145D01*
X142801079Y-117186311D01*
X142524400Y-117186311D01*
X142487889Y-117189279D01*
X142427299Y-117208225D01*
X142374364Y-117243269D01*
X142333259Y-117291647D01*
X142307224Y-117349546D01*
X142298311Y-117412400D01*
X142298311Y-119112400D01*
X142301279Y-119148911D01*
X142320225Y-119209501D01*
X142355269Y-119262436D01*
X142403647Y-119303541D01*
X142461546Y-119329576D01*
X142524400Y-119338489D01*
X143424400Y-119338489D01*
X143460911Y-119335521D01*
X143521501Y-119316575D01*
X143574436Y-119281531D01*
X143615541Y-119233153D01*
X143641576Y-119175254D01*
X143650489Y-119112400D01*
X143650489Y-118718819D01*
X144318547Y-119386877D01*
X144318547Y-120473429D01*
X144268911Y-120439950D01*
X144173998Y-120400052D01*
X144161704Y-120397528D01*
X144141957Y-120386940D01*
X144103522Y-120365811D01*
X144101139Y-120365055D01*
X144098940Y-120363876D01*
X144056983Y-120351047D01*
X144015158Y-120337780D01*
X144012678Y-120337501D01*
X144010288Y-120336771D01*
X143966636Y-120332337D01*
X143923032Y-120327446D01*
X143918147Y-120327412D01*
X143918058Y-120327403D01*
X143917974Y-120327410D01*
X143916400Y-120327400D01*
X143650489Y-120327400D01*
X143650489Y-119952400D01*
X143647521Y-119915889D01*
X143628575Y-119855299D01*
X143593531Y-119802364D01*
X143545153Y-119761259D01*
X143487254Y-119735224D01*
X143424400Y-119726311D01*
X142524400Y-119726311D01*
X142487889Y-119729279D01*
X142427299Y-119748225D01*
X142374364Y-119783269D01*
X142333259Y-119831647D01*
X142307224Y-119889546D01*
X142298311Y-119952400D01*
X142298311Y-121652400D01*
X142301279Y-121688911D01*
X142320225Y-121749501D01*
X142325851Y-121758000D01*
X141760330Y-121758000D01*
X141657165Y-121654835D01*
X141630425Y-121632870D01*
X141603863Y-121610582D01*
X141602132Y-121609630D01*
X141600611Y-121608381D01*
X141570103Y-121592022D01*
X141539728Y-121575324D01*
X141537849Y-121574728D01*
X141536111Y-121573796D01*
X141503001Y-121563673D01*
X141469967Y-121553195D01*
X141468004Y-121552974D01*
X141466121Y-121552399D01*
X141431647Y-121548896D01*
X141397236Y-121545037D01*
X141393385Y-121545009D01*
X141393309Y-121545002D01*
X141393237Y-121545008D01*
X141392000Y-121545000D01*
X141318089Y-121545000D01*
X141318089Y-121070000D01*
X141315121Y-121033489D01*
X141296175Y-120972899D01*
X141261131Y-120919964D01*
X141212753Y-120878859D01*
X141154854Y-120852824D01*
X141092000Y-120843911D01*
X140282074Y-120843911D01*
X140282074Y-117178855D01*
X140216367Y-116847008D01*
X140087455Y-116534243D01*
X139900248Y-116252474D01*
X139661877Y-116012433D01*
X139381422Y-115823264D01*
X139069565Y-115692171D01*
X138738184Y-115624148D01*
X138399902Y-115621787D01*
X138067604Y-115685176D01*
X137753947Y-115811902D01*
X137470878Y-115997137D01*
X137229179Y-116233826D01*
X137038056Y-116512954D01*
X136904790Y-116823888D01*
X136834455Y-117154786D01*
X136829732Y-117493043D01*
X136890800Y-117825775D01*
X137015333Y-118140309D01*
X137198587Y-118424665D01*
X137433583Y-118668010D01*
X137711370Y-118861077D01*
X138021366Y-118996511D01*
X138351765Y-119069154D01*
X138689981Y-119076238D01*
X139023131Y-119017495D01*
X139338527Y-118895161D01*
X139624155Y-118713896D01*
X139869135Y-118480605D01*
X140064136Y-118204173D01*
X140201731Y-117895129D01*
X140276679Y-117565246D01*
X140282074Y-117178855D01*
X140282074Y-120843911D01*
X140192000Y-120843911D01*
X140155489Y-120846879D01*
X140094899Y-120865825D01*
X140041964Y-120900869D01*
X140000859Y-120949247D01*
X139974824Y-121007146D01*
X139965911Y-121070000D01*
X139965911Y-122770000D01*
X139968879Y-122806511D01*
X139987825Y-122867101D01*
X140022869Y-122920036D01*
X140071247Y-122961141D01*
X140129146Y-122987176D01*
X140192000Y-122996089D01*
X141092000Y-122996089D01*
X141128511Y-122993121D01*
X141189101Y-122974175D01*
X141242036Y-122939131D01*
X141283141Y-122890753D01*
X141309176Y-122832854D01*
X141318089Y-122770000D01*
X141318089Y-122376419D01*
X141339835Y-122398165D01*
X141366574Y-122420129D01*
X141393137Y-122442418D01*
X141394867Y-122443369D01*
X141396389Y-122444619D01*
X141426880Y-122460968D01*
X141457272Y-122477676D01*
X141459152Y-122478272D01*
X141460888Y-122479203D01*
X141493966Y-122489316D01*
X141527033Y-122499805D01*
X141528995Y-122500025D01*
X141530879Y-122500601D01*
X141565308Y-122504098D01*
X141599764Y-122507963D01*
X141603624Y-122507990D01*
X141603691Y-122507997D01*
X141603752Y-122507991D01*
X141605000Y-122508000D01*
X143853096Y-122508000D01*
X144361822Y-123016726D01*
X144340650Y-123011577D01*
X144266195Y-123140535D01*
X144210747Y-123195984D01*
X144210747Y-122936577D01*
X144124163Y-122845876D01*
X143973751Y-122819765D01*
X143821135Y-122823500D01*
X143672180Y-122856936D01*
X143532610Y-122918789D01*
X143422437Y-122996368D01*
X143419032Y-122992963D01*
X143368715Y-123043279D01*
X143361210Y-123050309D01*
X143361057Y-123050937D01*
X143312963Y-123099032D01*
X143342239Y-123128308D01*
X143331577Y-123172150D01*
X143460534Y-123246603D01*
X143796190Y-123582259D01*
X143886128Y-123492320D01*
X143888948Y-123493948D01*
X143895022Y-123483426D01*
X143902259Y-123476190D01*
X143900320Y-123474251D01*
X144210747Y-122936577D01*
X144210747Y-123195984D01*
X143930541Y-123476190D01*
X144020479Y-123566128D01*
X144018852Y-123568948D01*
X144029373Y-123575022D01*
X144036610Y-123582259D01*
X144038548Y-123580320D01*
X144548080Y-123874499D01*
X144362641Y-123936572D01*
X144036610Y-123610541D01*
X143946671Y-123700479D01*
X143943852Y-123698852D01*
X143937777Y-123709373D01*
X143930541Y-123716610D01*
X143932479Y-123718548D01*
X143673397Y-124167291D01*
X143567531Y-124202729D01*
X143539700Y-124098863D01*
X143566602Y-124052266D01*
X143902259Y-123716610D01*
X143812320Y-123626671D01*
X143813948Y-123623852D01*
X143803426Y-123617777D01*
X143796190Y-123610541D01*
X143794251Y-123612479D01*
X143338936Y-123349603D01*
X143296968Y-123192974D01*
X143284652Y-123158475D01*
X143250669Y-123104853D01*
X143203119Y-123062792D01*
X143145751Y-123035609D01*
X143083086Y-123025446D01*
X143020067Y-123033105D01*
X141957548Y-123317806D01*
X141923049Y-123330122D01*
X141869427Y-123364105D01*
X141827366Y-123411655D01*
X141800183Y-123469023D01*
X141790020Y-123531688D01*
X141797679Y-123594707D01*
X142082380Y-124657226D01*
X142094696Y-124691725D01*
X142096799Y-124695044D01*
X139679809Y-125504112D01*
X139150157Y-125681408D01*
X138622913Y-125749020D01*
X138092563Y-125712935D01*
X137579334Y-125574528D01*
X137347527Y-125460000D01*
X139372762Y-125460000D01*
X139372762Y-123310000D01*
X139209022Y-123310000D01*
X139209022Y-121868521D01*
X139189024Y-121767524D01*
X139149790Y-121672335D01*
X139092814Y-121586579D01*
X139020267Y-121513523D01*
X138934911Y-121455950D01*
X138839998Y-121416052D01*
X138739143Y-121395350D01*
X138636188Y-121394631D01*
X138535054Y-121413924D01*
X138458136Y-121445000D01*
X138418089Y-121445000D01*
X138418089Y-121070000D01*
X138415121Y-121033489D01*
X138396175Y-120972899D01*
X138361131Y-120919964D01*
X138312753Y-120878859D01*
X138254854Y-120852824D01*
X138192000Y-120843911D01*
X137292000Y-120843911D01*
X137255489Y-120846879D01*
X137194899Y-120865825D01*
X137141964Y-120900869D01*
X137100859Y-120949247D01*
X137074824Y-121007146D01*
X137065911Y-121070000D01*
X137065911Y-122770000D01*
X137068879Y-122806511D01*
X137087825Y-122867101D01*
X137122869Y-122920036D01*
X137171247Y-122961141D01*
X137229146Y-122987176D01*
X137292000Y-122996089D01*
X138192000Y-122996089D01*
X138228511Y-122993121D01*
X138289101Y-122974175D01*
X138342036Y-122939131D01*
X138383141Y-122890753D01*
X138409176Y-122832854D01*
X138418089Y-122770000D01*
X138418089Y-122395000D01*
X138459821Y-122395000D01*
X138520981Y-122421720D01*
X138621537Y-122443829D01*
X138724472Y-122445985D01*
X138825866Y-122428107D01*
X138921856Y-122390875D01*
X139008786Y-122335707D01*
X139083345Y-122264706D01*
X139142693Y-122180574D01*
X139184570Y-122086517D01*
X139207380Y-121986118D01*
X139209022Y-121868521D01*
X139209022Y-123310000D01*
X135963238Y-123310000D01*
X135963238Y-123863784D01*
X135891203Y-123653480D01*
X135818439Y-123115834D01*
X135816750Y-123023993D01*
X135816750Y-110743000D01*
X170266750Y-110743000D01*
X170266750Y-123013094D01*
M02*
