M48
;DRILL file {kicad (after 2015-mar-04 BZR unknown)-product} date 02.05.2015 13:27:54
;FORMAT={-:-/ absolute / metric / decimal}
FMAT,2
METRIC,TZ
T1C0.300
T2C0.700
T3C0.701
T4C0.813
%
G90
G05
M71
T1
X138.938Y-121.92
X144.272Y-120.675
X144.526Y-117.475
X145.034Y-113.538
X149.352Y-118.11
X152.908Y-117.094
X160.274Y-119.38
X160.401Y-117.094
X163.322Y-113.03
T2
X141.965Y-123.892
X143.18Y-123.52
X144.394Y-123.149
X151.765Y-122.047
X153.035Y-122.047
X154.305Y-122.047
X161.701Y-123.149
X162.916Y-123.52
X164.13Y-123.892
T3
X149.291Y-113.03
X150.791Y-113.03
X152.291Y-113.03
X153.791Y-113.03
X155.291Y-113.03
X156.795Y-113.03
T4
X139.7Y-112.776
X142.24Y-112.776
T0
M30
