G04 #@! TF.FileFunction,Legend,Top*
%FSLAX46Y46*%
G04 Gerber Fmt 4.6, Leading zero omitted, Abs format (unit mm)*
G04 Created by KiCad (PCBNEW (after 2015-mar-04 BZR unknown)-product) date 02.05.2015 13:27:57*
%MOMM*%
G01*
G04 APERTURE LIST*
%ADD10C,0.100000*%
%ADD11C,0.150000*%
%ADD12C,0.127000*%
%ADD13C,0.300000*%
%ADD14C,0.200000*%
G04 APERTURE END LIST*
D10*
D11*
X165887381Y-121507210D02*
X166001667Y-121545305D01*
X166192143Y-121545305D01*
X166268333Y-121507210D01*
X166306429Y-121469114D01*
X166344524Y-121392924D01*
X166344524Y-121316733D01*
X166306429Y-121240543D01*
X166268333Y-121202448D01*
X166192143Y-121164352D01*
X166039762Y-121126257D01*
X165963571Y-121088162D01*
X165925476Y-121050067D01*
X165887381Y-120973876D01*
X165887381Y-120897686D01*
X165925476Y-120821495D01*
X165963571Y-120783400D01*
X166039762Y-120745305D01*
X166230238Y-120745305D01*
X166344524Y-120783400D01*
X166992143Y-121507210D02*
X166915953Y-121545305D01*
X166763572Y-121545305D01*
X166687381Y-121507210D01*
X166649286Y-121431019D01*
X166649286Y-121126257D01*
X166687381Y-121050067D01*
X166763572Y-121011971D01*
X166915953Y-121011971D01*
X166992143Y-121050067D01*
X167030238Y-121126257D01*
X167030238Y-121202448D01*
X166649286Y-121278638D01*
X167373095Y-121011971D02*
X167373095Y-121545305D01*
X167373095Y-121088162D02*
X167411190Y-121050067D01*
X167487381Y-121011971D01*
X167601667Y-121011971D01*
X167677857Y-121050067D01*
X167715952Y-121126257D01*
X167715952Y-121545305D01*
X168058810Y-121507210D02*
X168135000Y-121545305D01*
X168287381Y-121545305D01*
X168363572Y-121507210D01*
X168401667Y-121431019D01*
X168401667Y-121392924D01*
X168363572Y-121316733D01*
X168287381Y-121278638D01*
X168173096Y-121278638D01*
X168096905Y-121240543D01*
X168058810Y-121164352D01*
X168058810Y-121126257D01*
X168096905Y-121050067D01*
X168173096Y-121011971D01*
X168287381Y-121011971D01*
X168363572Y-121050067D01*
X168858810Y-121545305D02*
X168782619Y-121507210D01*
X168744524Y-121469114D01*
X168706429Y-121392924D01*
X168706429Y-121164352D01*
X168744524Y-121088162D01*
X168782619Y-121050067D01*
X168858810Y-121011971D01*
X168973096Y-121011971D01*
X169049286Y-121050067D01*
X169087381Y-121088162D01*
X169125477Y-121164352D01*
X169125477Y-121392924D01*
X169087381Y-121469114D01*
X169049286Y-121507210D01*
X168973096Y-121545305D01*
X168858810Y-121545305D01*
X169468334Y-121545305D02*
X169468334Y-121011971D01*
X169468334Y-121164352D02*
X169506429Y-121088162D01*
X169544525Y-121050067D01*
X169620715Y-121011971D01*
X169696906Y-121011971D01*
X166192143Y-122396257D02*
X166306429Y-122434352D01*
X166344524Y-122472448D01*
X166382619Y-122548638D01*
X166382619Y-122662924D01*
X166344524Y-122739114D01*
X166306429Y-122777210D01*
X166230238Y-122815305D01*
X165925476Y-122815305D01*
X165925476Y-122015305D01*
X166192143Y-122015305D01*
X166268333Y-122053400D01*
X166306429Y-122091495D01*
X166344524Y-122167686D01*
X166344524Y-122243876D01*
X166306429Y-122320067D01*
X166268333Y-122358162D01*
X166192143Y-122396257D01*
X165925476Y-122396257D01*
X166839762Y-122815305D02*
X166763571Y-122777210D01*
X166725476Y-122739114D01*
X166687381Y-122662924D01*
X166687381Y-122434352D01*
X166725476Y-122358162D01*
X166763571Y-122320067D01*
X166839762Y-122281971D01*
X166954048Y-122281971D01*
X167030238Y-122320067D01*
X167068333Y-122358162D01*
X167106429Y-122434352D01*
X167106429Y-122662924D01*
X167068333Y-122739114D01*
X167030238Y-122777210D01*
X166954048Y-122815305D01*
X166839762Y-122815305D01*
X167792143Y-122815305D02*
X167792143Y-122396257D01*
X167754048Y-122320067D01*
X167677858Y-122281971D01*
X167525477Y-122281971D01*
X167449286Y-122320067D01*
X167792143Y-122777210D02*
X167715953Y-122815305D01*
X167525477Y-122815305D01*
X167449286Y-122777210D01*
X167411191Y-122701019D01*
X167411191Y-122624829D01*
X167449286Y-122548638D01*
X167525477Y-122510543D01*
X167715953Y-122510543D01*
X167792143Y-122472448D01*
X168173096Y-122815305D02*
X168173096Y-122281971D01*
X168173096Y-122434352D02*
X168211191Y-122358162D01*
X168249287Y-122320067D01*
X168325477Y-122281971D01*
X168401668Y-122281971D01*
X169011191Y-122815305D02*
X169011191Y-122015305D01*
X169011191Y-122777210D02*
X168935001Y-122815305D01*
X168782620Y-122815305D01*
X168706429Y-122777210D01*
X168668334Y-122739114D01*
X168630239Y-122662924D01*
X168630239Y-122434352D01*
X168668334Y-122358162D01*
X168706429Y-122320067D01*
X168782620Y-122281971D01*
X168935001Y-122281971D01*
X169011191Y-122320067D01*
X165811190Y-123285305D02*
X166077857Y-124085305D01*
X166344524Y-123285305D01*
X167030238Y-124085305D02*
X166573095Y-124085305D01*
X166801666Y-124085305D02*
X166801666Y-123285305D01*
X166725476Y-123399590D01*
X166649285Y-123475781D01*
X166573095Y-123513876D01*
X167373095Y-124009114D02*
X167411190Y-124047210D01*
X167373095Y-124085305D01*
X167335000Y-124047210D01*
X167373095Y-124009114D01*
X167373095Y-124085305D01*
X167677857Y-123285305D02*
X168173095Y-123285305D01*
X167906428Y-123590067D01*
X168020714Y-123590067D01*
X168096904Y-123628162D01*
X168135000Y-123666257D01*
X168173095Y-123742448D01*
X168173095Y-123932924D01*
X168135000Y-124009114D01*
X168096904Y-124047210D01*
X168020714Y-124085305D01*
X167792142Y-124085305D01*
X167715952Y-124047210D01*
X167677857Y-124009114D01*
X140192000Y-122995000D02*
X138192000Y-122995000D01*
X138192000Y-120845000D02*
X140192000Y-120845000D01*
X141540000Y-117525800D02*
G75*
G03X141540000Y-117525800I-2000000J0D01*
G01*
X142240000Y-112776000D02*
X139700000Y-112776000D01*
X143659903Y-112776000D02*
G75*
G03X143659903Y-112776000I-1419903J0D01*
G01*
X145960000Y-121725000D02*
X143960000Y-121725000D01*
X143960000Y-119575000D02*
X145960000Y-119575000D01*
X143959000Y-114792000D02*
X143959000Y-112792000D01*
X146109000Y-112792000D02*
X146109000Y-114792000D01*
X145960000Y-119185000D02*
X143960000Y-119185000D01*
X143960000Y-117035000D02*
X145960000Y-117035000D01*
D12*
X141930326Y-124645898D02*
X144845143Y-123754749D01*
X141200850Y-124258029D02*
X140926079Y-123359294D01*
X144958242Y-122126537D02*
X140926079Y-123359294D01*
X145233013Y-123025273D02*
X144958242Y-122126537D01*
X145233013Y-123025273D02*
X144845143Y-123754749D01*
X141200850Y-124258029D02*
X141930326Y-124645898D01*
D11*
X161680400Y-120353400D02*
X159680400Y-120353400D01*
X159680400Y-118203400D02*
X161680400Y-118203400D01*
X161680400Y-117813400D02*
X159680400Y-117813400D01*
X159680400Y-115663400D02*
X161680400Y-115663400D01*
X168010840Y-113329720D02*
X168010840Y-113654840D01*
X168010840Y-113654840D02*
X168511220Y-113654840D01*
X168511220Y-113329720D02*
X168511220Y-113654840D01*
X168010840Y-113329720D02*
X168511220Y-113329720D01*
X168010840Y-112707420D02*
X168010840Y-112857280D01*
X168010840Y-112857280D02*
X168262300Y-112857280D01*
X168262300Y-112707420D02*
X168262300Y-112857280D01*
X168010840Y-112707420D02*
X168262300Y-112707420D01*
X168010840Y-113202720D02*
X168010840Y-113352580D01*
X168010840Y-113352580D02*
X168262300Y-113352580D01*
X168262300Y-113202720D02*
X168262300Y-113352580D01*
X168010840Y-113202720D02*
X168262300Y-113202720D01*
X168010840Y-112831880D02*
X168010840Y-113228120D01*
X168010840Y-113228120D02*
X168186100Y-113228120D01*
X168186100Y-112831880D02*
X168186100Y-113228120D01*
X168010840Y-112831880D02*
X168186100Y-112831880D01*
X166514780Y-113329720D02*
X166514780Y-113654840D01*
X166514780Y-113654840D02*
X167015160Y-113654840D01*
X167015160Y-113329720D02*
X167015160Y-113654840D01*
X166514780Y-113329720D02*
X167015160Y-113329720D01*
X166514780Y-112405160D02*
X166514780Y-112730280D01*
X166514780Y-112730280D02*
X167015160Y-112730280D01*
X167015160Y-112405160D02*
X167015160Y-112730280D01*
X166514780Y-112405160D02*
X167015160Y-112405160D01*
X166763700Y-113202720D02*
X166763700Y-113352580D01*
X166763700Y-113352580D02*
X167015160Y-113352580D01*
X167015160Y-113202720D02*
X167015160Y-113352580D01*
X166763700Y-113202720D02*
X167015160Y-113202720D01*
X166763700Y-112707420D02*
X166763700Y-112857280D01*
X166763700Y-112857280D02*
X167015160Y-112857280D01*
X167015160Y-112707420D02*
X167015160Y-112857280D01*
X166763700Y-112707420D02*
X167015160Y-112707420D01*
X166839900Y-112831880D02*
X166839900Y-113228120D01*
X166839900Y-113228120D02*
X167015160Y-113228120D01*
X167015160Y-112831880D02*
X167015160Y-113228120D01*
X166839900Y-112831880D02*
X167015160Y-112831880D01*
X167513000Y-112930940D02*
X167513000Y-113129060D01*
X167513000Y-113129060D02*
X167711120Y-113129060D01*
X167711120Y-112930940D02*
X167711120Y-113129060D01*
X167513000Y-112930940D02*
X167711120Y-112930940D01*
X168010840Y-112430560D02*
X168010840Y-112730280D01*
X168010840Y-112730280D02*
X168310560Y-112730280D01*
X168310560Y-112430560D02*
X168310560Y-112730280D01*
X168010840Y-112430560D02*
X168310560Y-112430560D01*
X168437560Y-112405160D02*
X168437560Y-112631220D01*
X168437560Y-112631220D02*
X168511220Y-112631220D01*
X168511220Y-112405160D02*
X168511220Y-112631220D01*
X168437560Y-112405160D02*
X168511220Y-112405160D01*
X168036240Y-113604040D02*
X166989760Y-113604040D01*
X167015160Y-112455960D02*
X168437560Y-112455960D01*
X168433202Y-112580420D02*
G75*
G03X168433202Y-112580420I-71842J0D01*
G01*
X168511220Y-112682020D02*
G75*
G03X168511220Y-113377980I0J-347980D01*
G01*
X166514780Y-113377980D02*
G75*
G03X166514780Y-112682020I0J347980D01*
G01*
X164576000Y-114105000D02*
X162576000Y-114105000D01*
X162576000Y-111955000D02*
X164576000Y-111955000D01*
D12*
X161250257Y-123754749D02*
X164165074Y-124645898D01*
X160862387Y-123025273D02*
X161137158Y-122126537D01*
X165169321Y-123359294D02*
X161137158Y-122126537D01*
X164894550Y-124258029D02*
X165169321Y-123359294D01*
X164894550Y-124258029D02*
X164165074Y-124645898D01*
X160862387Y-123025273D02*
X161250257Y-123754749D01*
D11*
X150579400Y-116754400D02*
X150579400Y-118754400D01*
X148429400Y-118754400D02*
X148429400Y-116754400D01*
D13*
X147991000Y-113030000D02*
X148191000Y-113030000D01*
X148191000Y-113030000D02*
X148191000Y-112830000D01*
X148191000Y-112830000D02*
X147991000Y-112830000D01*
X157991000Y-112830000D02*
X157791000Y-112830000D01*
X157791000Y-112830000D02*
X157791000Y-112630000D01*
X157791000Y-112630000D02*
X157991000Y-112630000D01*
X157991000Y-111776000D02*
X147991000Y-111776000D01*
X157991000Y-114430000D02*
X147991000Y-114430000D01*
X147991000Y-114430000D02*
X147991000Y-110830000D01*
X147991000Y-110830000D02*
X157991000Y-110830000D01*
X157991000Y-110830000D02*
X157991000Y-114430000D01*
D11*
X158199400Y-116754400D02*
X158199400Y-118754400D01*
X156049400Y-118754400D02*
X156049400Y-116754400D01*
X154060400Y-120353400D02*
X152060400Y-120353400D01*
X152060400Y-118203400D02*
X154060400Y-118203400D01*
X154060400Y-117813400D02*
X152060400Y-117813400D01*
X152060400Y-115663400D02*
X154060400Y-115663400D01*
D12*
X151511000Y-122758200D02*
X154559000Y-122758200D01*
X150926800Y-122174000D02*
X150926800Y-121234200D01*
X155143200Y-121234200D02*
X150926800Y-121234200D01*
X155143200Y-122174000D02*
X155143200Y-121234200D01*
X155143200Y-122174000D02*
X154559000Y-122758200D01*
X150926800Y-122174000D02*
X151511000Y-122758200D01*
D11*
X168540000Y-117525800D02*
G75*
G03X168540000Y-117525800I-2000000J0D01*
G01*
X136977381Y-122512057D02*
X136501190Y-122845391D01*
X136977381Y-123083486D02*
X135977381Y-123083486D01*
X135977381Y-122702533D01*
X136025000Y-122607295D01*
X136072619Y-122559676D01*
X136167857Y-122512057D01*
X136310714Y-122512057D01*
X136405952Y-122559676D01*
X136453571Y-122607295D01*
X136501190Y-122702533D01*
X136501190Y-123083486D01*
X136072619Y-122131105D02*
X136025000Y-122083486D01*
X135977381Y-121988248D01*
X135977381Y-121750152D01*
X136025000Y-121654914D01*
X136072619Y-121607295D01*
X136167857Y-121559676D01*
X136263095Y-121559676D01*
X136405952Y-121607295D01*
X136977381Y-122178724D01*
X136977381Y-121559676D01*
X136977381Y-120607295D02*
X136977381Y-121178724D01*
X136977381Y-120893010D02*
X135977381Y-120893010D01*
X136120238Y-120988248D01*
X136215476Y-121083486D01*
X136263095Y-121178724D01*
X140776486Y-114412781D02*
X141347915Y-114412781D01*
X141062200Y-115412781D02*
X141062200Y-114412781D01*
X141681248Y-115412781D02*
X141681248Y-114412781D01*
X141681248Y-114888971D02*
X142252677Y-114888971D01*
X142252677Y-115412781D02*
X142252677Y-114412781D01*
X143252677Y-115412781D02*
X142681248Y-115412781D01*
X142966962Y-115412781D02*
X142966962Y-114412781D01*
X142871724Y-114555638D01*
X142776486Y-114650876D01*
X142681248Y-114698495D01*
X145317143Y-120816666D02*
X145364762Y-120864285D01*
X145412381Y-121007142D01*
X145412381Y-121102380D01*
X145364762Y-121245238D01*
X145269524Y-121340476D01*
X145174286Y-121388095D01*
X144983810Y-121435714D01*
X144840952Y-121435714D01*
X144650476Y-121388095D01*
X144555238Y-121340476D01*
X144460000Y-121245238D01*
X144412381Y-121102380D01*
X144412381Y-121007142D01*
X144460000Y-120864285D01*
X144507619Y-120816666D01*
X145412381Y-119864285D02*
X145412381Y-120435714D01*
X145412381Y-120150000D02*
X144412381Y-120150000D01*
X144555238Y-120245238D01*
X144650476Y-120340476D01*
X144698095Y-120435714D01*
X143249714Y-116617714D02*
X143211619Y-116655810D01*
X143097333Y-116693905D01*
X143021143Y-116693905D01*
X142906857Y-116655810D01*
X142830666Y-116579619D01*
X142792571Y-116503429D01*
X142754476Y-116351048D01*
X142754476Y-116236762D01*
X142792571Y-116084381D01*
X142830666Y-116008190D01*
X142906857Y-115932000D01*
X143021143Y-115893905D01*
X143097333Y-115893905D01*
X143211619Y-115932000D01*
X143249714Y-115970095D01*
X144011619Y-116693905D02*
X143554476Y-116693905D01*
X143783047Y-116693905D02*
X143783047Y-115893905D01*
X143706857Y-116008190D01*
X143630666Y-116084381D01*
X143554476Y-116122476D01*
X144506857Y-115893905D02*
X144583048Y-115893905D01*
X144659238Y-115932000D01*
X144697333Y-115970095D01*
X144735429Y-116046286D01*
X144773524Y-116198667D01*
X144773524Y-116389143D01*
X144735429Y-116541524D01*
X144697333Y-116617714D01*
X144659238Y-116655810D01*
X144583048Y-116693905D01*
X144506857Y-116693905D01*
X144430667Y-116655810D01*
X144392571Y-116617714D01*
X144354476Y-116541524D01*
X144316381Y-116389143D01*
X144316381Y-116198667D01*
X144354476Y-116046286D01*
X144392571Y-115970095D01*
X144430667Y-115932000D01*
X144506857Y-115893905D01*
X145317143Y-118752857D02*
X145364762Y-118800476D01*
X145412381Y-118943333D01*
X145412381Y-119038571D01*
X145364762Y-119181429D01*
X145269524Y-119276667D01*
X145174286Y-119324286D01*
X144983810Y-119371905D01*
X144840952Y-119371905D01*
X144650476Y-119324286D01*
X144555238Y-119276667D01*
X144460000Y-119181429D01*
X144412381Y-119038571D01*
X144412381Y-118943333D01*
X144460000Y-118800476D01*
X144507619Y-118752857D01*
X144507619Y-118371905D02*
X144460000Y-118324286D01*
X144412381Y-118229048D01*
X144412381Y-117990952D01*
X144460000Y-117895714D01*
X144507619Y-117848095D01*
X144602857Y-117800476D01*
X144698095Y-117800476D01*
X144840952Y-117848095D01*
X145412381Y-118419524D01*
X145412381Y-117800476D01*
X145412381Y-116848095D02*
X145412381Y-117419524D01*
X145412381Y-117133810D02*
X144412381Y-117133810D01*
X144555238Y-117229048D01*
X144650476Y-117324286D01*
X144698095Y-117419524D01*
D14*
X139376612Y-124185171D02*
X139613294Y-124959322D01*
X139686677Y-125036477D01*
X139746138Y-125068092D01*
X139851137Y-125085786D01*
X140033291Y-125030096D01*
X140110445Y-124956713D01*
X140142061Y-124897252D01*
X140159755Y-124792253D01*
X139923073Y-124018101D01*
X141171749Y-124682034D02*
X140625289Y-124849104D01*
X140898518Y-124765569D02*
X140606147Y-123809264D01*
X140556838Y-123973724D01*
X140493606Y-124092646D01*
X140416452Y-124166029D01*
D11*
X163933143Y-119800666D02*
X163980762Y-119848285D01*
X164028381Y-119991142D01*
X164028381Y-120086380D01*
X163980762Y-120229238D01*
X163885524Y-120324476D01*
X163790286Y-120372095D01*
X163599810Y-120419714D01*
X163456952Y-120419714D01*
X163266476Y-120372095D01*
X163171238Y-120324476D01*
X163076000Y-120229238D01*
X163028381Y-120086380D01*
X163028381Y-119991142D01*
X163076000Y-119848285D01*
X163123619Y-119800666D01*
X163028381Y-119467333D02*
X163028381Y-118848285D01*
X163409333Y-119181619D01*
X163409333Y-119038761D01*
X163456952Y-118943523D01*
X163504571Y-118895904D01*
X163599810Y-118848285D01*
X163837905Y-118848285D01*
X163933143Y-118895904D01*
X163980762Y-118943523D01*
X164028381Y-119038761D01*
X164028381Y-119324476D01*
X163980762Y-119419714D01*
X163933143Y-119467333D01*
X163933143Y-117736857D02*
X163980762Y-117784476D01*
X164028381Y-117927333D01*
X164028381Y-118022571D01*
X163980762Y-118165429D01*
X163885524Y-118260667D01*
X163790286Y-118308286D01*
X163599810Y-118355905D01*
X163456952Y-118355905D01*
X163266476Y-118308286D01*
X163171238Y-118260667D01*
X163076000Y-118165429D01*
X163028381Y-118022571D01*
X163028381Y-117927333D01*
X163076000Y-117784476D01*
X163123619Y-117736857D01*
X163123619Y-117355905D02*
X163076000Y-117308286D01*
X163028381Y-117213048D01*
X163028381Y-116974952D01*
X163076000Y-116879714D01*
X163123619Y-116832095D01*
X163218857Y-116784476D01*
X163314095Y-116784476D01*
X163456952Y-116832095D01*
X164028381Y-117403524D01*
X164028381Y-116784476D01*
X163028381Y-116451143D02*
X163028381Y-115832095D01*
X163409333Y-116165429D01*
X163409333Y-116022571D01*
X163456952Y-115927333D01*
X163504571Y-115879714D01*
X163599810Y-115832095D01*
X163837905Y-115832095D01*
X163933143Y-115879714D01*
X163980762Y-115927333D01*
X164028381Y-116022571D01*
X164028381Y-116308286D01*
X163980762Y-116403524D01*
X163933143Y-116451143D01*
X166349514Y-114904781D02*
X166349514Y-113904781D01*
X166587609Y-113904781D01*
X166730467Y-113952400D01*
X166825705Y-114047638D01*
X166873324Y-114142876D01*
X166920943Y-114333352D01*
X166920943Y-114476210D01*
X166873324Y-114666686D01*
X166825705Y-114761924D01*
X166730467Y-114857162D01*
X166587609Y-114904781D01*
X166349514Y-114904781D01*
X167873324Y-114904781D02*
X167301895Y-114904781D01*
X167587609Y-114904781D02*
X167587609Y-113904781D01*
X167492371Y-114047638D01*
X167397133Y-114142876D01*
X167301895Y-114190495D01*
X168492371Y-113904781D02*
X168587610Y-113904781D01*
X168682848Y-113952400D01*
X168730467Y-114000019D01*
X168778086Y-114095257D01*
X168825705Y-114285733D01*
X168825705Y-114523829D01*
X168778086Y-114714305D01*
X168730467Y-114809543D01*
X168682848Y-114857162D01*
X168587610Y-114904781D01*
X168492371Y-114904781D01*
X168397133Y-114857162D01*
X168349514Y-114809543D01*
X168301895Y-114714305D01*
X168254276Y-114523829D01*
X168254276Y-114285733D01*
X168301895Y-114095257D01*
X168349514Y-114000019D01*
X168397133Y-113952400D01*
X168492371Y-113904781D01*
X163009343Y-115336581D02*
X162676009Y-114860390D01*
X162437914Y-115336581D02*
X162437914Y-114336581D01*
X162818867Y-114336581D01*
X162914105Y-114384200D01*
X162961724Y-114431819D01*
X163009343Y-114527057D01*
X163009343Y-114669914D01*
X162961724Y-114765152D01*
X162914105Y-114812771D01*
X162818867Y-114860390D01*
X162437914Y-114860390D01*
X163961724Y-115336581D02*
X163390295Y-115336581D01*
X163676009Y-115336581D02*
X163676009Y-114336581D01*
X163580771Y-114479438D01*
X163485533Y-114574676D01*
X163390295Y-114622295D01*
X164580771Y-114336581D02*
X164676010Y-114336581D01*
X164771248Y-114384200D01*
X164818867Y-114431819D01*
X164866486Y-114527057D01*
X164914105Y-114717533D01*
X164914105Y-114955629D01*
X164866486Y-115146105D01*
X164818867Y-115241343D01*
X164771248Y-115288962D01*
X164676010Y-115336581D01*
X164580771Y-115336581D01*
X164485533Y-115288962D01*
X164437914Y-115241343D01*
X164390295Y-115146105D01*
X164342676Y-114955629D01*
X164342676Y-114717533D01*
X164390295Y-114527057D01*
X164437914Y-114431819D01*
X164485533Y-114384200D01*
X164580771Y-114336581D01*
D14*
X159390768Y-121944770D02*
X159154086Y-122718922D01*
X159171779Y-122823921D01*
X159203395Y-122883381D01*
X159280549Y-122956764D01*
X159462703Y-123012455D01*
X159567702Y-122994761D01*
X159627163Y-122963145D01*
X159700546Y-122885991D01*
X159937228Y-122111840D01*
X160301534Y-122223219D02*
X160893533Y-122404211D01*
X160463384Y-122671060D01*
X160600000Y-122712828D01*
X160677154Y-122786211D01*
X160708770Y-122845672D01*
X160726463Y-122950672D01*
X160656851Y-123178363D01*
X160583468Y-123255517D01*
X160524007Y-123287133D01*
X160419008Y-123304826D01*
X160145778Y-123221291D01*
X160068623Y-123147908D01*
X160037008Y-123088447D01*
D11*
X148026381Y-118498857D02*
X147550190Y-118832191D01*
X148026381Y-119070286D02*
X147026381Y-119070286D01*
X147026381Y-118689333D01*
X147074000Y-118594095D01*
X147121619Y-118546476D01*
X147216857Y-118498857D01*
X147359714Y-118498857D01*
X147454952Y-118546476D01*
X147502571Y-118594095D01*
X147550190Y-118689333D01*
X147550190Y-119070286D01*
X147121619Y-118117905D02*
X147074000Y-118070286D01*
X147026381Y-117975048D01*
X147026381Y-117736952D01*
X147074000Y-117641714D01*
X147121619Y-117594095D01*
X147216857Y-117546476D01*
X147312095Y-117546476D01*
X147454952Y-117594095D01*
X148026381Y-118165524D01*
X148026381Y-117546476D01*
X147121619Y-117165524D02*
X147074000Y-117117905D01*
X147026381Y-117022667D01*
X147026381Y-116784571D01*
X147074000Y-116689333D01*
X147121619Y-116641714D01*
X147216857Y-116594095D01*
X147312095Y-116594095D01*
X147454952Y-116641714D01*
X148026381Y-117213143D01*
X148026381Y-116594095D01*
X158392905Y-113482381D02*
X158392905Y-112482381D01*
X158773858Y-112482381D01*
X158869096Y-112530000D01*
X158916715Y-112577619D01*
X158964334Y-112672857D01*
X158964334Y-112815714D01*
X158916715Y-112910952D01*
X158869096Y-112958571D01*
X158773858Y-113006190D01*
X158392905Y-113006190D01*
X159916715Y-113482381D02*
X159345286Y-113482381D01*
X159631000Y-113482381D02*
X159631000Y-112482381D01*
X159535762Y-112625238D01*
X159440524Y-112720476D01*
X159345286Y-112768095D01*
X156329143Y-121356381D02*
X155995809Y-120880190D01*
X155757714Y-121356381D02*
X155757714Y-120356381D01*
X156138667Y-120356381D01*
X156233905Y-120404000D01*
X156281524Y-120451619D01*
X156329143Y-120546857D01*
X156329143Y-120689714D01*
X156281524Y-120784952D01*
X156233905Y-120832571D01*
X156138667Y-120880190D01*
X155757714Y-120880190D01*
X156710095Y-120451619D02*
X156757714Y-120404000D01*
X156852952Y-120356381D01*
X157091048Y-120356381D01*
X157186286Y-120404000D01*
X157233905Y-120451619D01*
X157281524Y-120546857D01*
X157281524Y-120642095D01*
X157233905Y-120784952D01*
X156662476Y-121356381D01*
X157281524Y-121356381D01*
X157614857Y-120356381D02*
X158233905Y-120356381D01*
X157900571Y-120737333D01*
X158043429Y-120737333D01*
X158138667Y-120784952D01*
X158186286Y-120832571D01*
X158233905Y-120927810D01*
X158233905Y-121165905D01*
X158186286Y-121261143D01*
X158138667Y-121308762D01*
X158043429Y-121356381D01*
X157757714Y-121356381D01*
X157662476Y-121308762D01*
X157614857Y-121261143D01*
X153417543Y-119445066D02*
X153465162Y-119492685D01*
X153512781Y-119635542D01*
X153512781Y-119730780D01*
X153465162Y-119873638D01*
X153369924Y-119968876D01*
X153274686Y-120016495D01*
X153084210Y-120064114D01*
X152941352Y-120064114D01*
X152750876Y-120016495D01*
X152655638Y-119968876D01*
X152560400Y-119873638D01*
X152512781Y-119730780D01*
X152512781Y-119635542D01*
X152560400Y-119492685D01*
X152608019Y-119445066D01*
X152608019Y-119064114D02*
X152560400Y-119016495D01*
X152512781Y-118921257D01*
X152512781Y-118683161D01*
X152560400Y-118587923D01*
X152608019Y-118540304D01*
X152703257Y-118492685D01*
X152798495Y-118492685D01*
X152941352Y-118540304D01*
X153512781Y-119111733D01*
X153512781Y-118492685D01*
X153417543Y-117381257D02*
X153465162Y-117428876D01*
X153512781Y-117571733D01*
X153512781Y-117666971D01*
X153465162Y-117809829D01*
X153369924Y-117905067D01*
X153274686Y-117952686D01*
X153084210Y-118000305D01*
X152941352Y-118000305D01*
X152750876Y-117952686D01*
X152655638Y-117905067D01*
X152560400Y-117809829D01*
X152512781Y-117666971D01*
X152512781Y-117571733D01*
X152560400Y-117428876D01*
X152608019Y-117381257D01*
X152608019Y-117000305D02*
X152560400Y-116952686D01*
X152512781Y-116857448D01*
X152512781Y-116619352D01*
X152560400Y-116524114D01*
X152608019Y-116476495D01*
X152703257Y-116428876D01*
X152798495Y-116428876D01*
X152941352Y-116476495D01*
X153512781Y-117047924D01*
X153512781Y-116428876D01*
X152608019Y-116047924D02*
X152560400Y-116000305D01*
X152512781Y-115905067D01*
X152512781Y-115666971D01*
X152560400Y-115571733D01*
X152608019Y-115524114D01*
X152703257Y-115476495D01*
X152798495Y-115476495D01*
X152941352Y-115524114D01*
X153512781Y-116095543D01*
X153512781Y-115476495D01*
D14*
X149203575Y-121570970D02*
X149203575Y-122380494D01*
X149251194Y-122475732D01*
X149298813Y-122523351D01*
X149394051Y-122570970D01*
X149584528Y-122570970D01*
X149679766Y-122523351D01*
X149727385Y-122475732D01*
X149775004Y-122380494D01*
X149775004Y-121570970D01*
X150203575Y-121666208D02*
X150251194Y-121618589D01*
X150346432Y-121570970D01*
X150584528Y-121570970D01*
X150679766Y-121618589D01*
X150727385Y-121666208D01*
X150775004Y-121761446D01*
X150775004Y-121856684D01*
X150727385Y-121999541D01*
X150155956Y-122570970D01*
X150775004Y-122570970D01*
M02*
