G04 #@! TF.FileFunction,Soldermask,Top*
%FSLAX46Y46*%
G04 Gerber Fmt 4.6, Leading zero omitted, Abs format (unit mm)*
G04 Created by KiCad (PCBNEW (after 2015-mar-04 BZR unknown)-product) date 16.04.2015 13:23:57*
%MOMM*%
G01*
G04 APERTURE LIST*
%ADD10C,0.100000*%
%ADD11C,3.200000*%
%ADD12R,1.198880X1.699260*%
%ADD13O,1.198880X1.699260*%
%ADD14R,1.700000X0.900000*%
%ADD15R,0.900000X1.700000*%
%ADD16R,1.198880X1.198880*%
%ADD17C,1.397000*%
%ADD18C,1.100000*%
%ADD19R,1.100000X1.100000*%
G04 APERTURE END LIST*
D10*
D11*
X138557000Y-117348000D03*
D12*
X157683800Y-113030000D03*
D13*
X154680000Y-113030000D03*
X156180000Y-113030000D03*
X153180000Y-113030000D03*
X151680000Y-113030000D03*
X150180000Y-113030000D03*
D14*
X157124400Y-119204400D03*
X157124400Y-116304400D03*
D15*
X142974400Y-120802400D03*
X145874400Y-120802400D03*
X151610400Y-119278400D03*
X154510400Y-119278400D03*
X159230400Y-119278400D03*
X162130400Y-119278400D03*
D14*
X145034000Y-112342000D03*
X145034000Y-115242000D03*
D15*
X142974400Y-118262400D03*
X145874400Y-118262400D03*
X151610400Y-116738400D03*
X154510400Y-116738400D03*
X159230400Y-116738400D03*
X162130400Y-116738400D03*
D16*
X166463980Y-113030000D03*
X168562020Y-113030000D03*
D15*
X162126000Y-113030000D03*
X165026000Y-113030000D03*
X137742000Y-121920000D03*
X140642000Y-121920000D03*
D14*
X149504400Y-119204400D03*
X149504400Y-116304400D03*
D17*
X142240000Y-112776000D03*
X142240000Y-115316000D03*
D10*
G36*
X161583656Y-123886460D02*
X160531721Y-123564851D01*
X160853330Y-122512916D01*
X161905265Y-122834525D01*
X161583656Y-123886460D01*
X161583656Y-123886460D01*
G37*
D18*
X162433000Y-123571000D03*
X163647507Y-123942312D03*
D19*
X151790400Y-122224800D03*
D18*
X153060400Y-122224800D03*
X154330400Y-122224800D03*
D10*
G36*
X143109265Y-124307475D02*
X142057330Y-124629084D01*
X141735721Y-123577149D01*
X142787656Y-123255540D01*
X143109265Y-124307475D01*
X143109265Y-124307475D01*
G37*
D18*
X143637000Y-123571000D03*
X144851507Y-123199688D03*
D11*
X167513000Y-117348000D03*
M02*
