M48
;DRILL file {kicad (after 2015-mar-04 BZR unknown)-product} date 28.04.2015 21:52:00
;FORMAT={-:-/ absolute / metric / decimal}
FMAT,2
METRIC,TZ
T1C0.300
T2C0.700
T3C0.701
T4C0.813
%
G90
G05
M71
T1
X138.938Y-121.92
X144.018Y-120.904
X144.526Y-117.475
X145.034Y-113.538
X149.352Y-118.11
X152.908Y-117.094
X160.274Y-119.38
X160.401Y-117.094
X163.322Y-113.03
T2
X142.321Y-123.79
X143.535Y-123.419
X144.75Y-123.047
X151.79Y-122.072
X153.06Y-122.072
X154.33Y-122.072
X161.32Y-123.047
X162.535Y-123.419
X163.749Y-123.79
T3
X150.18Y-113.03
X151.68Y-113.03
X153.18Y-113.03
X154.68Y-113.03
X156.18Y-113.03
X157.684Y-113.03
T4
X142.24Y-112.776
X142.24Y-115.316
T0
M30
