G04 #@! TF.FileFunction,Soldermask,Top*
%FSLAX46Y46*%
G04 Gerber Fmt 4.6, Leading zero omitted, Abs format (unit mm)*
G04 Created by KiCad (PCBNEW (after 2015-mar-04 BZR unknown)-product) date 28.04.2015 21:52:04*
%MOMM*%
G01*
G04 APERTURE LIST*
%ADD10C,0.100000*%
%ADD11C,3.200000*%
%ADD12R,1.198880X1.699260*%
%ADD13O,1.198880X1.699260*%
%ADD14R,1.700000X0.900000*%
%ADD15R,0.900000X1.700000*%
%ADD16R,1.198880X1.198880*%
%ADD17C,1.397000*%
%ADD18R,1.100000X1.500000*%
%ADD19O,1.100000X1.500000*%
%ADD20C,1.100000*%
G04 APERTURE END LIST*
D10*
D11*
X138557000Y-117348000D03*
D12*
X157683800Y-113030000D03*
D13*
X154680000Y-113030000D03*
X156180000Y-113030000D03*
X153180000Y-113030000D03*
X151680000Y-113030000D03*
X150180000Y-113030000D03*
D14*
X157124400Y-119204400D03*
X157124400Y-116304400D03*
D15*
X142974400Y-120802400D03*
X145874400Y-120802400D03*
X151610400Y-119278400D03*
X154510400Y-119278400D03*
X159230400Y-119278400D03*
X162130400Y-119278400D03*
D14*
X145034000Y-112342000D03*
X145034000Y-115242000D03*
D15*
X142974400Y-118262400D03*
X145874400Y-118262400D03*
X151610400Y-116738400D03*
X154510400Y-116738400D03*
X159230400Y-116738400D03*
X162130400Y-116738400D03*
D16*
X166463980Y-113030000D03*
X168562020Y-113030000D03*
D15*
X162126000Y-113030000D03*
X165026000Y-113030000D03*
X137742000Y-121920000D03*
X140642000Y-121920000D03*
D14*
X149504400Y-119204400D03*
X149504400Y-116304400D03*
D17*
X142240000Y-112776000D03*
X142240000Y-115316000D03*
D11*
X167513000Y-117348000D03*
D18*
X151790400Y-122072400D03*
D19*
X153060400Y-122072400D03*
X154330400Y-122072400D03*
D10*
G36*
X161626782Y-123925321D02*
X160574847Y-123603712D01*
X161013404Y-122169255D01*
X162065339Y-122490864D01*
X161626782Y-123925321D01*
X161626782Y-123925321D01*
G37*
D20*
X162476126Y-123609861D02*
X162593074Y-123227339D01*
X163690633Y-123981173D02*
X163807581Y-123598651D01*
D10*
G36*
X143066139Y-124346336D02*
X142014204Y-124667945D01*
X141575647Y-123233488D01*
X142627582Y-122911879D01*
X143066139Y-124346336D01*
X143066139Y-124346336D01*
G37*
D20*
X143593874Y-123609861D02*
X143476926Y-123227339D01*
X144808381Y-123238549D02*
X144691433Y-122856027D01*
M02*
