M48
;DRILL file {KiCad (after 2015-may-01 BZR unknown)-product} date 06.05.2015 15:14:47
;FORMAT={-:-/ absolute / metric / decimal}
FMAT,2
METRIC,TZ
T1C0.300
T2C0.700
T3C0.813
%
G90
G05
M71
T1
X147.574Y-120.421
X151.384Y-119.659
X158.496Y-120.167
X159.766Y-117.119
T2
X141.914Y-123.892
X143.129Y-123.52
X144.344Y-123.149
X149.266Y-117.602
X150.766Y-117.602
X151.74Y-122.022
X152.266Y-117.602
X153.01Y-122.022
X153.766Y-117.602
X154.28Y-122.022
X155.266Y-117.602
X156.769Y-117.602
X161.676Y-123.149
X162.89Y-123.52
X164.105Y-123.892
T3
X143.51Y-117.602
X146.05Y-117.602
T0
M30
