G04 #@! TF.FileFunction,Soldermask,Top*
%FSLAX46Y46*%
G04 Gerber Fmt 4.6, Leading zero omitted, Abs format (unit mm)*
G04 Created by KiCad (PCBNEW (after 2015-may-01 BZR unknown)-product) date 06.05.2015 15:14:49*
%MOMM*%
G01*
G04 APERTURE LIST*
%ADD10C,0.100000*%
%ADD11R,1.198880X1.699260*%
%ADD12O,1.198880X1.699260*%
%ADD13C,1.397000*%
%ADD14C,1.100000*%
%ADD15R,1.198880X1.198880*%
%ADD16R,0.900000X1.700000*%
%ADD17R,1.100000X1.500000*%
%ADD18O,1.100000X1.500000*%
%ADD19R,1.000000X1.600000*%
%ADD20C,2.200000*%
G04 APERTURE END LIST*
D10*
D11*
X156769400Y-117602000D03*
D12*
X153765600Y-117602000D03*
X155265600Y-117602000D03*
X152265600Y-117602000D03*
X150765600Y-117602000D03*
X149265600Y-117602000D03*
D13*
X146050000Y-117602000D03*
X143510000Y-117602000D03*
D10*
G36*
X142659739Y-124447936D02*
X141607804Y-124769545D01*
X141169247Y-123335088D01*
X142221182Y-123013479D01*
X142659739Y-124447936D01*
X142659739Y-124447936D01*
G37*
D14*
X143187474Y-123711461D02*
X143070526Y-123328939D01*
X144401981Y-123340149D02*
X144285033Y-122957627D01*
D15*
X161290000Y-118932960D03*
X161290000Y-121031000D03*
D16*
X158824000Y-117094000D03*
X161724000Y-117094000D03*
D10*
G36*
X161982382Y-124026921D02*
X160930447Y-123705312D01*
X161369004Y-122270855D01*
X162420939Y-122592464D01*
X161982382Y-124026921D01*
X161982382Y-124026921D01*
G37*
D14*
X162831726Y-123711461D02*
X162948674Y-123328939D01*
X164046233Y-124082773D02*
X164163181Y-123700251D01*
D17*
X151739600Y-122021600D03*
D18*
X153009600Y-122021600D03*
X154279600Y-122021600D03*
D19*
X146558000Y-120396000D03*
X143558000Y-120396000D03*
X159234000Y-120396000D03*
X156234000Y-120396000D03*
D20*
X167005000Y-120142000D03*
X139014200Y-120142000D03*
M02*
