G04 #@! TF.FileFunction,Copper,L1,Top,Signal*
%FSLAX46Y46*%
G04 Gerber Fmt 4.6, Leading zero omitted, Abs format (unit mm)*
G04 Created by KiCad (PCBNEW (after 2015-may-01 BZR unknown)-product) date 06.05.2015 15:14:49*
%MOMM*%
G01*
G04 APERTURE LIST*
%ADD10C,0.100000*%
%ADD11C,0.150000*%
%ADD12R,1.198880X1.699260*%
%ADD13O,1.198880X1.699260*%
%ADD14C,1.397000*%
%ADD15C,1.100000*%
%ADD16R,1.198880X1.198880*%
%ADD17R,0.900000X1.700000*%
%ADD18R,1.100000X1.500000*%
%ADD19O,1.100000X1.500000*%
%ADD20R,1.000000X1.600000*%
%ADD21C,0.600000*%
%ADD22C,0.500000*%
%ADD23C,0.300000*%
%ADD24C,0.200000*%
G04 APERTURE END LIST*
D10*
D11*
X136612476Y-123861581D02*
X137183905Y-123861581D01*
X136898190Y-124861581D02*
X136898190Y-123861581D01*
X137707714Y-123861581D02*
X137898191Y-123861581D01*
X137993429Y-123909200D01*
X138088667Y-124004438D01*
X138136286Y-124194914D01*
X138136286Y-124528248D01*
X138088667Y-124718724D01*
X137993429Y-124813962D01*
X137898191Y-124861581D01*
X137707714Y-124861581D01*
X137612476Y-124813962D01*
X137517238Y-124718724D01*
X137469619Y-124528248D01*
X137469619Y-124194914D01*
X137517238Y-124004438D01*
X137612476Y-123909200D01*
X137707714Y-123861581D01*
X138564857Y-124861581D02*
X138564857Y-123861581D01*
X138945810Y-123861581D01*
X139041048Y-123909200D01*
X139088667Y-123956819D01*
X139136286Y-124052057D01*
X139136286Y-124194914D01*
X139088667Y-124290152D01*
X139041048Y-124337771D01*
X138945810Y-124385390D01*
X138564857Y-124385390D01*
D12*
X156769400Y-117602000D03*
D13*
X153765600Y-117602000D03*
X155265600Y-117602000D03*
X152265600Y-117602000D03*
X150765600Y-117602000D03*
X149265600Y-117602000D03*
D14*
X146050000Y-117602000D03*
X143510000Y-117602000D03*
D10*
G36*
X142659739Y-124447936D02*
X141607804Y-124769545D01*
X141169247Y-123335088D01*
X142221182Y-123013479D01*
X142659739Y-124447936D01*
X142659739Y-124447936D01*
G37*
D15*
X143187474Y-123711461D02*
X143070526Y-123328939D01*
X144401981Y-123340149D02*
X144285033Y-122957627D01*
D16*
X161290000Y-118932960D03*
X161290000Y-121031000D03*
D17*
X158824000Y-117094000D03*
X161724000Y-117094000D03*
D10*
G36*
X161982382Y-124026921D02*
X160930447Y-123705312D01*
X161369004Y-122270855D01*
X162420939Y-122592464D01*
X161982382Y-124026921D01*
X161982382Y-124026921D01*
G37*
D15*
X162831726Y-123711461D02*
X162948674Y-123328939D01*
X164046233Y-124082773D02*
X164163181Y-123700251D01*
D18*
X151739600Y-122021600D03*
D19*
X153009600Y-122021600D03*
X154279600Y-122021600D03*
D20*
X146558000Y-120396000D03*
X143558000Y-120396000D03*
X159234000Y-120396000D03*
X156234000Y-120396000D03*
D21*
X158496000Y-120167400D03*
X159766000Y-117119400D03*
X147574000Y-120421400D03*
X151384000Y-119659400D03*
D22*
X158724600Y-120396000D02*
X158496000Y-120167400D01*
X159234000Y-120396000D02*
X158724600Y-120396000D01*
X159740600Y-117094000D02*
X159766000Y-117119400D01*
X158824000Y-117094000D02*
X159740600Y-117094000D01*
X147574000Y-120412000D02*
X147574000Y-120421400D01*
X146558000Y-120396000D02*
X147558000Y-120396000D01*
X147558000Y-120396000D02*
X147574000Y-120412000D01*
D23*
X152265600Y-117602000D02*
X152265600Y-118777800D01*
X152265600Y-118777800D02*
X151384000Y-119659400D01*
X153765600Y-119628000D02*
X154279600Y-120142000D01*
X154279600Y-120142000D02*
X154279600Y-122021600D01*
X153765600Y-117602000D02*
X153765600Y-119628000D01*
X161724000Y-117094000D02*
X161724000Y-118498960D01*
X161724000Y-118498960D02*
X161290000Y-118932960D01*
X146050000Y-117602000D02*
X146050000Y-118589828D01*
X146050000Y-118589828D02*
X146357572Y-118897400D01*
X150765600Y-118751630D02*
X150765600Y-117602000D01*
X146357572Y-118897400D02*
X150619830Y-118897400D01*
X150619830Y-118897400D02*
X150765600Y-118751630D01*
D24*
G36*
X170214200Y-123109953D02*
X170161367Y-123648776D01*
X170009144Y-124152965D01*
X169761890Y-124617984D01*
X169429020Y-125026122D01*
X169023218Y-125361831D01*
X168559935Y-125612327D01*
X168355058Y-125675747D01*
X168355058Y-120009626D01*
X168303635Y-119749919D01*
X168202747Y-119505147D01*
X168056237Y-119284632D01*
X167869686Y-119096774D01*
X167650199Y-118948729D01*
X167406137Y-118846134D01*
X167146796Y-118792899D01*
X166882054Y-118791051D01*
X166621995Y-118840660D01*
X166376524Y-118939836D01*
X166154992Y-119084803D01*
X165965836Y-119270038D01*
X165816262Y-119488486D01*
X165711966Y-119731826D01*
X165656922Y-119990789D01*
X165653226Y-120255512D01*
X165701018Y-120515911D01*
X165798478Y-120762068D01*
X165941895Y-120984607D01*
X166125805Y-121175051D01*
X166343203Y-121326147D01*
X166585809Y-121432139D01*
X166844381Y-121488989D01*
X167109072Y-121494534D01*
X167369798Y-121448561D01*
X167616630Y-121352821D01*
X167840164Y-121210962D01*
X168031888Y-121028386D01*
X168184498Y-120812048D01*
X168292181Y-120570188D01*
X168350835Y-120312019D01*
X168355058Y-120009626D01*
X168355058Y-125675747D01*
X168056824Y-125768067D01*
X167533036Y-125823119D01*
X167008541Y-125775387D01*
X166491811Y-125623305D01*
X166406328Y-125586924D01*
X166406284Y-125586910D01*
X166403169Y-125585601D01*
X164612449Y-124847519D01*
X164596131Y-124842592D01*
X164580279Y-124836350D01*
X164576242Y-124835231D01*
X164419997Y-124793095D01*
X164543923Y-124712617D01*
X164655855Y-124603767D01*
X164744514Y-124475247D01*
X164806522Y-124331956D01*
X164809862Y-124321297D01*
X164929640Y-123929519D01*
X164960500Y-123776467D01*
X164961046Y-123620336D01*
X164931254Y-123467071D01*
X164872261Y-123322513D01*
X164786312Y-123192166D01*
X164676683Y-123080995D01*
X164547548Y-122993236D01*
X164403828Y-122932230D01*
X164250995Y-122900302D01*
X164094871Y-122898667D01*
X163941402Y-122927389D01*
X163796435Y-122985371D01*
X163699317Y-123048439D01*
X163631560Y-122909214D01*
X163536555Y-122784055D01*
X163418957Y-122679835D01*
X163343625Y-122633228D01*
X163211618Y-122639906D01*
X162952634Y-123487003D01*
X162971760Y-123492850D01*
X162942522Y-123588481D01*
X162923397Y-123582634D01*
X162917549Y-123601760D01*
X162821918Y-123572522D01*
X162827766Y-123553397D01*
X162808639Y-123547549D01*
X162837877Y-123451918D01*
X162857003Y-123457766D01*
X163115987Y-122610669D01*
X163010282Y-122531315D01*
X162921767Y-122527828D01*
X162765995Y-122548471D01*
X162669594Y-122581286D01*
X162669431Y-122555616D01*
X162649392Y-122487986D01*
X162611340Y-122428593D01*
X162558277Y-122382120D01*
X162494386Y-122352231D01*
X162425210Y-122331081D01*
X162425210Y-117944000D01*
X162425210Y-116244000D01*
X162421912Y-116203432D01*
X162400861Y-116136110D01*
X162361924Y-116077294D01*
X162308170Y-116031621D01*
X162243838Y-116002693D01*
X162174000Y-115992790D01*
X161274000Y-115992790D01*
X161233432Y-115996088D01*
X161166110Y-116017139D01*
X161107294Y-116056076D01*
X161061621Y-116109830D01*
X161032693Y-116174162D01*
X161022790Y-116244000D01*
X161022790Y-117944000D01*
X161026088Y-117984568D01*
X161047139Y-118051890D01*
X161067277Y-118082310D01*
X160690560Y-118082310D01*
X160649992Y-118085608D01*
X160582670Y-118106659D01*
X160523854Y-118145596D01*
X160478181Y-118199350D01*
X160449253Y-118263682D01*
X160439350Y-118333520D01*
X160439350Y-119532400D01*
X160442648Y-119572968D01*
X160463699Y-119640290D01*
X160502636Y-119699106D01*
X160556390Y-119744779D01*
X160620722Y-119773707D01*
X160690560Y-119783610D01*
X161889440Y-119783610D01*
X161930008Y-119780312D01*
X161997330Y-119759261D01*
X162056146Y-119720324D01*
X162101819Y-119666570D01*
X162130747Y-119602238D01*
X162140650Y-119532400D01*
X162140650Y-118333520D01*
X162137352Y-118292952D01*
X162124000Y-118250251D01*
X162124000Y-118195210D01*
X162174000Y-118195210D01*
X162214568Y-118191912D01*
X162281890Y-118170861D01*
X162340706Y-118131924D01*
X162386379Y-118078170D01*
X162415307Y-118013838D01*
X162425210Y-117944000D01*
X162425210Y-122331081D01*
X162139440Y-122243713D01*
X162139440Y-121655063D01*
X162139440Y-121143500D01*
X162139440Y-120918500D01*
X162139440Y-120406937D01*
X162129833Y-120358638D01*
X162110987Y-120313140D01*
X162083628Y-120272194D01*
X162048806Y-120237372D01*
X162007859Y-120210013D01*
X161962362Y-120191167D01*
X161914063Y-120181560D01*
X161864817Y-120181560D01*
X161402500Y-120181560D01*
X161340000Y-120244060D01*
X161340000Y-120981000D01*
X162076940Y-120981000D01*
X162139440Y-120918500D01*
X162139440Y-121143500D01*
X162076940Y-121081000D01*
X161340000Y-121081000D01*
X161340000Y-121817940D01*
X161402500Y-121880440D01*
X161864817Y-121880440D01*
X161914063Y-121880440D01*
X161962362Y-121870833D01*
X162007859Y-121851987D01*
X162048806Y-121824628D01*
X162083628Y-121789806D01*
X162110987Y-121748860D01*
X162129833Y-121703362D01*
X162139440Y-121655063D01*
X162139440Y-122243713D01*
X161442451Y-122030622D01*
X161402691Y-122021914D01*
X161332156Y-122022363D01*
X161264526Y-122042403D01*
X161240000Y-122058115D01*
X161240000Y-121817940D01*
X161240000Y-121081000D01*
X161240000Y-120981000D01*
X161240000Y-120244060D01*
X161177500Y-120181560D01*
X160715183Y-120181560D01*
X160665937Y-120181560D01*
X160617638Y-120191167D01*
X160572141Y-120210013D01*
X160531194Y-120237372D01*
X160496372Y-120272194D01*
X160469013Y-120313140D01*
X160450167Y-120358638D01*
X160440560Y-120406937D01*
X160440560Y-120918500D01*
X160503060Y-120981000D01*
X161240000Y-120981000D01*
X161240000Y-121081000D01*
X160503060Y-121081000D01*
X160440560Y-121143500D01*
X160440560Y-121655063D01*
X160450167Y-121703362D01*
X160469013Y-121748860D01*
X160496372Y-121789806D01*
X160531194Y-121824628D01*
X160572141Y-121851987D01*
X160617638Y-121870833D01*
X160665937Y-121880440D01*
X160715183Y-121880440D01*
X161177500Y-121880440D01*
X161240000Y-121817940D01*
X161240000Y-122058115D01*
X161205133Y-122080454D01*
X161158660Y-122133517D01*
X161128771Y-122197408D01*
X160690214Y-123631865D01*
X160681506Y-123671625D01*
X160681955Y-123742160D01*
X160695758Y-123788744D01*
X160316023Y-123686337D01*
X160316023Y-117065470D01*
X160295073Y-116959663D01*
X160253971Y-116859941D01*
X160194282Y-116770102D01*
X160118279Y-116693567D01*
X160028859Y-116633253D01*
X159929426Y-116591455D01*
X159823769Y-116569767D01*
X159715911Y-116569014D01*
X159609961Y-116589225D01*
X159598142Y-116594000D01*
X159525210Y-116594000D01*
X159525210Y-116244000D01*
X159521912Y-116203432D01*
X159500861Y-116136110D01*
X159461924Y-116077294D01*
X159408170Y-116031621D01*
X159343838Y-116002693D01*
X159274000Y-115992790D01*
X158374000Y-115992790D01*
X158333432Y-115996088D01*
X158266110Y-116017139D01*
X158207294Y-116056076D01*
X158161621Y-116109830D01*
X158132693Y-116174162D01*
X158122790Y-116244000D01*
X158122790Y-117944000D01*
X158126088Y-117984568D01*
X158147139Y-118051890D01*
X158186076Y-118110706D01*
X158239830Y-118156379D01*
X158304162Y-118185307D01*
X158374000Y-118195210D01*
X159274000Y-118195210D01*
X159314568Y-118191912D01*
X159381890Y-118170861D01*
X159440706Y-118131924D01*
X159486379Y-118078170D01*
X159515307Y-118013838D01*
X159525210Y-117944000D01*
X159525210Y-117614426D01*
X159595218Y-117645012D01*
X159700563Y-117668173D01*
X159808400Y-117670432D01*
X159914621Y-117651702D01*
X160015182Y-117612697D01*
X160106252Y-117554903D01*
X160184362Y-117480520D01*
X160246536Y-117392382D01*
X160290407Y-117293847D01*
X160314303Y-117188667D01*
X160316023Y-117065470D01*
X160316023Y-123686337D01*
X159985210Y-123597124D01*
X159985210Y-121196000D01*
X159985210Y-119596000D01*
X159981912Y-119555432D01*
X159960861Y-119488110D01*
X159921924Y-119429294D01*
X159868170Y-119383621D01*
X159803838Y-119354693D01*
X159734000Y-119344790D01*
X158734000Y-119344790D01*
X158693432Y-119348088D01*
X158626110Y-119369139D01*
X158567294Y-119408076D01*
X158521621Y-119461830D01*
X158492693Y-119526162D01*
X158482790Y-119596000D01*
X158482790Y-119617271D01*
X158445911Y-119617014D01*
X158339961Y-119637225D01*
X158239954Y-119677630D01*
X158149701Y-119736690D01*
X158072637Y-119812156D01*
X158011699Y-119901154D01*
X157969209Y-120000292D01*
X157946783Y-120105795D01*
X157945277Y-120213645D01*
X157964748Y-120319734D01*
X158004454Y-120420020D01*
X158062883Y-120510684D01*
X158137809Y-120588273D01*
X158226379Y-120649830D01*
X158306193Y-120684700D01*
X158371046Y-120749553D01*
X158406716Y-120778852D01*
X158442116Y-120808557D01*
X158444422Y-120809825D01*
X158446452Y-120811492D01*
X158482790Y-120830976D01*
X158482790Y-121196000D01*
X158486088Y-121236568D01*
X158507139Y-121303890D01*
X158546076Y-121362706D01*
X158599830Y-121408379D01*
X158664162Y-121437307D01*
X158734000Y-121447210D01*
X159734000Y-121447210D01*
X159774568Y-121443912D01*
X159841890Y-121422861D01*
X159900706Y-121383924D01*
X159946379Y-121330170D01*
X159975307Y-121265838D01*
X159985210Y-121196000D01*
X159985210Y-123597124D01*
X158452138Y-123183687D01*
X158425345Y-123179206D01*
X158398568Y-123174344D01*
X158394391Y-123174031D01*
X157618840Y-123121261D01*
X157618840Y-118476253D01*
X157618840Y-118427007D01*
X157618840Y-117714500D01*
X157618840Y-117489500D01*
X157618840Y-116776993D01*
X157618840Y-116727747D01*
X157609233Y-116679448D01*
X157590387Y-116633951D01*
X157563028Y-116593004D01*
X157528206Y-116558182D01*
X157487260Y-116530823D01*
X157441762Y-116511977D01*
X157393463Y-116502370D01*
X156881900Y-116502370D01*
X156819400Y-116564870D01*
X156819400Y-117552000D01*
X157556340Y-117552000D01*
X157618840Y-117489500D01*
X157618840Y-117714500D01*
X157556340Y-117652000D01*
X156819400Y-117652000D01*
X156819400Y-118639130D01*
X156881900Y-118701630D01*
X157393463Y-118701630D01*
X157441762Y-118692023D01*
X157487260Y-118673177D01*
X157528206Y-118645818D01*
X157563028Y-118610996D01*
X157590387Y-118570049D01*
X157609233Y-118524552D01*
X157618840Y-118476253D01*
X157618840Y-123121261D01*
X156984000Y-123078066D01*
X156984000Y-121220623D01*
X156984000Y-121171377D01*
X156984000Y-120508500D01*
X156984000Y-120283500D01*
X156984000Y-119620623D01*
X156984000Y-119571377D01*
X156974393Y-119523078D01*
X156955547Y-119477581D01*
X156928188Y-119436634D01*
X156893366Y-119401812D01*
X156852420Y-119374453D01*
X156806922Y-119355607D01*
X156758623Y-119346000D01*
X156346500Y-119346000D01*
X156284000Y-119408500D01*
X156284000Y-120346000D01*
X156921500Y-120346000D01*
X156984000Y-120283500D01*
X156984000Y-120508500D01*
X156921500Y-120446000D01*
X156284000Y-120446000D01*
X156284000Y-121383500D01*
X156346500Y-121446000D01*
X156758623Y-121446000D01*
X156806922Y-121436393D01*
X156852420Y-121417547D01*
X156893366Y-121390188D01*
X156928188Y-121355366D01*
X156955547Y-121314419D01*
X156974393Y-121268922D01*
X156984000Y-121220623D01*
X156984000Y-123078066D01*
X156184000Y-123023633D01*
X156184000Y-121383500D01*
X156184000Y-120446000D01*
X156184000Y-120346000D01*
X156184000Y-119408500D01*
X156121500Y-119346000D01*
X155709377Y-119346000D01*
X155661078Y-119355607D01*
X155615580Y-119374453D01*
X155574634Y-119401812D01*
X155539812Y-119436634D01*
X155512453Y-119477581D01*
X155493607Y-119523078D01*
X155484000Y-119571377D01*
X155484000Y-119620623D01*
X155484000Y-120283500D01*
X155546500Y-120346000D01*
X156184000Y-120346000D01*
X156184000Y-120446000D01*
X155546500Y-120446000D01*
X155484000Y-120508500D01*
X155484000Y-121171377D01*
X155484000Y-121220623D01*
X155493607Y-121268922D01*
X155512453Y-121314419D01*
X155539812Y-121355366D01*
X155574634Y-121390188D01*
X155615580Y-121417547D01*
X155661078Y-121436393D01*
X155709377Y-121446000D01*
X156121500Y-121446000D01*
X156184000Y-121383500D01*
X156184000Y-123023633D01*
X154670238Y-122920636D01*
X154717651Y-122895850D01*
X154839331Y-122798017D01*
X154939691Y-122678413D01*
X155014908Y-122541593D01*
X155062118Y-122392768D01*
X155079522Y-122237609D01*
X155079600Y-122226439D01*
X155079600Y-121816761D01*
X155064364Y-121661374D01*
X155019237Y-121511905D01*
X154945937Y-121374048D01*
X154847257Y-121253054D01*
X154726954Y-121153531D01*
X154679600Y-121127926D01*
X154679600Y-120142000D01*
X154675993Y-120105215D01*
X154672774Y-120068420D01*
X154672187Y-120066400D01*
X154671982Y-120064306D01*
X154661313Y-120028969D01*
X154650995Y-119993453D01*
X154650024Y-119991580D01*
X154649418Y-119989572D01*
X154632108Y-119957017D01*
X154615069Y-119924145D01*
X154613754Y-119922498D01*
X154612768Y-119920643D01*
X154589420Y-119892016D01*
X154566364Y-119863134D01*
X154563475Y-119860204D01*
X154563428Y-119860146D01*
X154563374Y-119860101D01*
X154562443Y-119859157D01*
X154165600Y-119462314D01*
X154165600Y-118602337D01*
X154230722Y-118568292D01*
X154359922Y-118464413D01*
X154466484Y-118337417D01*
X154515705Y-118247882D01*
X154558083Y-118327584D01*
X154662862Y-118456055D01*
X154790599Y-118561729D01*
X154936429Y-118640578D01*
X155094796Y-118689601D01*
X155259670Y-118706930D01*
X155424769Y-118691905D01*
X155583806Y-118645098D01*
X155730722Y-118568292D01*
X155859922Y-118464413D01*
X155919960Y-118392862D01*
X155919960Y-118427007D01*
X155919960Y-118476253D01*
X155929567Y-118524552D01*
X155948413Y-118570049D01*
X155975772Y-118610996D01*
X156010594Y-118645818D01*
X156051540Y-118673177D01*
X156097038Y-118692023D01*
X156145337Y-118701630D01*
X156656900Y-118701630D01*
X156719400Y-118639130D01*
X156719400Y-117652000D01*
X156699400Y-117652000D01*
X156699400Y-117552000D01*
X156719400Y-117552000D01*
X156719400Y-116564870D01*
X156656900Y-116502370D01*
X156145337Y-116502370D01*
X156097038Y-116511977D01*
X156051540Y-116530823D01*
X156010594Y-116558182D01*
X155975772Y-116593004D01*
X155948413Y-116633951D01*
X155929567Y-116679448D01*
X155919960Y-116727747D01*
X155919960Y-116776993D01*
X155919960Y-116811239D01*
X155868338Y-116747945D01*
X155740601Y-116642271D01*
X155594771Y-116563422D01*
X155436404Y-116514399D01*
X155271530Y-116497070D01*
X155106431Y-116512095D01*
X154947394Y-116558902D01*
X154800478Y-116635708D01*
X154671278Y-116739587D01*
X154564716Y-116866583D01*
X154515494Y-116956117D01*
X154473117Y-116876416D01*
X154368338Y-116747945D01*
X154240601Y-116642271D01*
X154094771Y-116563422D01*
X153936404Y-116514399D01*
X153771530Y-116497070D01*
X153606431Y-116512095D01*
X153447394Y-116558902D01*
X153300478Y-116635708D01*
X153171278Y-116739587D01*
X153064716Y-116866583D01*
X153015494Y-116956117D01*
X152973117Y-116876416D01*
X152868338Y-116747945D01*
X152740601Y-116642271D01*
X152594771Y-116563422D01*
X152436404Y-116514399D01*
X152271530Y-116497070D01*
X152106431Y-116512095D01*
X151947394Y-116558902D01*
X151800478Y-116635708D01*
X151671278Y-116739587D01*
X151564716Y-116866583D01*
X151515494Y-116956117D01*
X151473117Y-116876416D01*
X151368338Y-116747945D01*
X151240601Y-116642271D01*
X151094771Y-116563422D01*
X150936404Y-116514399D01*
X150771530Y-116497070D01*
X150606431Y-116512095D01*
X150447394Y-116558902D01*
X150300478Y-116635708D01*
X150171278Y-116739587D01*
X150064716Y-116866583D01*
X150015494Y-116956117D01*
X149973117Y-116876416D01*
X149868338Y-116747945D01*
X149740601Y-116642271D01*
X149594771Y-116563422D01*
X149436404Y-116514399D01*
X149271530Y-116497070D01*
X149106431Y-116512095D01*
X148947394Y-116558902D01*
X148800478Y-116635708D01*
X148671278Y-116739587D01*
X148564716Y-116866583D01*
X148484850Y-117011859D01*
X148434722Y-117169880D01*
X148416243Y-117334629D01*
X148416160Y-117346489D01*
X148416160Y-117857511D01*
X148432337Y-118022501D01*
X148480254Y-118181207D01*
X148558083Y-118327584D01*
X148662862Y-118456055D01*
X148712839Y-118497400D01*
X146523257Y-118497400D01*
X146478894Y-118453036D01*
X146479726Y-118452714D01*
X146636780Y-118353044D01*
X146771484Y-118224768D01*
X146878706Y-118072771D01*
X146954363Y-117902842D01*
X146995574Y-117721454D01*
X146998540Y-117508995D01*
X146962411Y-117326527D01*
X146891528Y-117154552D01*
X146788591Y-116999620D01*
X146657522Y-116867632D01*
X146503312Y-116763617D01*
X146331836Y-116691535D01*
X146149625Y-116654132D01*
X145963619Y-116652834D01*
X145780903Y-116687688D01*
X145608438Y-116757369D01*
X145452791Y-116859222D01*
X145319891Y-116989366D01*
X145214802Y-117142846D01*
X145141524Y-117313815D01*
X145102851Y-117495760D01*
X145100254Y-117681752D01*
X145133832Y-117864707D01*
X145202307Y-118037655D01*
X145303070Y-118194009D01*
X145432284Y-118327814D01*
X145585026Y-118433972D01*
X145650000Y-118462358D01*
X145650000Y-118589828D01*
X145653606Y-118626612D01*
X145656826Y-118663408D01*
X145657412Y-118665427D01*
X145657618Y-118667522D01*
X145668300Y-118702904D01*
X145678606Y-118738375D01*
X145679574Y-118740242D01*
X145680182Y-118742256D01*
X145697531Y-118774885D01*
X145714532Y-118807683D01*
X145715843Y-118809325D01*
X145716832Y-118811185D01*
X145740201Y-118839839D01*
X145763236Y-118868694D01*
X145766124Y-118871623D01*
X145766172Y-118871682D01*
X145766225Y-118871726D01*
X145767157Y-118872671D01*
X146074729Y-119180242D01*
X146103284Y-119203697D01*
X146131585Y-119227445D01*
X146133427Y-119228457D01*
X146135054Y-119229794D01*
X146167589Y-119247239D01*
X146199995Y-119265054D01*
X146202005Y-119265691D01*
X146203854Y-119266683D01*
X146239117Y-119277464D01*
X146274407Y-119288659D01*
X146276499Y-119288893D01*
X146278509Y-119289508D01*
X146315219Y-119293236D01*
X146351987Y-119297361D01*
X146356104Y-119297389D01*
X146356176Y-119297397D01*
X146356242Y-119297390D01*
X146357572Y-119297400D01*
X150619830Y-119297400D01*
X150656614Y-119293793D01*
X150693410Y-119290574D01*
X150695429Y-119289987D01*
X150697524Y-119289782D01*
X150732906Y-119279099D01*
X150768377Y-119268794D01*
X150770244Y-119267825D01*
X150772258Y-119267218D01*
X150804887Y-119249868D01*
X150837685Y-119232868D01*
X150839327Y-119231556D01*
X150841187Y-119230568D01*
X150869841Y-119207198D01*
X150898696Y-119184164D01*
X150901625Y-119181275D01*
X150901684Y-119181228D01*
X150901728Y-119181174D01*
X150902673Y-119180243D01*
X151048443Y-119034473D01*
X151071922Y-119005887D01*
X151095645Y-118977617D01*
X151096657Y-118975774D01*
X151097994Y-118974148D01*
X151115458Y-118941577D01*
X151133254Y-118909207D01*
X151133890Y-118907201D01*
X151134884Y-118905348D01*
X151145675Y-118870051D01*
X151156859Y-118834795D01*
X151157093Y-118832700D01*
X151157708Y-118830692D01*
X151161441Y-118793943D01*
X151165561Y-118757215D01*
X151165589Y-118753107D01*
X151165598Y-118753026D01*
X151165590Y-118752949D01*
X151165600Y-118751630D01*
X151165600Y-118602337D01*
X151230722Y-118568292D01*
X151359922Y-118464413D01*
X151466484Y-118337417D01*
X151515705Y-118247882D01*
X151558083Y-118327584D01*
X151662862Y-118456055D01*
X151790599Y-118561729D01*
X151865600Y-118602281D01*
X151865600Y-118612114D01*
X151368459Y-119109255D01*
X151333911Y-119109014D01*
X151227961Y-119129225D01*
X151127954Y-119169630D01*
X151037701Y-119228690D01*
X150960637Y-119304156D01*
X150899699Y-119393154D01*
X150857209Y-119492292D01*
X150834783Y-119597795D01*
X150833277Y-119705645D01*
X150852748Y-119811734D01*
X150892454Y-119912020D01*
X150950883Y-120002684D01*
X151025809Y-120080273D01*
X151114379Y-120141830D01*
X151213218Y-120185012D01*
X151318563Y-120208173D01*
X151426400Y-120210432D01*
X151532621Y-120191702D01*
X151633182Y-120152697D01*
X151724252Y-120094903D01*
X151802362Y-120020520D01*
X151864536Y-119932382D01*
X151908407Y-119833847D01*
X151932303Y-119728667D01*
X151933037Y-119676048D01*
X152548443Y-119060642D01*
X152571902Y-119032082D01*
X152595645Y-119003787D01*
X152596657Y-119001944D01*
X152597994Y-119000318D01*
X152615458Y-118967747D01*
X152633254Y-118935377D01*
X152633890Y-118933371D01*
X152634884Y-118931518D01*
X152645688Y-118896179D01*
X152656859Y-118860965D01*
X152657093Y-118858875D01*
X152657709Y-118856862D01*
X152661446Y-118820063D01*
X152665561Y-118783385D01*
X152665589Y-118779277D01*
X152665598Y-118779196D01*
X152665590Y-118779119D01*
X152665600Y-118777800D01*
X152665600Y-118602337D01*
X152730722Y-118568292D01*
X152859922Y-118464413D01*
X152966484Y-118337417D01*
X153015705Y-118247882D01*
X153058083Y-118327584D01*
X153162862Y-118456055D01*
X153290599Y-118561729D01*
X153365600Y-118602281D01*
X153365600Y-119628000D01*
X153369206Y-119664784D01*
X153372426Y-119701580D01*
X153373012Y-119703599D01*
X153373218Y-119705694D01*
X153383900Y-119741076D01*
X153394206Y-119776547D01*
X153395174Y-119778414D01*
X153395782Y-119780428D01*
X153413131Y-119813057D01*
X153430132Y-119845855D01*
X153431443Y-119847497D01*
X153432432Y-119849357D01*
X153455801Y-119878011D01*
X153478836Y-119906866D01*
X153481724Y-119909795D01*
X153481772Y-119909854D01*
X153481825Y-119909898D01*
X153482757Y-119910843D01*
X153879600Y-120307686D01*
X153879600Y-121127457D01*
X153841549Y-121147350D01*
X153719869Y-121245183D01*
X153645434Y-121333890D01*
X153539931Y-121220559D01*
X153412484Y-121128645D01*
X153269554Y-121063361D01*
X153183887Y-121040816D01*
X153059600Y-121085797D01*
X153059600Y-121971600D01*
X153079600Y-121971600D01*
X153079600Y-122071600D01*
X153059600Y-122071600D01*
X153059600Y-122091600D01*
X152959600Y-122091600D01*
X152959600Y-122071600D01*
X152939600Y-122071600D01*
X152939600Y-121971600D01*
X152959600Y-121971600D01*
X152959600Y-121085797D01*
X152835313Y-121040816D01*
X152749646Y-121063361D01*
X152606716Y-121128645D01*
X152524122Y-121188211D01*
X152516461Y-121163710D01*
X152477524Y-121104894D01*
X152423770Y-121059221D01*
X152359438Y-121030293D01*
X152289600Y-121020390D01*
X151189600Y-121020390D01*
X151149032Y-121023688D01*
X151081710Y-121044739D01*
X151022894Y-121083676D01*
X150977221Y-121137430D01*
X150948293Y-121201762D01*
X150938390Y-121271600D01*
X150938390Y-122771600D01*
X150941688Y-122812168D01*
X150962647Y-122879198D01*
X148124023Y-123243214D01*
X148124023Y-120367470D01*
X148103073Y-120261663D01*
X148061971Y-120161941D01*
X148002282Y-120072102D01*
X147926279Y-119995567D01*
X147836859Y-119935253D01*
X147737426Y-119893455D01*
X147631769Y-119871767D01*
X147523911Y-119871014D01*
X147417961Y-119891225D01*
X147406142Y-119896000D01*
X147309210Y-119896000D01*
X147309210Y-119596000D01*
X147305912Y-119555432D01*
X147284861Y-119488110D01*
X147245924Y-119429294D01*
X147192170Y-119383621D01*
X147127838Y-119354693D01*
X147058000Y-119344790D01*
X146058000Y-119344790D01*
X146017432Y-119348088D01*
X145950110Y-119369139D01*
X145891294Y-119408076D01*
X145845621Y-119461830D01*
X145816693Y-119526162D01*
X145806790Y-119596000D01*
X145806790Y-121196000D01*
X145810088Y-121236568D01*
X145831139Y-121303890D01*
X145870076Y-121362706D01*
X145923830Y-121408379D01*
X145988162Y-121437307D01*
X146058000Y-121447210D01*
X147058000Y-121447210D01*
X147098568Y-121443912D01*
X147165890Y-121422861D01*
X147224706Y-121383924D01*
X147270379Y-121330170D01*
X147299307Y-121265838D01*
X147309210Y-121196000D01*
X147309210Y-120905940D01*
X147403218Y-120947012D01*
X147508563Y-120970173D01*
X147616400Y-120972432D01*
X147722621Y-120953702D01*
X147823182Y-120914697D01*
X147914252Y-120856903D01*
X147992362Y-120782520D01*
X148054536Y-120694382D01*
X148098407Y-120595847D01*
X148122303Y-120490667D01*
X148124023Y-120367470D01*
X148124023Y-123243214D01*
X145716239Y-123551982D01*
X145689749Y-123558052D01*
X145663150Y-123563758D01*
X145659179Y-123565057D01*
X145659169Y-123565060D01*
X145659160Y-123565063D01*
X145085924Y-123756949D01*
X145105782Y-123727731D01*
X145166788Y-123584011D01*
X145198717Y-123431178D01*
X145200352Y-123275053D01*
X145171631Y-123121585D01*
X145168440Y-123110881D01*
X145048662Y-122719103D01*
X144988661Y-122574960D01*
X144901806Y-122445216D01*
X144791403Y-122334813D01*
X144661660Y-122247957D01*
X144517516Y-122187956D01*
X144463006Y-122176964D01*
X144463006Y-117589405D01*
X144442237Y-117403724D01*
X144385643Y-117225664D01*
X144309393Y-117083010D01*
X144174103Y-117008607D01*
X144103393Y-117079317D01*
X144103393Y-116937897D01*
X144028990Y-116802607D01*
X143863063Y-116716717D01*
X143683569Y-116664849D01*
X143497405Y-116648994D01*
X143311724Y-116669763D01*
X143133664Y-116726357D01*
X142991010Y-116802607D01*
X142916607Y-116937897D01*
X143510000Y-117531289D01*
X144103393Y-116937897D01*
X144103393Y-117079317D01*
X143580711Y-117602000D01*
X144174103Y-118195393D01*
X144309393Y-118120990D01*
X144395283Y-117955063D01*
X144447151Y-117775569D01*
X144463006Y-117589405D01*
X144463006Y-122176964D01*
X144364463Y-122157094D01*
X144308000Y-122156897D01*
X144308000Y-121220623D01*
X144308000Y-121171377D01*
X144308000Y-120508500D01*
X144308000Y-120283500D01*
X144308000Y-119620623D01*
X144308000Y-119571377D01*
X144298393Y-119523078D01*
X144279547Y-119477581D01*
X144252188Y-119436634D01*
X144217366Y-119401812D01*
X144176420Y-119374453D01*
X144130922Y-119355607D01*
X144103393Y-119350131D01*
X144103393Y-118266103D01*
X143510000Y-117672711D01*
X143439289Y-117743421D01*
X143439289Y-117602000D01*
X142845897Y-117008607D01*
X142710607Y-117083010D01*
X142624717Y-117248937D01*
X142572849Y-117428431D01*
X142556994Y-117614595D01*
X142577763Y-117800276D01*
X142634357Y-117978336D01*
X142710607Y-118120990D01*
X142845897Y-118195393D01*
X143439289Y-117602000D01*
X143439289Y-117743421D01*
X142916607Y-118266103D01*
X142991010Y-118401393D01*
X143156937Y-118487283D01*
X143336431Y-118539151D01*
X143522595Y-118555006D01*
X143708276Y-118534237D01*
X143886336Y-118477643D01*
X144028990Y-118401393D01*
X144103393Y-118266103D01*
X144103393Y-119350131D01*
X144082623Y-119346000D01*
X143670500Y-119346000D01*
X143608000Y-119408500D01*
X143608000Y-120346000D01*
X144245500Y-120346000D01*
X144308000Y-120283500D01*
X144308000Y-120508500D01*
X144245500Y-120446000D01*
X143608000Y-120446000D01*
X143608000Y-121383500D01*
X143670500Y-121446000D01*
X144082623Y-121446000D01*
X144130922Y-121436393D01*
X144176420Y-121417547D01*
X144217366Y-121390188D01*
X144252188Y-121355366D01*
X144279547Y-121314419D01*
X144298393Y-121268922D01*
X144308000Y-121220623D01*
X144308000Y-122156897D01*
X144208332Y-122156550D01*
X144055068Y-122186340D01*
X143910510Y-122245334D01*
X143780163Y-122331282D01*
X143668992Y-122440911D01*
X143581232Y-122570045D01*
X143535984Y-122676639D01*
X143508000Y-122660450D01*
X143508000Y-121383500D01*
X143508000Y-120446000D01*
X143508000Y-120346000D01*
X143508000Y-119408500D01*
X143445500Y-119346000D01*
X143033377Y-119346000D01*
X142985078Y-119355607D01*
X142939580Y-119374453D01*
X142898634Y-119401812D01*
X142863812Y-119436634D01*
X142836453Y-119477581D01*
X142817607Y-119523078D01*
X142808000Y-119571377D01*
X142808000Y-119620623D01*
X142808000Y-120283500D01*
X142870500Y-120346000D01*
X143508000Y-120346000D01*
X143508000Y-120446000D01*
X142870500Y-120446000D01*
X142808000Y-120508500D01*
X142808000Y-121171377D01*
X142808000Y-121220623D01*
X142817607Y-121268922D01*
X142836453Y-121314419D01*
X142863812Y-121355366D01*
X142898634Y-121390188D01*
X142939580Y-121417547D01*
X142985078Y-121436393D01*
X143033377Y-121446000D01*
X143445500Y-121446000D01*
X143508000Y-121383500D01*
X143508000Y-122660450D01*
X143401956Y-122599107D01*
X143253205Y-122548471D01*
X143097433Y-122527828D01*
X143008918Y-122531315D01*
X142903213Y-122610669D01*
X143162197Y-123457766D01*
X143181322Y-123451918D01*
X143210560Y-123547549D01*
X143191434Y-123553397D01*
X143197281Y-123572522D01*
X143101650Y-123601760D01*
X143095803Y-123582634D01*
X143076677Y-123588481D01*
X143047439Y-123492850D01*
X143066566Y-123487003D01*
X142807582Y-122639906D01*
X142675575Y-122633228D01*
X142600243Y-122679835D01*
X142482645Y-122784055D01*
X142421076Y-122865165D01*
X142406586Y-122843975D01*
X142352154Y-122799113D01*
X142287396Y-122771153D01*
X142217417Y-122762298D01*
X142147735Y-122773246D01*
X141095800Y-123094855D01*
X141057969Y-123109869D01*
X140999743Y-123149684D01*
X140954882Y-123204116D01*
X140926921Y-123268874D01*
X140918066Y-123338853D01*
X140929014Y-123408535D01*
X141367571Y-124842992D01*
X141382585Y-124880823D01*
X141422400Y-124939049D01*
X141460568Y-124970507D01*
X140364258Y-125337487D01*
X140364258Y-120009626D01*
X140312835Y-119749919D01*
X140211947Y-119505147D01*
X140065437Y-119284632D01*
X139878886Y-119096774D01*
X139659399Y-118948729D01*
X139415337Y-118846134D01*
X139155996Y-118792899D01*
X138891254Y-118791051D01*
X138631195Y-118840660D01*
X138385724Y-118939836D01*
X138164192Y-119084803D01*
X137975036Y-119270038D01*
X137825462Y-119488486D01*
X137721166Y-119731826D01*
X137666122Y-119990789D01*
X137662426Y-120255512D01*
X137710218Y-120515911D01*
X137807678Y-120762068D01*
X137951095Y-120984607D01*
X138135005Y-121175051D01*
X138352403Y-121326147D01*
X138595009Y-121432139D01*
X138853581Y-121488989D01*
X139118272Y-121494534D01*
X139378998Y-121448561D01*
X139625830Y-121352821D01*
X139849364Y-121210962D01*
X140041088Y-121028386D01*
X140193698Y-120812048D01*
X140301381Y-120570188D01*
X140360035Y-120312019D01*
X140364258Y-120009626D01*
X140364258Y-125337487D01*
X139644323Y-125578480D01*
X139644320Y-125578481D01*
X139116996Y-125754997D01*
X138594613Y-125821987D01*
X138069160Y-125786234D01*
X137560657Y-125649102D01*
X137125691Y-125434200D01*
X139651762Y-125434200D01*
X139651762Y-123234200D01*
X136192238Y-123234200D01*
X136192238Y-124474212D01*
X136058761Y-124244022D01*
X135888098Y-123745773D01*
X135815857Y-123211991D01*
X135814200Y-123121881D01*
X135814200Y-116156870D01*
X135828942Y-116006516D01*
X135868348Y-115875997D01*
X135932354Y-115755619D01*
X136018519Y-115649971D01*
X136123568Y-115563066D01*
X136243495Y-115498222D01*
X136373739Y-115457905D01*
X136523165Y-115442200D01*
X169499529Y-115442200D01*
X169649883Y-115456942D01*
X169780402Y-115496348D01*
X169900780Y-115560354D01*
X170006428Y-115646519D01*
X170093333Y-115751568D01*
X170158177Y-115871495D01*
X170198494Y-116001739D01*
X170214200Y-116151165D01*
X170214200Y-123109953D01*
X170214200Y-123109953D01*
G37*
X170214200Y-123109953D02*
X170161367Y-123648776D01*
X170009144Y-124152965D01*
X169761890Y-124617984D01*
X169429020Y-125026122D01*
X169023218Y-125361831D01*
X168559935Y-125612327D01*
X168355058Y-125675747D01*
X168355058Y-120009626D01*
X168303635Y-119749919D01*
X168202747Y-119505147D01*
X168056237Y-119284632D01*
X167869686Y-119096774D01*
X167650199Y-118948729D01*
X167406137Y-118846134D01*
X167146796Y-118792899D01*
X166882054Y-118791051D01*
X166621995Y-118840660D01*
X166376524Y-118939836D01*
X166154992Y-119084803D01*
X165965836Y-119270038D01*
X165816262Y-119488486D01*
X165711966Y-119731826D01*
X165656922Y-119990789D01*
X165653226Y-120255512D01*
X165701018Y-120515911D01*
X165798478Y-120762068D01*
X165941895Y-120984607D01*
X166125805Y-121175051D01*
X166343203Y-121326147D01*
X166585809Y-121432139D01*
X166844381Y-121488989D01*
X167109072Y-121494534D01*
X167369798Y-121448561D01*
X167616630Y-121352821D01*
X167840164Y-121210962D01*
X168031888Y-121028386D01*
X168184498Y-120812048D01*
X168292181Y-120570188D01*
X168350835Y-120312019D01*
X168355058Y-120009626D01*
X168355058Y-125675747D01*
X168056824Y-125768067D01*
X167533036Y-125823119D01*
X167008541Y-125775387D01*
X166491811Y-125623305D01*
X166406328Y-125586924D01*
X166406284Y-125586910D01*
X166403169Y-125585601D01*
X164612449Y-124847519D01*
X164596131Y-124842592D01*
X164580279Y-124836350D01*
X164576242Y-124835231D01*
X164419997Y-124793095D01*
X164543923Y-124712617D01*
X164655855Y-124603767D01*
X164744514Y-124475247D01*
X164806522Y-124331956D01*
X164809862Y-124321297D01*
X164929640Y-123929519D01*
X164960500Y-123776467D01*
X164961046Y-123620336D01*
X164931254Y-123467071D01*
X164872261Y-123322513D01*
X164786312Y-123192166D01*
X164676683Y-123080995D01*
X164547548Y-122993236D01*
X164403828Y-122932230D01*
X164250995Y-122900302D01*
X164094871Y-122898667D01*
X163941402Y-122927389D01*
X163796435Y-122985371D01*
X163699317Y-123048439D01*
X163631560Y-122909214D01*
X163536555Y-122784055D01*
X163418957Y-122679835D01*
X163343625Y-122633228D01*
X163211618Y-122639906D01*
X162952634Y-123487003D01*
X162971760Y-123492850D01*
X162942522Y-123588481D01*
X162923397Y-123582634D01*
X162917549Y-123601760D01*
X162821918Y-123572522D01*
X162827766Y-123553397D01*
X162808639Y-123547549D01*
X162837877Y-123451918D01*
X162857003Y-123457766D01*
X163115987Y-122610669D01*
X163010282Y-122531315D01*
X162921767Y-122527828D01*
X162765995Y-122548471D01*
X162669594Y-122581286D01*
X162669431Y-122555616D01*
X162649392Y-122487986D01*
X162611340Y-122428593D01*
X162558277Y-122382120D01*
X162494386Y-122352231D01*
X162425210Y-122331081D01*
X162425210Y-117944000D01*
X162425210Y-116244000D01*
X162421912Y-116203432D01*
X162400861Y-116136110D01*
X162361924Y-116077294D01*
X162308170Y-116031621D01*
X162243838Y-116002693D01*
X162174000Y-115992790D01*
X161274000Y-115992790D01*
X161233432Y-115996088D01*
X161166110Y-116017139D01*
X161107294Y-116056076D01*
X161061621Y-116109830D01*
X161032693Y-116174162D01*
X161022790Y-116244000D01*
X161022790Y-117944000D01*
X161026088Y-117984568D01*
X161047139Y-118051890D01*
X161067277Y-118082310D01*
X160690560Y-118082310D01*
X160649992Y-118085608D01*
X160582670Y-118106659D01*
X160523854Y-118145596D01*
X160478181Y-118199350D01*
X160449253Y-118263682D01*
X160439350Y-118333520D01*
X160439350Y-119532400D01*
X160442648Y-119572968D01*
X160463699Y-119640290D01*
X160502636Y-119699106D01*
X160556390Y-119744779D01*
X160620722Y-119773707D01*
X160690560Y-119783610D01*
X161889440Y-119783610D01*
X161930008Y-119780312D01*
X161997330Y-119759261D01*
X162056146Y-119720324D01*
X162101819Y-119666570D01*
X162130747Y-119602238D01*
X162140650Y-119532400D01*
X162140650Y-118333520D01*
X162137352Y-118292952D01*
X162124000Y-118250251D01*
X162124000Y-118195210D01*
X162174000Y-118195210D01*
X162214568Y-118191912D01*
X162281890Y-118170861D01*
X162340706Y-118131924D01*
X162386379Y-118078170D01*
X162415307Y-118013838D01*
X162425210Y-117944000D01*
X162425210Y-122331081D01*
X162139440Y-122243713D01*
X162139440Y-121655063D01*
X162139440Y-121143500D01*
X162139440Y-120918500D01*
X162139440Y-120406937D01*
X162129833Y-120358638D01*
X162110987Y-120313140D01*
X162083628Y-120272194D01*
X162048806Y-120237372D01*
X162007859Y-120210013D01*
X161962362Y-120191167D01*
X161914063Y-120181560D01*
X161864817Y-120181560D01*
X161402500Y-120181560D01*
X161340000Y-120244060D01*
X161340000Y-120981000D01*
X162076940Y-120981000D01*
X162139440Y-120918500D01*
X162139440Y-121143500D01*
X162076940Y-121081000D01*
X161340000Y-121081000D01*
X161340000Y-121817940D01*
X161402500Y-121880440D01*
X161864817Y-121880440D01*
X161914063Y-121880440D01*
X161962362Y-121870833D01*
X162007859Y-121851987D01*
X162048806Y-121824628D01*
X162083628Y-121789806D01*
X162110987Y-121748860D01*
X162129833Y-121703362D01*
X162139440Y-121655063D01*
X162139440Y-122243713D01*
X161442451Y-122030622D01*
X161402691Y-122021914D01*
X161332156Y-122022363D01*
X161264526Y-122042403D01*
X161240000Y-122058115D01*
X161240000Y-121817940D01*
X161240000Y-121081000D01*
X161240000Y-120981000D01*
X161240000Y-120244060D01*
X161177500Y-120181560D01*
X160715183Y-120181560D01*
X160665937Y-120181560D01*
X160617638Y-120191167D01*
X160572141Y-120210013D01*
X160531194Y-120237372D01*
X160496372Y-120272194D01*
X160469013Y-120313140D01*
X160450167Y-120358638D01*
X160440560Y-120406937D01*
X160440560Y-120918500D01*
X160503060Y-120981000D01*
X161240000Y-120981000D01*
X161240000Y-121081000D01*
X160503060Y-121081000D01*
X160440560Y-121143500D01*
X160440560Y-121655063D01*
X160450167Y-121703362D01*
X160469013Y-121748860D01*
X160496372Y-121789806D01*
X160531194Y-121824628D01*
X160572141Y-121851987D01*
X160617638Y-121870833D01*
X160665937Y-121880440D01*
X160715183Y-121880440D01*
X161177500Y-121880440D01*
X161240000Y-121817940D01*
X161240000Y-122058115D01*
X161205133Y-122080454D01*
X161158660Y-122133517D01*
X161128771Y-122197408D01*
X160690214Y-123631865D01*
X160681506Y-123671625D01*
X160681955Y-123742160D01*
X160695758Y-123788744D01*
X160316023Y-123686337D01*
X160316023Y-117065470D01*
X160295073Y-116959663D01*
X160253971Y-116859941D01*
X160194282Y-116770102D01*
X160118279Y-116693567D01*
X160028859Y-116633253D01*
X159929426Y-116591455D01*
X159823769Y-116569767D01*
X159715911Y-116569014D01*
X159609961Y-116589225D01*
X159598142Y-116594000D01*
X159525210Y-116594000D01*
X159525210Y-116244000D01*
X159521912Y-116203432D01*
X159500861Y-116136110D01*
X159461924Y-116077294D01*
X159408170Y-116031621D01*
X159343838Y-116002693D01*
X159274000Y-115992790D01*
X158374000Y-115992790D01*
X158333432Y-115996088D01*
X158266110Y-116017139D01*
X158207294Y-116056076D01*
X158161621Y-116109830D01*
X158132693Y-116174162D01*
X158122790Y-116244000D01*
X158122790Y-117944000D01*
X158126088Y-117984568D01*
X158147139Y-118051890D01*
X158186076Y-118110706D01*
X158239830Y-118156379D01*
X158304162Y-118185307D01*
X158374000Y-118195210D01*
X159274000Y-118195210D01*
X159314568Y-118191912D01*
X159381890Y-118170861D01*
X159440706Y-118131924D01*
X159486379Y-118078170D01*
X159515307Y-118013838D01*
X159525210Y-117944000D01*
X159525210Y-117614426D01*
X159595218Y-117645012D01*
X159700563Y-117668173D01*
X159808400Y-117670432D01*
X159914621Y-117651702D01*
X160015182Y-117612697D01*
X160106252Y-117554903D01*
X160184362Y-117480520D01*
X160246536Y-117392382D01*
X160290407Y-117293847D01*
X160314303Y-117188667D01*
X160316023Y-117065470D01*
X160316023Y-123686337D01*
X159985210Y-123597124D01*
X159985210Y-121196000D01*
X159985210Y-119596000D01*
X159981912Y-119555432D01*
X159960861Y-119488110D01*
X159921924Y-119429294D01*
X159868170Y-119383621D01*
X159803838Y-119354693D01*
X159734000Y-119344790D01*
X158734000Y-119344790D01*
X158693432Y-119348088D01*
X158626110Y-119369139D01*
X158567294Y-119408076D01*
X158521621Y-119461830D01*
X158492693Y-119526162D01*
X158482790Y-119596000D01*
X158482790Y-119617271D01*
X158445911Y-119617014D01*
X158339961Y-119637225D01*
X158239954Y-119677630D01*
X158149701Y-119736690D01*
X158072637Y-119812156D01*
X158011699Y-119901154D01*
X157969209Y-120000292D01*
X157946783Y-120105795D01*
X157945277Y-120213645D01*
X157964748Y-120319734D01*
X158004454Y-120420020D01*
X158062883Y-120510684D01*
X158137809Y-120588273D01*
X158226379Y-120649830D01*
X158306193Y-120684700D01*
X158371046Y-120749553D01*
X158406716Y-120778852D01*
X158442116Y-120808557D01*
X158444422Y-120809825D01*
X158446452Y-120811492D01*
X158482790Y-120830976D01*
X158482790Y-121196000D01*
X158486088Y-121236568D01*
X158507139Y-121303890D01*
X158546076Y-121362706D01*
X158599830Y-121408379D01*
X158664162Y-121437307D01*
X158734000Y-121447210D01*
X159734000Y-121447210D01*
X159774568Y-121443912D01*
X159841890Y-121422861D01*
X159900706Y-121383924D01*
X159946379Y-121330170D01*
X159975307Y-121265838D01*
X159985210Y-121196000D01*
X159985210Y-123597124D01*
X158452138Y-123183687D01*
X158425345Y-123179206D01*
X158398568Y-123174344D01*
X158394391Y-123174031D01*
X157618840Y-123121261D01*
X157618840Y-118476253D01*
X157618840Y-118427007D01*
X157618840Y-117714500D01*
X157618840Y-117489500D01*
X157618840Y-116776993D01*
X157618840Y-116727747D01*
X157609233Y-116679448D01*
X157590387Y-116633951D01*
X157563028Y-116593004D01*
X157528206Y-116558182D01*
X157487260Y-116530823D01*
X157441762Y-116511977D01*
X157393463Y-116502370D01*
X156881900Y-116502370D01*
X156819400Y-116564870D01*
X156819400Y-117552000D01*
X157556340Y-117552000D01*
X157618840Y-117489500D01*
X157618840Y-117714500D01*
X157556340Y-117652000D01*
X156819400Y-117652000D01*
X156819400Y-118639130D01*
X156881900Y-118701630D01*
X157393463Y-118701630D01*
X157441762Y-118692023D01*
X157487260Y-118673177D01*
X157528206Y-118645818D01*
X157563028Y-118610996D01*
X157590387Y-118570049D01*
X157609233Y-118524552D01*
X157618840Y-118476253D01*
X157618840Y-123121261D01*
X156984000Y-123078066D01*
X156984000Y-121220623D01*
X156984000Y-121171377D01*
X156984000Y-120508500D01*
X156984000Y-120283500D01*
X156984000Y-119620623D01*
X156984000Y-119571377D01*
X156974393Y-119523078D01*
X156955547Y-119477581D01*
X156928188Y-119436634D01*
X156893366Y-119401812D01*
X156852420Y-119374453D01*
X156806922Y-119355607D01*
X156758623Y-119346000D01*
X156346500Y-119346000D01*
X156284000Y-119408500D01*
X156284000Y-120346000D01*
X156921500Y-120346000D01*
X156984000Y-120283500D01*
X156984000Y-120508500D01*
X156921500Y-120446000D01*
X156284000Y-120446000D01*
X156284000Y-121383500D01*
X156346500Y-121446000D01*
X156758623Y-121446000D01*
X156806922Y-121436393D01*
X156852420Y-121417547D01*
X156893366Y-121390188D01*
X156928188Y-121355366D01*
X156955547Y-121314419D01*
X156974393Y-121268922D01*
X156984000Y-121220623D01*
X156984000Y-123078066D01*
X156184000Y-123023633D01*
X156184000Y-121383500D01*
X156184000Y-120446000D01*
X156184000Y-120346000D01*
X156184000Y-119408500D01*
X156121500Y-119346000D01*
X155709377Y-119346000D01*
X155661078Y-119355607D01*
X155615580Y-119374453D01*
X155574634Y-119401812D01*
X155539812Y-119436634D01*
X155512453Y-119477581D01*
X155493607Y-119523078D01*
X155484000Y-119571377D01*
X155484000Y-119620623D01*
X155484000Y-120283500D01*
X155546500Y-120346000D01*
X156184000Y-120346000D01*
X156184000Y-120446000D01*
X155546500Y-120446000D01*
X155484000Y-120508500D01*
X155484000Y-121171377D01*
X155484000Y-121220623D01*
X155493607Y-121268922D01*
X155512453Y-121314419D01*
X155539812Y-121355366D01*
X155574634Y-121390188D01*
X155615580Y-121417547D01*
X155661078Y-121436393D01*
X155709377Y-121446000D01*
X156121500Y-121446000D01*
X156184000Y-121383500D01*
X156184000Y-123023633D01*
X154670238Y-122920636D01*
X154717651Y-122895850D01*
X154839331Y-122798017D01*
X154939691Y-122678413D01*
X155014908Y-122541593D01*
X155062118Y-122392768D01*
X155079522Y-122237609D01*
X155079600Y-122226439D01*
X155079600Y-121816761D01*
X155064364Y-121661374D01*
X155019237Y-121511905D01*
X154945937Y-121374048D01*
X154847257Y-121253054D01*
X154726954Y-121153531D01*
X154679600Y-121127926D01*
X154679600Y-120142000D01*
X154675993Y-120105215D01*
X154672774Y-120068420D01*
X154672187Y-120066400D01*
X154671982Y-120064306D01*
X154661313Y-120028969D01*
X154650995Y-119993453D01*
X154650024Y-119991580D01*
X154649418Y-119989572D01*
X154632108Y-119957017D01*
X154615069Y-119924145D01*
X154613754Y-119922498D01*
X154612768Y-119920643D01*
X154589420Y-119892016D01*
X154566364Y-119863134D01*
X154563475Y-119860204D01*
X154563428Y-119860146D01*
X154563374Y-119860101D01*
X154562443Y-119859157D01*
X154165600Y-119462314D01*
X154165600Y-118602337D01*
X154230722Y-118568292D01*
X154359922Y-118464413D01*
X154466484Y-118337417D01*
X154515705Y-118247882D01*
X154558083Y-118327584D01*
X154662862Y-118456055D01*
X154790599Y-118561729D01*
X154936429Y-118640578D01*
X155094796Y-118689601D01*
X155259670Y-118706930D01*
X155424769Y-118691905D01*
X155583806Y-118645098D01*
X155730722Y-118568292D01*
X155859922Y-118464413D01*
X155919960Y-118392862D01*
X155919960Y-118427007D01*
X155919960Y-118476253D01*
X155929567Y-118524552D01*
X155948413Y-118570049D01*
X155975772Y-118610996D01*
X156010594Y-118645818D01*
X156051540Y-118673177D01*
X156097038Y-118692023D01*
X156145337Y-118701630D01*
X156656900Y-118701630D01*
X156719400Y-118639130D01*
X156719400Y-117652000D01*
X156699400Y-117652000D01*
X156699400Y-117552000D01*
X156719400Y-117552000D01*
X156719400Y-116564870D01*
X156656900Y-116502370D01*
X156145337Y-116502370D01*
X156097038Y-116511977D01*
X156051540Y-116530823D01*
X156010594Y-116558182D01*
X155975772Y-116593004D01*
X155948413Y-116633951D01*
X155929567Y-116679448D01*
X155919960Y-116727747D01*
X155919960Y-116776993D01*
X155919960Y-116811239D01*
X155868338Y-116747945D01*
X155740601Y-116642271D01*
X155594771Y-116563422D01*
X155436404Y-116514399D01*
X155271530Y-116497070D01*
X155106431Y-116512095D01*
X154947394Y-116558902D01*
X154800478Y-116635708D01*
X154671278Y-116739587D01*
X154564716Y-116866583D01*
X154515494Y-116956117D01*
X154473117Y-116876416D01*
X154368338Y-116747945D01*
X154240601Y-116642271D01*
X154094771Y-116563422D01*
X153936404Y-116514399D01*
X153771530Y-116497070D01*
X153606431Y-116512095D01*
X153447394Y-116558902D01*
X153300478Y-116635708D01*
X153171278Y-116739587D01*
X153064716Y-116866583D01*
X153015494Y-116956117D01*
X152973117Y-116876416D01*
X152868338Y-116747945D01*
X152740601Y-116642271D01*
X152594771Y-116563422D01*
X152436404Y-116514399D01*
X152271530Y-116497070D01*
X152106431Y-116512095D01*
X151947394Y-116558902D01*
X151800478Y-116635708D01*
X151671278Y-116739587D01*
X151564716Y-116866583D01*
X151515494Y-116956117D01*
X151473117Y-116876416D01*
X151368338Y-116747945D01*
X151240601Y-116642271D01*
X151094771Y-116563422D01*
X150936404Y-116514399D01*
X150771530Y-116497070D01*
X150606431Y-116512095D01*
X150447394Y-116558902D01*
X150300478Y-116635708D01*
X150171278Y-116739587D01*
X150064716Y-116866583D01*
X150015494Y-116956117D01*
X149973117Y-116876416D01*
X149868338Y-116747945D01*
X149740601Y-116642271D01*
X149594771Y-116563422D01*
X149436404Y-116514399D01*
X149271530Y-116497070D01*
X149106431Y-116512095D01*
X148947394Y-116558902D01*
X148800478Y-116635708D01*
X148671278Y-116739587D01*
X148564716Y-116866583D01*
X148484850Y-117011859D01*
X148434722Y-117169880D01*
X148416243Y-117334629D01*
X148416160Y-117346489D01*
X148416160Y-117857511D01*
X148432337Y-118022501D01*
X148480254Y-118181207D01*
X148558083Y-118327584D01*
X148662862Y-118456055D01*
X148712839Y-118497400D01*
X146523257Y-118497400D01*
X146478894Y-118453036D01*
X146479726Y-118452714D01*
X146636780Y-118353044D01*
X146771484Y-118224768D01*
X146878706Y-118072771D01*
X146954363Y-117902842D01*
X146995574Y-117721454D01*
X146998540Y-117508995D01*
X146962411Y-117326527D01*
X146891528Y-117154552D01*
X146788591Y-116999620D01*
X146657522Y-116867632D01*
X146503312Y-116763617D01*
X146331836Y-116691535D01*
X146149625Y-116654132D01*
X145963619Y-116652834D01*
X145780903Y-116687688D01*
X145608438Y-116757369D01*
X145452791Y-116859222D01*
X145319891Y-116989366D01*
X145214802Y-117142846D01*
X145141524Y-117313815D01*
X145102851Y-117495760D01*
X145100254Y-117681752D01*
X145133832Y-117864707D01*
X145202307Y-118037655D01*
X145303070Y-118194009D01*
X145432284Y-118327814D01*
X145585026Y-118433972D01*
X145650000Y-118462358D01*
X145650000Y-118589828D01*
X145653606Y-118626612D01*
X145656826Y-118663408D01*
X145657412Y-118665427D01*
X145657618Y-118667522D01*
X145668300Y-118702904D01*
X145678606Y-118738375D01*
X145679574Y-118740242D01*
X145680182Y-118742256D01*
X145697531Y-118774885D01*
X145714532Y-118807683D01*
X145715843Y-118809325D01*
X145716832Y-118811185D01*
X145740201Y-118839839D01*
X145763236Y-118868694D01*
X145766124Y-118871623D01*
X145766172Y-118871682D01*
X145766225Y-118871726D01*
X145767157Y-118872671D01*
X146074729Y-119180242D01*
X146103284Y-119203697D01*
X146131585Y-119227445D01*
X146133427Y-119228457D01*
X146135054Y-119229794D01*
X146167589Y-119247239D01*
X146199995Y-119265054D01*
X146202005Y-119265691D01*
X146203854Y-119266683D01*
X146239117Y-119277464D01*
X146274407Y-119288659D01*
X146276499Y-119288893D01*
X146278509Y-119289508D01*
X146315219Y-119293236D01*
X146351987Y-119297361D01*
X146356104Y-119297389D01*
X146356176Y-119297397D01*
X146356242Y-119297390D01*
X146357572Y-119297400D01*
X150619830Y-119297400D01*
X150656614Y-119293793D01*
X150693410Y-119290574D01*
X150695429Y-119289987D01*
X150697524Y-119289782D01*
X150732906Y-119279099D01*
X150768377Y-119268794D01*
X150770244Y-119267825D01*
X150772258Y-119267218D01*
X150804887Y-119249868D01*
X150837685Y-119232868D01*
X150839327Y-119231556D01*
X150841187Y-119230568D01*
X150869841Y-119207198D01*
X150898696Y-119184164D01*
X150901625Y-119181275D01*
X150901684Y-119181228D01*
X150901728Y-119181174D01*
X150902673Y-119180243D01*
X151048443Y-119034473D01*
X151071922Y-119005887D01*
X151095645Y-118977617D01*
X151096657Y-118975774D01*
X151097994Y-118974148D01*
X151115458Y-118941577D01*
X151133254Y-118909207D01*
X151133890Y-118907201D01*
X151134884Y-118905348D01*
X151145675Y-118870051D01*
X151156859Y-118834795D01*
X151157093Y-118832700D01*
X151157708Y-118830692D01*
X151161441Y-118793943D01*
X151165561Y-118757215D01*
X151165589Y-118753107D01*
X151165598Y-118753026D01*
X151165590Y-118752949D01*
X151165600Y-118751630D01*
X151165600Y-118602337D01*
X151230722Y-118568292D01*
X151359922Y-118464413D01*
X151466484Y-118337417D01*
X151515705Y-118247882D01*
X151558083Y-118327584D01*
X151662862Y-118456055D01*
X151790599Y-118561729D01*
X151865600Y-118602281D01*
X151865600Y-118612114D01*
X151368459Y-119109255D01*
X151333911Y-119109014D01*
X151227961Y-119129225D01*
X151127954Y-119169630D01*
X151037701Y-119228690D01*
X150960637Y-119304156D01*
X150899699Y-119393154D01*
X150857209Y-119492292D01*
X150834783Y-119597795D01*
X150833277Y-119705645D01*
X150852748Y-119811734D01*
X150892454Y-119912020D01*
X150950883Y-120002684D01*
X151025809Y-120080273D01*
X151114379Y-120141830D01*
X151213218Y-120185012D01*
X151318563Y-120208173D01*
X151426400Y-120210432D01*
X151532621Y-120191702D01*
X151633182Y-120152697D01*
X151724252Y-120094903D01*
X151802362Y-120020520D01*
X151864536Y-119932382D01*
X151908407Y-119833847D01*
X151932303Y-119728667D01*
X151933037Y-119676048D01*
X152548443Y-119060642D01*
X152571902Y-119032082D01*
X152595645Y-119003787D01*
X152596657Y-119001944D01*
X152597994Y-119000318D01*
X152615458Y-118967747D01*
X152633254Y-118935377D01*
X152633890Y-118933371D01*
X152634884Y-118931518D01*
X152645688Y-118896179D01*
X152656859Y-118860965D01*
X152657093Y-118858875D01*
X152657709Y-118856862D01*
X152661446Y-118820063D01*
X152665561Y-118783385D01*
X152665589Y-118779277D01*
X152665598Y-118779196D01*
X152665590Y-118779119D01*
X152665600Y-118777800D01*
X152665600Y-118602337D01*
X152730722Y-118568292D01*
X152859922Y-118464413D01*
X152966484Y-118337417D01*
X153015705Y-118247882D01*
X153058083Y-118327584D01*
X153162862Y-118456055D01*
X153290599Y-118561729D01*
X153365600Y-118602281D01*
X153365600Y-119628000D01*
X153369206Y-119664784D01*
X153372426Y-119701580D01*
X153373012Y-119703599D01*
X153373218Y-119705694D01*
X153383900Y-119741076D01*
X153394206Y-119776547D01*
X153395174Y-119778414D01*
X153395782Y-119780428D01*
X153413131Y-119813057D01*
X153430132Y-119845855D01*
X153431443Y-119847497D01*
X153432432Y-119849357D01*
X153455801Y-119878011D01*
X153478836Y-119906866D01*
X153481724Y-119909795D01*
X153481772Y-119909854D01*
X153481825Y-119909898D01*
X153482757Y-119910843D01*
X153879600Y-120307686D01*
X153879600Y-121127457D01*
X153841549Y-121147350D01*
X153719869Y-121245183D01*
X153645434Y-121333890D01*
X153539931Y-121220559D01*
X153412484Y-121128645D01*
X153269554Y-121063361D01*
X153183887Y-121040816D01*
X153059600Y-121085797D01*
X153059600Y-121971600D01*
X153079600Y-121971600D01*
X153079600Y-122071600D01*
X153059600Y-122071600D01*
X153059600Y-122091600D01*
X152959600Y-122091600D01*
X152959600Y-122071600D01*
X152939600Y-122071600D01*
X152939600Y-121971600D01*
X152959600Y-121971600D01*
X152959600Y-121085797D01*
X152835313Y-121040816D01*
X152749646Y-121063361D01*
X152606716Y-121128645D01*
X152524122Y-121188211D01*
X152516461Y-121163710D01*
X152477524Y-121104894D01*
X152423770Y-121059221D01*
X152359438Y-121030293D01*
X152289600Y-121020390D01*
X151189600Y-121020390D01*
X151149032Y-121023688D01*
X151081710Y-121044739D01*
X151022894Y-121083676D01*
X150977221Y-121137430D01*
X150948293Y-121201762D01*
X150938390Y-121271600D01*
X150938390Y-122771600D01*
X150941688Y-122812168D01*
X150962647Y-122879198D01*
X148124023Y-123243214D01*
X148124023Y-120367470D01*
X148103073Y-120261663D01*
X148061971Y-120161941D01*
X148002282Y-120072102D01*
X147926279Y-119995567D01*
X147836859Y-119935253D01*
X147737426Y-119893455D01*
X147631769Y-119871767D01*
X147523911Y-119871014D01*
X147417961Y-119891225D01*
X147406142Y-119896000D01*
X147309210Y-119896000D01*
X147309210Y-119596000D01*
X147305912Y-119555432D01*
X147284861Y-119488110D01*
X147245924Y-119429294D01*
X147192170Y-119383621D01*
X147127838Y-119354693D01*
X147058000Y-119344790D01*
X146058000Y-119344790D01*
X146017432Y-119348088D01*
X145950110Y-119369139D01*
X145891294Y-119408076D01*
X145845621Y-119461830D01*
X145816693Y-119526162D01*
X145806790Y-119596000D01*
X145806790Y-121196000D01*
X145810088Y-121236568D01*
X145831139Y-121303890D01*
X145870076Y-121362706D01*
X145923830Y-121408379D01*
X145988162Y-121437307D01*
X146058000Y-121447210D01*
X147058000Y-121447210D01*
X147098568Y-121443912D01*
X147165890Y-121422861D01*
X147224706Y-121383924D01*
X147270379Y-121330170D01*
X147299307Y-121265838D01*
X147309210Y-121196000D01*
X147309210Y-120905940D01*
X147403218Y-120947012D01*
X147508563Y-120970173D01*
X147616400Y-120972432D01*
X147722621Y-120953702D01*
X147823182Y-120914697D01*
X147914252Y-120856903D01*
X147992362Y-120782520D01*
X148054536Y-120694382D01*
X148098407Y-120595847D01*
X148122303Y-120490667D01*
X148124023Y-120367470D01*
X148124023Y-123243214D01*
X145716239Y-123551982D01*
X145689749Y-123558052D01*
X145663150Y-123563758D01*
X145659179Y-123565057D01*
X145659169Y-123565060D01*
X145659160Y-123565063D01*
X145085924Y-123756949D01*
X145105782Y-123727731D01*
X145166788Y-123584011D01*
X145198717Y-123431178D01*
X145200352Y-123275053D01*
X145171631Y-123121585D01*
X145168440Y-123110881D01*
X145048662Y-122719103D01*
X144988661Y-122574960D01*
X144901806Y-122445216D01*
X144791403Y-122334813D01*
X144661660Y-122247957D01*
X144517516Y-122187956D01*
X144463006Y-122176964D01*
X144463006Y-117589405D01*
X144442237Y-117403724D01*
X144385643Y-117225664D01*
X144309393Y-117083010D01*
X144174103Y-117008607D01*
X144103393Y-117079317D01*
X144103393Y-116937897D01*
X144028990Y-116802607D01*
X143863063Y-116716717D01*
X143683569Y-116664849D01*
X143497405Y-116648994D01*
X143311724Y-116669763D01*
X143133664Y-116726357D01*
X142991010Y-116802607D01*
X142916607Y-116937897D01*
X143510000Y-117531289D01*
X144103393Y-116937897D01*
X144103393Y-117079317D01*
X143580711Y-117602000D01*
X144174103Y-118195393D01*
X144309393Y-118120990D01*
X144395283Y-117955063D01*
X144447151Y-117775569D01*
X144463006Y-117589405D01*
X144463006Y-122176964D01*
X144364463Y-122157094D01*
X144308000Y-122156897D01*
X144308000Y-121220623D01*
X144308000Y-121171377D01*
X144308000Y-120508500D01*
X144308000Y-120283500D01*
X144308000Y-119620623D01*
X144308000Y-119571377D01*
X144298393Y-119523078D01*
X144279547Y-119477581D01*
X144252188Y-119436634D01*
X144217366Y-119401812D01*
X144176420Y-119374453D01*
X144130922Y-119355607D01*
X144103393Y-119350131D01*
X144103393Y-118266103D01*
X143510000Y-117672711D01*
X143439289Y-117743421D01*
X143439289Y-117602000D01*
X142845897Y-117008607D01*
X142710607Y-117083010D01*
X142624717Y-117248937D01*
X142572849Y-117428431D01*
X142556994Y-117614595D01*
X142577763Y-117800276D01*
X142634357Y-117978336D01*
X142710607Y-118120990D01*
X142845897Y-118195393D01*
X143439289Y-117602000D01*
X143439289Y-117743421D01*
X142916607Y-118266103D01*
X142991010Y-118401393D01*
X143156937Y-118487283D01*
X143336431Y-118539151D01*
X143522595Y-118555006D01*
X143708276Y-118534237D01*
X143886336Y-118477643D01*
X144028990Y-118401393D01*
X144103393Y-118266103D01*
X144103393Y-119350131D01*
X144082623Y-119346000D01*
X143670500Y-119346000D01*
X143608000Y-119408500D01*
X143608000Y-120346000D01*
X144245500Y-120346000D01*
X144308000Y-120283500D01*
X144308000Y-120508500D01*
X144245500Y-120446000D01*
X143608000Y-120446000D01*
X143608000Y-121383500D01*
X143670500Y-121446000D01*
X144082623Y-121446000D01*
X144130922Y-121436393D01*
X144176420Y-121417547D01*
X144217366Y-121390188D01*
X144252188Y-121355366D01*
X144279547Y-121314419D01*
X144298393Y-121268922D01*
X144308000Y-121220623D01*
X144308000Y-122156897D01*
X144208332Y-122156550D01*
X144055068Y-122186340D01*
X143910510Y-122245334D01*
X143780163Y-122331282D01*
X143668992Y-122440911D01*
X143581232Y-122570045D01*
X143535984Y-122676639D01*
X143508000Y-122660450D01*
X143508000Y-121383500D01*
X143508000Y-120446000D01*
X143508000Y-120346000D01*
X143508000Y-119408500D01*
X143445500Y-119346000D01*
X143033377Y-119346000D01*
X142985078Y-119355607D01*
X142939580Y-119374453D01*
X142898634Y-119401812D01*
X142863812Y-119436634D01*
X142836453Y-119477581D01*
X142817607Y-119523078D01*
X142808000Y-119571377D01*
X142808000Y-119620623D01*
X142808000Y-120283500D01*
X142870500Y-120346000D01*
X143508000Y-120346000D01*
X143508000Y-120446000D01*
X142870500Y-120446000D01*
X142808000Y-120508500D01*
X142808000Y-121171377D01*
X142808000Y-121220623D01*
X142817607Y-121268922D01*
X142836453Y-121314419D01*
X142863812Y-121355366D01*
X142898634Y-121390188D01*
X142939580Y-121417547D01*
X142985078Y-121436393D01*
X143033377Y-121446000D01*
X143445500Y-121446000D01*
X143508000Y-121383500D01*
X143508000Y-122660450D01*
X143401956Y-122599107D01*
X143253205Y-122548471D01*
X143097433Y-122527828D01*
X143008918Y-122531315D01*
X142903213Y-122610669D01*
X143162197Y-123457766D01*
X143181322Y-123451918D01*
X143210560Y-123547549D01*
X143191434Y-123553397D01*
X143197281Y-123572522D01*
X143101650Y-123601760D01*
X143095803Y-123582634D01*
X143076677Y-123588481D01*
X143047439Y-123492850D01*
X143066566Y-123487003D01*
X142807582Y-122639906D01*
X142675575Y-122633228D01*
X142600243Y-122679835D01*
X142482645Y-122784055D01*
X142421076Y-122865165D01*
X142406586Y-122843975D01*
X142352154Y-122799113D01*
X142287396Y-122771153D01*
X142217417Y-122762298D01*
X142147735Y-122773246D01*
X141095800Y-123094855D01*
X141057969Y-123109869D01*
X140999743Y-123149684D01*
X140954882Y-123204116D01*
X140926921Y-123268874D01*
X140918066Y-123338853D01*
X140929014Y-123408535D01*
X141367571Y-124842992D01*
X141382585Y-124880823D01*
X141422400Y-124939049D01*
X141460568Y-124970507D01*
X140364258Y-125337487D01*
X140364258Y-120009626D01*
X140312835Y-119749919D01*
X140211947Y-119505147D01*
X140065437Y-119284632D01*
X139878886Y-119096774D01*
X139659399Y-118948729D01*
X139415337Y-118846134D01*
X139155996Y-118792899D01*
X138891254Y-118791051D01*
X138631195Y-118840660D01*
X138385724Y-118939836D01*
X138164192Y-119084803D01*
X137975036Y-119270038D01*
X137825462Y-119488486D01*
X137721166Y-119731826D01*
X137666122Y-119990789D01*
X137662426Y-120255512D01*
X137710218Y-120515911D01*
X137807678Y-120762068D01*
X137951095Y-120984607D01*
X138135005Y-121175051D01*
X138352403Y-121326147D01*
X138595009Y-121432139D01*
X138853581Y-121488989D01*
X139118272Y-121494534D01*
X139378998Y-121448561D01*
X139625830Y-121352821D01*
X139849364Y-121210962D01*
X140041088Y-121028386D01*
X140193698Y-120812048D01*
X140301381Y-120570188D01*
X140360035Y-120312019D01*
X140364258Y-120009626D01*
X140364258Y-125337487D01*
X139644323Y-125578480D01*
X139644320Y-125578481D01*
X139116996Y-125754997D01*
X138594613Y-125821987D01*
X138069160Y-125786234D01*
X137560657Y-125649102D01*
X137125691Y-125434200D01*
X139651762Y-125434200D01*
X139651762Y-123234200D01*
X136192238Y-123234200D01*
X136192238Y-124474212D01*
X136058761Y-124244022D01*
X135888098Y-123745773D01*
X135815857Y-123211991D01*
X135814200Y-123121881D01*
X135814200Y-116156870D01*
X135828942Y-116006516D01*
X135868348Y-115875997D01*
X135932354Y-115755619D01*
X136018519Y-115649971D01*
X136123568Y-115563066D01*
X136243495Y-115498222D01*
X136373739Y-115457905D01*
X136523165Y-115442200D01*
X169499529Y-115442200D01*
X169649883Y-115456942D01*
X169780402Y-115496348D01*
X169900780Y-115560354D01*
X170006428Y-115646519D01*
X170093333Y-115751568D01*
X170158177Y-115871495D01*
X170198494Y-116001739D01*
X170214200Y-116151165D01*
X170214200Y-123109953D01*
M02*
